<svg xmlns="http://www.w3.org/2000/svg" viewBox="0 0 800 500"><rect width="800" height="500" fill="#0d1117"/><g id="stars"><circle cx="100" cy="50" r="1" fill="#fff" opacity=".8"/><circle cx="200" cy="150" r="1" fill="#fff" opacity=".6"/><circle cx="300" cy="80" r="1" fill="#fff" opacity=".7"/><circle cx="400" cy="200" r="1" fill="#fff" opacity=".9"/><circle cx="500" cy="120" r="1" fill="#fff" opacity=".7"/><circle cx="600" cy="250" r="1" fill="#fff" opacity=".8"/><circle cx="700" cy="180" r="1" fill="#fff" opacity=".6"/><circle cx="150" cy="300" r="1" fill="#fff" opacity=".7"/><circle cx="250" cy="350" r="1" fill="#fff" opacity=".9"/><circle cx="350" cy="400" r="1" fill="#fff" opacity=".6"/><circle cx="450" cy="450" r="1" fill="#fff" opacity=".8"/><circle cx="550" cy="350" r="1" fill="#fff" opacity=".7"/><circle cx="650" cy="400" r="1" fill="#fff" opacity=".9"/><circle cx="750" cy="450" r="1" fill="#fff" opacity=".6"/></g><g id="combat-scene"><g transform="translate(200, 250) rotate(-15)"><path fill="#4dabf7" stroke="#fff" stroke-width="1" d="M0,-30 L15,-10 L15,20 L0,30 L-15,20 L-15,-10 Z"/><rect width="10" height="15" x="-5" y="-40" fill="#4dabf7" stroke="#fff" stroke-width="1"/><circle cx="0" cy="0" r="10" fill="#8a2be2" stroke="#fff" stroke-width="1"/></g><g transform="translate(600, 250) rotate(195)"><path fill="#ff5252" stroke="#fff" stroke-width="1" d="M0,-25 L20,-5 L20,15 L0,25 L-20,15 L-20,-5 Z"/><rect width="14" height="12" x="-7" y="-35" fill="#ff5252" stroke="#fff" stroke-width="1"/><circle cx="0" cy="0" r="8" fill="#f44336" stroke="#fff" stroke-width="1"/></g><line x1="215" x2="580" y1="245" y2="255" stroke="#4dabf7" stroke-width="2" opacity=".8"><animate attributeName="opacity" dur="0.5s" repeatCount="indefinite" values="0.8;0.2;0.8"/></line><line x1="585" x2="220" y1="255" y2="245" stroke="#ff5252" stroke-width="2" opacity=".8"><animate attributeName="opacity" dur="0.7s" repeatCount="indefinite" values="0.8;0.2;0.8"/></line><circle cx="230" cy="240" r="10" fill="#ff9800" opacity=".7"><animate attributeName="r" dur="1s" repeatCount="indefinite" values="5;15;5"/><animate attributeName="opacity" dur="1s" repeatCount="indefinite" values="0.7;0.3;0.7"/></circle><circle cx="570" cy="260" r="8" fill="#ff9800" opacity=".7"><animate attributeName="r" dur="0.8s" repeatCount="indefinite" values="4;12;4"/><animate attributeName="opacity" dur="0.8s" repeatCount="indefinite" values="0.7;0.3;0.7"/></circle></g><rect width="250" height="400" x="50" y="50" fill="rgba(26, 31, 42, 0.8)" stroke="#8a2be2" stroke-width="2" rx="10"/><text x="175" y="80" fill="#fff" font-family="Arial" font-size="18" text-anchor="middle">COMBAT SYSTEM</text><text x="175" y="110" fill="#fff" font-family="Arial" font-size="16" text-anchor="middle">Tactical Battle</text><rect width="210" height="100" x="70" y="130" fill="rgba(26, 31, 42, 0.8)" stroke="#2d3748" stroke-width="1" rx="5"/><text x="175" y="150" fill="#fff" font-family="Arial" font-size="14" text-anchor="middle">YOUR SHIP</text><rect width="190" height="15" x="80" y="165" fill="rgba(0, 0, 0, 0.5)" rx="3"/><rect width="133" height="15" x="80" y="165" fill="#4caf50" rx="3"/><text x="175" y="177" fill="#fff" font-family="Arial" font-size="10" text-anchor="middle">HULL: 70%</text><rect width="190" height="15" x="80" y="190" fill="rgba(0, 0, 0, 0.5)" rx="3"/><rect width="95" height="15" x="80" y="190" fill="#2196f3" rx="3"/><text x="175" y="202" fill="#fff" font-family="Arial" font-size="10" text-anchor="middle">SHIELDS: 50%</text><rect width="190" height="15" x="80" y="215" fill="rgba(0, 0, 0, 0.5)" rx="3"/><rect width="152" height="15" x="80" y="215" fill="#ff9800" rx="3"/><text x="175" y="227" fill="#fff" font-family="Arial" font-size="10" text-anchor="middle">ENERGY: 80%</text><rect width="210" height="100" x="70" y="240" fill="rgba(26, 31, 42, 0.8)" stroke="#2d3748" stroke-width="1" rx="5"/><text x="175" y="260" fill="#f44336" font-family="Arial" font-size="14" text-anchor="middle">ENEMY SHIP</text><rect width="190" height="15" x="80" y="275" fill="rgba(0, 0, 0, 0.5)" rx="3"/><rect width="95" height="15" x="80" y="275" fill="#f44336" rx="3"/><text x="175" y="287" fill="#fff" font-family="Arial" font-size="10" text-anchor="middle">HULL: 50%</text><rect width="190" height="15" x="80" y="300" fill="rgba(0, 0, 0, 0.5)" rx="3"/><rect width="38" height="15" x="80" y="300" fill="#2196f3" rx="3"/><text x="175" y="312" fill="#fff" font-family="Arial" font-size="10" text-anchor="middle">SHIELDS: 20%</text><rect width="100" height="40" x="70" y="350" fill="rgba(138, 43, 226, 0.2)" stroke="#8a2be2" stroke-width="1" rx="5"/><text x="120" y="375" fill="#fff" font-family="Arial" font-size="14" text-anchor="middle">ATTACK</text><rect width="100" height="40" x="180" y="350" fill="rgba(26, 31, 42, 0.8)" stroke="#2d3748" stroke-width="1" rx="5"/><text x="230" y="375" fill="#fff" font-family="Arial" font-size="14" text-anchor="middle">DEFEND</text></svg>