<svg xmlns="http://www.w3.org/2000/svg" viewBox="0 0 800 500"><rect width="800" height="500" fill="#0d1117"/><rect width="700" height="400" x="50" y="50" fill="#1a1f2a" stroke="#8a2be2" stroke-width="2" rx="10"/><rect width="180" height="350" x="70" y="80" fill="#131822" stroke="#2d3748" stroke-width="1" rx="5"/><text x="160" y="110" fill="#fff" font-family="Arial" font-size="16" text-anchor="middle">SHIP TYPES</text><rect width="160" height="40" x="80" y="130" fill="#8a2be2" stroke="#8a2be2" stroke-width="1" opacity=".2" rx="5"/><text x="160" y="155" fill="#fff" font-family="Arial" font-size="14" text-anchor="middle">Fighter</text><rect width="160" height="40" x="80" y="180" fill="#131822" stroke="#2d3748" stroke-width="1" rx="5"/><text x="160" y="205" fill="#fff" font-family="Arial" font-size="14" text-anchor="middle">Cruiser</text><rect width="160" height="40" x="80" y="230" fill="#131822" stroke="#2d3748" stroke-width="1" rx="5"/><text x="160" y="255" fill="#fff" font-family="Arial" font-size="14" text-anchor="middle">Battleship</text><rect width="160" height="40" x="80" y="280" fill="#131822" stroke="#2d3748" stroke-width="1" rx="5"/><text x="160" y="305" fill="#fff" font-family="Arial" font-size="14" text-anchor="middle">Carrier</text><rect width="160" height="40" x="80" y="330" fill="#131822" stroke="#2d3748" stroke-width="1" rx="5"/><text x="160" y="355" fill="#fff" font-family="Arial" font-size="14" text-anchor="middle">Explorer</text><rect width="300" height="250" x="270" y="80" fill="#0a0d14" stroke="#2d3748" stroke-width="1" rx="5"/><path fill="#4dabf7" stroke="#fff" stroke-width="1" d="M420 200 L380 250 L340 230 L340 170 L380 150 L420 200 Z"/><path fill="#4dabf7" stroke="#fff" stroke-width="1" d="M420 200 L460 230 L500 250 L460 170 L420 200 Z"/><circle cx="420" cy="200" r="20" fill="#8a2be2" stroke="#fff" stroke-width="1"/><rect width="300" height="90" x="270" y="340" fill="#131822" stroke="#2d3748" stroke-width="1" rx="5"/><text x="290" y="365" fill="#fff" font-family="Arial" font-size="14">Speed: 85</text><text x="290" y="390" fill="#fff" font-family="Arial" font-size="14">Armor: 60</text><text x="290" y="415" fill="#fff" font-family="Arial" font-size="14">Weapons: 75</text><text x="450" y="365" fill="#fff" font-family="Arial" font-size="14">Shields: 70</text><text x="450" y="390" fill="#fff" font-family="Arial" font-size="14">Cargo: 40</text><text x="450" y="415" fill="#fff" font-family="Arial" font-size="14">Energy: 90</text><rect width="180" height="350" x="590" y="80" fill="#131822" stroke="#2d3748" stroke-width="1" rx="5"/><text x="680" y="110" fill="#fff" font-family="Arial" font-size="16" text-anchor="middle">COMPONENTS</text><rect width="160" height="30" x="600" y="130" fill="#8a2be2" stroke="#8a2be2" stroke-width="1" opacity=".2" rx="5"/><text x="680" y="150" fill="#fff" font-family="Arial" font-size="14" text-anchor="middle">Weapons</text><rect width="160" height="30" x="600" y="170" fill="#131822" stroke="#2d3748" stroke-width="1" rx="5"/><text x="680" y="190" fill="#fff" font-family="Arial" font-size="14" text-anchor="middle">Shields</text><rect width="160" height="30" x="600" y="210" fill="#131822" stroke="#2d3748" stroke-width="1" rx="5"/><text x="680" y="230" fill="#fff" font-family="Arial" font-size="14" text-anchor="middle">Engines</text><rect width="160" height="30" x="600" y="250" fill="#131822" stroke="#2d3748" stroke-width="1" rx="5"/><text x="680" y="270" fill="#fff" font-family="Arial" font-size="14" text-anchor="middle">Power Cores</text><rect width="160" height="30" x="600" y="290" fill="#131822" stroke="#2d3748" stroke-width="1" rx="5"/><text x="680" y="310" fill="#fff" font-family="Arial" font-size="14" text-anchor="middle">Special Systems</text><rect width="160" height="40" x="600" y="380" fill="#8a2be2" rx="20"/><text x="680" y="405" fill="#fff" font-family="Arial" font-size="16" text-anchor="middle">SAVE DESIGN</text></svg>