<svg xmlns="http://www.w3.org/2000/svg" viewBox="0 0 800 500"><rect width="800" height="500" fill="#0d1117"/><g id="stars"><circle cx="100" cy="50" r="1" fill="#fff" opacity=".8"/><circle cx="200" cy="150" r="1" fill="#fff" opacity=".6"/><circle cx="300" cy="80" r="1" fill="#fff" opacity=".7"/><circle cx="400" cy="200" r="1" fill="#fff" opacity=".9"/><circle cx="500" cy="120" r="1" fill="#fff" opacity=".7"/><circle cx="600" cy="250" r="1" fill="#fff" opacity=".8"/><circle cx="700" cy="180" r="1" fill="#fff" opacity=".6"/><circle cx="150" cy="300" r="1" fill="#fff" opacity=".7"/><circle cx="250" cy="350" r="1" fill="#fff" opacity=".9"/><circle cx="350" cy="400" r="1" fill="#fff" opacity=".6"/><circle cx="450" cy="450" r="1" fill="#fff" opacity=".8"/><circle cx="550" cy="350" r="1" fill="#fff" opacity=".7"/><circle cx="650" cy="400" r="1" fill="#fff" opacity=".9"/><circle cx="750" cy="450" r="1" fill="#fff" opacity=".6"/></g><circle cx="400" cy="250" r="200" fill="url(#planetGradient)"/><defs><radialGradient id="planetGradient" cx=".3" cy=".3" r=".7"><stop offset="0%" stop-color="#1e88e5"/><stop offset="70%" stop-color="#0d47a1"/><stop offset="100%" stop-color="#051d40"/></radialGradient></defs><g transform="translate(500, 150) rotate(30)"><rect width="120" height="20" x="-60" y="-10" fill="#455a64" stroke="#78909c" stroke-width="1"/><rect width="100" height="60" x="-50" y="-30" fill="#263238" stroke="#78909c" stroke-width="1"/><rect width="80" height="40" x="-40" y="-20" fill="#1a237e" stroke="#3949ab" stroke-width="1" opacity=".7"/><rect width="60" height="10" x="-30" y="30" fill="#455a64" stroke="#78909c" stroke-width="1"/><rect width="60" height="10" x="-30" y="-40" fill="#455a64" stroke="#78909c" stroke-width="1"/><circle cx="-20" cy="0" r="5" fill="#ff9800"/><circle cx="20" cy="0" r="5" fill="#ff9800"/></g><g><path fill="#4dabf7" stroke="#fff" stroke-width=".5" d="M0,0 L10,5 L0,10 L-10,5 Z" transform="translate(520, 180) rotate(45)"/></g><g><path fill="#ff5252" stroke="#fff" stroke-width=".5" d="M0,0 L15,7 L0,14 L-15,7 Z" transform="translate(480, 130) rotate(-15)"/></g><rect width="250" height="400" x="50" y="50" fill="rgba(26, 31, 42, 0.8)" stroke="#8a2be2" stroke-width="2" rx="10"/><text x="175" y="80" fill="#fff" font-family="Arial" font-size="18" text-anchor="middle">SPACE STATION</text><text x="175" y="110" fill="#fff" font-family="Arial" font-size="16" text-anchor="middle">Trading Hub</text><rect width="210" height="40" x="70" y="130" fill="rgba(138, 43, 226, 0.2)" stroke="#8a2be2" stroke-width="1" rx="5"/><text x="90" y="155" fill="#fff" font-family="Arial" font-size="14">Quantum Crystals</text><text x="250" y="155" fill="#4caf50" font-family="Arial" font-size="14" text-anchor="end">↑ 1250¢</text><rect width="210" height="40" x="70" y="180" fill="rgba(26, 31, 42, 0.8)" stroke="#2d3748" stroke-width="1" rx="5"/><text x="90" y="205" fill="#fff" font-family="Arial" font-size="14">Exotic Matter</text><text x="250" y="205" fill="#f44336" font-family="Arial" font-size="14" text-anchor="end">↓ 890¢</text><rect width="210" height="40" x="70" y="230" fill="rgba(26, 31, 42, 0.8)" stroke="#2d3748" stroke-width="1" rx="5"/><text x="90" y="255" fill="#fff" font-family="Arial" font-size="14">Fusion Cells</text><text x="250" y="255" fill="#fff" font-family="Arial" font-size="14" text-anchor="end">= 1500¢</text><rect width="210" height="40" x="70" y="280" fill="rgba(26, 31, 42, 0.8)" stroke="#2d3748" stroke-width="1" rx="5"/><text x="90" y="305" fill="#fff" font-family="Arial" font-size="14">Rare Minerals</text><text x="250" y="305" fill="#4caf50" font-family="Arial" font-size="14" text-anchor="end">↑ 2100¢</text><rect width="95" height="40" x="70" y="350" fill="#4caf50" rx="20"/><text x="117" y="375" fill="#fff" font-family="Arial" font-size="16" text-anchor="middle">BUY</text><rect width="95" height="40" x="185" y="350" fill="#f44336" rx="20"/><text x="232" y="375" fill="#fff" font-family="Arial" font-size="16" text-anchor="middle">SELL</text></svg>