<svg xmlns="http://www.w3.org/2000/svg" width="128" height="128" viewBox="0 0 128 128"><defs><radialGradient id="metal" cx="50%" cy="50%" r="50%"><stop offset="0%" stop-color="#e0e0e0"/><stop offset="100%" stop-color="#616161"/></radialGradient><linearGradient id="eye" x1="0" x2="1" y1="0" y2="1"><stop offset="0%" stop-color="#ff4081"/><stop offset="100%" stop-color="#8a2be2"/></linearGradient><radialGradient id="shadow" cx="50%" cy="60%" r="60%"><stop offset="0%" stop-color="#000" stop-opacity=".2"/><stop offset="100%" stop-color="#000" stop-opacity="0"/></radialGradient></defs><rect width="72" height="72" x="28" y="28" fill="url(#metal)" stroke="#616161" stroke-width="3" rx="24"/><ellipse cx="52" cy="68" fill="url(#eye)" rx="8" ry="8"/><ellipse cx="76" cy="68" fill="url(#eye)" rx="8" ry="8"/><rect width="20" height="8" x="54" y="88" fill="#333" rx="3"/><rect width="2" height="4" x="58" y="90" fill="#8a2be2"/><rect width="2" height="4" x="62" y="90" fill="#8a2be2"/><rect width="2" height="4" x="66" y="90" fill="#8a2be2"/><rect width="2" height="4" x="70" y="90" fill="#8a2be2"/><ellipse cx="64" cy="120" fill="url(#shadow)" rx="32" ry="8"/><path fill="none" stroke="#ff4081" stroke-width="2" d="M40,40 Q32,64 64,64 Q96,64 88,40" opacity=".3"/></svg>