<svg xmlns="http://www.w3.org/2000/svg" width="200" height="200" viewBox="0 0 200 200"><defs><linearGradient id="nexusOrange1" x1="0%" x2="100%" y1="0%" y2="100%"><stop offset="0%" style="stop-color:#ff5722;stop-opacity:1"/><stop offset="100%" style="stop-color:#e64a19;stop-opacity:1"/></linearGradient><linearGradient id="nexusMetal1" x1="0%" x2="100%" y1="0%" y2="100%"><stop offset="0%" style="stop-color:#eceff1;stop-opacity:1"/><stop offset="50%" style="stop-color:#cfd8dc;stop-opacity:1"/><stop offset="100%" style="stop-color:#90a4ae;stop-opacity:1"/></linearGradient><radialGradient id="aiCore1" cx="50%" cy="50%" r="50%"><stop offset="0%" style="stop-color:#ff8a65;stop-opacity:.8"/><stop offset="100%" style="stop-color:#ff5722;stop-opacity:.2"/></radialGradient><radialGradient id="quantumField" cx="50%" cy="50%" r="40%"><stop offset="0%" style="stop-color:#ffc107;stop-opacity:1"/><stop offset="100%" style="stop-color:#ff5722;stop-opacity:.3"/></radialGradient></defs><ellipse cx="100" cy="100" fill="url(#aiCore1)" rx="85" ry="80"/><path fill="url(#nexusMetal1)" stroke="#37474F" stroke-width="2" d="M100 30 Q120 45 125 70 Q130 100 125 130 Q120 155 100 170 Q80 155 75 130 Q70 100 75 70 Q80 45 100 30 Z"/><circle cx="100" cy="100" r="20" fill="url(#quantumField)"/><circle cx="100" cy="100" r="15" fill="#FF5722" opacity=".8"/><circle cx="100" cy="100" r="10" fill="#FFC107"/><circle cx="85" cy="80" r="6" fill="#37474F"/><circle cx="115" cy="80" r="6" fill="#37474F"/><circle cx="85" cy="120" r="6" fill="#37474F"/><circle cx="115" cy="120" r="6" fill="#37474F"/><circle cx="85" cy="80" r="3" fill="#FF5722"/><circle cx="115" cy="80" r="3" fill="#FF5722"/><circle cx="85" cy="120" r="3" fill="#FF5722"/><circle cx="115" cy="120" r="3" fill="#FF5722"/><ellipse cx="85" cy="155" fill="#37474F" rx="8" ry="12"/><ellipse cx="115" cy="155" fill="#37474F" rx="8" ry="12"/><ellipse cx="85" cy="165" fill="#FF6F00" opacity=".9" rx="6" ry="10"/><ellipse cx="115" cy="165" fill="#FF6F00" opacity=".9" rx="6" ry="10"/><rect width="4" height="8" x="70" y="60" fill="#FF5722" opacity=".7" rx="2"/><rect width="4" height="8" x="126" y="60" fill="#FF5722" opacity=".7" rx="2"/><rect width="4" height="8" x="70" y="132" fill="#FF5722" opacity=".7" rx="2"/><rect width="4" height="8" x="126" y="132" fill="#FF5722" opacity=".7" rx="2"/><path fill="none" stroke="#FFC107" stroke-width="2" d="M100 35 Q90 25 85 20"/><circle cx="85" cy="20" r="2" fill="#FFC107"/><path fill="none" stroke="#FFC107" stroke-width="3" d="M100 35 Q100 25 100 15"/><circle cx="100" cy="15" r="3" fill="#FFC107"/><path fill="none" stroke="#FFC107" stroke-width="2" d="M100 35 Q110 25 115 20"/><circle cx="115" cy="20" r="2" fill="#FFC107"/><circle cx="75" cy="100" r="4" fill="#37474F"/><circle cx="125" cy="100" r="4" fill="#37474F"/><circle cx="75" cy="100" r="2" fill="#FF5722"/><circle cx="125" cy="100" r="2" fill="#FF5722"/><circle cx="95" cy="85" r="2" fill="#FFC107" opacity=".8"/><circle cx="105" cy="85" r="2" fill="#FFC107" opacity=".8"/><circle cx="95" cy="115" r="2" fill="#FFC107" opacity=".8"/><circle cx="105" cy="115" r="2" fill="#FFC107" opacity=".8"/><path fill="none" stroke="#FFC107" stroke-width="1" d="M95 85 Q100 90 105 85" opacity=".6"/><path fill="none" stroke="#FFC107" stroke-width="1" d="M95 115 Q100 110 105 115" opacity=".6"/><path fill="none" stroke="#FFC107" stroke-width="1" d="M95 85 Q90 100 95 115" opacity=".6"/><path fill="none" stroke="#FFC107" stroke-width="1" d="M105 85 Q110 100 105 115" opacity=".6"/><rect width="24" height="6" x="88" y="50" fill="#90A4AE" opacity=".8" rx="3"/><rect width="24" height="6" x="88" y="144" fill="#90A4AE" opacity=".8" rx="3"/><circle cx="65" cy="85" r="3" fill="#42A5F5" opacity=".7"/><circle cx="135" cy="85" r="3" fill="#42A5F5" opacity=".7"/><circle cx="65" cy="115" r="3" fill="#42A5F5" opacity=".7"/><circle cx="135" cy="115" r="3" fill="#42A5F5" opacity=".7"/><circle cx="100" cy="100" r="5" fill="#fff" opacity=".95"/><text x="100" y="104" fill="#FF5722" font-family="Arial" font-size="8" font-weight="bold" text-anchor="middle">N</text><circle cx="100" cy="70" r="1" fill="#FFC107" opacity=".8"/><circle cx="100" cy="130" r="1" fill="#FFC107" opacity=".8"/><circle cx="75" cy="100" r="1" fill="#FFC107" opacity=".8"/><circle cx="125" cy="100" r="1" fill="#FFC107" opacity=".8"/></svg>