<svg xmlns="http://www.w3.org/2000/svg" width="200" height="200" viewBox="0 0 200 200"><defs><linearGradient id="nexusOrange2" x1="0%" x2="100%" y1="0%" y2="100%"><stop offset="0%" style="stop-color:#ff5722;stop-opacity:1"/><stop offset="100%" style="stop-color:#e64a19;stop-opacity:1"/></linearGradient><linearGradient id="nexusMetal2" x1="0%" x2="100%" y1="0%" y2="100%"><stop offset="0%" style="stop-color:#eceff1;stop-opacity:1"/><stop offset="50%" style="stop-color:#cfd8dc;stop-opacity:1"/><stop offset="100%" style="stop-color:#90a4ae;stop-opacity:1"/></linearGradient><radialGradient id="aiCore2" cx="50%" cy="50%" r="50%"><stop offset="0%" style="stop-color:#ff8a65;stop-opacity:.6"/><stop offset="100%" style="stop-color:#ff5722;stop-opacity:.1"/></radialGradient><linearGradient id="weaponSystem" x1="0%" x2="100%" y1="0%" y2="100%"><stop offset="0%" style="stop-color:#ff3d00;stop-opacity:.8"/><stop offset="100%" style="stop-color:#e64a19;stop-opacity:.8"/></linearGradient></defs><ellipse cx="100" cy="100" fill="url(#aiCore2)" rx="95" ry="90"/><path fill="url(#nexusMetal2)" stroke="#37474F" stroke-width="3" d="M100 25 L135 45 L145 80 L150 120 L145 160 L130 180 L100 185 L70 180 L55 160 L50 120 L55 80 L65 45 Z"/><rect width="60" height="12" x="70" y="50" fill="#78909C" opacity=".9" rx="2"/><rect width="60" height="12" x="70" y="70" fill="#78909C" opacity=".9" rx="2"/><rect width="60" height="12" x="70" y="120" fill="#78909C" opacity=".9" rx="2"/><rect width="60" height="12" x="70" y="140" fill="#78909C" opacity=".9" rx="2"/><rect width="30" height="30" x="85" y="85" fill="url(#nexusOrange2)" rx="5"/><circle cx="100" cy="100" r="12" fill="#FFC107"/><circle cx="100" cy="100" r="8" fill="#FF5722"/><circle cx="45" cy="60" r="8" fill="#37474F"/><circle cx="155" cy="60" r="8" fill="#37474F"/><circle cx="30" cy="90" r="10" fill="#37474F"/><circle cx="170" cy="90" r="10" fill="#37474F"/><circle cx="30" cy="110" r="10" fill="#37474F"/><circle cx="170" cy="110" r="10" fill="#37474F"/><circle cx="45" cy="140" r="8" fill="#37474F"/><circle cx="155" cy="140" r="8" fill="#37474F"/><circle cx="45" cy="60" r="5" fill="url(#weaponSystem)"/><circle cx="155" cy="60" r="5" fill="url(#weaponSystem)"/><circle cx="30" cy="90" r="7" fill="url(#weaponSystem)"/><circle cx="170" cy="90" r="7" fill="url(#weaponSystem)"/><circle cx="30" cy="110" r="7" fill="url(#weaponSystem)"/><circle cx="170" cy="110" r="7" fill="url(#weaponSystem)"/><circle cx="45" cy="140" r="5" fill="url(#weaponSystem)"/><circle cx="155" cy="140" r="5" fill="url(#weaponSystem)"/><ellipse cx="75" cy="75" fill="#42A5F5" opacity=".6" rx="8" ry="12"/><ellipse cx="125" cy="75" fill="#42A5F5" opacity=".6" rx="8" ry="12"/><ellipse cx="75" cy="125" fill="#42A5F5" opacity=".6" rx="8" ry="12"/><ellipse cx="125" cy="125" fill="#42A5F5" opacity=".6" rx="8" ry="12"/><path fill="none" stroke="#42A5F5" stroke-width="2" d="M75 75 Q100 85 125 75" opacity=".5"/><path fill="none" stroke="#42A5F5" stroke-width="2" d="M75 125 Q100 115 125 125" opacity=".5"/><path fill="none" stroke="#42A5F5" stroke-width="2" d="M75 75 Q85 100 75 125" opacity=".5"/><path fill="none" stroke="#42A5F5" stroke-width="2" d="M125 75 Q115 100 125 125" opacity=".5"/><rect width="20" height="12" x="90" y="35" fill="url(#nexusOrange2)" rx="6"/><circle cx="95" cy="41" r="2" fill="#FFC107"/><circle cx="100" cy="41" r="2" fill="#FFC107"/><circle cx="105" cy="41" r="2" fill="#FFC107"/><ellipse cx="75" cy="165" fill="#37474F" rx="12" ry="18"/><ellipse cx="125" cy="165" fill="#37474F" rx="12" ry="18"/><ellipse cx="75" cy="175" fill="#FF6F00" opacity=".9" rx="10" ry="15"/><ellipse cx="125" cy="175" fill="#FF6F00" opacity=".9" rx="10" ry="15"/><rect width="8" height="10" x="55" y="95" fill="#FF8A65" opacity=".8" rx="2"/><rect width="8" height="10" x="137" y="95" fill="#FF8A65" opacity=".8" rx="2"/><circle cx="90" cy="90" r="3" fill="#FFC107"/><circle cx="110" cy="90" r="3" fill="#FFC107"/><circle cx="90" cy="110" r="3" fill="#FFC107"/><circle cx="110" cy="110" r="3" fill="#FFC107"/><path fill="none" stroke="#FFC107" stroke-width="1" d="M90 90 Q100 95 110 90" opacity=".7"/><path fill="none" stroke="#FFC107" stroke-width="1" d="M90 110 Q100 105 110 110" opacity=".7"/><path fill="none" stroke="#FFC107" stroke-width="1" d="M90 90 Q95 100 90 110" opacity=".7"/><path fill="none" stroke="#FFC107" stroke-width="1" d="M110 90 Q105 100 110 110" opacity=".7"/><rect width="4" height="4" x="65" y="55" fill="#FF5722" opacity=".8"/><rect width="4" height="4" x="131" y="55" fill="#FF5722" opacity=".8"/><rect width="4" height="4" x="65" y="145" fill="#FF5722" opacity=".8"/><rect width="4" height="4" x="131" y="145" fill="#FF5722" opacity=".8"/><path fill="none" stroke="#FFC107" stroke-width="2" d="M100 25 Q90 15 85 10"/><circle cx="85" cy="10" r="2" fill="#FFC107"/><path fill="none" stroke="#FFC107" stroke-width="3" d="M100 25 Q100 15 100 5"/><circle cx="100" cy="5" r="3" fill="#FFC107"/><path fill="none" stroke="#FFC107" stroke-width="2" d="M100 25 Q110 15 115 10"/><circle cx="115" cy="10" r="2" fill="#FFC107"/><circle cx="100" cy="100" r="6" fill="#fff" opacity=".95"/><text x="100" y="105" fill="#FF5722" font-family="Arial" font-size="10" font-weight="bold" text-anchor="middle">⚡</text><circle cx="100" cy="60" r="1" fill="#FFC107" opacity=".8"/><circle cx="100" cy="140" r="1" fill="#FFC107" opacity=".8"/><circle cx="65" cy="100" r="1" fill="#FFC107" opacity=".8"/><circle cx="135" cy="100" r="1" fill="#FFC107" opacity=".8"/></svg>