<svg xmlns="http://www.w3.org/2000/svg" viewBox="0 0 200 200" width="200" height="200">
  <defs>
    <linearGradient id="nexusOrange3" x1="0%" y1="0%" x2="100%" y2="100%">
      <stop offset="0%" style="stop-color:#FF3D00;stop-opacity:1" />
      <stop offset="100%" style="stop-color:#FF5722;stop-opacity:1" />
    </linearGradient>
    <linearGradient id="nexusMetal3" x1="0%" y1="0%" x2="100%" y2="100%">
      <stop offset="0%" style="stop-color:#ECEFF1;stop-opacity:1" />
      <stop offset="50%" style="stop-color:#CFD8DC;stop-opacity:1" />
      <stop offset="100%" style="stop-color:#78909C;stop-opacity:1" />
    </linearGradient>
    <radialGradient id="singularityCore" cx="50%" cy="50%" r="50%">
      <stop offset="0%" style="stop-color:#FFC107;stop-opacity:1" />
      <stop offset="100%" style="stop-color:#FF3D00;stop-opacity:0.3" />
    </radialGradient>
    <radialGradient id="realityField" cx="50%" cy="50%" r="60%">
      <stop offset="0%" style="stop-color:#FF8A65;stop-opacity:0.5" />
      <stop offset="100%" style="stop-color:#FF5722;stop-opacity:0.1" />
    </radialGradient>
  </defs>
  
  <!-- Singularity Titan - Ultimate expression of technological supremacy -->
  <!-- Reality manipulation field -->
  <ellipse cx="100" cy="100" rx="98" ry="95" fill="url(#realityField)"/>
  
  <!-- Main hull - massive technological titan -->
  <path d="M100 10 L150 30 L170 70 L175 100 L170 130 L150 170 L100 190 L50 170 L30 130 L25 100 L30 70 L50 30 Z" 
        fill="url(#nexusMetal3)" stroke="#37474F" stroke-width="4"/>
  
  <!-- Advanced armor sections -->
  <ellipse cx="75" cy="50" rx="20" ry="15" fill="#607D8B" opacity="0.9"/>
  <ellipse cx="125" cy="50" rx="20" ry="15" fill="#607D8B" opacity="0.9"/>
  <ellipse cx="60" cy="80" rx="25" ry="18" fill="#607D8B" opacity="0.9"/>
  <ellipse cx="140" cy="80" rx="25" ry="18" fill="#607D8B" opacity="0.9"/>
  <ellipse cx="50" cy="120" rx="25" ry="18" fill="#607D8B" opacity="0.9"/>
  <ellipse cx="150" cy="120" rx="25" ry="18" fill="#607D8B" opacity="0.9"/>
  <ellipse cx="75" cy="150" rx="20" ry="15" fill="#607D8B" opacity="0.9"/>
  <ellipse cx="125" cy="150" rx="20" ry="15" fill="#607D8B" opacity="0.9"/>
  
  <!-- Central singularity core -->
  <circle cx="100" cy="100" r="35" fill="url(#singularityCore)"/>
  <circle cx="100" cy="100" r="25" fill="#FF3D00" opacity="0.8"/>
  <circle cx="100" cy="100" r="15" fill="#FFC107"/>
  <circle cx="100" cy="100" r="8" fill="#000000"/>
  
  <!-- Quantum field manipulation arrays -->
  <circle cx="80" cy="80" r="8" fill="#FFC107" opacity="0.9"/>
  <circle cx="120" cy="80" r="8" fill="#FFC107" opacity="0.9"/>
  <circle cx="80" cy="120" r="8" fill="#FFC107" opacity="0.9"/>
  <circle cx="120" cy="120" r="8" fill="#FFC107" opacity="0.9"/>
  
  <!-- Reality manipulation weapon systems (12 total) -->
  <circle cx="40" cy="50" r="10" fill="#37474F"/>
  <circle cx="160" cy="50" r="10" fill="#37474F"/>
  <circle cx="25" cy="70" r="12" fill="#37474F"/>
  <circle cx="175" cy="70" r="12" fill="#37474F"/>
  <circle cx="20" cy="100" r="14" fill="#37474F"/>
  <circle cx="180" cy="100" r="14" fill="#37474F"/>
  <circle cx="25" cy="130" r="12" fill="#37474F"/>
  <circle cx="175" cy="130" r="12" fill="#37474F"/>
  <circle cx="40" cy="150" r="10" fill="#37474F"/>
  <circle cx="160" cy="150" r="10" fill="#37474F"/>
  <circle cx="60" cy="40" r="8" fill="#37474F"/>
  <circle cx="140" cy="40" r="8" fill="#37474F"/>
  
  <!-- Weapon system cores -->
  <circle cx="40" cy="50" r="6" fill="url(#nexusOrange3)"/>
  <circle cx="160" cy="50" r="6" fill="url(#nexusOrange3)"/>
  <circle cx="25" cy="70" r="8" fill="url(#nexusOrange3)"/>
  <circle cx="175" cy="70" r="8" fill="url(#nexusOrange3)"/>
  <circle cx="20" cy="100" r="10" fill="url(#nexusOrange3)"/>
  <circle cx="180" cy="100" r="10" fill="url(#nexusOrange3)"/>
  <circle cx="25" cy="130" r="8" fill="url(#nexusOrange3)"/>
  <circle cx="175" cy="130" r="8" fill="url(#nexusOrange3)"/>
  <circle cx="40" cy="150" r="6" fill="url(#nexusOrange3)"/>
  <circle cx="160" cy="150" r="6" fill="url(#nexusOrange3)"/>
  <circle cx="60" cy="40" r="5" fill="url(#nexusOrange3)"/>
  <circle cx="140" cy="40" r="5" fill="url(#nexusOrange3)"/>
  
  <!-- Quantum engine systems -->
  <ellipse cx="70" cy="175" rx="15" ry="25" fill="#37474F"/>
  <ellipse cx="100" cy="180" rx="18" ry="30" fill="#37474F"/>
  <ellipse cx="130" cy="175" rx="15" ry="25" fill="#37474F"/>
  
  <!-- Reality-warping thrust -->
  <ellipse cx="70" cy="185" rx="12" ry="20" fill="#FF6F00" opacity="1"/>
  <ellipse cx="100" cy="190" rx="15" ry="25" fill="#FF6F00" opacity="1"/>
  <ellipse cx="130" cy="185" rx="12" ry="20" fill="#FF6F00" opacity="1"/>
  
  <!-- Computational supremacy arrays -->
  <ellipse cx="100" cy="25" rx="12" ry="18" fill="#FFC107"/>
  <ellipse cx="85" cy="20" rx="8" ry="12" fill="#FFC107"/>
  <ellipse cx="115" cy="20" rx="8" ry="12" fill="#FFC107"/>
  
  <!-- Artificial singularity weapon -->
  <circle cx="100" cy="60" r="10" fill="#000000"/>
  <circle cx="100" cy="60" r="7" fill="#FF3D00" opacity="0.8"/>
  <circle cx="100" cy="60" r="4" fill="#FFC107"/>
  
  <!-- Processing overdrive nodes -->
  <path d="M70 100 Q100 70 130 100 Q100 130 70 100" stroke="#FFC107" stroke-width="3" fill="none" opacity="0.8"/>
  <path d="M100 70 Q130 100 100 130 Q70 100 100 70" stroke="#FFC107" stroke-width="3" fill="none" opacity="0.8"/>
  
  <!-- Paradigm shift emitters -->
  <rect x="45" y="95" width="12" height="10" rx="2" fill="#FF8A65" opacity="0.9"/>
  <rect x="143" y="95" width="12" height="10" rx="2" fill="#FF8A65" opacity="0.9"/>
  
  <!-- Technological transcendence indicators -->
  <circle cx="100" cy="35" r="4" fill="#FFC107" opacity="0.9"/>
  <circle cx="100" cy="165" r="4" fill="#FFC107" opacity="0.9"/>
  <circle cx="55" cy="100" r="4" fill="#FFC107" opacity="0.9"/>
  <circle cx="145" cy="100" r="4" fill="#FFC107" opacity="0.9"/>
  
  <!-- Quantum coherence field -->
  <circle cx="100" cy="100" r="45" stroke="#FFC107" stroke-width="2" fill="none" opacity="0.4"/>
  <circle cx="100" cy="100" r="55" stroke="#FF8A65" stroke-width="1" fill="none" opacity="0.3"/>
  
  <!-- Reality distortion effects -->
  <path d="M30 30 Q20 20 10 10" stroke="#FF8A65" stroke-width="3" fill="none" opacity="0.6"/>
  <path d="M170 30 Q180 20 190 10" stroke="#FF8A65" stroke-width="3" fill="none" opacity="0.6"/>
  <path d="M30 170 Q20 180 10 190" stroke="#FF8A65" stroke-width="3" fill="none" opacity="0.6"/>
  <path d="M170 170 Q180 180 190 190" stroke="#FF8A65" stroke-width="3" fill="none" opacity="0.6"/>
  
  <!-- Spacetime manipulation nodes -->
  <circle cx="15" cy="15" r="3" fill="#FFC107" opacity="0.8"/>
  <circle cx="185" cy="15" r="3" fill="#FFC107" opacity="0.8"/>
  <circle cx="15" cy="185" r="3" fill="#FFC107" opacity="0.8"/>
  <circle cx="185" cy="185" r="3" fill="#FFC107" opacity="0.8"/>
  
  <!-- Nexus collective symbol - technological supremacy -->
  <circle cx="100" cy="100" r="10" fill="white" opacity="0.95"/>
  <text x="100" y="107" text-anchor="middle" font-family="Arial" font-size="16" font-weight="bold" fill="#FF3D00">∞</text>
  
  <!-- Technological supremacy emanations -->
  <circle cx="100" cy="50" r="2" fill="#FFC107" opacity="0.9"/>
  <circle cx="100" cy="150" r="2" fill="#FFC107" opacity="0.9"/>
  <circle cx="65" cy="100" r="2" fill="#FFC107" opacity="0.9"/>
  <circle cx="135" cy="100" r="2" fill="#FFC107" opacity="0.9"/>
</svg>