<svg xmlns="http://www.w3.org/2000/svg" width="200" height="200" viewBox="0 0 200 200"><defs><linearGradient id="terranBlue" x1="0%" x2="100%" y1="0%" y2="100%"><stop offset="0%" style="stop-color:#1565c0;stop-opacity:1"/><stop offset="100%" style="stop-color:#1e88e5;stop-opacity:1"/></linearGradient><linearGradient id="terranMetal" x1="0%" x2="100%" y1="0%" y2="100%"><stop offset="0%" style="stop-color:#e0e0e0;stop-opacity:1"/><stop offset="50%" style="stop-color:#bdbdbd;stop-opacity:1"/><stop offset="100%" style="stop-color:#9e9e9e;stop-opacity:1"/></linearGradient></defs><path fill="url(#terranMetal)" stroke="#424242" stroke-width="2" d="M100 40 L120 90 L115 150 L100 170 L85 150 L80 90 Z"/><ellipse cx="100" cy="70" fill="url(#terranBlue)" opacity=".8" rx="15" ry="25"/><rect width="15" height="40" x="65" y="120" fill="#424242" rx="5"/><rect width="15" height="40" x="120" y="120" fill="#424242" rx="5"/><circle cx="72.5" cy="160" r="7" fill="#FF6F00" opacity=".8"/><circle cx="127.5" cy="160" r="7" fill="#FF6F00" opacity=".8"/><circle cx="100" cy="50" r="8" fill="url(#terranBlue)" stroke="#1565C0" stroke-width="1"/><line x1="100" x2="100" y1="42" y2="30" stroke="#1565C0" stroke-width="2"/><path fill="#757575" d="M80 90 L60 100 L65 120 L80 110 Z" opacity=".7"/><path fill="#757575" d="M120 90 L140 100 L135 120 L120 110 Z" opacity=".7"/><circle cx="100" cy="100" r="10" fill="#fff" opacity=".9"/><text x="100" y="105" fill="#1565C0" font-family="Arial" font-size="14" font-weight="bold" text-anchor="middle">TF</text></svg>