<svg xmlns="http://www.w3.org/2000/svg" width="200" height="200" viewBox="0 0 200 200"><defs><linearGradient id="terranBlue3" x1="0%" x2="100%" y1="0%" y2="100%"><stop offset="0%" style="stop-color:#0d47a1;stop-opacity:1"/><stop offset="100%" style="stop-color:#1976d2;stop-opacity:1"/></linearGradient><linearGradient id="terranMetal3" x1="0%" x2="100%" y1="0%" y2="100%"><stop offset="0%" style="stop-color:#cfd8dc;stop-opacity:1"/><stop offset="50%" style="stop-color:#b0bec5;stop-opacity:1"/><stop offset="100%" style="stop-color:#78909c;stop-opacity:1"/></linearGradient><radialGradient id="terranPower" cx="50%" cy="50%" r="50%"><stop offset="0%" style="stop-color:#64b5f6;stop-opacity:.8"/><stop offset="100%" style="stop-color:#1976d2;stop-opacity:.2"/></radialGradient></defs><ellipse cx="100" cy="100" fill="url(#terranPower)" rx="95" ry="90"/><path fill="url(#terranMetal3)" stroke="#37474F" stroke-width="4" d="M100 10 L140 30 L145 80 L150 120 L145 160 L130 185 L100 195 L70 185 L55 160 L50 120 L55 80 L60 30 Z"/><rect width="70" height="20" x="65" y="40" fill="#607D8B" opacity=".9"/><rect width="70" height="20" x="65" y="65" fill="#607D8B" opacity=".9"/><rect width="70" height="20" x="65" y="90" fill="#607D8B" opacity=".9"/><rect width="70" height="20" x="65" y="115" fill="#607D8B" opacity=".9"/><rect width="70" height="20" x="65" y="140" fill="#607D8B" opacity=".9"/><rect width="40" height="25" x="80" y="20" fill="url(#terranBlue3)" rx="8"/><rect width="20" height="10" x="90" y="15" fill="#1976D2"/><rect width="16" height="35" x="92" y="160" fill="#263238"/><ellipse cx="100" cy="195" fill="#37474F" rx="12" ry="8"/><circle cx="45" cy="60" r="10" fill="#37474F"/><rect width="10" height="15" x="40" y="50" fill="#455A64"/><circle cx="155" cy="60" r="10" fill="#37474F"/><rect width="10" height="15" x="150" y="50" fill="#455A64"/><circle cx="45" cy="100" r="10" fill="#37474F"/><rect width="10" height="15" x="40" y="90" fill="#455A64"/><circle cx="155" cy="100" r="10" fill="#37474F"/><rect width="10" height="15" x="150" y="90" fill="#455A64"/><circle cx="45" cy="140" r="10" fill="#37474F"/><rect width="10" height="15" x="40" y="130" fill="#455A64"/><circle cx="155" cy="140" r="10" fill="#37474F"/><rect width="10" height="15" x="150" y="130" fill="#455A64"/><rect width="25" height="25" x="60" y="165" fill="#263238" rx="5"/><rect width="25" height="25" x="115" y="165" fill="#263238" rx="5"/><ellipse cx="72.5" cy="190" fill="#FF5722" opacity="1" rx="12" ry="10"/><ellipse cx="127.5" cy="190" fill="#FF5722" opacity="1" rx="12" ry="10"/><circle cx="55" cy="180" r="5" fill="#FF8A65" opacity=".8"/><circle cx="145" cy="180" r="5" fill="#FF8A65" opacity=".8"/><circle cx="100" cy="100" r="20" fill="#fff" opacity=".95"/><text x="100" y="107" fill="#0D47A1" font-family="Arial" font-size="24" font-weight="bold" text-anchor="middle">TF</text><line x1="70" x2="50" y1="15" y2="5" stroke="#1976D2" stroke-width="2"/><circle cx="50" cy="5" r="3" fill="#64B5F6"/><line x1="130" x2="150" y1="15" y2="5" stroke="#1976D2" stroke-width="2"/><circle cx="150" cy="5" r="3" fill="#64B5F6"/><line x1="100" x2="100" y1="10" y2="0" stroke="#1976D2" stroke-width="3"/><circle cx="100" cy="0" r="4" fill="#64B5F6"/></svg>