<svg xmlns="http://www.w3.org/2000/svg" width="200" height="200" viewBox="0 0 200 200"><defs><linearGradient id="terranBlue2" x1="0%" x2="100%" y1="0%" y2="100%"><stop offset="0%" style="stop-color:#1565c0;stop-opacity:1"/><stop offset="100%" style="stop-color:#1e88e5;stop-opacity:1"/></linearGradient><linearGradient id="terranMetal2" x1="0%" x2="100%" y1="0%" y2="100%"><stop offset="0%" style="stop-color:#e0e0e0;stop-opacity:1"/><stop offset="50%" style="stop-color:#bdbdbd;stop-opacity:1"/><stop offset="100%" style="stop-color:#9e9e9e;stop-opacity:1"/></linearGradient><radialGradient id="terranShield" cx="50%" cy="50%" r="50%"><stop offset="0%" style="stop-color:#42a5f5;stop-opacity:.3"/><stop offset="100%" style="stop-color:#1e88e5;stop-opacity:.1"/></radialGradient></defs><ellipse cx="100" cy="100" fill="url(#terranShield)" rx="90" ry="85"/><path fill="url(#terranMetal2)" stroke="#424242" stroke-width="3" d="M100 20 L130 50 L135 140 L125 170 L100 180 L75 170 L65 140 L70 50 Z"/><rect width="50" height="15" x="75" y="60" fill="#757575" opacity=".8"/><rect width="50" height="15" x="75" y="80" fill="#757575" opacity=".8"/><rect width="50" height="15" x="75" y="100" fill="#757575" opacity=".8"/><rect width="30" height="20" x="85" y="40" fill="url(#terranBlue2)" rx="5"/><circle cx="60" cy="70" r="8" fill="#424242"/><rect width="8" height="12" x="56" y="62" fill="#616161"/><circle cx="140" cy="70" r="8" fill="#424242"/><rect width="8" height="12" x="136" y="62" fill="#616161"/><circle cx="60" cy="110" r="8" fill="#424242"/><rect width="8" height="12" x="56" y="102" fill="#616161"/><circle cx="140" cy="110" r="8" fill="#424242"/><rect width="8" height="12" x="136" y="102" fill="#616161"/><rect width="20" height="30" x="70" y="140" fill="#424242" rx="5"/><rect width="20" height="30" x="110" y="140" fill="#424242" rx="5"/><ellipse cx="80" cy="170" fill="#FF6F00" opacity=".9" rx="10" ry="15"/><ellipse cx="120" cy="170" fill="#FF6F00" opacity=".9" rx="10" ry="15"/><circle cx="100" cy="90" r="15" fill="#fff" opacity=".9"/><text x="100" y="96" fill="#1565C0" font-family="Arial" font-size="18" font-weight="bold" text-anchor="middle">TF</text><line x1="100" x2="100" y1="20" y2="10" stroke="#1565C0" stroke-width="3"/><circle cx="100" cy="10" r="3" fill="#1E88E5"/></svg>