<svg xmlns="http://www.w3.org/2000/svg" width="200" height="200" viewBox="0 0 200 200"><defs><linearGradient id="zythianPurple2" x1="0%" x2="100%" y1="0%" y2="100%"><stop offset="0%" style="stop-color:#8e24aa;stop-opacity:1"/><stop offset="100%" style="stop-color:#7b1fa2;stop-opacity:1"/></linearGradient><linearGradient id="organicShell2" x1="0%" x2="100%" y1="0%" y2="100%"><stop offset="0%" style="stop-color:#e1bee7;stop-opacity:1"/><stop offset="50%" style="stop-color:#ce93d8;stop-opacity:1"/><stop offset="100%" style="stop-color:#ba68c8;stop-opacity:1"/></linearGradient><radialGradient id="bioEnergy2" cx="50%" cy="50%" r="50%"><stop offset="0%" style="stop-color:#ab47bc;stop-opacity:.6"/><stop offset="100%" style="stop-color:#8e24aa;stop-opacity:.1"/></radialGradient><linearGradient id="spawningChamber" x1="0%" x2="100%" y1="0%" y2="100%"><stop offset="0%" style="stop-color:#9c27b0;stop-opacity:.8"/><stop offset="100%" style="stop-color:#7b1fa2;stop-opacity:.8"/></linearGradient></defs><ellipse cx="100" cy="100" fill="url(#bioEnergy2)" rx="95" ry="90"/><path fill="url(#organicShell2)" stroke="#4A148C" stroke-width="3" d="M100 20 L140 40 L150 80 L155 120 L150 160 L130 185 L100 190 L70 185 L50 160 L45 120 L50 80 L60 40 Z"/><ellipse cx="70" cy="70" fill="url(#spawningChamber)" rx="15" ry="20"/><ellipse cx="130" cy="70" fill="url(#spawningChamber)" rx="15" ry="20"/><ellipse cx="70" cy="110" fill="url(#spawningChamber)" rx="15" ry="20"/><ellipse cx="130" cy="110" fill="url(#spawningChamber)" rx="15" ry="20"/><ellipse cx="70" cy="150" fill="url(#spawningChamber)" rx="15" ry="20"/><ellipse cx="130" cy="150" fill="url(#spawningChamber)" rx="15" ry="20"/><circle cx="70" cy="70" r="8" fill="#4A148C" opacity=".7"/><circle cx="130" cy="70" r="8" fill="#4A148C" opacity=".7"/><circle cx="70" cy="110" r="8" fill="#4A148C" opacity=".7"/><circle cx="130" cy="110" r="8" fill="#4A148C" opacity=".7"/><circle cx="70" cy="150" r="8" fill="#4A148C" opacity=".7"/><circle cx="130" cy="150" r="8" fill="#4A148C" opacity=".7"/><ellipse cx="100" cy="100" fill="#7B1FA2" opacity=".8" rx="25" ry="40"/><ellipse cx="100" cy="100" fill="#8E24AA" opacity=".6" rx="20" ry="35"/><ellipse cx="100" cy="100" fill="#9C27B0" opacity=".8" rx="15" ry="25"/><path fill="none" stroke="#AB47BC" stroke-width="4" d="M85 100 Q70 90 55 80"/><path fill="none" stroke="#AB47BC" stroke-width="4" d="M115 100 Q130 90 145 80"/><path fill="none" stroke="#AB47BC" stroke-width="4" d="M85 90 Q70 100 55 110"/><path fill="none" stroke="#AB47BC" stroke-width="4" d="M115 90 Q130 100 145 110"/><path fill="none" stroke="#AB47BC" stroke-width="4" d="M85 110 Q70 120 55 140"/><path fill="none" stroke="#AB47BC" stroke-width="4" d="M115 110 Q130 120 145 140"/><circle cx="40" cy="75" r="4" fill="#E1BEE7"/><circle cx="42" cy="73" r="2" fill="#8E24AA"/><circle cx="160" cy="75" r="4" fill="#E1BEE7"/><circle cx="158" cy="73" r="2" fill="#8E24AA"/><circle cx="40" cy="105" r="4" fill="#E1BEE7"/><circle cx="42" cy="103" r="2" fill="#8E24AA"/><circle cx="160" cy="105" r="4" fill="#E1BEE7"/><circle cx="158" cy="103" r="2" fill="#8E24AA"/><rect width="30" height="15" x="85" y="30" fill="url(#zythianPurple2)" rx="7"/><circle cx="90" cy="37.5" r="3" fill="#E1BEE7"/><circle cx="100" cy="37.5" r="3" fill="#E1BEE7"/><circle cx="110" cy="37.5" r="3" fill="#E1BEE7"/><ellipse cx="75" cy="170" fill="#7B1FA2" rx="10" ry="18"/><ellipse cx="100" cy="175" fill="#7B1FA2" rx="12" ry="20"/><ellipse cx="125" cy="170" fill="#7B1FA2" rx="10" ry="18"/><ellipse cx="75" cy="185" fill="#AB47BC" opacity=".6" rx="8" ry="15"/><ellipse cx="100" cy="190" fill="#AB47BC" opacity=".6" rx="10" ry="18"/><ellipse cx="125" cy="185" fill="#AB47BC" opacity=".6" rx="8" ry="15"/><circle cx="50" cy="60" r="6" fill="#4A148C"/><circle cx="150" cy="60" r="6" fill="#4A148C"/><rect width="80" height="8" x="60" y="50" fill="#BA68C8" opacity=".7" rx="4"/><rect width="80" height="8" x="60" y="65" fill="#BA68C8" opacity=".7" rx="4"/><rect width="80" height="8" x="60" y="127" fill="#BA68C8" opacity=".7" rx="4"/><rect width="80" height="8" x="60" y="142" fill="#BA68C8" opacity=".7" rx="4"/><path fill="none" stroke="#E1BEE7" stroke-width="2" d="M100 80 Q85 85 70 80"/><path fill="none" stroke="#E1BEE7" stroke-width="2" d="M100 80 Q115 85 130 80"/><path fill="none" stroke="#E1BEE7" stroke-width="2" d="M100 120 Q85 115 70 120"/><path fill="none" stroke="#E1BEE7" stroke-width="2" d="M100 120 Q115 115 130 120"/><circle cx="60" cy="45" r="5" fill="#8E24AA"/><circle cx="140" cy="45" r="5" fill="#8E24AA"/><circle cx="58" cy="43" r="2" fill="#E1BEE7"/><circle cx="142" cy="43" r="2" fill="#E1BEE7"/><circle cx="100" cy="100" r="8" fill="#fff" opacity=".9"/><text x="100" y="106" fill="#4A148C" font-family="Arial" font-size="12" font-weight="bold" text-anchor="middle">♀</text><circle cx="100" cy="65" r="2" fill="#E1BEE7" opacity=".8"/><circle cx="100" cy="135" r="2" fill="#E1BEE7" opacity=".8"/><circle cx="75" cy="100" r="2" fill="#E1BEE7" opacity=".8"/><circle cx="125" cy="100" r="2" fill="#E1BEE7" opacity=".8"/></svg>