<svg width="1000" height="1000" viewBox="0 0 1000 1000" xmlns="http://www.w3.org/2000/svg">
      <rect width="1000" height="1000" fill="#050510"/>
      <circle cx="604" cy="626" r="0.7726549069479298" fill="white" opacity="0.7320735886153596"/><circle cx="287" cy="360" r="1.02289432286694" fill="white" opacity="0.9402775238424372"/><circle cx="369" cy="127" r="1.5136627586048501" fill="white" opacity="0.8279726987626199"/><circle cx="780" cy="725" r="1.5144643816197216" fill="white" opacity="0.8254670167813456"/><circle cx="243" cy="882" r="1.1697241437518848" fill="white" opacity="0.6028172748316714"/><circle cx="159" cy="664" r="1.4915731137845356" fill="white" opacity="0.8590054283931219"/><circle cx="61" cy="938" r="0.5208027098973005" fill="white" opacity="0.7154583838829642"/><circle cx="664" cy="856" r="0.7570880498096191" fill="white" opacity="0.3467430243739937"/><circle cx="228" cy="867" r="1.3007382345960972" fill="white" opacity="0.7440542871953627"/><circle cx="766" cy="169" r="0.21667939351131843" fill="white" opacity="0.8490002890085109"/><circle cx="685" cy="805" r="0.2785410569230627" fill="white" opacity="0.36898863277250765"/><circle cx="53" cy="858" r="0.38765109097309086" fill="white" opacity="0.8430258831526027"/><circle cx="36" cy="570" r="0.6708885779271123" fill="white" opacity="0.9468106303403856"/><circle cx="794" cy="25" r="1.694202708505593" fill="white" opacity="0.8808688668135194"/><circle cx="680" cy="265" r="1.4257286126645117" fill="white" opacity="0.49542543590273946"/><circle cx="115" cy="92" r="0.6597678661421451" fill="white" opacity="0.5104227969720991"/><circle cx="709" cy="15" r="1.133975069571687" fill="white" opacity="0.7291496755086473"/><circle cx="524" cy="14" r="1.4135581896091323" fill="white" opacity="0.7114854154425159"/><circle cx="197" cy="623" r="0.800998245891072" fill="white" opacity="0.8014144556842246"/><circle cx="688" cy="212" r="0.4836033186927354" fill="white" opacity="0.9330510278743152"/><circle cx="715" cy="248" r="0.9709500271830298" fill="white" opacity="0.38735310410955603"/><circle cx="976" cy="334" r="0.3162672762096374" fill="white" opacity="0.9265725549510073"/><circle cx="26" cy="202" r="0.7155274366242761" fill="white" opacity="0.8524622173268006"/><circle cx="191" cy="339" r="0.9917939804995926" fill="white" opacity="0.7955875607094417"/><circle cx="197" cy="437" r="1.3576045031385104" fill="white" opacity="0.7115823706125219"/><circle cx="428" cy="566" r="0.9126907442335954" fill="white" opacity="0.40224464636874624"/><circle cx="340" cy="576" r="1.4599780696955442" fill="white" opacity="0.7079942194502318"/><circle cx="72" cy="3" r="0.7036750936010825" fill="white" opacity="0.3777694941476687"/><circle cx="941" cy="893" r="0.5422937130953707" fill="white" opacity="0.8866744783763993"/><circle cx="852" cy="969" r="1.0909131994697288" fill="white" opacity="0.433336773059503"/><circle cx="733" cy="386" r="1.4034374627310917" fill="white" opacity="0.711369413534369"/><circle cx="603" cy="480" r="1.3140185664399606" fill="white" opacity="0.40787362082713646"/><circle cx="928" cy="266" r="0.8260482840668402" fill="white" opacity="0.45574038747886536"/><circle cx="164" cy="871" r="1.5318378486373552" fill="white" opacity="0.8504635298754153"/><circle cx="368" cy="578" r="1.606189050885035" fill="white" opacity="0.793158384321507"/><circle cx="568" cy="545" r="0.3403873654065411" fill="white" opacity="0.4070660963270299"/><circle cx="668" cy="880" r="0.6180723520097684" fill="white" opacity="0.7163412416264745"/><circle cx="750" cy="209" r="0.57044145912191" fill="white" opacity="0.43852605263463346"/><circle cx="74" cy="992" r="0.980702425335277" fill="white" opacity="0.41865703101833635"/><circle cx="125" cy="594" r="0.6132179012950059" fill="white" opacity="0.7468210153423936"/><circle cx="874" cy="108" r="1.644914435916326" fill="white" opacity="0.9152014180941215"/><circle cx="888" cy="104" r="0.6571184608965555" fill="white" opacity="0.3314112975600135"/><circle cx="847" cy="250" r="1.6070708291467575" fill="white" opacity="0.7886542089994577"/><circle cx="254" cy="813" r="1.063334240251357" fill="white" opacity="0.9763690939954721"/><circle cx="749" cy="423" r="1.5643433866465488" fill="white" opacity="0.8868166118351544"/><circle cx="429" cy="688" r="1.0189170962713148" fill="white" opacity="0.7953135359736514"/><circle cx="287" cy="673" r="0.29446864611920426" fill="white" opacity="0.9686969041259397"/><circle cx="898" cy="919" r="0.9804646252898781" fill="white" opacity="0.3985514287241497"/><circle cx="204" cy="645" r="1.0902915167394416" fill="white" opacity="0.9983577564690764"/><circle cx="587" cy="58" r="0.748286396811011" fill="white" opacity="0.7212420166640742"/><circle cx="858" cy="414" r="0.4899740641580333" fill="white" opacity="0.4129782572182209"/><circle cx="537" cy="806" r="0.5662745012628163" fill="white" opacity="0.5663766381708527"/><circle cx="242" cy="750" r="1.3487955259696525" fill="white" opacity="0.8902647470516569"/><circle cx="657" cy="614" r="0.4012643976884496" fill="white" opacity="0.5438178216600076"/><circle cx="521" cy="210" r="0.9013375367967307" fill="white" opacity="0.4770438561100491"/><circle cx="256" cy="33" r="0.37020320803118395" fill="white" opacity="0.5899710474872233"/><circle cx="860" cy="135" r="1.0217134086081257" fill="white" opacity="0.4515843773924225"/><circle cx="824" cy="930" r="1.1782636062026315" fill="white" opacity="0.7066509011853439"/><circle cx="54" cy="790" r="1.3857368448660454" fill="white" opacity="0.4050395494686629"/><circle cx="879" cy="910" r="0.7341576921007231" fill="white" opacity="0.8920346131151446"/><circle cx="224" cy="738" r="0.27672593597367895" fill="white" opacity="0.6505235595998857"/><circle cx="412" cy="731" r="0.9615298016953235" fill="white" opacity="0.944258471915199"/><circle cx="174" cy="653" r="0.3941357254569124" fill="white" opacity="0.43829210923044537"/><circle cx="506" cy="219" r="0.7467321681798829" fill="white" opacity="0.4599801613650888"/><circle cx="921" cy="745" r="0.7101053728749684" fill="white" opacity="0.5903775168089556"/><circle cx="568" cy="86" r="1.3586056222337328" fill="white" opacity="0.36783214287042215"/><circle cx="989" cy="441" r="0.9884169296406744" fill="white" opacity="0.33613750762496014"/><circle cx="997" cy="965" r="0.58077627716869" fill="white" opacity="0.4828259432865536"/><circle cx="779" cy="362" r="0.20912283746822619" fill="white" opacity="0.8920856077428723"/><circle cx="774" cy="461" r="0.6041221658743607" fill="white" opacity="0.3599155195875302"/><circle cx="396" cy="544" r="1.6460881526031297" fill="white" opacity="0.440037860225968"/><circle cx="207" cy="683" r="0.9450673987710088" fill="white" opacity="0.826658838476134"/><circle cx="470" cy="218" r="0.9403201212342465" fill="white" opacity="0.9942667833599954"/><circle cx="734" cy="699" r="0.5103310884588337" fill="white" opacity="0.4708855637699951"/><circle cx="914" cy="926" r="1.1381125545081863" fill="white" opacity="0.8519361571683344"/><circle cx="817" cy="229" r="0.7016045111338023" fill="white" opacity="0.3896935842613053"/><circle cx="958" cy="710" r="0.2590277834706383" fill="white" opacity="0.31894533705032135"/><circle cx="395" cy="266" r="1.2126668609541382" fill="white" opacity="0.7146741685508233"/><circle cx="926" cy="926" r="0.40979311590342576" fill="white" opacity="0.9237527748223999"/><circle cx="425" cy="34" r="0.7873104333961793" fill="white" opacity="0.5193303902299019"/><circle cx="646" cy="369" r="1.488746916348327" fill="white" opacity="0.6955428552457388"/><circle cx="514" cy="915" r="0.4020939520367572" fill="white" opacity="0.9065024566618072"/><circle cx="294" cy="602" r="0.3896373526394939" fill="white" opacity="0.9636209367719646"/><circle cx="575" cy="202" r="0.868883530427299" fill="white" opacity="0.5627952447774457"/><circle cx="17" cy="884" r="1.4409360183456934" fill="white" opacity="0.9585671221411096"/><circle cx="485" cy="433" r="1.5662781089278066" fill="white" opacity="0.37353753207314916"/><circle cx="697" cy="491" r="1.6020795451323109" fill="white" opacity="0.815249875552102"/><circle cx="116" cy="702" r="0.6603264114218086" fill="white" opacity="0.6776566298818519"/><circle cx="718" cy="141" r="1.6612773805830192" fill="white" opacity="0.625158949991017"/><circle cx="137" cy="476" r="0.3802273274513633" fill="white" opacity="0.9892600684735406"/><circle cx="878" cy="812" r="1.3154305161744093" fill="white" opacity="0.5783227987345299"/><circle cx="673" cy="366" r="1.1944653532946023" fill="white" opacity="0.565465153181586"/><circle cx="616" cy="251" r="1.3067850080234755" fill="white" opacity="0.7062457307599856"/><circle cx="771" cy="442" r="1.3208152258489625" fill="white" opacity="0.8468694956666905"/><circle cx="31" cy="275" r="1.0130061261320817" fill="white" opacity="0.8889923780332769"/><circle cx="307" cy="88" r="0.7804914054132983" fill="white" opacity="0.5567123305745656"/><circle cx="729" cy="431" r="1.3021331681172514" fill="white" opacity="0.7466743125069555"/><circle cx="35" cy="440" r="0.9278590838799783" fill="white" opacity="0.7887327933640821"/><circle cx="922" cy="638" r="1.248651455251322" fill="white" opacity="0.520246968024016"/><circle cx="594" cy="509" r="1.5851252724503373" fill="white" opacity="0.926300511400316"/><circle cx="613" cy="389" r="0.920778678020453" fill="white" opacity="0.8532528013902565"/><circle cx="197" cy="24" r="0.20676778737306672" fill="white" opacity="0.7753784259262659"/><circle cx="183" cy="384" r="0.6605858936497917" fill="white" opacity="0.913571936993254"/><circle cx="476" cy="679" r="0.32565340203312737" fill="white" opacity="0.4587121196866594"/><circle cx="28" cy="538" r="1.265073591144264" fill="white" opacity="0.937343511940453"/><circle cx="652" cy="49" r="0.5596342662649585" fill="white" opacity="0.8800526532624737"/><circle cx="118" cy="859" r="1.472604842283346" fill="white" opacity="0.9098133440794265"/><circle cx="13" cy="288" r="0.41120919538645334" fill="white" opacity="0.3839416284310344"/><circle cx="583" cy="691" r="0.5807628857805469" fill="white" opacity="0.3637920893263874"/><circle cx="617" cy="916" r="1.1216765606716947" fill="white" opacity="0.43049575585148225"/><circle cx="587" cy="947" r="0.7694846545936329" fill="white" opacity="0.7983235004483161"/><circle cx="206" cy="503" r="1.434408629147635" fill="white" opacity="0.7664470053345079"/><circle cx="537" cy="619" r="1.1095643546085" fill="white" opacity="0.76641969429855"/><circle cx="211" cy="259" r="0.8734109566700781" fill="white" opacity="0.8864485778163336"/><circle cx="503" cy="454" r="0.3073169533051246" fill="white" opacity="0.5013633525813131"/><circle cx="992" cy="846" r="1.1515021179282918" fill="white" opacity="0.9154816777684427"/><circle cx="276" cy="708" r="0.2043324740150016" fill="white" opacity="0.7005199442471761"/><circle cx="603" cy="744" r="1.342073136865454" fill="white" opacity="0.40014776504755645"/><circle cx="335" cy="916" r="1.3051495102963624" fill="white" opacity="0.32091864625098554"/><circle cx="997" cy="737" r="1.1104411328960646" fill="white" opacity="0.8130641969349164"/><circle cx="830" cy="707" r="1.2062135082410868" fill="white" opacity="0.934293136786329"/><circle cx="159" cy="218" r="1.6770586885605259" fill="white" opacity="0.7230041173390609"/><circle cx="30" cy="164" r="0.9120042436280171" fill="white" opacity="0.6344229715295107"/><circle cx="275" cy="73" r="0.9454020088384534" fill="white" opacity="0.3653509180087784"/><circle cx="805" cy="372" r="0.4556929701576909" fill="white" opacity="0.3231960822306919"/><circle cx="69" cy="777" r="1.1797425459111361" fill="white" opacity="0.9852393656387324"/><circle cx="191" cy="239" r="1.1439445752838606" fill="white" opacity="0.5702254767844019"/><circle cx="874" cy="418" r="0.8315997609030825" fill="white" opacity="0.7509003101244478"/><circle cx="829" cy="583" r="1.1356694584940705" fill="white" opacity="0.899139115100547"/><circle cx="289" cy="849" r="0.7707515381711758" fill="white" opacity="0.6125104729142683"/><circle cx="705" cy="569" r="0.30078100029021776" fill="white" opacity="0.5418279520451496"/><circle cx="756" cy="122" r="0.5049741237690337" fill="white" opacity="0.9025893897955015"/><circle cx="516" cy="161" r="1.0225459093554292" fill="white" opacity="0.5376377781206682"/><circle cx="602" cy="712" r="1.5582731120087168" fill="white" opacity="0.5903689817487768"/><circle cx="486" cy="813" r="0.8617393844288483" fill="white" opacity="0.7087590393174199"/><circle cx="290" cy="161" r="0.6715942503215724" fill="white" opacity="0.4443529621270192"/><circle cx="948" cy="188" r="0.41865312547322914" fill="white" opacity="0.406358175405585"/><circle cx="922" cy="45" r="1.1280004160159987" fill="white" opacity="0.5154010295080229"/><circle cx="101" cy="66" r="1.5784465568419983" fill="white" opacity="0.8360593521919839"/><circle cx="688" cy="153" r="0.7269966379176218" fill="white" opacity="0.8840489707060539"/><circle cx="738" cy="883" r="1.1240774680988523" fill="white" opacity="0.8933575936221458"/><circle cx="588" cy="192" r="1.3704207735014238" fill="white" opacity="0.36109776672164706"/><circle cx="74" cy="223" r="1.2707703136320456" fill="white" opacity="0.8401097659702998"/><circle cx="381" cy="242" r="0.47599187617671984" fill="white" opacity="0.8154902427919"/><circle cx="312" cy="326" r="0.9884495744546158" fill="white" opacity="0.5074150126112678"/><circle cx="7" cy="828" r="1.5314823891486118" fill="white" opacity="0.46903925295839227"/><circle cx="25" cy="163" r="0.44655223281378703" fill="white" opacity="0.75310388264446"/><circle cx="460" cy="601" r="0.5361622998273758" fill="white" opacity="0.797430534625706"/><circle cx="706" cy="705" r="0.6496748984736616" fill="white" opacity="0.968624452873939"/><circle cx="423" cy="286" r="0.44401021886933983" fill="white" opacity="0.4031166183629375"/><circle cx="966" cy="131" r="1.6065241483698756" fill="white" opacity="0.8080082399012729"/><circle cx="582" cy="152" r="1.3040626873138448" fill="white" opacity="0.3924990072412361"/><circle cx="590" cy="740" r="1.5618599345176847" fill="white" opacity="0.39199062802450724"/><circle cx="270" cy="171" r="0.3667860951278186" fill="white" opacity="0.38185535860367803"/><circle cx="921" cy="848" r="1.6703826514333107" fill="white" opacity="0.6309782324338818"/><circle cx="374" cy="739" r="0.4182185851638725" fill="white" opacity="0.7073390167107318"/><circle cx="539" cy="995" r="0.9888499999925713" fill="white" opacity="0.9435357215514806"/><circle cx="69" cy="86" r="0.5953431729299101" fill="white" opacity="0.6775683773719492"/><circle cx="107" cy="84" r="0.2697674791549867" fill="white" opacity="0.7162079176412504"/><circle cx="296" cy="467" r="1.549185261413518" fill="white" opacity="0.48658511457232345"/><circle cx="384" cy="17" r="0.3937964458673731" fill="white" opacity="0.3780424426092011"/><circle cx="149" cy="557" r="0.7691647150701577" fill="white" opacity="0.7792233559157846"/><circle cx="338" cy="511" r="1.130259339649959" fill="white" opacity="0.6360945918011676"/><circle cx="369" cy="631" r="0.6299793328588728" fill="white" opacity="0.30458804813078866"/><circle cx="72" cy="97" r="1.3623475785848502" fill="white" opacity="0.38640407659099024"/><circle cx="594" cy="903" r="1.1108597443566306" fill="white" opacity="0.3385915413758577"/><circle cx="83" cy="196" r="0.668892955558219" fill="white" opacity="0.9820536284722927"/><circle cx="935" cy="660" r="0.7332496371257007" fill="white" opacity="0.575729323960283"/><circle cx="40" cy="202" r="1.6012129613020039" fill="white" opacity="0.5466464601884196"/><circle cx="402" cy="717" r="1.4671762168308147" fill="white" opacity="0.8067489012991356"/><circle cx="390" cy="349" r="1.2863222805063808" fill="white" opacity="0.8350298639910512"/><circle cx="568" cy="597" r="1.2840073864154897" fill="white" opacity="0.6237823891137066"/><circle cx="279" cy="935" r="0.443353516906743" fill="white" opacity="0.9518013133004595"/><circle cx="777" cy="32" r="1.4707637703805794" fill="white" opacity="0.4536226674358567"/><circle cx="689" cy="677" r="0.8439367719045436" fill="white" opacity="0.9939524850507946"/><circle cx="655" cy="484" r="0.23957507549960272" fill="white" opacity="0.4089597170911866"/><circle cx="582" cy="574" r="0.5269391408254998" fill="white" opacity="0.845496579722774"/><circle cx="270" cy="853" r="1.1847632439774718" fill="white" opacity="0.7328567799994918"/><circle cx="110" cy="193" r="1.574494036478326" fill="white" opacity="0.7240199896912624"/><circle cx="440" cy="580" r="1.6470900429639956" fill="white" opacity="0.3319340097614341"/><circle cx="927" cy="32" r="0.912848117077858" fill="white" opacity="0.8445450663676595"/><circle cx="124" cy="152" r="1.3976764122291334" fill="white" opacity="0.7427410487919708"/><circle cx="42" cy="337" r="0.6136263314746382" fill="white" opacity="0.39829690929486533"/><circle cx="187" cy="889" r="0.25792835704347" fill="white" opacity="0.612441029046016"/><circle cx="571" cy="125" r="0.6329856007041563" fill="white" opacity="0.6586417129051871"/><circle cx="881" cy="433" r="0.38064687883804155" fill="white" opacity="0.6517784068490522"/><circle cx="196" cy="639" r="1.3299256654246208" fill="white" opacity="0.7718253694325055"/><circle cx="353" cy="516" r="0.476550401967651" fill="white" opacity="0.9502745024544481"/><circle cx="685" cy="675" r="0.2328204091058534" fill="white" opacity="0.9524527897155872"/><circle cx="289" cy="64" r="1.0199149641266467" fill="white" opacity="0.9298451474220608"/><circle cx="845" cy="261" r="0.6496322577405835" fill="white" opacity="0.5865344620484627"/><circle cx="662" cy="578" r="0.3973630386852894" fill="white" opacity="0.39096416317711674"/><circle cx="65" cy="731" r="1.0926012877279263" fill="white" opacity="0.34689678399648716"/><circle cx="921" cy="475" r="0.44709988594543365" fill="white" opacity="0.9280722615927244"/><circle cx="247" cy="315" r="1.525968364393078" fill="white" opacity="0.3910784845011368"/><circle cx="896" cy="873" r="1.126806505498125" fill="white" opacity="0.372051328527398"/><circle cx="901" cy="685" r="1.5964182119703332" fill="white" opacity="0.6446437565012675"/><circle cx="680" cy="103" r="1.1545254270309422" fill="white" opacity="0.4795354820770192"/><circle cx="834" cy="401" r="0.35035849803111757" fill="white" opacity="0.7052718690619928"/><circle cx="44" cy="720" r="1.4766253503144915" fill="white" opacity="0.7456625502537414"/><circle cx="413" cy="537" r="0.6228051289284591" fill="white" opacity="0.37389453624037994"/><circle cx="728" cy="366" r="0.3102838441363626" fill="white" opacity="0.7950825910766874"/><circle cx="597" cy="67" r="1.2232282554064808" fill="white" opacity="0.3101805347061783"/><circle cx="720" cy="531" r="0.8185253288880108" fill="white" opacity="0.3038629788078015"/><circle cx="790" cy="872" r="1.1852343330903887" fill="white" opacity="0.9474077254929534"/><circle cx="646" cy="266" r="1.1817734855639548" fill="white" opacity="0.9968440628511994"/><circle cx="905" cy="410" r="0.3682357618313597" fill="white" opacity="0.3277034460210438"/><circle cx="829" cy="154" r="1.5963186947777863" fill="white" opacity="0.6621470823830398"/><circle cx="530" cy="473" r="0.9102960700740435" fill="white" opacity="0.6068582781450182"/><circle cx="849" cy="602" r="0.29353279462493603" fill="white" opacity="0.8847996205439372"/><circle cx="684" cy="997" r="0.7929055586994878" fill="white" opacity="0.9287363945331795"/><circle cx="428" cy="913" r="0.4329732130170216" fill="white" opacity="0.581813581293041"/><circle cx="107" cy="700" r="1.3637810643383699" fill="white" opacity="0.3540886377731544"/><circle cx="15" cy="368" r="1.5512069101148176" fill="white" opacity="0.49596284606096513"/><circle cx="434" cy="126" r="0.566553802989904" fill="white" opacity="0.6371592851726464"/><circle cx="62" cy="892" r="0.5808741644684958" fill="white" opacity="0.652792799445828"/><circle cx="950" cy="28" r="0.5518634049988076" fill="white" opacity="0.3694776527740974"/><circle cx="426" cy="269" r="1.3600326758585302" fill="white" opacity="0.6468544005702602"/><circle cx="471" cy="769" r="0.7970298380535548" fill="white" opacity="0.49689643826908264"/><circle cx="455" cy="598" r="1.6334032714252427" fill="white" opacity="0.7267692758636004"/><circle cx="481" cy="62" r="0.5606060658681531" fill="white" opacity="0.6415488975992205"/><circle cx="263" cy="601" r="1.2139632443013502" fill="white" opacity="0.6639422162440294"/><circle cx="784" cy="57" r="1.2468684057501107" fill="white" opacity="0.5178212364122768"/><circle cx="519" cy="740" r="0.4930325939752735" fill="white" opacity="0.741751363996772"/><circle cx="270" cy="960" r="1.4087109377961609" fill="white" opacity="0.8649974072614295"/><circle cx="880" cy="28" r="1.2794423882071626" fill="white" opacity="0.5122883991562306"/><circle cx="158" cy="613" r="1.5450350724672688" fill="white" opacity="0.3050230183180692"/><circle cx="575" cy="612" r="0.42036889167079544" fill="white" opacity="0.8087290179130042"/><circle cx="740" cy="832" r="0.9099515918415697" fill="white" opacity="0.8245088403442167"/><circle cx="787" cy="7" r="1.5015751995593547" fill="white" opacity="0.5574686354673819"/><circle cx="907" cy="977" r="1.3684935984937778" fill="white" opacity="0.3174863173921586"/><circle cx="237" cy="446" r="0.2062428079097703" fill="white" opacity="0.6360368998679574"/><circle cx="603" cy="741" r="1.3042707454160214" fill="white" opacity="0.5982408400972783"/><circle cx="10" cy="268" r="0.5717406642670246" fill="white" opacity="0.3213066029841702"/><circle cx="546" cy="430" r="1.1819197521225593" fill="white" opacity="0.7739523857793758"/><circle cx="499" cy="551" r="1.534100199030067" fill="white" opacity="0.5026193857009583"/><circle cx="122" cy="988" r="1.275197338310296" fill="white" opacity="0.9976933471095413"/><circle cx="440" cy="58" r="0.8654067150138547" fill="white" opacity="0.6892374586625671"/><circle cx="392" cy="837" r="1.1663246434000887" fill="white" opacity="0.7672066082131006"/><circle cx="825" cy="194" r="1.4585141428035986" fill="white" opacity="0.3966400429317344"/><circle cx="561" cy="854" r="1.1359673485743762" fill="white" opacity="0.8731228120555674"/><circle cx="464" cy="251" r="1.2946761157873077" fill="white" opacity="0.6265792832477802"/><circle cx="510" cy="810" r="0.5308398352463242" fill="white" opacity="0.7090744816565467"/><circle cx="486" cy="831" r="0.3299179334616204" fill="white" opacity="0.644327285636201"/><circle cx="521" cy="493" r="0.8911268631020444" fill="white" opacity="0.9450568095733036"/><circle cx="975" cy="928" r="0.7788095229114462" fill="white" opacity="0.34242549558148205"/><circle cx="335" cy="352" r="0.24653257699772263" fill="white" opacity="0.7659952255673187"/><circle cx="653" cy="678" r="1.6365780947361601" fill="white" opacity="0.8862946736414181"/><circle cx="366" cy="864" r="1.5723821787980297" fill="white" opacity="0.48655170384249374"/><circle cx="508" cy="178" r="1.3908080685365534" fill="white" opacity="0.36790066903101953"/><circle cx="757" cy="219" r="0.8223757703959127" fill="white" opacity="0.8579855361112689"/><circle cx="698" cy="379" r="0.4191033896450295" fill="white" opacity="0.5965481054846731"/><circle cx="359" cy="390" r="0.5546583080425311" fill="white" opacity="0.5388998296583288"/><circle cx="593" cy="319" r="1.6762127830607478" fill="white" opacity="0.7369253213813871"/><circle cx="814" cy="227" r="1.5451049438461455" fill="white" opacity="0.5577432579010652"/><circle cx="334" cy="720" r="0.20120465637388402" fill="white" opacity="0.5024725036143771"/><circle cx="319" cy="97" r="0.398145760573904" fill="white" opacity="0.918423271048155"/><circle cx="869" cy="37" r="1.5482862458780533" fill="white" opacity="0.6100306790226921"/><circle cx="826" cy="732" r="1.580785557047637" fill="white" opacity="0.5753543667231632"/><circle cx="285" cy="679" r="1.1505686659019643" fill="white" opacity="0.639439215289359"/><circle cx="386" cy="878" r="1.3767545269021635" fill="white" opacity="0.3354608537075005"/><circle cx="373" cy="670" r="1.2588896725403291" fill="white" opacity="0.8030092313015731"/><circle cx="800" cy="149" r="1.3182596675584861" fill="white" opacity="0.34493540207000234"/><circle cx="392" cy="374" r="0.33451925125621734" fill="white" opacity="0.36294164146943136"/><circle cx="131" cy="249" r="1.5521975825972776" fill="white" opacity="0.5132303126896295"/><circle cx="422" cy="178" r="1.0026418898725489" fill="white" opacity="0.4564195188835433"/><circle cx="968" cy="941" r="0.5285783374313122" fill="white" opacity="0.8499671107663345"/><circle cx="282" cy="181" r="0.9221738905174102" fill="white" opacity="0.6065061096229747"/><circle cx="956" cy="600" r="1.6581014964213734" fill="white" opacity="0.9843195348722573"/><circle cx="200" cy="660" r="0.86311679805538" fill="white" opacity="0.32497694155764006"/><circle cx="557" cy="346" r="0.7545289278848277" fill="white" opacity="0.4139186776667336"/><circle cx="664" cy="80" r="0.5124307774775667" fill="white" opacity="0.5963854804541782"/><circle cx="303" cy="261" r="1.1764459711316704" fill="white" opacity="0.7297184025882422"/><circle cx="131" cy="479" r="1.626016209863755" fill="white" opacity="0.5590804324948093"/><circle cx="418" cy="963" r="1.4867007744801715" fill="white" opacity="0.7577597711894515"/><circle cx="647" cy="743" r="0.9275557049882044" fill="white" opacity="0.3656702992081263"/><circle cx="172" cy="314" r="1.5874594386783694" fill="white" opacity="0.8662813563595688"/><circle cx="737" cy="755" r="1.6999042468782555" fill="white" opacity="0.9738302409011761"/><circle cx="267" cy="992" r="0.7597448166686911" fill="white" opacity="0.6184926730362682"/><circle cx="982" cy="707" r="1.1826376279160777" fill="white" opacity="0.5163174815422966"/><circle cx="43" cy="835" r="1.4324780910021682" fill="white" opacity="0.6557730395205943"/><circle cx="837" cy="731" r="1.5101708943997436" fill="white" opacity="0.561676903077185"/><circle cx="409" cy="584" r="1.2618771223664007" fill="white" opacity="0.4755662994802713"/><circle cx="857" cy="3" r="0.32540074683849424" fill="white" opacity="0.9899239945189986"/><circle cx="918" cy="91" r="0.3131318095139784" fill="white" opacity="0.8442554275417706"/><circle cx="627" cy="10" r="1.2019788805294125" fill="white" opacity="0.5888925224607159"/><circle cx="536" cy="406" r="0.5432077458521765" fill="white" opacity="0.6850231496362355"/><circle cx="916" cy="511" r="0.6835375957998486" fill="white" opacity="0.9015588321241088"/><circle cx="184" cy="269" r="0.3720439427801337" fill="white" opacity="0.880714021670201"/><circle cx="837" cy="13" r="1.3602746381646642" fill="white" opacity="0.3128977215394513"/><circle cx="530" cy="906" r="1.0880547227081714" fill="white" opacity="0.6791596276619596"/><circle cx="630" cy="846" r="0.3379001315426073" fill="white" opacity="0.8009267244856377"/><circle cx="383" cy="86" r="1.6785755036629924" fill="white" opacity="0.47929821846393683"/><circle cx="155" cy="550" r="0.9950071412899069" fill="white" opacity="0.37147076667955464"/><circle cx="927" cy="335" r="0.6053354244633073" fill="white" opacity="0.8766483582349869"/><circle cx="45" cy="636" r="0.8429050749553748" fill="white" opacity="0.6433939325589544"/><circle cx="195" cy="995" r="1.4190175256546365" fill="white" opacity="0.6840491467760643"/><circle cx="894" cy="51" r="1.4445695235924432" fill="white" opacity="0.3875429727280413"/><circle cx="313" cy="28" r="1.285824000420267" fill="white" opacity="0.3880657354449018"/><circle cx="186" cy="569" r="0.36820537491627653" fill="white" opacity="0.8542621250708449"/><circle cx="345" cy="40" r="0.6319547603537818" fill="white" opacity="0.9380244215832281"/><circle cx="24" cy="272" r="1.5852217828058854" fill="white" opacity="0.6109536994273166"/><circle cx="923" cy="570" r="1.5535484551633645" fill="white" opacity="0.837835381743206"/><circle cx="15" cy="218" r="0.906867092796094" fill="white" opacity="0.4536190422274068"/><circle cx="237" cy="326" r="1.2219421543084525" fill="white" opacity="0.5653097783476819"/><circle cx="476" cy="729" r="0.8815889566782644" fill="white" opacity="0.5709415047755249"/><circle cx="353" cy="669" r="1.3913491301749956" fill="white" opacity="0.7234525306452266"/><circle cx="323" cy="347" r="0.9702584628109121" fill="white" opacity="0.7738511711433006"/><circle cx="915" cy="438" r="0.5072314288926669" fill="white" opacity="0.31759863869441557"/><circle cx="260" cy="101" r="1.506878718889254" fill="white" opacity="0.9624717884115128"/><circle cx="517" cy="379" r="0.43194147796980026" fill="white" opacity="0.6103241267984174"/><circle cx="845" cy="677" r="1.0020606020308511" fill="white" opacity="0.4385317999074139"/><circle cx="40" cy="172" r="0.7313498056645686" fill="white" opacity="0.427363257639238"/><circle cx="742" cy="107" r="0.6438907380747376" fill="white" opacity="0.9629347018209811"/><circle cx="891" cy="800" r="1.5490910187546814" fill="white" opacity="0.4973690355387"/><circle cx="883" cy="471" r="0.8313778654040866" fill="white" opacity="0.8576334110676376"/><circle cx="7" cy="921" r="1.3557367177617803" fill="white" opacity="0.3192754047248596"/><circle cx="710" cy="852" r="0.7769707061580347" fill="white" opacity="0.41710811873123627"/><circle cx="227" cy="691" r="0.4312821767724763" fill="white" opacity="0.5239724805997074"/><circle cx="154" cy="437" r="0.8775156678048353" fill="white" opacity="0.8131211112848022"/><circle cx="834" cy="654" r="0.6091175582949642" fill="white" opacity="0.9174749981793104"/><circle cx="814" cy="391" r="1.5994258081374868" fill="white" opacity="0.4118274621010305"/><circle cx="54" cy="585" r="1.0520494764741875" fill="white" opacity="0.7980833039504494"/><circle cx="139" cy="394" r="1.4020803472350787" fill="white" opacity="0.8405041455726179"/><circle cx="786" cy="476" r="1.6274731135217455" fill="white" opacity="0.628749592403574"/><circle cx="112" cy="141" r="1.5940897286570819" fill="white" opacity="0.9960543336019902"/><circle cx="28" cy="14" r="1.329766601301378" fill="white" opacity="0.5051143851428774"/><circle cx="459" cy="754" r="1.6593903368250833" fill="white" opacity="0.7843565910763646"/><circle cx="776" cy="531" r="0.9218005436986116" fill="white" opacity="0.3893216227084974"/><circle cx="65" cy="859" r="0.9812896290918482" fill="white" opacity="0.7431537493884985"/><circle cx="983" cy="780" r="1.1636491409768652" fill="white" opacity="0.9000543481499623"/><circle cx="784" cy="462" r="0.8642152330600841" fill="white" opacity="0.3088529242939993"/><circle cx="489" cy="890" r="1.6647873170089473" fill="white" opacity="0.8727740235775836"/><circle cx="348" cy="239" r="0.4433801241180176" fill="white" opacity="0.6710139635437816"/><circle cx="919" cy="813" r="0.8070363573126753" fill="white" opacity="0.38587476747143057"/><circle cx="100" cy="567" r="0.7735075910025426" fill="white" opacity="0.5635521407151693"/><circle cx="672" cy="291" r="1.133335687490092" fill="white" opacity="0.9124220642577203"/><circle cx="10" cy="698" r="1.2212859723042089" fill="white" opacity="0.4301030445832493"/><circle cx="775" cy="217" r="0.9957465878557865" fill="white" opacity="0.5790472610205417"/><circle cx="996" cy="259" r="1.688452958476362" fill="white" opacity="0.904415651076854"/><circle cx="742" cy="686" r="0.6422158638240067" fill="white" opacity="0.6136850489722656"/><circle cx="0" cy="695" r="0.8705375465090877" fill="white" opacity="0.34330337856510623"/><circle cx="468" cy="470" r="1.1303938660335704" fill="white" opacity="0.43619786375823144"/><circle cx="453" cy="972" r="0.24535196026494005" fill="white" opacity="0.7382790875314214"/><circle cx="658" cy="582" r="0.742042680785638" fill="white" opacity="0.6998998702570198"/><circle cx="657" cy="182" r="1.6473039705471881" fill="white" opacity="0.8992750654189268"/><circle cx="890" cy="642" r="1.396600236661467" fill="white" opacity="0.638168460658959"/><circle cx="454" cy="998" r="0.41791833937801154" fill="white" opacity="0.3047158836412464"/><circle cx="947" cy="580" r="1.372939064608596" fill="white" opacity="0.875499867297417"/><circle cx="413" cy="301" r="1.3589254522045062" fill="white" opacity="0.7541233096073519"/><circle cx="16" cy="57" r="0.28544749326609814" fill="white" opacity="0.3075915464934618"/><circle cx="648" cy="982" r="0.8251508983443128" fill="white" opacity="0.8436317966154898"/><circle cx="827" cy="128" r="0.9610244957279648" fill="white" opacity="0.6054200249522974"/><circle cx="30" cy="711" r="0.7419292321802313" fill="white" opacity="0.35064301255977903"/><circle cx="227" cy="729" r="0.6712483553818174" fill="white" opacity="0.6478982818045492"/><circle cx="695" cy="157" r="1.5769453359100212" fill="white" opacity="0.40287125495338977"/><circle cx="512" cy="379" r="0.6507680564545633" fill="white" opacity="0.9863916143513454"/><circle cx="196" cy="854" r="0.7629108311875699" fill="white" opacity="0.3787821477925892"/><circle cx="593" cy="677" r="0.5241953947419025" fill="white" opacity="0.43319519359389647"/><circle cx="501" cy="597" r="1.030873354692865" fill="white" opacity="0.8108175726032758"/><circle cx="26" cy="856" r="1.0635917854970747" fill="white" opacity="0.6137632084048494"/><circle cx="331" cy="390" r="0.9976733588455402" fill="white" opacity="0.34217452108803675"/><circle cx="159" cy="758" r="1.431652537974655" fill="white" opacity="0.6410058375324579"/><circle cx="157" cy="896" r="0.4751488483058616" fill="white" opacity="0.7200143965165593"/><circle cx="758" cy="275" r="1.6760241804592702" fill="white" opacity="0.6157355148707817"/><circle cx="979" cy="918" r="1.672304031469332" fill="white" opacity="0.9303296774445984"/><circle cx="605" cy="728" r="1.2573876944055178" fill="white" opacity="0.9010992747028517"/><circle cx="703" cy="777" r="0.3164192041715875" fill="white" opacity="0.6095620457358097"/><circle cx="580" cy="218" r="0.8574460552689092" fill="white" opacity="0.35736657708540165"/><circle cx="172" cy="344" r="0.8588748125944812" fill="white" opacity="0.3916511328819367"/><circle cx="199" cy="130" r="0.6628579667740442" fill="white" opacity="0.5192521183182119"/><circle cx="593" cy="361" r="0.7118574936706605" fill="white" opacity="0.32556558930534546"/><circle cx="300" cy="874" r="1.585667531712876" fill="white" opacity="0.9809667532367281"/><circle cx="105" cy="745" r="0.29938401722260083" fill="white" opacity="0.6398131699023877"/><circle cx="315" cy="124" r="0.5789566270769562" fill="white" opacity="0.7007181004019574"/><circle cx="606" cy="450" r="1.3284565019567418" fill="white" opacity="0.9953559770568796"/><circle cx="435" cy="384" r="0.3333453249015363" fill="white" opacity="0.9964721772290543"/><circle cx="455" cy="152" r="0.9021063232427278" fill="white" opacity="0.6618746738149563"/><circle cx="380" cy="765" r="0.20261419459587143" fill="white" opacity="0.3927058838325038"/><circle cx="914" cy="995" r="0.6534916907702961" fill="white" opacity="0.6651256976465576"/><circle cx="393" cy="739" r="1.0378461611224026" fill="white" opacity="0.9928196627869845"/><circle cx="489" cy="629" r="1.609132690278632" fill="white" opacity="0.8106577091295257"/><circle cx="814" cy="691" r="0.5478986661774512" fill="white" opacity="0.8894168915960512"/><circle cx="774" cy="474" r="1.5944526298056314" fill="white" opacity="0.8148454084303438"/><circle cx="331" cy="512" r="0.9674074174056737" fill="white" opacity="0.38118102273008175"/><circle cx="784" cy="131" r="0.9540140890771436" fill="white" opacity="0.374577618796207"/><circle cx="311" cy="489" r="0.9299305150736419" fill="white" opacity="0.31245914876839215"/><circle cx="440" cy="867" r="0.5362564909148169" fill="white" opacity="0.5292659871677974"/><circle cx="330" cy="821" r="1.507937625320415" fill="white" opacity="0.7347088460316549"/><circle cx="76" cy="182" r="0.6993329777846284" fill="white" opacity="0.39057812074111753"/><circle cx="146" cy="32" r="0.33365898715229897" fill="white" opacity="0.8980125828630605"/><circle cx="958" cy="919" r="0.44186609096026624" fill="white" opacity="0.6023444260637352"/><circle cx="933" cy="925" r="1.1035696257876275" fill="white" opacity="0.34343002217827073"/><circle cx="27" cy="21" r="0.60306257173254" fill="white" opacity="0.5359023529877469"/><circle cx="852" cy="347" r="0.843477845517322" fill="white" opacity="0.5831720621828246"/><circle cx="462" cy="748" r="1.3514328215861273" fill="white" opacity="0.5764586904197125"/><circle cx="864" cy="850" r="1.242025811781837" fill="white" opacity="0.8629043761222066"/><circle cx="122" cy="261" r="1.1722426480833457" fill="white" opacity="0.9051561426439398"/><circle cx="949" cy="277" r="1.3685664863259557" fill="white" opacity="0.548179566570787"/><circle cx="81" cy="671" r="0.7876957519026098" fill="white" opacity="0.8380788244044866"/><circle cx="231" cy="96" r="1.3136768966939043" fill="white" opacity="0.9127185694038"/><circle cx="412" cy="52" r="1.0258970217842573" fill="white" opacity="0.8946572471745118"/><circle cx="767" cy="681" r="1.5972171279032117" fill="white" opacity="0.43609202019767057"/><circle cx="385" cy="701" r="0.3871772065114811" fill="white" opacity="0.3547509794778345"/><circle cx="597" cy="657" r="0.7304013647008969" fill="white" opacity="0.7277776840798148"/><circle cx="871" cy="836" r="1.2699857024529757" fill="white" opacity="0.7776967482439057"/><circle cx="470" cy="32" r="0.41846276524669596" fill="white" opacity="0.8369393513273407"/><circle cx="7" cy="967" r="0.9414095165148815" fill="white" opacity="0.9100168270620339"/><circle cx="525" cy="303" r="0.9658905304896503" fill="white" opacity="0.587396401634827"/><circle cx="886" cy="537" r="0.9208839182318973" fill="white" opacity="0.32300035783305686"/><circle cx="469" cy="962" r="0.45660293932882273" fill="white" opacity="0.9817971585711003"/><circle cx="341" cy="671" r="0.2510036267026006" fill="white" opacity="0.7356451707672058"/><circle cx="983" cy="332" r="0.6495535881044947" fill="white" opacity="0.7384598622606617"/><circle cx="681" cy="548" r="0.6323076167891928" fill="white" opacity="0.3182334582039942"/><circle cx="613" cy="782" r="1.4950392730437174" fill="white" opacity="0.6050377292804556"/><circle cx="169" cy="446" r="0.671152014009476" fill="white" opacity="0.579776952988762"/><circle cx="260" cy="538" r="0.5885093096929122" fill="white" opacity="0.7262192273272348"/><circle cx="134" cy="917" r="1.582506752867188" fill="white" opacity="0.4404217049671953"/><circle cx="986" cy="423" r="1.5088801463513837" fill="white" opacity="0.3155355452680351"/><circle cx="753" cy="301" r="0.3988549837871634" fill="white" opacity="0.873810591329923"/><circle cx="821" cy="564" r="1.6452898570497434" fill="white" opacity="0.7823632461845345"/><circle cx="784" cy="552" r="1.3105140988535273" fill="white" opacity="0.8769990114273003"/><circle cx="89" cy="736" r="1.1588621917755029" fill="white" opacity="0.8934348754528929"/><circle cx="891" cy="7" r="1.394658788725105" fill="white" opacity="0.4733778799672834"/><circle cx="54" cy="953" r="0.8804041065357924" fill="white" opacity="0.4690631769825556"/><circle cx="654" cy="499" r="0.4550798569221632" fill="white" opacity="0.800806596508794"/><circle cx="232" cy="581" r="0.4814067524761602" fill="white" opacity="0.7315512843529581"/><circle cx="833" cy="98" r="0.2306288218642682" fill="white" opacity="0.8067449631679957"/><circle cx="809" cy="288" r="0.5621721980710148" fill="white" opacity="0.8629153142625032"/><circle cx="696" cy="205" r="1.152567781533985" fill="white" opacity="0.5061845309004624"/><circle cx="812" cy="589" r="0.9955889471324235" fill="white" opacity="0.7009268593565703"/><circle cx="358" cy="227" r="0.6833167558134741" fill="white" opacity="0.8912445643495328"/><circle cx="328" cy="874" r="0.5562237706663427" fill="white" opacity="0.693251526084428"/><circle cx="305" cy="658" r="1.3898581701515555" fill="white" opacity="0.7002552341328327"/><circle cx="575" cy="291" r="1.5674593906644663" fill="white" opacity="0.3699458372218101"/><circle cx="977" cy="845" r="0.5846783737647947" fill="white" opacity="0.6942509325906913"/><circle cx="861" cy="415" r="0.4235582886342523" fill="white" opacity="0.4382835801501413"/><circle cx="264" cy="9" r="1.5597856752917652" fill="white" opacity="0.38300515028332793"/><circle cx="563" cy="584" r="0.5021240613125937" fill="white" opacity="0.9526611564903293"/><circle cx="992" cy="433" r="0.878112844448653" fill="white" opacity="0.46762225479901093"/><circle cx="382" cy="105" r="1.3119213302363228" fill="white" opacity="0.35172195349270374"/><circle cx="601" cy="523" r="0.953000964916006" fill="white" opacity="0.3725524887219938"/><circle cx="82" cy="718" r="0.8681013970061822" fill="white" opacity="0.8064235974859071"/><circle cx="81" cy="219" r="0.929840215608756" fill="white" opacity="0.846411247131482"/><circle cx="959" cy="382" r="0.7550012217097961" fill="white" opacity="0.7376638574286714"/><circle cx="428" cy="765" r="1.194213879191092" fill="white" opacity="0.7811287321176803"/><circle cx="240" cy="873" r="1.421664523687968" fill="white" opacity="0.9291384743820106"/><circle cx="376" cy="57" r="1.2041235278632085" fill="white" opacity="0.527730676504654"/><circle cx="218" cy="902" r="0.8350579982689446" fill="white" opacity="0.5569960220824492"/><circle cx="398" cy="933" r="1.4451485444709071" fill="white" opacity="0.7133014886170705"/><circle cx="882" cy="848" r="0.42280343526679315" fill="white" opacity="0.9009339094059694"/><circle cx="798" cy="337" r="0.4431001723703812" fill="white" opacity="0.5208486117020504"/><circle cx="290" cy="744" r="0.36902617927490894" fill="white" opacity="0.30948641787076864"/><circle cx="566" cy="682" r="0.7690834591384921" fill="white" opacity="0.4340623970979077"/><circle cx="266" cy="39" r="1.4878491734968278" fill="white" opacity="0.38430131199618073"/><circle cx="187" cy="101" r="0.649182462931982" fill="white" opacity="0.7417343230320455"/><circle cx="883" cy="352" r="1.2008194578427738" fill="white" opacity="0.4130827659720081"/><circle cx="519" cy="951" r="1.0562063384095925" fill="white" opacity="0.9809628149787861"/><circle cx="947" cy="247" r="0.5796962891345905" fill="white" opacity="0.45911906847061906"/><circle cx="12" cy="766" r="1.500192792094285" fill="white" opacity="0.842579246954722"/><circle cx="948" cy="41" r="1.2728123144801724" fill="white" opacity="0.5782544364422192"/><circle cx="554" cy="133" r="1.1902159621887647" fill="white" opacity="0.39002614800598584"/><circle cx="906" cy="108" r="1.2673130643017931" fill="white" opacity="0.9975154073977446"/><circle cx="726" cy="735" r="1.5516400254940124" fill="white" opacity="0.6964246097671227"/><circle cx="778" cy="643" r="0.24527110893178256" fill="white" opacity="0.702369956039546"/><circle cx="322" cy="707" r="0.5990142892718731" fill="white" opacity="0.6371899221539886"/><circle cx="970" cy="172" r="1.1882072485383037" fill="white" opacity="0.36383336829354523"/><circle cx="412" cy="924" r="0.5659288999940879" fill="white" opacity="0.9361524295440864"/><circle cx="141" cy="415" r="1.455681084615603" fill="white" opacity="0.3043175003813463"/><circle cx="300" cy="818" r="0.2262537475222866" fill="white" opacity="0.7015561931358822"/><circle cx="480" cy="175" r="1.3399099678392996" fill="white" opacity="0.9156557013666629"/><circle cx="698" cy="853" r="0.8372638975169178" fill="white" opacity="0.6506216941836753"/><circle cx="731" cy="587" r="1.3598132685781195" fill="white" opacity="0.882754453193423"/><circle cx="773" cy="94" r="0.7709258443879661" fill="white" opacity="0.6640916931948331"/><circle cx="954" cy="443" r="0.5573061328238638" fill="white" opacity="0.671744722605596"/><circle cx="231" cy="63" r="1.582806197185435" fill="white" opacity="0.907431888898627"/><circle cx="24" cy="656" r="0.968779428736485" fill="white" opacity="0.3424978971659589"/><circle cx="382" cy="927" r="1.4008910033157338" fill="white" opacity="0.5709999659602965"/><circle cx="219" cy="873" r="1.5037395878558113" fill="white" opacity="0.3282580770454418"/><circle cx="764" cy="234" r="0.6306699087089835" fill="white" opacity="0.6308232460963467"/><circle cx="485" cy="76" r="0.43566751739252657" fill="white" opacity="0.6544048677733372"/><circle cx="668" cy="110" r="1.3148610774286194" fill="white" opacity="0.6689935208580547"/><circle cx="837" cy="961" r="1.2437701175723201" fill="white" opacity="0.39109282220385044"/><circle cx="203" cy="64" r="0.36524610904662863" fill="white" opacity="0.9056214063008827"/><circle cx="281" cy="981" r="1.570519284211599" fill="white" opacity="0.5791138195047362"/><circle cx="814" cy="412" r="0.36278641812992646" fill="white" opacity="0.4690216682009514"/><circle cx="75" cy="836" r="1.155097687299981" fill="white" opacity="0.5788170511973391"/><circle cx="670" cy="102" r="0.9215365394860113" fill="white" opacity="0.7841906391384462"/><circle cx="443" cy="877" r="1.2775546102620374" fill="white" opacity="0.8266924280163184"/><circle cx="356" cy="189" r="0.6668410076380158" fill="white" opacity="0.8139338062045804"/><circle cx="11" cy="697" r="1.260948673097815" fill="white" opacity="0.3836774907685766"/><circle cx="352" cy="45" r="0.25238199521096155" fill="white" opacity="0.9276401079994696"/><circle cx="689" cy="761" r="0.4427305029473709" fill="white" opacity="0.7522703904915555"/><circle cx="597" cy="687" r="0.49367488982698143" fill="white" opacity="0.8614376092614635"/><circle cx="94" cy="290" r="0.5733975461257996" fill="white" opacity="0.943554167079812"/><circle cx="170" cy="148" r="1.6614325103220573" fill="white" opacity="0.8461032955969661"/><circle cx="850" cy="847" r="1.09446513676141" fill="white" opacity="0.8279536311074138"/><circle cx="473" cy="60" r="1.2010536657732411" fill="white" opacity="0.9306170088967445"/><circle cx="681" cy="887" r="1.3701198594770874" fill="white" opacity="0.8430954477919965"/><circle cx="790" cy="106" r="0.23991732180138853" fill="white" opacity="0.8124018855665709"/>
      <circle cx="342" cy="356" r="137.63915209810955" fill="#4a4aff" opacity="0.04503560323349399"/><circle cx="613" cy="657" r="148.85769823137986" fill="#4a4aff" opacity="0.058750812858794355"/><circle cx="116" cy="621" r="86.7325647260686" fill="#4a4aff" opacity="0.045571324019129514"/><circle cx="915" cy="215" r="56.309566512729134" fill="#4a4aff" opacity="0.061779297276485554"/><circle cx="159" cy="408" r="126.82394407735545" fill="#4a4aff" opacity="0.04106556761767333"/><circle cx="471" cy="822" r="149.0091006878385" fill="#4a4aff" opacity="0.03751184143018918"/><circle cx="649" cy="182" r="128.06694875551545" fill="#4a4aff" opacity="0.034439419669675356"/><circle cx="343" cy="631" r="139.23909748248346" fill="#4a4aff" opacity="0.060603062748080486"/><circle cx="460" cy="410" r="54.79813904090393" fill="#4a4aff" opacity="0.04532134589082166"/><circle cx="67" cy="545" r="55.517346622866114" fill="#4a4aff" opacity="0.03886619863279656"/><circle cx="844" cy="45" r="131.04868067896672" fill="#4a4aff" opacity="0.06483232575679825"/><circle cx="776" cy="299" r="84.67546490550114" fill="#4a4aff" opacity="0.035970654919679775"/><circle cx="280" cy="760" r="135.65689765079807" fill="#4a4aff" opacity="0.023552562271798343"/><circle cx="410" cy="149" r="102.96939355071956" fill="#4a4aff" opacity="0.039948439485965395"/><circle cx="196" cy="13" r="66.71979556720069" fill="#4a4aff" opacity="0.029938032073855543"/><circle cx="186" cy="108" r="90.48978480155283" fill="#4a4aff" opacity="0.039165915953709066"/><circle cx="456" cy="445" r="75.83232256654082" fill="#4a4aff" opacity="0.04738050073142758"/><circle cx="166" cy="616" r="118.86158024093874" fill="#4a4aff" opacity="0.04581575908332566"/><circle cx="89" cy="751" r="78.26240801978814" fill="#4a4aff" opacity="0.05340804658884686"/><circle cx="910" cy="713" r="89.18072263820306" fill="#4a4aff" opacity="0.05319555211537519"/>
      <circle cx="137" cy="160" r="78.08959557384728" fill="#aa4aff" opacity="0.048274364028652046"/><circle cx="506" cy="71" r="102.13294465800801" fill="#aa4aff" opacity="0.03787637879636101"/><circle cx="850" cy="753" r="35.5994132533392" fill="#aa4aff" opacity="0.06698946554291303"/><circle cx="519" cy="133" r="82.91938839722835" fill="#aa4aff" opacity="0.04489042254281159"/><circle cx="866" cy="940" r="70.5546729488887" fill="#aa4aff" opacity="0.04168029021501543"/><circle cx="986" cy="319" r="86.27604580190186" fill="#aa4aff" opacity="0.039176522082735116"/><circle cx="684" cy="385" r="84.54302203883091" fill="#aa4aff" opacity="0.05669112007750689"/><circle cx="468" cy="491" r="104.86171624390602" fill="#aa4aff" opacity="0.05772998646071635"/><circle cx="741" cy="225" r="32.068696119678535" fill="#aa4aff" opacity="0.03676177034619178"/><circle cx="858" cy="98" r="61.741558591146486" fill="#aa4aff" opacity="0.04419911639782559"/>
    </svg>