<svg xmlns="http://www.w3.org/2000/svg" width="1000" height="1000" viewBox="0 0 1000 1000"><rect width="1000" height="1000" fill="#050510"/><circle cx="604" cy="626" r=".773" fill="#fff" opacity=".732"/><circle cx="287" cy="360" r="1.023" fill="#fff" opacity=".94"/><circle cx="369" cy="127" r="1.514" fill="#fff" opacity=".828"/><circle cx="780" cy="725" r="1.514" fill="#fff" opacity=".825"/><circle cx="243" cy="882" r="1.17" fill="#fff" opacity=".603"/><circle cx="159" cy="664" r="1.492" fill="#fff" opacity=".859"/><circle cx="61" cy="938" r=".521" fill="#fff" opacity=".715"/><circle cx="664" cy="856" r=".757" fill="#fff" opacity=".347"/><circle cx="228" cy="867" r="1.301" fill="#fff" opacity=".744"/><circle cx="766" cy="169" r=".217" fill="#fff" opacity=".849"/><circle cx="685" cy="805" r=".279" fill="#fff" opacity=".369"/><circle cx="53" cy="858" r=".388" fill="#fff" opacity=".843"/><circle cx="36" cy="570" r=".671" fill="#fff" opacity=".947"/><circle cx="794" cy="25" r="1.694" fill="#fff" opacity=".881"/><circle cx="680" cy="265" r="1.426" fill="#fff" opacity=".495"/><circle cx="115" cy="92" r=".66" fill="#fff" opacity=".51"/><circle cx="709" cy="15" r="1.134" fill="#fff" opacity=".729"/><circle cx="524" cy="14" r="1.414" fill="#fff" opacity=".711"/><circle cx="197" cy="623" r=".801" fill="#fff" opacity=".801"/><circle cx="688" cy="212" r=".484" fill="#fff" opacity=".933"/><circle cx="715" cy="248" r=".971" fill="#fff" opacity=".387"/><circle cx="976" cy="334" r=".316" fill="#fff" opacity=".927"/><circle cx="26" cy="202" r=".716" fill="#fff" opacity=".852"/><circle cx="191" cy="339" r=".992" fill="#fff" opacity=".796"/><circle cx="197" cy="437" r="1.358" fill="#fff" opacity=".712"/><circle cx="428" cy="566" r=".913" fill="#fff" opacity=".402"/><circle cx="340" cy="576" r="1.46" fill="#fff" opacity=".708"/><circle cx="72" cy="3" r=".704" fill="#fff" opacity=".378"/><circle cx="941" cy="893" r=".542" fill="#fff" opacity=".887"/><circle cx="852" cy="969" r="1.091" fill="#fff" opacity=".433"/><circle cx="733" cy="386" r="1.403" fill="#fff" opacity=".711"/><circle cx="603" cy="480" r="1.314" fill="#fff" opacity=".408"/><circle cx="928" cy="266" r=".826" fill="#fff" opacity=".456"/><circle cx="164" cy="871" r="1.532" fill="#fff" opacity=".85"/><circle cx="368" cy="578" r="1.606" fill="#fff" opacity=".793"/><circle cx="568" cy="545" r=".34" fill="#fff" opacity=".407"/><circle cx="668" cy="880" r=".618" fill="#fff" opacity=".716"/><circle cx="750" cy="209" r=".57" fill="#fff" opacity=".439"/><circle cx="74" cy="992" r=".981" fill="#fff" opacity=".419"/><circle cx="125" cy="594" r=".613" fill="#fff" opacity=".747"/><circle cx="874" cy="108" r="1.645" fill="#fff" opacity=".915"/><circle cx="888" cy="104" r=".657" fill="#fff" opacity=".331"/><circle cx="847" cy="250" r="1.607" fill="#fff" opacity=".789"/><circle cx="254" cy="813" r="1.063" fill="#fff" opacity=".976"/><circle cx="749" cy="423" r="1.564" fill="#fff" opacity=".887"/><circle cx="429" cy="688" r="1.019" fill="#fff" opacity=".795"/><circle cx="287" cy="673" r=".294" fill="#fff" opacity=".969"/><circle cx="898" cy="919" r=".98" fill="#fff" opacity=".399"/><circle cx="204" cy="645" r="1.09" fill="#fff" opacity=".998"/><circle cx="587" cy="58" r=".748" fill="#fff" opacity=".721"/><circle cx="858" cy="414" r=".49" fill="#fff" opacity=".413"/><circle cx="537" cy="806" r=".566" fill="#fff" opacity=".566"/><circle cx="242" cy="750" r="1.349" fill="#fff" opacity=".89"/><circle cx="657" cy="614" r=".401" fill="#fff" opacity=".544"/><circle cx="521" cy="210" r=".901" fill="#fff" opacity=".477"/><circle cx="256" cy="33" r=".37" fill="#fff" opacity=".59"/><circle cx="860" cy="135" r="1.022" fill="#fff" opacity=".452"/><circle cx="824" cy="930" r="1.178" fill="#fff" opacity=".707"/><circle cx="54" cy="790" r="1.386" fill="#fff" opacity=".405"/><circle cx="879" cy="910" r=".734" fill="#fff" opacity=".892"/><circle cx="224" cy="738" r=".277" fill="#fff" opacity=".651"/><circle cx="412" cy="731" r=".962" fill="#fff" opacity=".944"/><circle cx="174" cy="653" r=".394" fill="#fff" opacity=".438"/><circle cx="506" cy="219" r=".747" fill="#fff" opacity=".46"/><circle cx="921" cy="745" r=".71" fill="#fff" opacity=".59"/><circle cx="568" cy="86" r="1.359" fill="#fff" opacity=".368"/><circle cx="989" cy="441" r=".988" fill="#fff" opacity=".336"/><circle cx="997" cy="965" r=".581" fill="#fff" opacity=".483"/><circle cx="779" cy="362" r=".209" fill="#fff" opacity=".892"/><circle cx="774" cy="461" r=".604" fill="#fff" opacity=".36"/><circle cx="396" cy="544" r="1.646" fill="#fff" opacity=".44"/><circle cx="207" cy="683" r=".945" fill="#fff" opacity=".827"/><circle cx="470" cy="218" r=".94" fill="#fff" opacity=".994"/><circle cx="734" cy="699" r=".51" fill="#fff" opacity=".471"/><circle cx="914" cy="926" r="1.138" fill="#fff" opacity=".852"/><circle cx="817" cy="229" r=".702" fill="#fff" opacity=".39"/><circle cx="958" cy="710" r=".259" fill="#fff" opacity=".319"/><circle cx="395" cy="266" r="1.213" fill="#fff" opacity=".715"/><circle cx="926" cy="926" r=".41" fill="#fff" opacity=".924"/><circle cx="425" cy="34" r=".787" fill="#fff" opacity=".519"/><circle cx="646" cy="369" r="1.489" fill="#fff" opacity=".696"/><circle cx="514" cy="915" r=".402" fill="#fff" opacity=".907"/><circle cx="294" cy="602" r=".39" fill="#fff" opacity=".964"/><circle cx="575" cy="202" r=".869" fill="#fff" opacity=".563"/><circle cx="17" cy="884" r="1.441" fill="#fff" opacity=".959"/><circle cx="485" cy="433" r="1.566" fill="#fff" opacity=".374"/><circle cx="697" cy="491" r="1.602" fill="#fff" opacity=".815"/><circle cx="116" cy="702" r=".66" fill="#fff" opacity=".678"/><circle cx="718" cy="141" r="1.661" fill="#fff" opacity=".625"/><circle cx="137" cy="476" r=".38" fill="#fff" opacity=".989"/><circle cx="878" cy="812" r="1.315" fill="#fff" opacity=".578"/><circle cx="673" cy="366" r="1.194" fill="#fff" opacity=".565"/><circle cx="616" cy="251" r="1.307" fill="#fff" opacity=".706"/><circle cx="771" cy="442" r="1.321" fill="#fff" opacity=".847"/><circle cx="31" cy="275" r="1.013" fill="#fff" opacity=".889"/><circle cx="307" cy="88" r=".78" fill="#fff" opacity=".557"/><circle cx="729" cy="431" r="1.302" fill="#fff" opacity=".747"/><circle cx="35" cy="440" r=".928" fill="#fff" opacity=".789"/><circle cx="922" cy="638" r="1.249" fill="#fff" opacity=".52"/><circle cx="594" cy="509" r="1.585" fill="#fff" opacity=".926"/><circle cx="613" cy="389" r=".921" fill="#fff" opacity=".853"/><circle cx="197" cy="24" r=".207" fill="#fff" opacity=".775"/><circle cx="183" cy="384" r=".661" fill="#fff" opacity=".914"/><circle cx="476" cy="679" r=".326" fill="#fff" opacity=".459"/><circle cx="28" cy="538" r="1.265" fill="#fff" opacity=".937"/><circle cx="652" cy="49" r=".56" fill="#fff" opacity=".88"/><circle cx="118" cy="859" r="1.473" fill="#fff" opacity=".91"/><circle cx="13" cy="288" r=".411" fill="#fff" opacity=".384"/><circle cx="583" cy="691" r=".581" fill="#fff" opacity=".364"/><circle cx="617" cy="916" r="1.122" fill="#fff" opacity=".43"/><circle cx="587" cy="947" r=".769" fill="#fff" opacity=".798"/><circle cx="206" cy="503" r="1.434" fill="#fff" opacity=".766"/><circle cx="537" cy="619" r="1.11" fill="#fff" opacity=".766"/><circle cx="211" cy="259" r=".873" fill="#fff" opacity=".886"/><circle cx="503" cy="454" r=".307" fill="#fff" opacity=".501"/><circle cx="992" cy="846" r="1.152" fill="#fff" opacity=".915"/><circle cx="276" cy="708" r=".204" fill="#fff" opacity=".701"/><circle cx="603" cy="744" r="1.342" fill="#fff" opacity=".4"/><circle cx="335" cy="916" r="1.305" fill="#fff" opacity=".321"/><circle cx="997" cy="737" r="1.11" fill="#fff" opacity=".813"/><circle cx="830" cy="707" r="1.206" fill="#fff" opacity=".934"/><circle cx="159" cy="218" r="1.677" fill="#fff" opacity=".723"/><circle cx="30" cy="164" r=".912" fill="#fff" opacity=".634"/><circle cx="275" cy="73" r=".945" fill="#fff" opacity=".365"/><circle cx="805" cy="372" r=".456" fill="#fff" opacity=".323"/><circle cx="69" cy="777" r="1.18" fill="#fff" opacity=".985"/><circle cx="191" cy="239" r="1.144" fill="#fff" opacity=".57"/><circle cx="874" cy="418" r=".832" fill="#fff" opacity=".751"/><circle cx="829" cy="583" r="1.136" fill="#fff" opacity=".899"/><circle cx="289" cy="849" r=".771" fill="#fff" opacity=".613"/><circle cx="705" cy="569" r=".301" fill="#fff" opacity=".542"/><circle cx="756" cy="122" r=".505" fill="#fff" opacity=".903"/><circle cx="516" cy="161" r="1.023" fill="#fff" opacity=".538"/><circle cx="602" cy="712" r="1.558" fill="#fff" opacity=".59"/><circle cx="486" cy="813" r=".862" fill="#fff" opacity=".709"/><circle cx="290" cy="161" r=".672" fill="#fff" opacity=".444"/><circle cx="948" cy="188" r=".419" fill="#fff" opacity=".406"/><circle cx="922" cy="45" r="1.128" fill="#fff" opacity=".515"/><circle cx="101" cy="66" r="1.578" fill="#fff" opacity=".836"/><circle cx="688" cy="153" r=".727" fill="#fff" opacity=".884"/><circle cx="738" cy="883" r="1.124" fill="#fff" opacity=".893"/><circle cx="588" cy="192" r="1.37" fill="#fff" opacity=".361"/><circle cx="74" cy="223" r="1.271" fill="#fff" opacity=".84"/><circle cx="381" cy="242" r=".476" fill="#fff" opacity=".815"/><circle cx="312" cy="326" r=".988" fill="#fff" opacity=".507"/><circle cx="7" cy="828" r="1.531" fill="#fff" opacity=".469"/><circle cx="25" cy="163" r=".447" fill="#fff" opacity=".753"/><circle cx="460" cy="601" r=".536" fill="#fff" opacity=".797"/><circle cx="706" cy="705" r=".65" fill="#fff" opacity=".969"/><circle cx="423" cy="286" r=".444" fill="#fff" opacity=".403"/><circle cx="966" cy="131" r="1.607" fill="#fff" opacity=".808"/><circle cx="582" cy="152" r="1.304" fill="#fff" opacity=".392"/><circle cx="590" cy="740" r="1.562" fill="#fff" opacity=".392"/><circle cx="270" cy="171" r=".367" fill="#fff" opacity=".382"/><circle cx="921" cy="848" r="1.67" fill="#fff" opacity=".631"/><circle cx="374" cy="739" r=".418" fill="#fff" opacity=".707"/><circle cx="539" cy="995" r=".989" fill="#fff" opacity=".944"/><circle cx="69" cy="86" r=".595" fill="#fff" opacity=".678"/><circle cx="107" cy="84" r=".27" fill="#fff" opacity=".716"/><circle cx="296" cy="467" r="1.549" fill="#fff" opacity=".487"/><circle cx="384" cy="17" r=".394" fill="#fff" opacity=".378"/><circle cx="149" cy="557" r=".769" fill="#fff" opacity=".779"/><circle cx="338" cy="511" r="1.13" fill="#fff" opacity=".636"/><circle cx="369" cy="631" r=".63" fill="#fff" opacity=".305"/><circle cx="72" cy="97" r="1.362" fill="#fff" opacity=".386"/><circle cx="594" cy="903" r="1.111" fill="#fff" opacity=".339"/><circle cx="83" cy="196" r=".669" fill="#fff" opacity=".982"/><circle cx="935" cy="660" r=".733" fill="#fff" opacity=".576"/><circle cx="40" cy="202" r="1.601" fill="#fff" opacity=".547"/><circle cx="402" cy="717" r="1.467" fill="#fff" opacity=".807"/><circle cx="390" cy="349" r="1.286" fill="#fff" opacity=".835"/><circle cx="568" cy="597" r="1.284" fill="#fff" opacity=".624"/><circle cx="279" cy="935" r=".443" fill="#fff" opacity=".952"/><circle cx="777" cy="32" r="1.471" fill="#fff" opacity=".454"/><circle cx="689" cy="677" r=".844" fill="#fff" opacity=".994"/><circle cx="655" cy="484" r=".24" fill="#fff" opacity=".409"/><circle cx="582" cy="574" r=".527" fill="#fff" opacity=".845"/><circle cx="270" cy="853" r="1.185" fill="#fff" opacity=".733"/><circle cx="110" cy="193" r="1.574" fill="#fff" opacity=".724"/><circle cx="440" cy="580" r="1.647" fill="#fff" opacity=".332"/><circle cx="927" cy="32" r=".913" fill="#fff" opacity=".845"/><circle cx="124" cy="152" r="1.398" fill="#fff" opacity=".743"/><circle cx="42" cy="337" r=".614" fill="#fff" opacity=".398"/><circle cx="187" cy="889" r=".258" fill="#fff" opacity=".612"/><circle cx="571" cy="125" r=".633" fill="#fff" opacity=".659"/><circle cx="881" cy="433" r=".381" fill="#fff" opacity=".652"/><circle cx="196" cy="639" r="1.33" fill="#fff" opacity=".772"/><circle cx="353" cy="516" r=".477" fill="#fff" opacity=".95"/><circle cx="685" cy="675" r=".233" fill="#fff" opacity=".952"/><circle cx="289" cy="64" r="1.02" fill="#fff" opacity=".93"/><circle cx="845" cy="261" r=".65" fill="#fff" opacity=".587"/><circle cx="662" cy="578" r=".397" fill="#fff" opacity=".391"/><circle cx="65" cy="731" r="1.093" fill="#fff" opacity=".347"/><circle cx="921" cy="475" r=".447" fill="#fff" opacity=".928"/><circle cx="247" cy="315" r="1.526" fill="#fff" opacity=".391"/><circle cx="896" cy="873" r="1.127" fill="#fff" opacity=".372"/><circle cx="901" cy="685" r="1.596" fill="#fff" opacity=".645"/><circle cx="680" cy="103" r="1.155" fill="#fff" opacity=".48"/><circle cx="834" cy="401" r=".35" fill="#fff" opacity=".705"/><circle cx="44" cy="720" r="1.477" fill="#fff" opacity=".746"/><circle cx="413" cy="537" r=".623" fill="#fff" opacity=".374"/><circle cx="728" cy="366" r=".31" fill="#fff" opacity=".795"/><circle cx="597" cy="67" r="1.223" fill="#fff" opacity=".31"/><circle cx="720" cy="531" r=".819" fill="#fff" opacity=".304"/><circle cx="790" cy="872" r="1.185" fill="#fff" opacity=".947"/><circle cx="646" cy="266" r="1.182" fill="#fff" opacity=".997"/><circle cx="905" cy="410" r=".368" fill="#fff" opacity=".328"/><circle cx="829" cy="154" r="1.596" fill="#fff" opacity=".662"/><circle cx="530" cy="473" r=".91" fill="#fff" opacity=".607"/><circle cx="849" cy="602" r=".294" fill="#fff" opacity=".885"/><circle cx="684" cy="997" r=".793" fill="#fff" opacity=".929"/><circle cx="428" cy="913" r=".433" fill="#fff" opacity=".582"/><circle cx="107" cy="700" r="1.364" fill="#fff" opacity=".354"/><circle cx="15" cy="368" r="1.551" fill="#fff" opacity=".496"/><circle cx="434" cy="126" r=".567" fill="#fff" opacity=".637"/><circle cx="62" cy="892" r=".581" fill="#fff" opacity=".653"/><circle cx="950" cy="28" r=".552" fill="#fff" opacity=".369"/><circle cx="426" cy="269" r="1.36" fill="#fff" opacity=".647"/><circle cx="471" cy="769" r=".797" fill="#fff" opacity=".497"/><circle cx="455" cy="598" r="1.633" fill="#fff" opacity=".727"/><circle cx="481" cy="62" r=".561" fill="#fff" opacity=".642"/><circle cx="263" cy="601" r="1.214" fill="#fff" opacity=".664"/><circle cx="784" cy="57" r="1.247" fill="#fff" opacity=".518"/><circle cx="519" cy="740" r=".493" fill="#fff" opacity=".742"/><circle cx="270" cy="960" r="1.409" fill="#fff" opacity=".865"/><circle cx="880" cy="28" r="1.279" fill="#fff" opacity=".512"/><circle cx="158" cy="613" r="1.545" fill="#fff" opacity=".305"/><circle cx="575" cy="612" r=".42" fill="#fff" opacity=".809"/><circle cx="740" cy="832" r=".91" fill="#fff" opacity=".825"/><circle cx="787" cy="7" r="1.502" fill="#fff" opacity=".557"/><circle cx="907" cy="977" r="1.368" fill="#fff" opacity=".317"/><circle cx="237" cy="446" r=".206" fill="#fff" opacity=".636"/><circle cx="603" cy="741" r="1.304" fill="#fff" opacity=".598"/><circle cx="10" cy="268" r=".572" fill="#fff" opacity=".321"/><circle cx="546" cy="430" r="1.182" fill="#fff" opacity=".774"/><circle cx="499" cy="551" r="1.534" fill="#fff" opacity=".503"/><circle cx="122" cy="988" r="1.275" fill="#fff" opacity=".998"/><circle cx="440" cy="58" r=".865" fill="#fff" opacity=".689"/><circle cx="392" cy="837" r="1.166" fill="#fff" opacity=".767"/><circle cx="825" cy="194" r="1.459" fill="#fff" opacity=".397"/><circle cx="561" cy="854" r="1.136" fill="#fff" opacity=".873"/><circle cx="464" cy="251" r="1.295" fill="#fff" opacity=".627"/><circle cx="510" cy="810" r=".531" fill="#fff" opacity=".709"/><circle cx="486" cy="831" r=".33" fill="#fff" opacity=".644"/><circle cx="521" cy="493" r=".891" fill="#fff" opacity=".945"/><circle cx="975" cy="928" r=".779" fill="#fff" opacity=".342"/><circle cx="335" cy="352" r=".247" fill="#fff" opacity=".766"/><circle cx="653" cy="678" r="1.637" fill="#fff" opacity=".886"/><circle cx="366" cy="864" r="1.572" fill="#fff" opacity=".487"/><circle cx="508" cy="178" r="1.391" fill="#fff" opacity=".368"/><circle cx="757" cy="219" r=".822" fill="#fff" opacity=".858"/><circle cx="698" cy="379" r=".419" fill="#fff" opacity=".597"/><circle cx="359" cy="390" r=".555" fill="#fff" opacity=".539"/><circle cx="593" cy="319" r="1.676" fill="#fff" opacity=".737"/><circle cx="814" cy="227" r="1.545" fill="#fff" opacity=".558"/><circle cx="334" cy="720" r=".201" fill="#fff" opacity=".502"/><circle cx="319" cy="97" r=".398" fill="#fff" opacity=".918"/><circle cx="869" cy="37" r="1.548" fill="#fff" opacity=".61"/><circle cx="826" cy="732" r="1.581" fill="#fff" opacity=".575"/><circle cx="285" cy="679" r="1.151" fill="#fff" opacity=".639"/><circle cx="386" cy="878" r="1.377" fill="#fff" opacity=".335"/><circle cx="373" cy="670" r="1.259" fill="#fff" opacity=".803"/><circle cx="800" cy="149" r="1.318" fill="#fff" opacity=".345"/><circle cx="392" cy="374" r=".335" fill="#fff" opacity=".363"/><circle cx="131" cy="249" r="1.552" fill="#fff" opacity=".513"/><circle cx="422" cy="178" r="1.003" fill="#fff" opacity=".456"/><circle cx="968" cy="941" r=".529" fill="#fff" opacity=".85"/><circle cx="282" cy="181" r=".922" fill="#fff" opacity=".607"/><circle cx="956" cy="600" r="1.658" fill="#fff" opacity=".984"/><circle cx="200" cy="660" r=".863" fill="#fff" opacity=".325"/><circle cx="557" cy="346" r=".755" fill="#fff" opacity=".414"/><circle cx="664" cy="80" r=".512" fill="#fff" opacity=".596"/><circle cx="303" cy="261" r="1.176" fill="#fff" opacity=".73"/><circle cx="131" cy="479" r="1.626" fill="#fff" opacity=".559"/><circle cx="418" cy="963" r="1.487" fill="#fff" opacity=".758"/><circle cx="647" cy="743" r=".928" fill="#fff" opacity=".366"/><circle cx="172" cy="314" r="1.587" fill="#fff" opacity=".866"/><circle cx="737" cy="755" r="1.7" fill="#fff" opacity=".974"/><circle cx="267" cy="992" r=".76" fill="#fff" opacity=".618"/><circle cx="982" cy="707" r="1.183" fill="#fff" opacity=".516"/><circle cx="43" cy="835" r="1.432" fill="#fff" opacity=".656"/><circle cx="837" cy="731" r="1.51" fill="#fff" opacity=".562"/><circle cx="409" cy="584" r="1.262" fill="#fff" opacity=".476"/><circle cx="857" cy="3" r=".325" fill="#fff" opacity=".99"/><circle cx="918" cy="91" r=".313" fill="#fff" opacity=".844"/><circle cx="627" cy="10" r="1.202" fill="#fff" opacity=".589"/><circle cx="536" cy="406" r=".543" fill="#fff" opacity=".685"/><circle cx="916" cy="511" r=".684" fill="#fff" opacity=".902"/><circle cx="184" cy="269" r=".372" fill="#fff" opacity=".881"/><circle cx="837" cy="13" r="1.36" fill="#fff" opacity=".313"/><circle cx="530" cy="906" r="1.088" fill="#fff" opacity=".679"/><circle cx="630" cy="846" r=".338" fill="#fff" opacity=".801"/><circle cx="383" cy="86" r="1.679" fill="#fff" opacity=".479"/><circle cx="155" cy="550" r=".995" fill="#fff" opacity=".371"/><circle cx="927" cy="335" r=".605" fill="#fff" opacity=".877"/><circle cx="45" cy="636" r=".843" fill="#fff" opacity=".643"/><circle cx="195" cy="995" r="1.419" fill="#fff" opacity=".684"/><circle cx="894" cy="51" r="1.445" fill="#fff" opacity=".388"/><circle cx="313" cy="28" r="1.286" fill="#fff" opacity=".388"/><circle cx="186" cy="569" r=".368" fill="#fff" opacity=".854"/><circle cx="345" cy="40" r=".632" fill="#fff" opacity=".938"/><circle cx="24" cy="272" r="1.585" fill="#fff" opacity=".611"/><circle cx="923" cy="570" r="1.554" fill="#fff" opacity=".838"/><circle cx="15" cy="218" r=".907" fill="#fff" opacity=".454"/><circle cx="237" cy="326" r="1.222" fill="#fff" opacity=".565"/><circle cx="476" cy="729" r=".882" fill="#fff" opacity=".571"/><circle cx="353" cy="669" r="1.391" fill="#fff" opacity=".723"/><circle cx="323" cy="347" r=".97" fill="#fff" opacity=".774"/><circle cx="915" cy="438" r=".507" fill="#fff" opacity=".318"/><circle cx="260" cy="101" r="1.507" fill="#fff" opacity=".962"/><circle cx="517" cy="379" r=".432" fill="#fff" opacity=".61"/><circle cx="845" cy="677" r="1.002" fill="#fff" opacity=".439"/><circle cx="40" cy="172" r=".731" fill="#fff" opacity=".427"/><circle cx="742" cy="107" r=".644" fill="#fff" opacity=".963"/><circle cx="891" cy="800" r="1.549" fill="#fff" opacity=".497"/><circle cx="883" cy="471" r=".831" fill="#fff" opacity=".858"/><circle cx="7" cy="921" r="1.356" fill="#fff" opacity=".319"/><circle cx="710" cy="852" r=".777" fill="#fff" opacity=".417"/><circle cx="227" cy="691" r=".431" fill="#fff" opacity=".524"/><circle cx="154" cy="437" r=".878" fill="#fff" opacity=".813"/><circle cx="834" cy="654" r=".609" fill="#fff" opacity=".917"/><circle cx="814" cy="391" r="1.599" fill="#fff" opacity=".412"/><circle cx="54" cy="585" r="1.052" fill="#fff" opacity=".798"/><circle cx="139" cy="394" r="1.402" fill="#fff" opacity=".841"/><circle cx="786" cy="476" r="1.627" fill="#fff" opacity=".629"/><circle cx="112" cy="141" r="1.594" fill="#fff" opacity=".996"/><circle cx="28" cy="14" r="1.33" fill="#fff" opacity=".505"/><circle cx="459" cy="754" r="1.659" fill="#fff" opacity=".784"/><circle cx="776" cy="531" r=".922" fill="#fff" opacity=".389"/><circle cx="65" cy="859" r=".981" fill="#fff" opacity=".743"/><circle cx="983" cy="780" r="1.164" fill="#fff" opacity=".9"/><circle cx="784" cy="462" r=".864" fill="#fff" opacity=".309"/><circle cx="489" cy="890" r="1.665" fill="#fff" opacity=".873"/><circle cx="348" cy="239" r=".443" fill="#fff" opacity=".671"/><circle cx="919" cy="813" r=".807" fill="#fff" opacity=".386"/><circle cx="100" cy="567" r=".774" fill="#fff" opacity=".564"/><circle cx="672" cy="291" r="1.133" fill="#fff" opacity=".912"/><circle cx="10" cy="698" r="1.221" fill="#fff" opacity=".43"/><circle cx="775" cy="217" r=".996" fill="#fff" opacity=".579"/><circle cx="996" cy="259" r="1.688" fill="#fff" opacity=".904"/><circle cx="742" cy="686" r=".642" fill="#fff" opacity=".614"/><circle cx="0" cy="695" r=".871" fill="#fff" opacity=".343"/><circle cx="468" cy="470" r="1.13" fill="#fff" opacity=".436"/><circle cx="453" cy="972" r=".245" fill="#fff" opacity=".738"/><circle cx="658" cy="582" r=".742" fill="#fff" opacity=".7"/><circle cx="657" cy="182" r="1.647" fill="#fff" opacity=".899"/><circle cx="890" cy="642" r="1.397" fill="#fff" opacity=".638"/><circle cx="454" cy="998" r=".418" fill="#fff" opacity=".305"/><circle cx="947" cy="580" r="1.373" fill="#fff" opacity=".875"/><circle cx="413" cy="301" r="1.359" fill="#fff" opacity=".754"/><circle cx="16" cy="57" r=".285" fill="#fff" opacity=".308"/><circle cx="648" cy="982" r=".825" fill="#fff" opacity=".844"/><circle cx="827" cy="128" r=".961" fill="#fff" opacity=".605"/><circle cx="30" cy="711" r=".742" fill="#fff" opacity=".351"/><circle cx="227" cy="729" r=".671" fill="#fff" opacity=".648"/><circle cx="695" cy="157" r="1.577" fill="#fff" opacity=".403"/><circle cx="512" cy="379" r=".651" fill="#fff" opacity=".986"/><circle cx="196" cy="854" r=".763" fill="#fff" opacity=".379"/><circle cx="593" cy="677" r=".524" fill="#fff" opacity=".433"/><circle cx="501" cy="597" r="1.031" fill="#fff" opacity=".811"/><circle cx="26" cy="856" r="1.064" fill="#fff" opacity=".614"/><circle cx="331" cy="390" r=".998" fill="#fff" opacity=".342"/><circle cx="159" cy="758" r="1.432" fill="#fff" opacity=".641"/><circle cx="157" cy="896" r=".475" fill="#fff" opacity=".72"/><circle cx="758" cy="275" r="1.676" fill="#fff" opacity=".616"/><circle cx="979" cy="918" r="1.672" fill="#fff" opacity=".93"/><circle cx="605" cy="728" r="1.257" fill="#fff" opacity=".901"/><circle cx="703" cy="777" r=".316" fill="#fff" opacity=".61"/><circle cx="580" cy="218" r=".857" fill="#fff" opacity=".357"/><circle cx="172" cy="344" r=".859" fill="#fff" opacity=".392"/><circle cx="199" cy="130" r=".663" fill="#fff" opacity=".519"/><circle cx="593" cy="361" r=".712" fill="#fff" opacity=".326"/><circle cx="300" cy="874" r="1.586" fill="#fff" opacity=".981"/><circle cx="105" cy="745" r=".299" fill="#fff" opacity=".64"/><circle cx="315" cy="124" r=".579" fill="#fff" opacity=".701"/><circle cx="606" cy="450" r="1.328" fill="#fff" opacity=".995"/><circle cx="435" cy="384" r=".333" fill="#fff" opacity=".996"/><circle cx="455" cy="152" r=".902" fill="#fff" opacity=".662"/><circle cx="380" cy="765" r=".203" fill="#fff" opacity=".393"/><circle cx="914" cy="995" r=".653" fill="#fff" opacity=".665"/><circle cx="393" cy="739" r="1.038" fill="#fff" opacity=".993"/><circle cx="489" cy="629" r="1.609" fill="#fff" opacity=".811"/><circle cx="814" cy="691" r=".548" fill="#fff" opacity=".889"/><circle cx="774" cy="474" r="1.594" fill="#fff" opacity=".815"/><circle cx="331" cy="512" r=".967" fill="#fff" opacity=".381"/><circle cx="784" cy="131" r=".954" fill="#fff" opacity=".375"/><circle cx="311" cy="489" r=".93" fill="#fff" opacity=".312"/><circle cx="440" cy="867" r=".536" fill="#fff" opacity=".529"/><circle cx="330" cy="821" r="1.508" fill="#fff" opacity=".735"/><circle cx="76" cy="182" r=".699" fill="#fff" opacity=".391"/><circle cx="146" cy="32" r=".334" fill="#fff" opacity=".898"/><circle cx="958" cy="919" r=".442" fill="#fff" opacity=".602"/><circle cx="933" cy="925" r="1.104" fill="#fff" opacity=".343"/><circle cx="27" cy="21" r=".603" fill="#fff" opacity=".536"/><circle cx="852" cy="347" r=".843" fill="#fff" opacity=".583"/><circle cx="462" cy="748" r="1.351" fill="#fff" opacity=".576"/><circle cx="864" cy="850" r="1.242" fill="#fff" opacity=".863"/><circle cx="122" cy="261" r="1.172" fill="#fff" opacity=".905"/><circle cx="949" cy="277" r="1.369" fill="#fff" opacity=".548"/><circle cx="81" cy="671" r=".788" fill="#fff" opacity=".838"/><circle cx="231" cy="96" r="1.314" fill="#fff" opacity=".913"/><circle cx="412" cy="52" r="1.026" fill="#fff" opacity=".895"/><circle cx="767" cy="681" r="1.597" fill="#fff" opacity=".436"/><circle cx="385" cy="701" r=".387" fill="#fff" opacity=".355"/><circle cx="597" cy="657" r=".73" fill="#fff" opacity=".728"/><circle cx="871" cy="836" r="1.27" fill="#fff" opacity=".778"/><circle cx="470" cy="32" r=".418" fill="#fff" opacity=".837"/><circle cx="7" cy="967" r=".941" fill="#fff" opacity=".91"/><circle cx="525" cy="303" r=".966" fill="#fff" opacity=".587"/><circle cx="886" cy="537" r=".921" fill="#fff" opacity=".323"/><circle cx="469" cy="962" r=".457" fill="#fff" opacity=".982"/><circle cx="341" cy="671" r=".251" fill="#fff" opacity=".736"/><circle cx="983" cy="332" r=".65" fill="#fff" opacity=".738"/><circle cx="681" cy="548" r=".632" fill="#fff" opacity=".318"/><circle cx="613" cy="782" r="1.495" fill="#fff" opacity=".605"/><circle cx="169" cy="446" r=".671" fill="#fff" opacity=".58"/><circle cx="260" cy="538" r=".589" fill="#fff" opacity=".726"/><circle cx="134" cy="917" r="1.583" fill="#fff" opacity=".44"/><circle cx="986" cy="423" r="1.509" fill="#fff" opacity=".316"/><circle cx="753" cy="301" r=".399" fill="#fff" opacity=".874"/><circle cx="821" cy="564" r="1.645" fill="#fff" opacity=".782"/><circle cx="784" cy="552" r="1.311" fill="#fff" opacity=".877"/><circle cx="89" cy="736" r="1.159" fill="#fff" opacity=".893"/><circle cx="891" cy="7" r="1.395" fill="#fff" opacity=".473"/><circle cx="54" cy="953" r=".88" fill="#fff" opacity=".469"/><circle cx="654" cy="499" r=".455" fill="#fff" opacity=".801"/><circle cx="232" cy="581" r=".481" fill="#fff" opacity=".732"/><circle cx="833" cy="98" r=".231" fill="#fff" opacity=".807"/><circle cx="809" cy="288" r=".562" fill="#fff" opacity=".863"/><circle cx="696" cy="205" r="1.153" fill="#fff" opacity=".506"/><circle cx="812" cy="589" r=".996" fill="#fff" opacity=".701"/><circle cx="358" cy="227" r=".683" fill="#fff" opacity=".891"/><circle cx="328" cy="874" r=".556" fill="#fff" opacity=".693"/><circle cx="305" cy="658" r="1.39" fill="#fff" opacity=".7"/><circle cx="575" cy="291" r="1.567" fill="#fff" opacity=".37"/><circle cx="977" cy="845" r=".585" fill="#fff" opacity=".694"/><circle cx="861" cy="415" r=".424" fill="#fff" opacity=".438"/><circle cx="264" cy="9" r="1.56" fill="#fff" opacity=".383"/><circle cx="563" cy="584" r=".502" fill="#fff" opacity=".953"/><circle cx="992" cy="433" r=".878" fill="#fff" opacity=".468"/><circle cx="382" cy="105" r="1.312" fill="#fff" opacity=".352"/><circle cx="601" cy="523" r=".953" fill="#fff" opacity=".373"/><circle cx="82" cy="718" r=".868" fill="#fff" opacity=".806"/><circle cx="81" cy="219" r=".93" fill="#fff" opacity=".846"/><circle cx="959" cy="382" r=".755" fill="#fff" opacity=".738"/><circle cx="428" cy="765" r="1.194" fill="#fff" opacity=".781"/><circle cx="240" cy="873" r="1.422" fill="#fff" opacity=".929"/><circle cx="376" cy="57" r="1.204" fill="#fff" opacity=".528"/><circle cx="218" cy="902" r=".835" fill="#fff" opacity=".557"/><circle cx="398" cy="933" r="1.445" fill="#fff" opacity=".713"/><circle cx="882" cy="848" r=".423" fill="#fff" opacity=".901"/><circle cx="798" cy="337" r=".443" fill="#fff" opacity=".521"/><circle cx="290" cy="744" r=".369" fill="#fff" opacity=".309"/><circle cx="566" cy="682" r=".769" fill="#fff" opacity=".434"/><circle cx="266" cy="39" r="1.488" fill="#fff" opacity=".384"/><circle cx="187" cy="101" r=".649" fill="#fff" opacity=".742"/><circle cx="883" cy="352" r="1.201" fill="#fff" opacity=".413"/><circle cx="519" cy="951" r="1.056" fill="#fff" opacity=".981"/><circle cx="947" cy="247" r=".58" fill="#fff" opacity=".459"/><circle cx="12" cy="766" r="1.5" fill="#fff" opacity=".843"/><circle cx="948" cy="41" r="1.273" fill="#fff" opacity=".578"/><circle cx="554" cy="133" r="1.19" fill="#fff" opacity=".39"/><circle cx="906" cy="108" r="1.267" fill="#fff" opacity=".998"/><circle cx="726" cy="735" r="1.552" fill="#fff" opacity=".696"/><circle cx="778" cy="643" r=".245" fill="#fff" opacity=".702"/><circle cx="322" cy="707" r=".599" fill="#fff" opacity=".637"/><circle cx="970" cy="172" r="1.188" fill="#fff" opacity=".364"/><circle cx="412" cy="924" r=".566" fill="#fff" opacity=".936"/><circle cx="141" cy="415" r="1.456" fill="#fff" opacity=".304"/><circle cx="300" cy="818" r=".226" fill="#fff" opacity=".702"/><circle cx="480" cy="175" r="1.34" fill="#fff" opacity=".916"/><circle cx="698" cy="853" r=".837" fill="#fff" opacity=".651"/><circle cx="731" cy="587" r="1.36" fill="#fff" opacity=".883"/><circle cx="773" cy="94" r=".771" fill="#fff" opacity=".664"/><circle cx="954" cy="443" r=".557" fill="#fff" opacity=".672"/><circle cx="231" cy="63" r="1.583" fill="#fff" opacity=".907"/><circle cx="24" cy="656" r=".969" fill="#fff" opacity=".342"/><circle cx="382" cy="927" r="1.401" fill="#fff" opacity=".571"/><circle cx="219" cy="873" r="1.504" fill="#fff" opacity=".328"/><circle cx="764" cy="234" r=".631" fill="#fff" opacity=".631"/><circle cx="485" cy="76" r=".436" fill="#fff" opacity=".654"/><circle cx="668" cy="110" r="1.315" fill="#fff" opacity=".669"/><circle cx="837" cy="961" r="1.244" fill="#fff" opacity=".391"/><circle cx="203" cy="64" r=".365" fill="#fff" opacity=".906"/><circle cx="281" cy="981" r="1.571" fill="#fff" opacity=".579"/><circle cx="814" cy="412" r=".363" fill="#fff" opacity=".469"/><circle cx="75" cy="836" r="1.155" fill="#fff" opacity=".579"/><circle cx="670" cy="102" r=".922" fill="#fff" opacity=".784"/><circle cx="443" cy="877" r="1.278" fill="#fff" opacity=".827"/><circle cx="356" cy="189" r=".667" fill="#fff" opacity=".814"/><circle cx="11" cy="697" r="1.261" fill="#fff" opacity=".384"/><circle cx="352" cy="45" r=".252" fill="#fff" opacity=".928"/><circle cx="689" cy="761" r=".443" fill="#fff" opacity=".752"/><circle cx="597" cy="687" r=".494" fill="#fff" opacity=".861"/><circle cx="94" cy="290" r=".573" fill="#fff" opacity=".944"/><circle cx="170" cy="148" r="1.661" fill="#fff" opacity=".846"/><circle cx="850" cy="847" r="1.094" fill="#fff" opacity=".828"/><circle cx="473" cy="60" r="1.201" fill="#fff" opacity=".931"/><circle cx="681" cy="887" r="1.37" fill="#fff" opacity=".843"/><circle cx="790" cy="106" r=".24" fill="#fff" opacity=".812"/><circle cx="342" cy="356" r="137.639" fill="#4a4aff" opacity=".045"/><circle cx="613" cy="657" r="148.858" fill="#4a4aff" opacity=".059"/><circle cx="116" cy="621" r="86.733" fill="#4a4aff" opacity=".046"/><circle cx="915" cy="215" r="56.31" fill="#4a4aff" opacity=".062"/><circle cx="159" cy="408" r="126.824" fill="#4a4aff" opacity=".041"/><circle cx="471" cy="822" r="149.009" fill="#4a4aff" opacity=".038"/><circle cx="649" cy="182" r="128.067" fill="#4a4aff" opacity=".034"/><circle cx="343" cy="631" r="139.239" fill="#4a4aff" opacity=".061"/><circle cx="460" cy="410" r="54.798" fill="#4a4aff" opacity=".045"/><circle cx="67" cy="545" r="55.517" fill="#4a4aff" opacity=".039"/><circle cx="844" cy="45" r="131.049" fill="#4a4aff" opacity=".065"/><circle cx="776" cy="299" r="84.675" fill="#4a4aff" opacity=".036"/><circle cx="280" cy="760" r="135.657" fill="#4a4aff" opacity=".024"/><circle cx="410" cy="149" r="102.969" fill="#4a4aff" opacity=".04"/><circle cx="196" cy="13" r="66.72" fill="#4a4aff" opacity=".03"/><circle cx="186" cy="108" r="90.49" fill="#4a4aff" opacity=".039"/><circle cx="456" cy="445" r="75.832" fill="#4a4aff" opacity=".047"/><circle cx="166" cy="616" r="118.862" fill="#4a4aff" opacity=".046"/><circle cx="89" cy="751" r="78.262" fill="#4a4aff" opacity=".053"/><circle cx="910" cy="713" r="89.181" fill="#4a4aff" opacity=".053"/><circle cx="137" cy="160" r="78.09" fill="#aa4aff" opacity=".048"/><circle cx="506" cy="71" r="102.133" fill="#aa4aff" opacity=".038"/><circle cx="850" cy="753" r="35.599" fill="#aa4aff" opacity=".067"/><circle cx="519" cy="133" r="82.919" fill="#aa4aff" opacity=".045"/><circle cx="866" cy="940" r="70.555" fill="#aa4aff" opacity=".042"/><circle cx="986" cy="319" r="86.276" fill="#aa4aff" opacity=".039"/><circle cx="684" cy="385" r="84.543" fill="#aa4aff" opacity=".057"/><circle cx="468" cy="491" r="104.862" fill="#aa4aff" opacity=".058"/><circle cx="741" cy="225" r="32.069" fill="#aa4aff" opacity=".037"/><circle cx="858" cy="98" r="61.742" fill="#aa4aff" opacity=".044"/></svg>