<svg width="1000" height="1000" viewBox="0 0 1000 1000" xmlns="http://www.w3.org/2000/svg">
      <rect width="1000" height="1000" fill="#000005"/>
      <circle cx="897" cy="404" r="1.472087041857207" fill="white" opacity="0.8191296230911416"/><circle cx="323" cy="151" r="0.896417691166173" fill="white" opacity="0.4571302994666877"/><circle cx="795" cy="601" r="1.3471544329634102" fill="white" opacity="0.7096315227126304"/><circle cx="125" cy="842" r="0.4239519034250869" fill="white" opacity="0.6579272884737384"/><circle cx="227" cy="977" r="0.7425020956253714" fill="white" opacity="0.9569211885606752"/><circle cx="762" cy="497" r="1.451966729123453" fill="white" opacity="0.5754710750894076"/><circle cx="895" cy="531" r="0.2727991639026" fill="white" opacity="0.338409801164423"/><circle cx="758" cy="542" r="0.5322177716262431" fill="white" opacity="0.9299046313496171"/><circle cx="126" cy="628" r="1.315829213717573" fill="white" opacity="0.6490344721531011"/><circle cx="961" cy="346" r="0.5349545465786121" fill="white" opacity="0.544775981086965"/><circle cx="890" cy="186" r="0.4319139695912459" fill="white" opacity="0.7956867238414825"/><circle cx="791" cy="146" r="0.41232970829331067" fill="white" opacity="0.9259193571944333"/><circle cx="603" cy="646" r="1.3565177401654267" fill="white" opacity="0.6233315063434945"/><circle cx="765" cy="816" r="1.6976416086816866" fill="white" opacity="0.43552547509243633"/><circle cx="824" cy="136" r="1.4799832521079315" fill="white" opacity="0.7429723680139995"/><circle cx="49" cy="699" r="1.0594572263436437" fill="white" opacity="0.5472094700800103"/><circle cx="403" cy="299" r="1.4323217943077975" fill="white" opacity="0.9798704004110859"/><circle cx="5" cy="169" r="0.6187549519808466" fill="white" opacity="0.4787317423617129"/><circle cx="939" cy="264" r="1.1735630301665694" fill="white" opacity="0.4964685849969486"/><circle cx="998" cy="746" r="1.6583219989855233" fill="white" opacity="0.4112298014995999"/><circle cx="745" cy="270" r="1.6901137391761938" fill="white" opacity="0.997892914620431"/><circle cx="598" cy="286" r="1.1118824534808618" fill="white" opacity="0.4249752399862294"/><circle cx="785" cy="75" r="1.1836058304629025" fill="white" opacity="0.8903445685810756"/><circle cx="577" cy="586" r="0.32417287804138467" fill="white" opacity="0.6975782810974782"/><circle cx="178" cy="147" r="1.2938491280683109" fill="white" opacity="0.5470614599784802"/><circle cx="906" cy="638" r="1.4402449716776429" fill="white" opacity="0.6224498052373721"/><circle cx="140" cy="514" r="1.285370919843285" fill="white" opacity="0.8169837560464972"/><circle cx="307" cy="14" r="0.46381481459226986" fill="white" opacity="0.8090209611969852"/><circle cx="579" cy="363" r="1.3581875175368272" fill="white" opacity="0.7442683650578563"/><circle cx="740" cy="845" r="1.4613727505641438" fill="white" opacity="0.9751542190870965"/><circle cx="756" cy="430" r="0.4703172277464996" fill="white" opacity="0.4051144218520976"/><circle cx="681" cy="492" r="1.3596312671894621" fill="white" opacity="0.46949232424348225"/><circle cx="339" cy="647" r="0.6282958031485042" fill="white" opacity="0.7679388876847018"/><circle cx="362" cy="803" r="1.3792269965249515" fill="white" opacity="0.4625565617124409"/><circle cx="988" cy="597" r="0.2368264417355534" fill="white" opacity="0.4724333217144239"/><circle cx="684" cy="487" r="0.21493933517274072" fill="white" opacity="0.9248513011477721"/><circle cx="799" cy="183" r="0.4360812049217199" fill="white" opacity="0.6513015590339337"/><circle cx="855" cy="274" r="0.24337554026149427" fill="white" opacity="0.8209825515239759"/><circle cx="301" cy="662" r="0.7501995188838184" fill="white" opacity="0.3192441780023998"/><circle cx="873" cy="616" r="1.6732408029334958" fill="white" opacity="0.6538847606388465"/><circle cx="219" cy="102" r="1.2388992265424321" fill="white" opacity="0.4909410301099661"/><circle cx="659" cy="508" r="1.3780226031918923" fill="white" opacity="0.7887904742097293"/><circle cx="780" cy="83" r="0.20705507278941276" fill="white" opacity="0.789573259040131"/><circle cx="313" cy="510" r="0.8072207763617558" fill="white" opacity="0.3024040852278182"/><circle cx="107" cy="218" r="1.4466227954824062" fill="white" opacity="0.8984042356457373"/><circle cx="772" cy="410" r="0.32634308132728534" fill="white" opacity="0.4729122735704632"/><circle cx="788" cy="535" r="1.0714421682641324" fill="white" opacity="0.5322719455508051"/><circle cx="716" cy="118" r="1.075677270331474" fill="white" opacity="0.8942588717404802"/><circle cx="758" cy="480" r="0.4000603566572008" fill="white" opacity="0.6430581807276495"/><circle cx="930" cy="611" r="1.59341431074036" fill="white" opacity="0.9374514719236837"/><circle cx="128" cy="947" r="0.7409551659639979" fill="white" opacity="0.34682915506714884"/><circle cx="2" cy="567" r="0.3008354133492476" fill="white" opacity="0.3069019863509086"/><circle cx="70" cy="445" r="1.0020799013456245" fill="white" opacity="0.8121491765370317"/><circle cx="103" cy="107" r="1.3966880805449409" fill="white" opacity="0.45457337566141004"/><circle cx="921" cy="634" r="1.6700300157957992" fill="white" opacity="0.8679543868967867"/><circle cx="703" cy="933" r="0.7568192641742955" fill="white" opacity="0.631123632132777"/><circle cx="361" cy="598" r="0.37599705277015744" fill="white" opacity="0.6135004128738691"/><circle cx="381" cy="57" r="1.6167438066968631" fill="white" opacity="0.699294721885173"/><circle cx="457" cy="18" r="1.0797768780823842" fill="white" opacity="0.7714054193791424"/><circle cx="548" cy="920" r="1.4602614207402735" fill="white" opacity="0.3126953189091472"/><circle cx="771" cy="964" r="0.6403687366008877" fill="white" opacity="0.4055606275293763"/><circle cx="227" cy="383" r="0.8583628935383405" fill="white" opacity="0.5024776270169911"/><circle cx="600" cy="3" r="0.46422203268407275" fill="white" opacity="0.31337014588134854"/><circle cx="643" cy="172" r="0.8614722556537031" fill="white" opacity="0.8702398996078702"/><circle cx="379" cy="980" r="0.5394186448293856" fill="white" opacity="0.8684248132544361"/><circle cx="757" cy="490" r="1.1694351139672907" fill="white" opacity="0.3018177857883337"/><circle cx="625" cy="598" r="0.5662071873803769" fill="white" opacity="0.8775769254418939"/><circle cx="231" cy="739" r="0.3577436828290476" fill="white" opacity="0.970929602011249"/><circle cx="826" cy="579" r="1.591991317143744" fill="white" opacity="0.8263796814599307"/><circle cx="112" cy="614" r="1.6612679132608708" fill="white" opacity="0.4732016740897774"/><circle cx="84" cy="146" r="0.9492084460070171" fill="white" opacity="0.759602888073271"/><circle cx="807" cy="707" r="1.0569621885588645" fill="white" opacity="0.47316610405523407"/><circle cx="83" cy="414" r="0.4185108695701765" fill="white" opacity="0.8603802752357834"/><circle cx="637" cy="511" r="0.7425830762155063" fill="white" opacity="0.3154685498703003"/><circle cx="121" cy="423" r="1.0992999639798644" fill="white" opacity="0.34195881895005625"/><circle cx="689" cy="845" r="1.130824868851728" fill="white" opacity="0.4722982087509186"/><circle cx="722" cy="307" r="0.5145098849437801" fill="white" opacity="0.9203324223271028"/><circle cx="730" cy="665" r="1.1300548246672095" fill="white" opacity="0.47378961214801946"/><circle cx="103" cy="115" r="1.10856926672596" fill="white" opacity="0.415509041794124"/><circle cx="349" cy="379" r="1.2257052646278086" fill="white" opacity="0.7045681186180286"/><circle cx="419" cy="300" r="0.4822013066341521" fill="white" opacity="0.4474563360351283"/><circle cx="153" cy="894" r="0.8511678711215136" fill="white" opacity="0.49748806187355626"/><circle cx="873" cy="59" r="0.49241261718273904" fill="white" opacity="0.8892947718684476"/><circle cx="512" cy="42" r="1.0764212924040453" fill="white" opacity="0.6720893817189879"/><circle cx="449" cy="346" r="0.7373055526416119" fill="white" opacity="0.5037872316141352"/><circle cx="354" cy="257" r="0.45154331857681523" fill="white" opacity="0.5638652710260548"/><circle cx="55" cy="595" r="1.055124181064954" fill="white" opacity="0.8257590117641807"/><circle cx="554" cy="631" r="1.6831202897009185" fill="white" opacity="0.9627662275123365"/><circle cx="343" cy="940" r="1.6680084565026896" fill="white" opacity="0.31440278780980396"/><circle cx="834" cy="853" r="0.8709063930264456" fill="white" opacity="0.5498861391090553"/><circle cx="316" cy="193" r="0.32134607788838515" fill="white" opacity="0.6269663722638885"/><circle cx="824" cy="522" r="1.6409816809452606" fill="white" opacity="0.3811816335571679"/><circle cx="506" cy="522" r="0.3159687206926643" fill="white" opacity="0.46817721951011604"/><circle cx="636" cy="438" r="0.6365560878872965" fill="white" opacity="0.6665263910606627"/><circle cx="668" cy="37" r="1.1696405584911558" fill="white" opacity="0.6183325400998994"/><circle cx="266" cy="71" r="1.1044057960588936" fill="white" opacity="0.6672126816467943"/><circle cx="432" cy="714" r="1.5294145874776446" fill="white" opacity="0.771316025120202"/><circle cx="661" cy="58" r="0.8307072883114981" fill="white" opacity="0.8228009224187753"/><circle cx="31" cy="840" r="0.3660617763270359" fill="white" opacity="0.9537276744430745"/><circle cx="255" cy="853" r="0.36520163964722113" fill="white" opacity="0.3753188854347662"/><circle cx="294" cy="459" r="1.6008921659401716" fill="white" opacity="0.5500700390596334"/><circle cx="678" cy="560" r="1.2178628375177922" fill="white" opacity="0.3424806267096553"/><circle cx="179" cy="747" r="0.7718587530439895" fill="white" opacity="0.5986624350508929"/><circle cx="53" cy="140" r="1.161585081773725" fill="white" opacity="0.8556480062132548"/><circle cx="561" cy="267" r="0.8879275580835151" fill="white" opacity="0.6588621601281015"/><circle cx="801" cy="464" r="1.0809336742053481" fill="white" opacity="0.8871640739223434"/><circle cx="465" cy="520" r="0.9329741526022757" fill="white" opacity="0.7982347267210683"/><circle cx="644" cy="250" r="0.8726777409225426" fill="white" opacity="0.7810589587097145"/><circle cx="654" cy="678" r="0.5035885497073642" fill="white" opacity="0.49940508456616695"/><circle cx="681" cy="593" r="1.2687715218062203" fill="white" opacity="0.5632296776605037"/><circle cx="720" cy="410" r="0.8270796766459239" fill="white" opacity="0.7557075799073003"/><circle cx="720" cy="151" r="0.41793426226670544" fill="white" opacity="0.7701234651287415"/><circle cx="141" cy="827" r="1.6455745825806278" fill="white" opacity="0.3010967494847485"/><circle cx="698" cy="749" r="0.4926860877554374" fill="white" opacity="0.9049800786217264"/><circle cx="85" cy="815" r="0.3545299062091151" fill="white" opacity="0.93692388451402"/><circle cx="350" cy="799" r="1.3673734167291578" fill="white" opacity="0.5239958104175838"/><circle cx="887" cy="281" r="0.6021518009697759" fill="white" opacity="0.5979306704242453"/><circle cx="307" cy="730" r="1.693939109615259" fill="white" opacity="0.3051274759979505"/><circle cx="162" cy="87" r="1.3150659035985257" fill="white" opacity="0.9871600303730226"/><circle cx="920" cy="206" r="1.5966294871502245" fill="white" opacity="0.5308141578426384"/><circle cx="56" cy="307" r="0.8413303336954792" fill="white" opacity="0.36154189659058283"/><circle cx="672" cy="718" r="1.5960280941220328" fill="white" opacity="0.4009295872214518"/><circle cx="291" cy="902" r="0.7141978820578117" fill="white" opacity="0.6837541301325065"/><circle cx="863" cy="139" r="0.5504037447866632" fill="white" opacity="0.43462559140522855"/><circle cx="835" cy="865" r="1.6354075765476983" fill="white" opacity="0.5672968624218802"/><circle cx="700" cy="266" r="0.551102018492114" fill="white" opacity="0.4593150842335125"/><circle cx="249" cy="950" r="0.2367426501820174" fill="white" opacity="0.7421054400429182"/><circle cx="238" cy="416" r="1.2516047288727405" fill="white" opacity="0.4607189561453696"/><circle cx="743" cy="986" r="0.898711909767741" fill="white" opacity="0.7651468386943416"/><circle cx="735" cy="723" r="0.2128708533078278" fill="white" opacity="0.9462100790009371"/><circle cx="730" cy="35" r="1.5414852632110219" fill="white" opacity="0.4507687924490374"/><circle cx="94" cy="457" r="1.492478327885342" fill="white" opacity="0.5741295055363043"/><circle cx="227" cy="160" r="1.4576806137652516" fill="white" opacity="0.6312907538639785"/><circle cx="799" cy="656" r="0.6902402546885396" fill="white" opacity="0.4227190838752941"/><circle cx="84" cy="748" r="1.0407520317577954" fill="white" opacity="0.8240540971921169"/><circle cx="143" cy="968" r="0.707766578637619" fill="white" opacity="0.4957157529954648"/><circle cx="380" cy="158" r="1.2803497929332188" fill="white" opacity="0.6243348514799061"/><circle cx="362" cy="525" r="1.3100741153031097" fill="white" opacity="0.747895647997191"/><circle cx="372" cy="22" r="0.369879366262505" fill="white" opacity="0.448535958388182"/><circle cx="597" cy="774" r="1.0482081554079052" fill="white" opacity="0.6667769874373773"/><circle cx="110" cy="401" r="0.2349079662299069" fill="white" opacity="0.3590128212685963"/><circle cx="956" cy="583" r="0.8618915917765226" fill="white" opacity="0.7029704600987361"/><circle cx="998" cy="740" r="0.6577724427911404" fill="white" opacity="0.4381258881049607"/><circle cx="24" cy="447" r="1.113746166866698" fill="white" opacity="0.6589051952422221"/><circle cx="55" cy="755" r="0.9144980512079992" fill="white" opacity="0.434882888199831"/><circle cx="809" cy="553" r="0.42728652806044903" fill="white" opacity="0.4467246215465171"/><circle cx="77" cy="834" r="0.35755454227241884" fill="white" opacity="0.5764623243177536"/><circle cx="983" cy="849" r="0.7512594854773529" fill="white" opacity="0.4388142343047651"/><circle cx="928" cy="590" r="1.295760301961996" fill="white" opacity="0.3748260797990857"/><circle cx="180" cy="578" r="1.1628678173847555" fill="white" opacity="0.956027020406621"/><circle cx="696" cy="946" r="0.523731267257588" fill="white" opacity="0.9852685420426743"/><circle cx="616" cy="894" r="1.256125128671134" fill="white" opacity="0.5521522206416103"/><circle cx="423" cy="832" r="1.4906516900290927" fill="white" opacity="0.6930640302568376"/><circle cx="28" cy="176" r="0.9213587136085346" fill="white" opacity="0.6820483692693369"/><circle cx="633" cy="577" r="1.4359719076091715" fill="white" opacity="0.6443476875728571"/><circle cx="122" cy="13" r="1.2426012299294837" fill="white" opacity="0.7705107788709096"/><circle cx="710" cy="806" r="1.549228850674383" fill="white" opacity="0.67024659877655"/><circle cx="999" cy="136" r="0.8361902405514119" fill="white" opacity="0.5636368901513709"/><circle cx="744" cy="445" r="0.5402802283069543" fill="white" opacity="0.7558359447306116"/><circle cx="72" cy="190" r="1.055340487199709" fill="white" opacity="0.533104547083456"/><circle cx="555" cy="953" r="1.167697712318294" fill="white" opacity="0.9800836297156335"/><circle cx="908" cy="933" r="1.2617320002001622" fill="white" opacity="0.5541966581128658"/><circle cx="639" cy="119" r="1.4184201684450684" fill="white" opacity="0.3072681759773765"/><circle cx="518" cy="229" r="0.4857723041187864" fill="white" opacity="0.8832705987341922"/><circle cx="380" cy="783" r="0.7498326337983969" fill="white" opacity="0.42334917845319237"/><circle cx="29" cy="466" r="0.6901992925695684" fill="white" opacity="0.714767228443673"/><circle cx="259" cy="33" r="0.4119979436143429" fill="white" opacity="0.43351449703993283"/><circle cx="999" cy="950" r="1.5054346719679128" fill="white" opacity="0.496362589729065"/><circle cx="306" cy="111" r="0.8549831464273727" fill="white" opacity="0.9629330221908192"/><circle cx="562" cy="867" r="0.7496250530058799" fill="white" opacity="0.744935428047963"/><circle cx="651" cy="23" r="1.4504194609062344" fill="white" opacity="0.7201179504343089"/><circle cx="862" cy="446" r="1.6650832409086267" fill="white" opacity="0.4353476174637272"/><circle cx="872" cy="702" r="0.9803298675526497" fill="white" opacity="0.4109752634944642"/><circle cx="745" cy="939" r="0.20447362189643076" fill="white" opacity="0.3174764481891679"/><circle cx="109" cy="303" r="0.7260258971741822" fill="white" opacity="0.854760600164667"/><circle cx="816" cy="846" r="0.6921489403074261" fill="white" opacity="0.9763067412611304"/><circle cx="978" cy="200" r="1.6953658959413274" fill="white" opacity="0.4109896809583222"/><circle cx="466" cy="392" r="0.6123256804998243" fill="white" opacity="0.7812040669858"/><circle cx="87" cy="831" r="0.5818252410415112" fill="white" opacity="0.7611406645400783"/><circle cx="240" cy="233" r="0.9196464215846203" fill="white" opacity="0.5926513212785862"/><circle cx="191" cy="652" r="0.800669075171653" fill="white" opacity="0.9569731636275125"/><circle cx="505" cy="128" r="0.8183172670521246" fill="white" opacity="0.340245437210522"/><circle cx="607" cy="399" r="1.6945202484855277" fill="white" opacity="0.38607828220737817"/><circle cx="23" cy="603" r="1.2246718275885542" fill="white" opacity="0.9995524593410365"/><circle cx="566" cy="17" r="1.3842983434327" fill="white" opacity="0.7978880201619523"/><circle cx="779" cy="92" r="1.1047595781613593" fill="white" opacity="0.3704546814959171"/><circle cx="758" cy="699" r="1.6692836188726148" fill="white" opacity="0.7679917597796797"/><circle cx="203" cy="51" r="1.411889261317494" fill="white" opacity="0.6688963996431347"/><circle cx="120" cy="831" r="0.962363245800254" fill="white" opacity="0.727388018883928"/><circle cx="453" cy="621" r="0.45915535270618274" fill="white" opacity="0.8895594212022737"/><circle cx="271" cy="529" r="1.4355186456313247" fill="white" opacity="0.7473376720922177"/><circle cx="979" cy="101" r="1.2916770126608512" fill="white" opacity="0.6863274488728912"/><circle cx="370" cy="726" r="0.5437899706903171" fill="white" opacity="0.6950018706738194"/><circle cx="303" cy="516" r="1.2050686686341237" fill="white" opacity="0.9077599002626378"/><circle cx="369" cy="684" r="0.7874283762235219" fill="white" opacity="0.7816704436544661"/><circle cx="900" cy="527" r="0.8612998965001437" fill="white" opacity="0.4160876757817994"/><circle cx="895" cy="219" r="0.9754338411587369" fill="white" opacity="0.3034997245301506"/><circle cx="16" cy="224" r="1.3290976987163237" fill="white" opacity="0.9364264544032381"/><circle cx="134" cy="974" r="0.801123048063799" fill="white" opacity="0.5212669808886274"/><circle cx="539" cy="244" r="0.407827495367807" fill="white" opacity="0.9988425038645674"/><circle cx="714" cy="59" r="0.7680485692001415" fill="white" opacity="0.8239286982421374"/><circle cx="171" cy="121" r="1.2252428535625202" fill="white" opacity="0.7000928637218653"/><circle cx="143" cy="141" r="1.3356696047411696" fill="white" opacity="0.8072537960748378"/><circle cx="644" cy="111" r="0.7577229687755671" fill="white" opacity="0.5106563614881798"/><circle cx="68" cy="494" r="0.3519137850827336" fill="white" opacity="0.783130370439365"/><circle cx="184" cy="572" r="0.33371950439817283" fill="white" opacity="0.6714476716146305"/><circle cx="240" cy="303" r="1.194271787858432" fill="white" opacity="0.3998309524725313"/><circle cx="723" cy="404" r="0.42736441599952507" fill="white" opacity="0.542963763414356"/><circle cx="390" cy="74" r="0.5402577566105038" fill="white" opacity="0.7561649433499293"/><circle cx="561" cy="53" r="1.299103491256292" fill="white" opacity="0.7791086875880828"/><circle cx="122" cy="152" r="0.43823363786534525" fill="white" opacity="0.5362486768940657"/><circle cx="401" cy="267" r="0.7120330679808462" fill="white" opacity="0.32494074956756785"/><circle cx="847" cy="822" r="1.6757789271976187" fill="white" opacity="0.3860611498265425"/><circle cx="527" cy="184" r="1.0109609127852954" fill="white" opacity="0.7409459247595286"/><circle cx="870" cy="232" r="0.7105382259485382" fill="white" opacity="0.8925106161387866"/><circle cx="615" cy="870" r="0.3772225554950725" fill="white" opacity="0.35008465953957124"/><circle cx="185" cy="523" r="1.1138762112799965" fill="white" opacity="0.5380936747485374"/><circle cx="56" cy="921" r="1.2786611495612983" fill="white" opacity="0.584780068812875"/><circle cx="877" cy="392" r="0.9168775787500449" fill="white" opacity="0.9832573692489674"/><circle cx="11" cy="727" r="0.6850018479981228" fill="white" opacity="0.48418084020720653"/><circle cx="222" cy="835" r="1.3892646829038744" fill="white" opacity="0.3997888520339202"/><circle cx="64" cy="625" r="0.5760149370778616" fill="white" opacity="0.9482772750437614"/><circle cx="445" cy="930" r="0.7254591891389808" fill="white" opacity="0.8352561138189769"/><circle cx="15" cy="333" r="0.6967177527633379" fill="white" opacity="0.39901404418938696"/><circle cx="408" cy="613" r="1.4457378730854424" fill="white" opacity="0.3407922616982829"/><circle cx="952" cy="371" r="0.6785861950316441" fill="white" opacity="0.6722488007301297"/><circle cx="876" cy="570" r="0.22778025826907095" fill="white" opacity="0.6219113971135393"/><circle cx="581" cy="112" r="0.35218935644370425" fill="white" opacity="0.5872812266698506"/><circle cx="729" cy="111" r="0.37558504337966575" fill="white" opacity="0.4474904589274569"/><circle cx="148" cy="357" r="1.260009858568845" fill="white" opacity="0.9053426428996478"/><circle cx="315" cy="879" r="0.6903406888158223" fill="white" opacity="0.8864641398952018"/><circle cx="604" cy="66" r="1.2600090468600782" fill="white" opacity="0.8218766897179044"/><circle cx="554" cy="264" r="0.6505736549461323" fill="white" opacity="0.644197000728921"/><circle cx="797" cy="149" r="1.329809230750676" fill="white" opacity="0.7241691284711658"/><circle cx="285" cy="76" r="1.5841438971597726" fill="white" opacity="0.9409718701750076"/><circle cx="167" cy="261" r="0.39648402029677704" fill="white" opacity="0.9267939294803715"/><circle cx="390" cy="1" r="1.6149839130709265" fill="white" opacity="0.46766311627968304"/><circle cx="365" cy="667" r="1.6900357787111517" fill="white" opacity="0.33376148261134175"/><circle cx="784" cy="116" r="1.4179358787711076" fill="white" opacity="0.41304747902668737"/><circle cx="65" cy="190" r="0.6572859579403192" fill="white" opacity="0.4577410333686764"/><circle cx="191" cy="121" r="0.34231822717800725" fill="white" opacity="0.823613429450337"/><circle cx="705" cy="92" r="0.47539358435036344" fill="white" opacity="0.3125053959537277"/><circle cx="878" cy="551" r="1.550722112249661" fill="white" opacity="0.8487979944205071"/><circle cx="961" cy="613" r="1.0839534503883026" fill="white" opacity="0.4272188785078088"/><circle cx="804" cy="28" r="1.6630155919700067" fill="white" opacity="0.3524765789817183"/><circle cx="128" cy="72" r="0.22635077438288959" fill="white" opacity="0.6748202964621645"/><circle cx="72" cy="757" r="0.6043409682878809" fill="white" opacity="0.32799008970305316"/><circle cx="890" cy="883" r="0.8479962053269181" fill="white" opacity="0.836480092847991"/><circle cx="840" cy="177" r="0.43572966256215756" fill="white" opacity="0.7511373808668873"/><circle cx="242" cy="124" r="1.4505686800156405" fill="white" opacity="0.3225720087246259"/><circle cx="162" cy="471" r="0.6085480117300139" fill="white" opacity="0.39370759554619744"/><circle cx="624" cy="345" r="0.8540233475337156" fill="white" opacity="0.7828119957698199"/><circle cx="22" cy="658" r="0.59207797073621" fill="white" opacity="0.4279273077109752"/><circle cx="626" cy="461" r="1.586976402478742" fill="white" opacity="0.9118849384164798"/><circle cx="633" cy="864" r="1.2587624541292475" fill="white" opacity="0.5871090416875557"/><circle cx="596" cy="639" r="1.5112899471168502" fill="white" opacity="0.3698475097201108"/><circle cx="543" cy="498" r="1.4590047956755652" fill="white" opacity="0.5525992358041952"/><circle cx="117" cy="984" r="0.5843072007366377" fill="white" opacity="0.8344208177486496"/><circle cx="259" cy="31" r="1.432179926838718" fill="white" opacity="0.4490592298120777"/><circle cx="724" cy="848" r="1.3192498575145502" fill="white" opacity="0.6564046769821085"/><circle cx="473" cy="599" r="1.3082931215044538" fill="white" opacity="0.3149908412592178"/><circle cx="599" cy="218" r="1.3814594993880143" fill="white" opacity="0.575958552707219"/><circle cx="270" cy="255" r="1.671792280248751" fill="white" opacity="0.93288884815166"/><circle cx="267" cy="951" r="1.3949113281457264" fill="white" opacity="0.6738940455569041"/><circle cx="467" cy="274" r="1.415810119314335" fill="white" opacity="0.35394087120880474"/><circle cx="330" cy="614" r="1.3986543574264394" fill="white" opacity="0.4525444125023038"/><circle cx="209" cy="61" r="1.3397741388000066" fill="white" opacity="0.5891015471363839"/><circle cx="40" cy="756" r="0.7193558768482402" fill="white" opacity="0.8169884799449925"/><circle cx="90" cy="694" r="0.8668867183741138" fill="white" opacity="0.7353062224776867"/><circle cx="843" cy="425" r="1.6409147457410727" fill="white" opacity="0.3659000817151701"/><circle cx="407" cy="196" r="1.6934045629725205" fill="white" opacity="0.31391276734852874"/><circle cx="626" cy="340" r="0.541769361768315" fill="white" opacity="0.4742100389703087"/><circle cx="923" cy="958" r="0.6938233438715584" fill="white" opacity="0.8377539965673748"/><circle cx="763" cy="903" r="1.0008989705119813" fill="white" opacity="0.9128910772074592"/><circle cx="393" cy="120" r="1.3617394211146512" fill="white" opacity="0.3271122541973409"/><circle cx="651" cy="532" r="0.3394239469431351" fill="white" opacity="0.4150681134389895"/><circle cx="831" cy="977" r="0.7820780344681124" fill="white" opacity="0.32459081401781453"/><circle cx="226" cy="444" r="1.1500961749304481" fill="white" opacity="0.8835716031802072"/><circle cx="970" cy="811" r="0.8258021653573542" fill="white" opacity="0.3621515979339328"/><circle cx="562" cy="807" r="0.6803884743167663" fill="white" opacity="0.33316869761142615"/><circle cx="558" cy="912" r="0.5540108838852524" fill="white" opacity="0.6232941684737304"/><circle cx="898" cy="115" r="0.5869745840667111" fill="white" opacity="0.8262769504791818"/><circle cx="602" cy="602" r="1.5403343368446945" fill="white" opacity="0.7611963732159627"/><circle cx="117" cy="717" r="0.5999795787128466" fill="white" opacity="0.37938548961385343"/><circle cx="113" cy="72" r="1.4836347513882278" fill="white" opacity="0.3705732787330636"/><circle cx="13" cy="547" r="0.5567455473424237" fill="white" opacity="0.6784414244026991"/><circle cx="598" cy="676" r="0.6717017520632316" fill="white" opacity="0.6077960593343499"/><circle cx="39" cy="795" r="0.641539801744492" fill="white" opacity="0.7053262063448549"/><circle cx="89" cy="770" r="0.9859609727443386" fill="white" opacity="0.8409499250041856"/><circle cx="960" cy="672" r="0.7562449147972892" fill="white" opacity="0.6160182897787119"/><circle cx="653" cy="517" r="0.28013961020672645" fill="white" opacity="0.7539631761019611"/><circle cx="581" cy="699" r="1.0252759578632962" fill="white" opacity="0.7234183730569222"/><circle cx="389" cy="642" r="0.5454690554858339" fill="white" opacity="0.36456685962069824"/><circle cx="417" cy="20" r="0.6831839039229406" fill="white" opacity="0.5781219528073007"/><circle cx="260" cy="946" r="0.3069823448133702" fill="white" opacity="0.5167438363399299"/><circle cx="323" cy="803" r="1.1437342125355419" fill="white" opacity="0.7258965106222081"/><circle cx="534" cy="417" r="1.2354176741091634" fill="white" opacity="0.7258117532615331"/><circle cx="551" cy="104" r="1.1317221701104667" fill="white" opacity="0.6665562880207052"/><circle cx="620" cy="565" r="0.31064239380547426" fill="white" opacity="0.734028718226"/><circle cx="337" cy="137" r="1.259513644533261" fill="white" opacity="0.5005043278842459"/><circle cx="228" cy="564" r="1.045618646579631" fill="white" opacity="0.832733968562122"/><circle cx="752" cy="998" r="1.6035128620385835" fill="white" opacity="0.32196638181130477"/><circle cx="47" cy="99" r="0.2606805303698729" fill="white" opacity="0.6766706375058269"/><circle cx="126" cy="774" r="0.3306630857863671" fill="white" opacity="0.9292701779084651"/><circle cx="344" cy="544" r="1.1411335800008549" fill="white" opacity="0.647217837879489"/><circle cx="752" cy="955" r="1.480645537112277" fill="white" opacity="0.9724331022484853"/><circle cx="830" cy="815" r="1.1114871546309164" fill="white" opacity="0.8014940368492243"/><circle cx="598" cy="219" r="1.3114280425434492" fill="white" opacity="0.8273280965383845"/><circle cx="869" cy="317" r="0.34428131399743717" fill="white" opacity="0.5129474653980635"/><circle cx="984" cy="490" r="1.4384376528798581" fill="white" opacity="0.7633547330045647"/><circle cx="758" cy="567" r="0.7155277287061022" fill="white" opacity="0.9591612163216341"/><circle cx="763" cy="382" r="0.4574023967912864" fill="white" opacity="0.551863248421577"/><circle cx="858" cy="291" r="0.44755228708563827" fill="white" opacity="0.8677124832959728"/><circle cx="373" cy="995" r="1.5182388999792344" fill="white" opacity="0.466937076634435"/><circle cx="692" cy="412" r="0.6455386248026831" fill="white" opacity="0.8961690186265279"/><circle cx="954" cy="10" r="0.4104367911650127" fill="white" opacity="0.6387798128337046"/><circle cx="295" cy="688" r="1.6234152499478893" fill="white" opacity="0.7654784364484977"/><circle cx="846" cy="984" r="1.5311649166541523" fill="white" opacity="0.6905664800476576"/><circle cx="841" cy="109" r="1.062329008401192" fill="white" opacity="0.5719689185698573"/><circle cx="863" cy="66" r="0.21481219651610312" fill="white" opacity="0.3015832367173728"/><circle cx="455" cy="376" r="1.1368726390207669" fill="white" opacity="0.7090438592973247"/><circle cx="812" cy="449" r="1.6936482176812102" fill="white" opacity="0.8194735207463812"/><circle cx="211" cy="770" r="0.8355379142633887" fill="white" opacity="0.40817391753781046"/><circle cx="744" cy="979" r="1.3712882246873754" fill="white" opacity="0.5346999152862735"/><circle cx="122" cy="454" r="1.0509914238032827" fill="white" opacity="0.7130362764183495"/><circle cx="957" cy="560" r="0.6296124940422085" fill="white" opacity="0.8287168765989485"/><circle cx="98" cy="139" r="0.4032689025091975" fill="white" opacity="0.7383968521099245"/><circle cx="363" cy="646" r="1.0664202844260877" fill="white" opacity="0.9220139721701666"/><circle cx="64" cy="333" r="0.6382459631844892" fill="white" opacity="0.932563958242062"/><circle cx="181" cy="354" r="0.708916997880022" fill="white" opacity="0.6304120563356133"/><circle cx="402" cy="454" r="0.3470791174519587" fill="white" opacity="0.7840216639943651"/><circle cx="55" cy="388" r="0.8549657602135317" fill="white" opacity="0.7895351319279128"/><circle cx="133" cy="159" r="0.8871105131104375" fill="white" opacity="0.8464457180294109"/><circle cx="816" cy="354" r="0.8937935932901422" fill="white" opacity="0.4071417251245444"/><circle cx="244" cy="160" r="0.24963412000561774" fill="white" opacity="0.976470743456552"/><circle cx="43" cy="740" r="0.5896639860982695" fill="white" opacity="0.954149740248516"/><circle cx="555" cy="846" r="0.7887316820738366" fill="white" opacity="0.7366466041868535"/><circle cx="62" cy="851" r="0.8736846680925139" fill="white" opacity="0.6208317647008312"/><circle cx="779" cy="115" r="1.3494227858202954" fill="white" opacity="0.591334246396038"/><circle cx="174" cy="53" r="0.8212820934966547" fill="white" opacity="0.5764798768721652"/><circle cx="751" cy="483" r="1.318173781855765" fill="white" opacity="0.9660087524914658"/><circle cx="124" cy="11" r="1.023982578849454" fill="white" opacity="0.6690515903993707"/><circle cx="131" cy="255" r="0.3915206765100557" fill="white" opacity="0.7099839293101351"/><circle cx="701" cy="486" r="0.25926390404040817" fill="white" opacity="0.3477697350853086"/><circle cx="383" cy="95" r="0.27727559780149397" fill="white" opacity="0.6348076825086948"/><circle cx="815" cy="890" r="1.4765413989141234" fill="white" opacity="0.7839257581262042"/><circle cx="875" cy="537" r="0.8192848683616705" fill="white" opacity="0.5038164695106163"/><circle cx="433" cy="193" r="1.310717216062071" fill="white" opacity="0.6838779451486914"/><circle cx="246" cy="75" r="0.6318403715672574" fill="white" opacity="0.5838937840198158"/><circle cx="263" cy="114" r="0.7673419671630841" fill="white" opacity="0.3377115139320275"/><circle cx="256" cy="772" r="0.7280380610269437" fill="white" opacity="0.6183350496879807"/><circle cx="801" cy="153" r="1.2271287447518413" fill="white" opacity="0.9995987448203765"/><circle cx="950" cy="677" r="1.1290601168237766" fill="white" opacity="0.9097586927924066"/><circle cx="340" cy="376" r="1.6892641523947556" fill="white" opacity="0.8842379456875691"/><circle cx="520" cy="910" r="0.47545844203158943" fill="white" opacity="0.9426398900749369"/><circle cx="663" cy="218" r="0.6796023519233825" fill="white" opacity="0.5533646280936829"/><circle cx="923" cy="145" r="0.8020053064410706" fill="white" opacity="0.7377809552464685"/><circle cx="39" cy="872" r="0.949956130906348" fill="white" opacity="0.33186986061867596"/><circle cx="212" cy="420" r="1.421657613432155" fill="white" opacity="0.6783161683022332"/><circle cx="147" cy="483" r="1.0703320844885864" fill="white" opacity="0.8784624416665561"/><circle cx="806" cy="362" r="1.0512265703851227" fill="white" opacity="0.38044600145031954"/><circle cx="477" cy="41" r="0.6507522407760666" fill="white" opacity="0.6894749339935846"/><circle cx="355" cy="604" r="0.7726544189707869" fill="white" opacity="0.8735277434707063"/><circle cx="683" cy="594" r="1.2145501378431602" fill="white" opacity="0.4686763434056329"/><circle cx="27" cy="324" r="0.3930687053735615" fill="white" opacity="0.689445411417045"/><circle cx="3" cy="318" r="1.492664805758597" fill="white" opacity="0.9310184830355377"/><circle cx="641" cy="230" r="0.5285648200664887" fill="white" opacity="0.9734006725652959"/><circle cx="167" cy="285" r="0.34300939139835024" fill="white" opacity="0.6163846725463458"/><circle cx="772" cy="605" r="1.5567928770549706" fill="white" opacity="0.6300767321405781"/><circle cx="443" cy="718" r="1.220571304300822" fill="white" opacity="0.33522194305381015"/><circle cx="838" cy="210" r="0.48983911646570993" fill="white" opacity="0.5196590939057133"/><circle cx="357" cy="419" r="1.3771158520139462" fill="white" opacity="0.44072347835570375"/><circle cx="391" cy="470" r="0.5089883612261885" fill="white" opacity="0.6206426212390952"/><circle cx="467" cy="935" r="0.6223947787420552" fill="white" opacity="0.4612446463858233"/><circle cx="286" cy="572" r="0.4161917680065553" fill="white" opacity="0.6005307317401609"/><circle cx="565" cy="463" r="1.4316469915669032" fill="white" opacity="0.8668616407865535"/><circle cx="56" cy="185" r="1.0525477688986964" fill="white" opacity="0.4354121914745688"/><circle cx="88" cy="202" r="1.5344996172554208" fill="white" opacity="0.5824943424358207"/><circle cx="901" cy="918" r="0.7455318655707399" fill="white" opacity="0.7580244241268612"/><circle cx="630" cy="268" r="1.0326131857312209" fill="white" opacity="0.7881130968247156"/><circle cx="528" cy="331" r="0.9941526166848349" fill="white" opacity="0.5111009279434919"/><circle cx="29" cy="597" r="1.3887894275486887" fill="white" opacity="0.9011373015658679"/><circle cx="894" cy="394" r="1.1870295218805145" fill="white" opacity="0.6653967379331691"/><circle cx="208" cy="449" r="0.8917898404091051" fill="white" opacity="0.7628949969754044"/><circle cx="930" cy="282" r="0.380229196821466" fill="white" opacity="0.87267127890575"/><circle cx="999" cy="326" r="1.575841130343094" fill="white" opacity="0.948460129649656"/><circle cx="433" cy="178" r="1.55012042134649" fill="white" opacity="0.6113985429860708"/><circle cx="383" cy="131" r="1.492754582567944" fill="white" opacity="0.8316926805455032"/><circle cx="229" cy="465" r="1.2457301735808972" fill="white" opacity="0.33502923860579126"/><circle cx="954" cy="670" r="0.38220196727652694" fill="white" opacity="0.5449016271082826"/><circle cx="173" cy="782" r="0.3700284433672128" fill="white" opacity="0.875718119329232"/><circle cx="258" cy="129" r="1.2354267050643506" fill="white" opacity="0.537002986085215"/><circle cx="889" cy="304" r="1.072051101242582" fill="white" opacity="0.6432073414217845"/><circle cx="976" cy="882" r="1.1419123645157259" fill="white" opacity="0.5452431043932379"/><circle cx="323" cy="508" r="0.9875643976739403" fill="white" opacity="0.47628860310171356"/><circle cx="406" cy="548" r="0.21779912257572048" fill="white" opacity="0.4102086018121555"/><circle cx="981" cy="696" r="1.0913908275648863" fill="white" opacity="0.6113075554912724"/><circle cx="930" cy="881" r="0.7028822456789152" fill="white" opacity="0.93139123032499"/><circle cx="8" cy="354" r="1.0696434737222686" fill="white" opacity="0.337188915515103"/><circle cx="13" cy="132" r="0.4251598273397678" fill="white" opacity="0.8271149331395766"/><circle cx="812" cy="835" r="0.6483915575977357" fill="white" opacity="0.9702762241441005"/><circle cx="812" cy="877" r="0.5981178613298839" fill="white" opacity="0.3700853599005427"/><circle cx="484" cy="446" r="1.5033548908520906" fill="white" opacity="0.5538293193307617"/><circle cx="991" cy="468" r="0.3705919976437176" fill="white" opacity="0.7522755177271312"/><circle cx="939" cy="766" r="1.2472973932003029" fill="white" opacity="0.502923722965099"/><circle cx="83" cy="398" r="1.2591848073648968" fill="white" opacity="0.33152106977815715"/><circle cx="599" cy="360" r="1.492494135884607" fill="white" opacity="0.3079864568517158"/><circle cx="460" cy="639" r="0.8429284930638339" fill="white" opacity="0.9580530490180605"/><circle cx="998" cy="398" r="1.290812767558339" fill="white" opacity="0.6637632779762715"/><circle cx="602" cy="307" r="0.6242308043634093" fill="white" opacity="0.3515669411279114"/><circle cx="640" cy="873" r="1.3579864757219442" fill="white" opacity="0.5158207216148589"/><circle cx="467" cy="428" r="0.30734665952736334" fill="white" opacity="0.6556500785500776"/><circle cx="873" cy="493" r="1.301834496909241" fill="white" opacity="0.44013078924227905"/><circle cx="37" cy="198" r="1.1796082873398457" fill="white" opacity="0.7263049052390053"/><circle cx="363" cy="490" r="0.9230520889389349" fill="white" opacity="0.31584924562983374"/><circle cx="119" cy="761" r="1.1025471105842641" fill="white" opacity="0.37546770382500905"/><circle cx="410" cy="460" r="1.1066244705831325" fill="white" opacity="0.5634625185924342"/><circle cx="252" cy="951" r="0.5244204253617408" fill="white" opacity="0.5408374224647401"/><circle cx="14" cy="40" r="1.2743519805118257" fill="white" opacity="0.9965895635670377"/><circle cx="578" cy="306" r="1.6765360589639149" fill="white" opacity="0.9845565817808626"/><circle cx="127" cy="447" r="0.6115515491784498" fill="white" opacity="0.9470629442750802"/><circle cx="57" cy="881" r="0.5688557421501377" fill="white" opacity="0.7160780543094163"/><circle cx="161" cy="271" r="1.1701832149592615" fill="white" opacity="0.6662642572791511"/><circle cx="110" cy="272" r="0.5685270078412921" fill="white" opacity="0.6388927700643507"/><circle cx="317" cy="290" r="1.4075637281070357" fill="white" opacity="0.8374991390047448"/><circle cx="970" cy="722" r="1.542171248241589" fill="white" opacity="0.9684439258715318"/><circle cx="729" cy="776" r="0.7322987110598671" fill="white" opacity="0.46641123770720183"/><circle cx="465" cy="182" r="0.7519444401071151" fill="white" opacity="0.6673182337863486"/><circle cx="507" cy="733" r="1.3736296914724546" fill="white" opacity="0.4455409042252817"/><circle cx="925" cy="436" r="0.8180412031713999" fill="white" opacity="0.456027874258331"/><circle cx="340" cy="222" r="0.46014141900942024" fill="white" opacity="0.645701538646466"/><circle cx="390" cy="943" r="1.4406468851041219" fill="white" opacity="0.6457891526740747"/><circle cx="986" cy="267" r="1.5245485457672026" fill="white" opacity="0.7764308837290848"/><circle cx="248" cy="708" r="0.5666459389033942" fill="white" opacity="0.8572360724663173"/><circle cx="668" cy="494" r="1.332695808729732" fill="white" opacity="0.6316208056198965"/><circle cx="327" cy="908" r="0.9032102517428862" fill="white" opacity="0.6452893558901456"/><circle cx="34" cy="166" r="0.7864714874896503" fill="white" opacity="0.5163738613819104"/><circle cx="837" cy="703" r="1.3502967445639378" fill="white" opacity="0.6928711413836439"/><circle cx="778" cy="672" r="1.0406484527692073" fill="white" opacity="0.46440213747800385"/><circle cx="522" cy="958" r="0.8320074985950363" fill="white" opacity="0.7163101814804345"/><circle cx="706" cy="122" r="1.1064330802042652" fill="white" opacity="0.6657534480386611"/><circle cx="387" cy="870" r="0.3002160323986966" fill="white" opacity="0.8126624725942315"/><circle cx="10" cy="648" r="1.4109375144935845" fill="white" opacity="0.7643796001634606"/><circle cx="664" cy="205" r="1.6125008764576207" fill="white" opacity="0.7921713500317563"/><circle cx="294" cy="55" r="1.5335002036709529" fill="white" opacity="0.787052483776524"/><circle cx="152" cy="930" r="1.1627536106368574" fill="white" opacity="0.598494995579564"/><circle cx="591" cy="941" r="0.23986466771749088" fill="white" opacity="0.5262185990663933"/><circle cx="205" cy="438" r="0.224535820531441" fill="white" opacity="0.8853065066344121"/><circle cx="352" cy="258" r="1.5735724592814277" fill="white" opacity="0.3534835951364934"/><circle cx="657" cy="128" r="1.5358944806975023" fill="white" opacity="0.6888205899011932"/><circle cx="587" cy="211" r="1.1494844690834922" fill="white" opacity="0.8054852154852914"/><circle cx="883" cy="884" r="0.9395417978589058" fill="white" opacity="0.3993244297092808"/><circle cx="242" cy="51" r="0.8531987859120178" fill="white" opacity="0.8996981986720756"/><circle cx="684" cy="996" r="0.6239816239376614" fill="white" opacity="0.4259449385809728"/><circle cx="15" cy="187" r="0.2816820697379239" fill="white" opacity="0.8088189329924631"/><circle cx="140" cy="155" r="1.6668318021661295" fill="white" opacity="0.8038078758332763"/><circle cx="595" cy="719" r="0.6828003849668736" fill="white" opacity="0.7026586213146309"/><circle cx="282" cy="505" r="1.6777575505606048" fill="white" opacity="0.6597720857655134"/><circle cx="570" cy="192" r="1.4138514704951908" fill="white" opacity="0.8164198854905096"/><circle cx="14" cy="254" r="0.8479582500306355" fill="white" opacity="0.7702522113337638"/><circle cx="620" cy="338" r="0.6914319410639795" fill="white" opacity="0.6693290062362591"/><circle cx="996" cy="634" r="1.033677916146251" fill="white" opacity="0.6094945972430637"/><circle cx="290" cy="477" r="0.48937172964938663" fill="white" opacity="0.861600180511737"/><circle cx="877" cy="983" r="0.2856862220448721" fill="white" opacity="0.6691244741023668"/><circle cx="430" cy="398" r="1.06268131663026" fill="white" opacity="0.5454707120374405"/><circle cx="216" cy="201" r="1.5005519839267478" fill="white" opacity="0.7846189334037044"/><circle cx="184" cy="666" r="1.6805746328582416" fill="white" opacity="0.6739150892394198"/><circle cx="42" cy="974" r="1.479535858751542" fill="white" opacity="0.7845606210145875"/><circle cx="207" cy="276" r="1.2632022218719323" fill="white" opacity="0.5293702052137981"/><circle cx="136" cy="25" r="0.5073445074328391" fill="white" opacity="0.8363107532280936"/><circle cx="424" cy="752" r="0.2334059590245991" fill="white" opacity="0.9345848826382188"/><circle cx="988" cy="483" r="1.069873477281312" fill="white" opacity="0.362824032473183"/><circle cx="854" cy="713" r="1.0998360560912552" fill="white" opacity="0.5958824614676195"/><circle cx="551" cy="586" r="0.2022884799060936" fill="white" opacity="0.9349361355134156"/><circle cx="226" cy="759" r="0.4408662708199595" fill="white" opacity="0.36968858985323894"/><circle cx="530" cy="62" r="0.7718226364323473" fill="white" opacity="0.6963513513183367"/><circle cx="862" cy="251" r="1.4619284325265507" fill="white" opacity="0.4149179121298544"/><circle cx="265" cy="454" r="1.2650312642592085" fill="white" opacity="0.8310702335589655"/><circle cx="885" cy="963" r="0.44884037560977513" fill="white" opacity="0.7196768511093554"/><circle cx="390" cy="573" r="0.8356425190964083" fill="white" opacity="0.5462780536158596"/><circle cx="18" cy="784" r="1.2936690205876429" fill="white" opacity="0.45293125988534383"/><circle cx="115" cy="564" r="1.398121533908285" fill="white" opacity="0.6962638092340514"/><circle cx="782" cy="596" r="0.45790270945301753" fill="white" opacity="0.9433351829253409"/><circle cx="255" cy="863" r="1.031949543515469" fill="white" opacity="0.981931884342264"/><circle cx="164" cy="611" r="1.2370972203120891" fill="white" opacity="0.617680948066095"/><circle cx="59" cy="140" r="1.1864130350371835" fill="white" opacity="0.9037040161037837"/><circle cx="161" cy="543" r="0.8507995370605088" fill="white" opacity="0.4671884767655182"/><circle cx="993" cy="864" r="1.1201206701471245" fill="white" opacity="0.4453526640710649"/><circle cx="350" cy="730" r="1.56532861702988" fill="white" opacity="0.37506641129561324"/><circle cx="291" cy="100" r="1.6116692493113915" fill="white" opacity="0.9331490922187724"/><circle cx="558" cy="428" r="0.36980546599502123" fill="white" opacity="0.8825057923298048"/><circle cx="448" cy="808" r="1.1706000866988469" fill="white" opacity="0.5671147620626416"/><circle cx="810" cy="205" r="0.21172911689331914" fill="white" opacity="0.9967202839866232"/><circle cx="217" cy="937" r="0.29322961243084283" fill="white" opacity="0.307828365852212"/><circle cx="758" cy="398" r="1.5706578560050348" fill="white" opacity="0.3554942280789434"/><circle cx="804" cy="445" r="0.8806897131512175" fill="white" opacity="0.6077957177970332"/><circle cx="685" cy="747" r="1.5543077650221224" fill="white" opacity="0.5516113176047984"/><circle cx="260" cy="628" r="0.6950552662576475" fill="white" opacity="0.8291505629499463"/><circle cx="872" cy="509" r="1.1224413189609597" fill="white" opacity="0.985923651303388"/><circle cx="577" cy="157" r="0.46903246409932814" fill="white" opacity="0.6850426525441784"/>
      <circle cx="685" cy="830" r="110.43506717604569" fill="#4a4aff" opacity="0.025382665007419165"/><circle cx="560" cy="210" r="128.7753397167939" fill="#4a4aff" opacity="0.024818695151529218"/><circle cx="201" cy="142" r="144.002066892132" fill="#4a4aff" opacity="0.04234582097058705"/><circle cx="72" cy="436" r="114.49163966973828" fill="#4a4aff" opacity="0.02928839978625898"/><circle cx="57" cy="738" r="95.6997010498458" fill="#4a4aff" opacity="0.056943044999438516"/><circle cx="148" cy="556" r="118.49209103806679" fill="#4a4aff" opacity="0.044205949035344846"/><circle cx="975" cy="6" r="84.9910572952993" fill="#4a4aff" opacity="0.03932157415174989"/><circle cx="532" cy="924" r="51.679281924935985" fill="#4a4aff" opacity="0.03359855936142224"/><circle cx="916" cy="207" r="98.63860178044526" fill="#4a4aff" opacity="0.03771510287849288"/><circle cx="371" cy="63" r="56.41836369070108" fill="#4a4aff" opacity="0.0679330477577489"/><circle cx="900" cy="590" r="91.70856603010537" fill="#4a4aff" opacity="0.032418524978731794"/><circle cx="761" cy="257" r="101.74953958904796" fill="#4a4aff" opacity="0.023434388896229646"/><circle cx="249" cy="821" r="93.05694717259982" fill="#4a4aff" opacity="0.03710908365331932"/><circle cx="761" cy="331" r="77.32707056307845" fill="#4a4aff" opacity="0.04391796361945795"/><circle cx="821" cy="474" r="122.16487021178185" fill="#4a4aff" opacity="0.06845608009949129"/><circle cx="22" cy="136" r="53.842618266694565" fill="#4a4aff" opacity="0.05140706149314789"/><circle cx="721" cy="129" r="75.97809858668057" fill="#4a4aff" opacity="0.05979365621041684"/><circle cx="559" cy="370" r="73.79989537130538" fill="#4a4aff" opacity="0.04908310869133537"/><circle cx="665" cy="530" r="139.9561500078562" fill="#4a4aff" opacity="0.04596938548295988"/><circle cx="111" cy="133" r="100.11027746328969" fill="#4a4aff" opacity="0.04792020544734564"/>
      <circle cx="143" cy="823" r="62.16906132842871" fill="#4affff" opacity="0.05735368874501495"/><circle cx="195" cy="477" r="90.0014737346186" fill="#4affff" opacity="0.057631496669218865"/><circle cx="65" cy="163" r="84.21622828811246" fill="#4affff" opacity="0.058609911529994965"/><circle cx="440" cy="56" r="66.80998843221357" fill="#4affff" opacity="0.026226094912352088"/><circle cx="516" cy="21" r="109.34407696942284" fill="#4affff" opacity="0.031911933229763"/><circle cx="294" cy="500" r="105.0813792314824" fill="#4affff" opacity="0.027127686314398974"/><circle cx="925" cy="35" r="93.61237699065515" fill="#4affff" opacity="0.06343691535568176"/><circle cx="495" cy="976" r="67.85408012995175" fill="#4affff" opacity="0.06785377061375153"/><circle cx="983" cy="370" r="50.541752744816804" fill="#4affff" opacity="0.031001784518220103"/><circle cx="949" cy="193" r="49.44457995255695" fill="#4affff" opacity="0.03322503863178329"/>
    </svg>