<svg xmlns="http://www.w3.org/2000/svg" width="1000" height="1000" viewBox="0 0 1000 1000"><rect width="1000" height="1000" fill="#000005"/><circle cx="897" cy="404" r="1.472" fill="#fff" opacity=".819"/><circle cx="323" cy="151" r=".896" fill="#fff" opacity=".457"/><circle cx="795" cy="601" r="1.347" fill="#fff" opacity=".71"/><circle cx="125" cy="842" r=".424" fill="#fff" opacity=".658"/><circle cx="227" cy="977" r=".743" fill="#fff" opacity=".957"/><circle cx="762" cy="497" r="1.452" fill="#fff" opacity=".575"/><circle cx="895" cy="531" r=".273" fill="#fff" opacity=".338"/><circle cx="758" cy="542" r=".532" fill="#fff" opacity=".93"/><circle cx="126" cy="628" r="1.316" fill="#fff" opacity=".649"/><circle cx="961" cy="346" r=".535" fill="#fff" opacity=".545"/><circle cx="890" cy="186" r=".432" fill="#fff" opacity=".796"/><circle cx="791" cy="146" r=".412" fill="#fff" opacity=".926"/><circle cx="603" cy="646" r="1.357" fill="#fff" opacity=".623"/><circle cx="765" cy="816" r="1.698" fill="#fff" opacity=".436"/><circle cx="824" cy="136" r="1.48" fill="#fff" opacity=".743"/><circle cx="49" cy="699" r="1.059" fill="#fff" opacity=".547"/><circle cx="403" cy="299" r="1.432" fill="#fff" opacity=".98"/><circle cx="5" cy="169" r=".619" fill="#fff" opacity=".479"/><circle cx="939" cy="264" r="1.174" fill="#fff" opacity=".496"/><circle cx="998" cy="746" r="1.658" fill="#fff" opacity=".411"/><circle cx="745" cy="270" r="1.69" fill="#fff" opacity=".998"/><circle cx="598" cy="286" r="1.112" fill="#fff" opacity=".425"/><circle cx="785" cy="75" r="1.184" fill="#fff" opacity=".89"/><circle cx="577" cy="586" r=".324" fill="#fff" opacity=".698"/><circle cx="178" cy="147" r="1.294" fill="#fff" opacity=".547"/><circle cx="906" cy="638" r="1.44" fill="#fff" opacity=".622"/><circle cx="140" cy="514" r="1.285" fill="#fff" opacity=".817"/><circle cx="307" cy="14" r=".464" fill="#fff" opacity=".809"/><circle cx="579" cy="363" r="1.358" fill="#fff" opacity=".744"/><circle cx="740" cy="845" r="1.461" fill="#fff" opacity=".975"/><circle cx="756" cy="430" r=".47" fill="#fff" opacity=".405"/><circle cx="681" cy="492" r="1.36" fill="#fff" opacity=".469"/><circle cx="339" cy="647" r=".628" fill="#fff" opacity=".768"/><circle cx="362" cy="803" r="1.379" fill="#fff" opacity=".463"/><circle cx="988" cy="597" r=".237" fill="#fff" opacity=".472"/><circle cx="684" cy="487" r=".215" fill="#fff" opacity=".925"/><circle cx="799" cy="183" r=".436" fill="#fff" opacity=".651"/><circle cx="855" cy="274" r=".243" fill="#fff" opacity=".821"/><circle cx="301" cy="662" r=".75" fill="#fff" opacity=".319"/><circle cx="873" cy="616" r="1.673" fill="#fff" opacity=".654"/><circle cx="219" cy="102" r="1.239" fill="#fff" opacity=".491"/><circle cx="659" cy="508" r="1.378" fill="#fff" opacity=".789"/><circle cx="780" cy="83" r=".207" fill="#fff" opacity=".79"/><circle cx="313" cy="510" r=".807" fill="#fff" opacity=".302"/><circle cx="107" cy="218" r="1.447" fill="#fff" opacity=".898"/><circle cx="772" cy="410" r=".326" fill="#fff" opacity=".473"/><circle cx="788" cy="535" r="1.071" fill="#fff" opacity=".532"/><circle cx="716" cy="118" r="1.076" fill="#fff" opacity=".894"/><circle cx="758" cy="480" r=".4" fill="#fff" opacity=".643"/><circle cx="930" cy="611" r="1.593" fill="#fff" opacity=".937"/><circle cx="128" cy="947" r=".741" fill="#fff" opacity=".347"/><circle cx="2" cy="567" r=".301" fill="#fff" opacity=".307"/><circle cx="70" cy="445" r="1.002" fill="#fff" opacity=".812"/><circle cx="103" cy="107" r="1.397" fill="#fff" opacity=".455"/><circle cx="921" cy="634" r="1.67" fill="#fff" opacity=".868"/><circle cx="703" cy="933" r=".757" fill="#fff" opacity=".631"/><circle cx="361" cy="598" r=".376" fill="#fff" opacity=".614"/><circle cx="381" cy="57" r="1.617" fill="#fff" opacity=".699"/><circle cx="457" cy="18" r="1.08" fill="#fff" opacity=".771"/><circle cx="548" cy="920" r="1.46" fill="#fff" opacity=".313"/><circle cx="771" cy="964" r=".64" fill="#fff" opacity=".406"/><circle cx="227" cy="383" r=".858" fill="#fff" opacity=".502"/><circle cx="600" cy="3" r=".464" fill="#fff" opacity=".313"/><circle cx="643" cy="172" r=".861" fill="#fff" opacity=".87"/><circle cx="379" cy="980" r=".539" fill="#fff" opacity=".868"/><circle cx="757" cy="490" r="1.169" fill="#fff" opacity=".302"/><circle cx="625" cy="598" r=".566" fill="#fff" opacity=".878"/><circle cx="231" cy="739" r=".358" fill="#fff" opacity=".971"/><circle cx="826" cy="579" r="1.592" fill="#fff" opacity=".826"/><circle cx="112" cy="614" r="1.661" fill="#fff" opacity=".473"/><circle cx="84" cy="146" r=".949" fill="#fff" opacity=".76"/><circle cx="807" cy="707" r="1.057" fill="#fff" opacity=".473"/><circle cx="83" cy="414" r=".419" fill="#fff" opacity=".86"/><circle cx="637" cy="511" r=".743" fill="#fff" opacity=".315"/><circle cx="121" cy="423" r="1.099" fill="#fff" opacity=".342"/><circle cx="689" cy="845" r="1.131" fill="#fff" opacity=".472"/><circle cx="722" cy="307" r=".515" fill="#fff" opacity=".92"/><circle cx="730" cy="665" r="1.13" fill="#fff" opacity=".474"/><circle cx="103" cy="115" r="1.109" fill="#fff" opacity=".416"/><circle cx="349" cy="379" r="1.226" fill="#fff" opacity=".705"/><circle cx="419" cy="300" r=".482" fill="#fff" opacity=".447"/><circle cx="153" cy="894" r=".851" fill="#fff" opacity=".497"/><circle cx="873" cy="59" r=".492" fill="#fff" opacity=".889"/><circle cx="512" cy="42" r="1.076" fill="#fff" opacity=".672"/><circle cx="449" cy="346" r=".737" fill="#fff" opacity=".504"/><circle cx="354" cy="257" r=".452" fill="#fff" opacity=".564"/><circle cx="55" cy="595" r="1.055" fill="#fff" opacity=".826"/><circle cx="554" cy="631" r="1.683" fill="#fff" opacity=".963"/><circle cx="343" cy="940" r="1.668" fill="#fff" opacity=".314"/><circle cx="834" cy="853" r=".871" fill="#fff" opacity=".55"/><circle cx="316" cy="193" r=".321" fill="#fff" opacity=".627"/><circle cx="824" cy="522" r="1.641" fill="#fff" opacity=".381"/><circle cx="506" cy="522" r=".316" fill="#fff" opacity=".468"/><circle cx="636" cy="438" r=".637" fill="#fff" opacity=".667"/><circle cx="668" cy="37" r="1.17" fill="#fff" opacity=".618"/><circle cx="266" cy="71" r="1.104" fill="#fff" opacity=".667"/><circle cx="432" cy="714" r="1.529" fill="#fff" opacity=".771"/><circle cx="661" cy="58" r=".831" fill="#fff" opacity=".823"/><circle cx="31" cy="840" r=".366" fill="#fff" opacity=".954"/><circle cx="255" cy="853" r=".365" fill="#fff" opacity=".375"/><circle cx="294" cy="459" r="1.601" fill="#fff" opacity=".55"/><circle cx="678" cy="560" r="1.218" fill="#fff" opacity=".342"/><circle cx="179" cy="747" r=".772" fill="#fff" opacity=".599"/><circle cx="53" cy="140" r="1.162" fill="#fff" opacity=".856"/><circle cx="561" cy="267" r=".888" fill="#fff" opacity=".659"/><circle cx="801" cy="464" r="1.081" fill="#fff" opacity=".887"/><circle cx="465" cy="520" r=".933" fill="#fff" opacity=".798"/><circle cx="644" cy="250" r=".873" fill="#fff" opacity=".781"/><circle cx="654" cy="678" r=".504" fill="#fff" opacity=".499"/><circle cx="681" cy="593" r="1.269" fill="#fff" opacity=".563"/><circle cx="720" cy="410" r=".827" fill="#fff" opacity=".756"/><circle cx="720" cy="151" r=".418" fill="#fff" opacity=".77"/><circle cx="141" cy="827" r="1.646" fill="#fff" opacity=".301"/><circle cx="698" cy="749" r=".493" fill="#fff" opacity=".905"/><circle cx="85" cy="815" r=".355" fill="#fff" opacity=".937"/><circle cx="350" cy="799" r="1.367" fill="#fff" opacity=".524"/><circle cx="887" cy="281" r=".602" fill="#fff" opacity=".598"/><circle cx="307" cy="730" r="1.694" fill="#fff" opacity=".305"/><circle cx="162" cy="87" r="1.315" fill="#fff" opacity=".987"/><circle cx="920" cy="206" r="1.597" fill="#fff" opacity=".531"/><circle cx="56" cy="307" r=".841" fill="#fff" opacity=".362"/><circle cx="672" cy="718" r="1.596" fill="#fff" opacity=".401"/><circle cx="291" cy="902" r=".714" fill="#fff" opacity=".684"/><circle cx="863" cy="139" r=".55" fill="#fff" opacity=".435"/><circle cx="835" cy="865" r="1.635" fill="#fff" opacity=".567"/><circle cx="700" cy="266" r=".551" fill="#fff" opacity=".459"/><circle cx="249" cy="950" r=".237" fill="#fff" opacity=".742"/><circle cx="238" cy="416" r="1.252" fill="#fff" opacity=".461"/><circle cx="743" cy="986" r=".899" fill="#fff" opacity=".765"/><circle cx="735" cy="723" r=".213" fill="#fff" opacity=".946"/><circle cx="730" cy="35" r="1.541" fill="#fff" opacity=".451"/><circle cx="94" cy="457" r="1.492" fill="#fff" opacity=".574"/><circle cx="227" cy="160" r="1.458" fill="#fff" opacity=".631"/><circle cx="799" cy="656" r=".69" fill="#fff" opacity=".423"/><circle cx="84" cy="748" r="1.041" fill="#fff" opacity=".824"/><circle cx="143" cy="968" r=".708" fill="#fff" opacity=".496"/><circle cx="380" cy="158" r="1.28" fill="#fff" opacity=".624"/><circle cx="362" cy="525" r="1.31" fill="#fff" opacity=".748"/><circle cx="372" cy="22" r=".37" fill="#fff" opacity=".449"/><circle cx="597" cy="774" r="1.048" fill="#fff" opacity=".667"/><circle cx="110" cy="401" r=".235" fill="#fff" opacity=".359"/><circle cx="956" cy="583" r=".862" fill="#fff" opacity=".703"/><circle cx="998" cy="740" r=".658" fill="#fff" opacity=".438"/><circle cx="24" cy="447" r="1.114" fill="#fff" opacity=".659"/><circle cx="55" cy="755" r=".914" fill="#fff" opacity=".435"/><circle cx="809" cy="553" r=".427" fill="#fff" opacity=".447"/><circle cx="77" cy="834" r=".358" fill="#fff" opacity=".576"/><circle cx="983" cy="849" r=".751" fill="#fff" opacity=".439"/><circle cx="928" cy="590" r="1.296" fill="#fff" opacity=".375"/><circle cx="180" cy="578" r="1.163" fill="#fff" opacity=".956"/><circle cx="696" cy="946" r=".524" fill="#fff" opacity=".985"/><circle cx="616" cy="894" r="1.256" fill="#fff" opacity=".552"/><circle cx="423" cy="832" r="1.491" fill="#fff" opacity=".693"/><circle cx="28" cy="176" r=".921" fill="#fff" opacity=".682"/><circle cx="633" cy="577" r="1.436" fill="#fff" opacity=".644"/><circle cx="122" cy="13" r="1.243" fill="#fff" opacity=".771"/><circle cx="710" cy="806" r="1.549" fill="#fff" opacity=".67"/><circle cx="999" cy="136" r=".836" fill="#fff" opacity=".564"/><circle cx="744" cy="445" r=".54" fill="#fff" opacity=".756"/><circle cx="72" cy="190" r="1.055" fill="#fff" opacity=".533"/><circle cx="555" cy="953" r="1.168" fill="#fff" opacity=".98"/><circle cx="908" cy="933" r="1.262" fill="#fff" opacity=".554"/><circle cx="639" cy="119" r="1.418" fill="#fff" opacity=".307"/><circle cx="518" cy="229" r=".486" fill="#fff" opacity=".883"/><circle cx="380" cy="783" r=".75" fill="#fff" opacity=".423"/><circle cx="29" cy="466" r=".69" fill="#fff" opacity=".715"/><circle cx="259" cy="33" r=".412" fill="#fff" opacity=".434"/><circle cx="999" cy="950" r="1.505" fill="#fff" opacity=".496"/><circle cx="306" cy="111" r=".855" fill="#fff" opacity=".963"/><circle cx="562" cy="867" r=".75" fill="#fff" opacity=".745"/><circle cx="651" cy="23" r="1.45" fill="#fff" opacity=".72"/><circle cx="862" cy="446" r="1.665" fill="#fff" opacity=".435"/><circle cx="872" cy="702" r=".98" fill="#fff" opacity=".411"/><circle cx="745" cy="939" r=".204" fill="#fff" opacity=".317"/><circle cx="109" cy="303" r=".726" fill="#fff" opacity=".855"/><circle cx="816" cy="846" r=".692" fill="#fff" opacity=".976"/><circle cx="978" cy="200" r="1.695" fill="#fff" opacity=".411"/><circle cx="466" cy="392" r=".612" fill="#fff" opacity=".781"/><circle cx="87" cy="831" r=".582" fill="#fff" opacity=".761"/><circle cx="240" cy="233" r=".92" fill="#fff" opacity=".593"/><circle cx="191" cy="652" r=".801" fill="#fff" opacity=".957"/><circle cx="505" cy="128" r=".818" fill="#fff" opacity=".34"/><circle cx="607" cy="399" r="1.695" fill="#fff" opacity=".386"/><circle cx="23" cy="603" r="1.225" fill="#fff" opacity="1"/><circle cx="566" cy="17" r="1.384" fill="#fff" opacity=".798"/><circle cx="779" cy="92" r="1.105" fill="#fff" opacity=".37"/><circle cx="758" cy="699" r="1.669" fill="#fff" opacity=".768"/><circle cx="203" cy="51" r="1.412" fill="#fff" opacity=".669"/><circle cx="120" cy="831" r=".962" fill="#fff" opacity=".727"/><circle cx="453" cy="621" r=".459" fill="#fff" opacity=".89"/><circle cx="271" cy="529" r="1.436" fill="#fff" opacity=".747"/><circle cx="979" cy="101" r="1.292" fill="#fff" opacity=".686"/><circle cx="370" cy="726" r=".544" fill="#fff" opacity=".695"/><circle cx="303" cy="516" r="1.205" fill="#fff" opacity=".908"/><circle cx="369" cy="684" r=".787" fill="#fff" opacity=".782"/><circle cx="900" cy="527" r=".861" fill="#fff" opacity=".416"/><circle cx="895" cy="219" r=".975" fill="#fff" opacity=".303"/><circle cx="16" cy="224" r="1.329" fill="#fff" opacity=".936"/><circle cx="134" cy="974" r=".801" fill="#fff" opacity=".521"/><circle cx="539" cy="244" r=".408" fill="#fff" opacity=".999"/><circle cx="714" cy="59" r=".768" fill="#fff" opacity=".824"/><circle cx="171" cy="121" r="1.225" fill="#fff" opacity=".7"/><circle cx="143" cy="141" r="1.336" fill="#fff" opacity=".807"/><circle cx="644" cy="111" r=".758" fill="#fff" opacity=".511"/><circle cx="68" cy="494" r=".352" fill="#fff" opacity=".783"/><circle cx="184" cy="572" r=".334" fill="#fff" opacity=".671"/><circle cx="240" cy="303" r="1.194" fill="#fff" opacity=".4"/><circle cx="723" cy="404" r=".427" fill="#fff" opacity=".543"/><circle cx="390" cy="74" r=".54" fill="#fff" opacity=".756"/><circle cx="561" cy="53" r="1.299" fill="#fff" opacity=".779"/><circle cx="122" cy="152" r=".438" fill="#fff" opacity=".536"/><circle cx="401" cy="267" r=".712" fill="#fff" opacity=".325"/><circle cx="847" cy="822" r="1.676" fill="#fff" opacity=".386"/><circle cx="527" cy="184" r="1.011" fill="#fff" opacity=".741"/><circle cx="870" cy="232" r=".711" fill="#fff" opacity=".893"/><circle cx="615" cy="870" r=".377" fill="#fff" opacity=".35"/><circle cx="185" cy="523" r="1.114" fill="#fff" opacity=".538"/><circle cx="56" cy="921" r="1.279" fill="#fff" opacity=".585"/><circle cx="877" cy="392" r=".917" fill="#fff" opacity=".983"/><circle cx="11" cy="727" r=".685" fill="#fff" opacity=".484"/><circle cx="222" cy="835" r="1.389" fill="#fff" opacity=".4"/><circle cx="64" cy="625" r=".576" fill="#fff" opacity=".948"/><circle cx="445" cy="930" r=".725" fill="#fff" opacity=".835"/><circle cx="15" cy="333" r=".697" fill="#fff" opacity=".399"/><circle cx="408" cy="613" r="1.446" fill="#fff" opacity=".341"/><circle cx="952" cy="371" r=".679" fill="#fff" opacity=".672"/><circle cx="876" cy="570" r=".228" fill="#fff" opacity=".622"/><circle cx="581" cy="112" r=".352" fill="#fff" opacity=".587"/><circle cx="729" cy="111" r=".376" fill="#fff" opacity=".447"/><circle cx="148" cy="357" r="1.26" fill="#fff" opacity=".905"/><circle cx="315" cy="879" r=".69" fill="#fff" opacity=".886"/><circle cx="604" cy="66" r="1.26" fill="#fff" opacity=".822"/><circle cx="554" cy="264" r=".651" fill="#fff" opacity=".644"/><circle cx="797" cy="149" r="1.33" fill="#fff" opacity=".724"/><circle cx="285" cy="76" r="1.584" fill="#fff" opacity=".941"/><circle cx="167" cy="261" r=".396" fill="#fff" opacity=".927"/><circle cx="390" cy="1" r="1.615" fill="#fff" opacity=".468"/><circle cx="365" cy="667" r="1.69" fill="#fff" opacity=".334"/><circle cx="784" cy="116" r="1.418" fill="#fff" opacity=".413"/><circle cx="65" cy="190" r=".657" fill="#fff" opacity=".458"/><circle cx="191" cy="121" r=".342" fill="#fff" opacity=".824"/><circle cx="705" cy="92" r=".475" fill="#fff" opacity=".313"/><circle cx="878" cy="551" r="1.551" fill="#fff" opacity=".849"/><circle cx="961" cy="613" r="1.084" fill="#fff" opacity=".427"/><circle cx="804" cy="28" r="1.663" fill="#fff" opacity=".352"/><circle cx="128" cy="72" r=".226" fill="#fff" opacity=".675"/><circle cx="72" cy="757" r=".604" fill="#fff" opacity=".328"/><circle cx="890" cy="883" r=".848" fill="#fff" opacity=".836"/><circle cx="840" cy="177" r=".436" fill="#fff" opacity=".751"/><circle cx="242" cy="124" r="1.451" fill="#fff" opacity=".323"/><circle cx="162" cy="471" r=".609" fill="#fff" opacity=".394"/><circle cx="624" cy="345" r=".854" fill="#fff" opacity=".783"/><circle cx="22" cy="658" r=".592" fill="#fff" opacity=".428"/><circle cx="626" cy="461" r="1.587" fill="#fff" opacity=".912"/><circle cx="633" cy="864" r="1.259" fill="#fff" opacity=".587"/><circle cx="596" cy="639" r="1.511" fill="#fff" opacity=".37"/><circle cx="543" cy="498" r="1.459" fill="#fff" opacity=".553"/><circle cx="117" cy="984" r=".584" fill="#fff" opacity=".834"/><circle cx="259" cy="31" r="1.432" fill="#fff" opacity=".449"/><circle cx="724" cy="848" r="1.319" fill="#fff" opacity=".656"/><circle cx="473" cy="599" r="1.308" fill="#fff" opacity=".315"/><circle cx="599" cy="218" r="1.381" fill="#fff" opacity=".576"/><circle cx="270" cy="255" r="1.672" fill="#fff" opacity=".933"/><circle cx="267" cy="951" r="1.395" fill="#fff" opacity=".674"/><circle cx="467" cy="274" r="1.416" fill="#fff" opacity=".354"/><circle cx="330" cy="614" r="1.399" fill="#fff" opacity=".453"/><circle cx="209" cy="61" r="1.34" fill="#fff" opacity=".589"/><circle cx="40" cy="756" r=".719" fill="#fff" opacity=".817"/><circle cx="90" cy="694" r=".867" fill="#fff" opacity=".735"/><circle cx="843" cy="425" r="1.641" fill="#fff" opacity=".366"/><circle cx="407" cy="196" r="1.693" fill="#fff" opacity=".314"/><circle cx="626" cy="340" r=".542" fill="#fff" opacity=".474"/><circle cx="923" cy="958" r=".694" fill="#fff" opacity=".838"/><circle cx="763" cy="903" r="1.001" fill="#fff" opacity=".913"/><circle cx="393" cy="120" r="1.362" fill="#fff" opacity=".327"/><circle cx="651" cy="532" r=".339" fill="#fff" opacity=".415"/><circle cx="831" cy="977" r=".782" fill="#fff" opacity=".325"/><circle cx="226" cy="444" r="1.15" fill="#fff" opacity=".884"/><circle cx="970" cy="811" r=".826" fill="#fff" opacity=".362"/><circle cx="562" cy="807" r=".68" fill="#fff" opacity=".333"/><circle cx="558" cy="912" r=".554" fill="#fff" opacity=".623"/><circle cx="898" cy="115" r=".587" fill="#fff" opacity=".826"/><circle cx="602" cy="602" r="1.54" fill="#fff" opacity=".761"/><circle cx="117" cy="717" r=".6" fill="#fff" opacity=".379"/><circle cx="113" cy="72" r="1.484" fill="#fff" opacity=".371"/><circle cx="13" cy="547" r=".557" fill="#fff" opacity=".678"/><circle cx="598" cy="676" r=".672" fill="#fff" opacity=".608"/><circle cx="39" cy="795" r=".642" fill="#fff" opacity=".705"/><circle cx="89" cy="770" r=".986" fill="#fff" opacity=".841"/><circle cx="960" cy="672" r=".756" fill="#fff" opacity=".616"/><circle cx="653" cy="517" r=".28" fill="#fff" opacity=".754"/><circle cx="581" cy="699" r="1.025" fill="#fff" opacity=".723"/><circle cx="389" cy="642" r=".545" fill="#fff" opacity=".365"/><circle cx="417" cy="20" r=".683" fill="#fff" opacity=".578"/><circle cx="260" cy="946" r=".307" fill="#fff" opacity=".517"/><circle cx="323" cy="803" r="1.144" fill="#fff" opacity=".726"/><circle cx="534" cy="417" r="1.235" fill="#fff" opacity=".726"/><circle cx="551" cy="104" r="1.132" fill="#fff" opacity=".667"/><circle cx="620" cy="565" r=".311" fill="#fff" opacity=".734"/><circle cx="337" cy="137" r="1.26" fill="#fff" opacity=".501"/><circle cx="228" cy="564" r="1.046" fill="#fff" opacity=".833"/><circle cx="752" cy="998" r="1.604" fill="#fff" opacity=".322"/><circle cx="47" cy="99" r=".261" fill="#fff" opacity=".677"/><circle cx="126" cy="774" r=".331" fill="#fff" opacity=".929"/><circle cx="344" cy="544" r="1.141" fill="#fff" opacity=".647"/><circle cx="752" cy="955" r="1.481" fill="#fff" opacity=".972"/><circle cx="830" cy="815" r="1.111" fill="#fff" opacity=".801"/><circle cx="598" cy="219" r="1.311" fill="#fff" opacity=".827"/><circle cx="869" cy="317" r=".344" fill="#fff" opacity=".513"/><circle cx="984" cy="490" r="1.438" fill="#fff" opacity=".763"/><circle cx="758" cy="567" r=".716" fill="#fff" opacity=".959"/><circle cx="763" cy="382" r=".457" fill="#fff" opacity=".552"/><circle cx="858" cy="291" r=".448" fill="#fff" opacity=".868"/><circle cx="373" cy="995" r="1.518" fill="#fff" opacity=".467"/><circle cx="692" cy="412" r=".646" fill="#fff" opacity=".896"/><circle cx="954" cy="10" r=".41" fill="#fff" opacity=".639"/><circle cx="295" cy="688" r="1.623" fill="#fff" opacity=".765"/><circle cx="846" cy="984" r="1.531" fill="#fff" opacity=".691"/><circle cx="841" cy="109" r="1.062" fill="#fff" opacity=".572"/><circle cx="863" cy="66" r=".215" fill="#fff" opacity=".302"/><circle cx="455" cy="376" r="1.137" fill="#fff" opacity=".709"/><circle cx="812" cy="449" r="1.694" fill="#fff" opacity=".819"/><circle cx="211" cy="770" r=".836" fill="#fff" opacity=".408"/><circle cx="744" cy="979" r="1.371" fill="#fff" opacity=".535"/><circle cx="122" cy="454" r="1.051" fill="#fff" opacity=".713"/><circle cx="957" cy="560" r=".63" fill="#fff" opacity=".829"/><circle cx="98" cy="139" r=".403" fill="#fff" opacity=".738"/><circle cx="363" cy="646" r="1.066" fill="#fff" opacity=".922"/><circle cx="64" cy="333" r=".638" fill="#fff" opacity=".933"/><circle cx="181" cy="354" r=".709" fill="#fff" opacity=".63"/><circle cx="402" cy="454" r=".347" fill="#fff" opacity=".784"/><circle cx="55" cy="388" r=".855" fill="#fff" opacity=".79"/><circle cx="133" cy="159" r=".887" fill="#fff" opacity=".846"/><circle cx="816" cy="354" r=".894" fill="#fff" opacity=".407"/><circle cx="244" cy="160" r=".25" fill="#fff" opacity=".976"/><circle cx="43" cy="740" r=".59" fill="#fff" opacity=".954"/><circle cx="555" cy="846" r=".789" fill="#fff" opacity=".737"/><circle cx="62" cy="851" r=".874" fill="#fff" opacity=".621"/><circle cx="779" cy="115" r="1.349" fill="#fff" opacity=".591"/><circle cx="174" cy="53" r=".821" fill="#fff" opacity=".576"/><circle cx="751" cy="483" r="1.318" fill="#fff" opacity=".966"/><circle cx="124" cy="11" r="1.024" fill="#fff" opacity=".669"/><circle cx="131" cy="255" r=".392" fill="#fff" opacity=".71"/><circle cx="701" cy="486" r=".259" fill="#fff" opacity=".348"/><circle cx="383" cy="95" r=".277" fill="#fff" opacity=".635"/><circle cx="815" cy="890" r="1.477" fill="#fff" opacity=".784"/><circle cx="875" cy="537" r=".819" fill="#fff" opacity=".504"/><circle cx="433" cy="193" r="1.311" fill="#fff" opacity=".684"/><circle cx="246" cy="75" r=".632" fill="#fff" opacity=".584"/><circle cx="263" cy="114" r=".767" fill="#fff" opacity=".338"/><circle cx="256" cy="772" r=".728" fill="#fff" opacity=".618"/><circle cx="801" cy="153" r="1.227" fill="#fff" opacity="1"/><circle cx="950" cy="677" r="1.129" fill="#fff" opacity=".91"/><circle cx="340" cy="376" r="1.689" fill="#fff" opacity=".884"/><circle cx="520" cy="910" r=".475" fill="#fff" opacity=".943"/><circle cx="663" cy="218" r=".68" fill="#fff" opacity=".553"/><circle cx="923" cy="145" r=".802" fill="#fff" opacity=".738"/><circle cx="39" cy="872" r=".95" fill="#fff" opacity=".332"/><circle cx="212" cy="420" r="1.422" fill="#fff" opacity=".678"/><circle cx="147" cy="483" r="1.07" fill="#fff" opacity=".878"/><circle cx="806" cy="362" r="1.051" fill="#fff" opacity=".38"/><circle cx="477" cy="41" r=".651" fill="#fff" opacity=".689"/><circle cx="355" cy="604" r=".773" fill="#fff" opacity=".874"/><circle cx="683" cy="594" r="1.215" fill="#fff" opacity=".469"/><circle cx="27" cy="324" r=".393" fill="#fff" opacity=".689"/><circle cx="3" cy="318" r="1.493" fill="#fff" opacity=".931"/><circle cx="641" cy="230" r=".529" fill="#fff" opacity=".973"/><circle cx="167" cy="285" r=".343" fill="#fff" opacity=".616"/><circle cx="772" cy="605" r="1.557" fill="#fff" opacity=".63"/><circle cx="443" cy="718" r="1.221" fill="#fff" opacity=".335"/><circle cx="838" cy="210" r=".49" fill="#fff" opacity=".52"/><circle cx="357" cy="419" r="1.377" fill="#fff" opacity=".441"/><circle cx="391" cy="470" r=".509" fill="#fff" opacity=".621"/><circle cx="467" cy="935" r=".622" fill="#fff" opacity=".461"/><circle cx="286" cy="572" r=".416" fill="#fff" opacity=".601"/><circle cx="565" cy="463" r="1.432" fill="#fff" opacity=".867"/><circle cx="56" cy="185" r="1.053" fill="#fff" opacity=".435"/><circle cx="88" cy="202" r="1.534" fill="#fff" opacity=".582"/><circle cx="901" cy="918" r=".746" fill="#fff" opacity=".758"/><circle cx="630" cy="268" r="1.033" fill="#fff" opacity=".788"/><circle cx="528" cy="331" r=".994" fill="#fff" opacity=".511"/><circle cx="29" cy="597" r="1.389" fill="#fff" opacity=".901"/><circle cx="894" cy="394" r="1.187" fill="#fff" opacity=".665"/><circle cx="208" cy="449" r=".892" fill="#fff" opacity=".763"/><circle cx="930" cy="282" r=".38" fill="#fff" opacity=".873"/><circle cx="999" cy="326" r="1.576" fill="#fff" opacity=".948"/><circle cx="433" cy="178" r="1.55" fill="#fff" opacity=".611"/><circle cx="383" cy="131" r="1.493" fill="#fff" opacity=".832"/><circle cx="229" cy="465" r="1.246" fill="#fff" opacity=".335"/><circle cx="954" cy="670" r=".382" fill="#fff" opacity=".545"/><circle cx="173" cy="782" r=".37" fill="#fff" opacity=".876"/><circle cx="258" cy="129" r="1.235" fill="#fff" opacity=".537"/><circle cx="889" cy="304" r="1.072" fill="#fff" opacity=".643"/><circle cx="976" cy="882" r="1.142" fill="#fff" opacity=".545"/><circle cx="323" cy="508" r=".988" fill="#fff" opacity=".476"/><circle cx="406" cy="548" r=".218" fill="#fff" opacity=".41"/><circle cx="981" cy="696" r="1.091" fill="#fff" opacity=".611"/><circle cx="930" cy="881" r=".703" fill="#fff" opacity=".931"/><circle cx="8" cy="354" r="1.07" fill="#fff" opacity=".337"/><circle cx="13" cy="132" r=".425" fill="#fff" opacity=".827"/><circle cx="812" cy="835" r=".648" fill="#fff" opacity=".97"/><circle cx="812" cy="877" r=".598" fill="#fff" opacity=".37"/><circle cx="484" cy="446" r="1.503" fill="#fff" opacity=".554"/><circle cx="991" cy="468" r=".371" fill="#fff" opacity=".752"/><circle cx="939" cy="766" r="1.247" fill="#fff" opacity=".503"/><circle cx="83" cy="398" r="1.259" fill="#fff" opacity=".332"/><circle cx="599" cy="360" r="1.492" fill="#fff" opacity=".308"/><circle cx="460" cy="639" r=".843" fill="#fff" opacity=".958"/><circle cx="998" cy="398" r="1.291" fill="#fff" opacity=".664"/><circle cx="602" cy="307" r=".624" fill="#fff" opacity=".352"/><circle cx="640" cy="873" r="1.358" fill="#fff" opacity=".516"/><circle cx="467" cy="428" r=".307" fill="#fff" opacity=".656"/><circle cx="873" cy="493" r="1.302" fill="#fff" opacity=".44"/><circle cx="37" cy="198" r="1.18" fill="#fff" opacity=".726"/><circle cx="363" cy="490" r=".923" fill="#fff" opacity=".316"/><circle cx="119" cy="761" r="1.103" fill="#fff" opacity=".375"/><circle cx="410" cy="460" r="1.107" fill="#fff" opacity=".563"/><circle cx="252" cy="951" r=".524" fill="#fff" opacity=".541"/><circle cx="14" cy="40" r="1.274" fill="#fff" opacity=".997"/><circle cx="578" cy="306" r="1.677" fill="#fff" opacity=".985"/><circle cx="127" cy="447" r=".612" fill="#fff" opacity=".947"/><circle cx="57" cy="881" r=".569" fill="#fff" opacity=".716"/><circle cx="161" cy="271" r="1.17" fill="#fff" opacity=".666"/><circle cx="110" cy="272" r=".569" fill="#fff" opacity=".639"/><circle cx="317" cy="290" r="1.408" fill="#fff" opacity=".837"/><circle cx="970" cy="722" r="1.542" fill="#fff" opacity=".968"/><circle cx="729" cy="776" r=".732" fill="#fff" opacity=".466"/><circle cx="465" cy="182" r=".752" fill="#fff" opacity=".667"/><circle cx="507" cy="733" r="1.374" fill="#fff" opacity=".446"/><circle cx="925" cy="436" r=".818" fill="#fff" opacity=".456"/><circle cx="340" cy="222" r=".46" fill="#fff" opacity=".646"/><circle cx="390" cy="943" r="1.441" fill="#fff" opacity=".646"/><circle cx="986" cy="267" r="1.525" fill="#fff" opacity=".776"/><circle cx="248" cy="708" r=".567" fill="#fff" opacity=".857"/><circle cx="668" cy="494" r="1.333" fill="#fff" opacity=".632"/><circle cx="327" cy="908" r=".903" fill="#fff" opacity=".645"/><circle cx="34" cy="166" r=".786" fill="#fff" opacity=".516"/><circle cx="837" cy="703" r="1.35" fill="#fff" opacity=".693"/><circle cx="778" cy="672" r="1.041" fill="#fff" opacity=".464"/><circle cx="522" cy="958" r=".832" fill="#fff" opacity=".716"/><circle cx="706" cy="122" r="1.106" fill="#fff" opacity=".666"/><circle cx="387" cy="870" r=".3" fill="#fff" opacity=".813"/><circle cx="10" cy="648" r="1.411" fill="#fff" opacity=".764"/><circle cx="664" cy="205" r="1.613" fill="#fff" opacity=".792"/><circle cx="294" cy="55" r="1.534" fill="#fff" opacity=".787"/><circle cx="152" cy="930" r="1.163" fill="#fff" opacity=".598"/><circle cx="591" cy="941" r=".24" fill="#fff" opacity=".526"/><circle cx="205" cy="438" r=".225" fill="#fff" opacity=".885"/><circle cx="352" cy="258" r="1.574" fill="#fff" opacity=".353"/><circle cx="657" cy="128" r="1.536" fill="#fff" opacity=".689"/><circle cx="587" cy="211" r="1.149" fill="#fff" opacity=".805"/><circle cx="883" cy="884" r=".94" fill="#fff" opacity=".399"/><circle cx="242" cy="51" r=".853" fill="#fff" opacity=".9"/><circle cx="684" cy="996" r=".624" fill="#fff" opacity=".426"/><circle cx="15" cy="187" r=".282" fill="#fff" opacity=".809"/><circle cx="140" cy="155" r="1.667" fill="#fff" opacity=".804"/><circle cx="595" cy="719" r=".683" fill="#fff" opacity=".703"/><circle cx="282" cy="505" r="1.678" fill="#fff" opacity=".66"/><circle cx="570" cy="192" r="1.414" fill="#fff" opacity=".816"/><circle cx="14" cy="254" r=".848" fill="#fff" opacity=".77"/><circle cx="620" cy="338" r=".691" fill="#fff" opacity=".669"/><circle cx="996" cy="634" r="1.034" fill="#fff" opacity=".609"/><circle cx="290" cy="477" r=".489" fill="#fff" opacity=".862"/><circle cx="877" cy="983" r=".286" fill="#fff" opacity=".669"/><circle cx="430" cy="398" r="1.063" fill="#fff" opacity=".545"/><circle cx="216" cy="201" r="1.501" fill="#fff" opacity=".785"/><circle cx="184" cy="666" r="1.681" fill="#fff" opacity=".674"/><circle cx="42" cy="974" r="1.48" fill="#fff" opacity=".785"/><circle cx="207" cy="276" r="1.263" fill="#fff" opacity=".529"/><circle cx="136" cy="25" r=".507" fill="#fff" opacity=".836"/><circle cx="424" cy="752" r=".233" fill="#fff" opacity=".935"/><circle cx="988" cy="483" r="1.07" fill="#fff" opacity=".363"/><circle cx="854" cy="713" r="1.1" fill="#fff" opacity=".596"/><circle cx="551" cy="586" r=".202" fill="#fff" opacity=".935"/><circle cx="226" cy="759" r=".441" fill="#fff" opacity=".37"/><circle cx="530" cy="62" r=".772" fill="#fff" opacity=".696"/><circle cx="862" cy="251" r="1.462" fill="#fff" opacity=".415"/><circle cx="265" cy="454" r="1.265" fill="#fff" opacity=".831"/><circle cx="885" cy="963" r=".449" fill="#fff" opacity=".72"/><circle cx="390" cy="573" r=".836" fill="#fff" opacity=".546"/><circle cx="18" cy="784" r="1.294" fill="#fff" opacity=".453"/><circle cx="115" cy="564" r="1.398" fill="#fff" opacity=".696"/><circle cx="782" cy="596" r=".458" fill="#fff" opacity=".943"/><circle cx="255" cy="863" r="1.032" fill="#fff" opacity=".982"/><circle cx="164" cy="611" r="1.237" fill="#fff" opacity=".618"/><circle cx="59" cy="140" r="1.186" fill="#fff" opacity=".904"/><circle cx="161" cy="543" r=".851" fill="#fff" opacity=".467"/><circle cx="993" cy="864" r="1.12" fill="#fff" opacity=".445"/><circle cx="350" cy="730" r="1.565" fill="#fff" opacity=".375"/><circle cx="291" cy="100" r="1.612" fill="#fff" opacity=".933"/><circle cx="558" cy="428" r=".37" fill="#fff" opacity=".883"/><circle cx="448" cy="808" r="1.171" fill="#fff" opacity=".567"/><circle cx="810" cy="205" r=".212" fill="#fff" opacity=".997"/><circle cx="217" cy="937" r=".293" fill="#fff" opacity=".308"/><circle cx="758" cy="398" r="1.571" fill="#fff" opacity=".355"/><circle cx="804" cy="445" r=".881" fill="#fff" opacity=".608"/><circle cx="685" cy="747" r="1.554" fill="#fff" opacity=".552"/><circle cx="260" cy="628" r=".695" fill="#fff" opacity=".829"/><circle cx="872" cy="509" r="1.122" fill="#fff" opacity=".986"/><circle cx="577" cy="157" r=".469" fill="#fff" opacity=".685"/><circle cx="685" cy="830" r="110.435" fill="#4a4aff" opacity=".025"/><circle cx="560" cy="210" r="128.775" fill="#4a4aff" opacity=".025"/><circle cx="201" cy="142" r="144.002" fill="#4a4aff" opacity=".042"/><circle cx="72" cy="436" r="114.492" fill="#4a4aff" opacity=".029"/><circle cx="57" cy="738" r="95.7" fill="#4a4aff" opacity=".057"/><circle cx="148" cy="556" r="118.492" fill="#4a4aff" opacity=".044"/><circle cx="975" cy="6" r="84.991" fill="#4a4aff" opacity=".039"/><circle cx="532" cy="924" r="51.679" fill="#4a4aff" opacity=".034"/><circle cx="916" cy="207" r="98.639" fill="#4a4aff" opacity=".038"/><circle cx="371" cy="63" r="56.418" fill="#4a4aff" opacity=".068"/><circle cx="900" cy="590" r="91.709" fill="#4a4aff" opacity=".032"/><circle cx="761" cy="257" r="101.75" fill="#4a4aff" opacity=".023"/><circle cx="249" cy="821" r="93.057" fill="#4a4aff" opacity=".037"/><circle cx="761" cy="331" r="77.327" fill="#4a4aff" opacity=".044"/><circle cx="821" cy="474" r="122.165" fill="#4a4aff" opacity=".068"/><circle cx="22" cy="136" r="53.843" fill="#4a4aff" opacity=".051"/><circle cx="721" cy="129" r="75.978" fill="#4a4aff" opacity=".06"/><circle cx="559" cy="370" r="73.8" fill="#4a4aff" opacity=".049"/><circle cx="665" cy="530" r="139.956" fill="#4a4aff" opacity=".046"/><circle cx="111" cy="133" r="100.11" fill="#4a4aff" opacity=".048"/><circle cx="143" cy="823" r="62.169" fill="#4affff" opacity=".057"/><circle cx="195" cy="477" r="90.001" fill="#4affff" opacity=".058"/><circle cx="65" cy="163" r="84.216" fill="#4affff" opacity=".059"/><circle cx="440" cy="56" r="66.81" fill="#4affff" opacity=".026"/><circle cx="516" cy="21" r="109.344" fill="#4affff" opacity=".032"/><circle cx="294" cy="500" r="105.081" fill="#4affff" opacity=".027"/><circle cx="925" cy="35" r="93.612" fill="#4affff" opacity=".063"/><circle cx="495" cy="976" r="67.854" fill="#4affff" opacity=".068"/><circle cx="983" cy="370" r="50.542" fill="#4affff" opacity=".031"/><circle cx="949" cy="193" r="49.445" fill="#4affff" opacity=".033"/></svg>