<svg width="1000" height="1000" viewBox="0 0 1000 1000" xmlns="http://www.w3.org/2000/svg">
      <defs>
        <radialGradient id="galaxyGradient" cx="50%" cy="50%" r="50%" fx="50%" fy="50%">
          <stop offset="0%" stop-color="#4a4aff" stop-opacity="0.3"/>
          <stop offset="70%" stop-color="#4a4aff" stop-opacity="0.1"/>
          <stop offset="100%" stop-color="#4a4aff" stop-opacity="0"/>
        </radialGradient>
      </defs>
      <rect width="1000" height="1000" fill="#0a0a2a"/>
      <ellipse cx="500" cy="500" rx="400" ry="200" fill="url(#galaxyGradient)" transform="rotate(45, 500, 500)"/>
      <circle cx="310.66013214696727" cy="391.7955705868311" r="1.4925454758885826" fill="#4affff" opacity="0.4368928593694113"/><circle cx="566.6595479830418" cy="618.0064992444342" r="0.8686061864836314" fill="white" opacity="0.7179330742722703"/><circle cx="589.0444555179877" cy="231.10537520739285" r="1.3740781375983064" fill="white" opacity="0.8372748774042476"/><circle cx="809.8420940111514" cy="374.28095844177267" r="2.3043174465789864" fill="white" opacity="0.58591655832698"/><circle cx="380.2198864778912" cy="252.81723701745653" r="1.6992163621088587" fill="white" opacity="0.8422456369223033"/><circle cx="485.30277734065936" cy="511.51852207620897" r="1.7880863674319594" fill="#4affff" opacity="0.26448161524380753"/><circle cx="290.7568839329614" cy="457.8457251361593" r="1.575207380253906" fill="white" opacity="0.46226084467931106"/><circle cx="307.65909654156997" cy="230.34823679280106" r="1.0778241431862723" fill="white" opacity="0.7279507708799875"/><circle cx="533.7669159005249" cy="524.4292717647033" r="2.053785980784693" fill="white" opacity="0.6388859111472927"/><circle cx="399.64872815828073" cy="300.0373440374898" r="1.158819760181828" fill="white" opacity="0.8452595925125601"/><circle cx="518.1854451286587" cy="487.74274173572167" r="1.2990681096991064" fill="#4affff" opacity="0.4569186346536805"/><circle cx="275.2078303274723" cy="499.69209617285634" r="2.3898849091585275" fill="white" opacity="0.7227619121845825"/><circle cx="269.0409874050364" cy="288.79841931160774" r="2.4556008582823727" fill="white" opacity="0.5352138005141864"/><circle cx="499.9645698774203" cy="498.8366762551326" r="1.3305036614990131" fill="white" opacity="0.8836022080221948"/><circle cx="439.72475416052754" cy="688.9674336389394" r="0.6170699181788946" fill="white" opacity="0.9177189328767932"/><circle cx="598.5866423335992" cy="555.7537756676835" r="2.3658348703630296" fill="#4affff" opacity="0.6829633856319581"/><circle cx="531.8956938865622" cy="393.15089759302157" r="0.8691424626119777" fill="white" opacity="0.37298176645703374"/><circle cx="272.21851044214856" cy="239.00871423450718" r="1.0071847730172072" fill="white" opacity="0.8262816868311507"/><circle cx="393.5260167263773" cy="176.1657391923477" r="0.6026111314815368" fill="white" opacity="0.927941523685681"/><circle cx="473.8395101618263" cy="508.04468305094167" r="2.224464114201036" fill="white" opacity="0.6198190983037227"/><circle cx="601.1898681850446" cy="205.6431375460205" r="1.5800830466595581" fill="#4affff" opacity="0.9551114649635222"/><circle cx="384.99019641456744" cy="797.7191475481358" r="1.1298844728912365" fill="white" opacity="0.3473062123908026"/><circle cx="640.5413169867543" cy="215.77307716777125" r="1.7216047430531582" fill="white" opacity="0.8955489773855096"/><circle cx="483.6583753168143" cy="259.2064501462519" r="0.939328243496174" fill="white" opacity="0.5559534048128307"/><circle cx="525.3829902031091" cy="485.9661345818817" r="2.068997672345789" fill="white" opacity="0.5352045739558596"/><circle cx="445.1310732803219" cy="576.6567410847236" r="2.42996523781423" fill="#4affff" opacity="0.916278585348336"/><circle cx="364.00217367764924" cy="398.87419808163156" r="1.0221923917351399" fill="white" opacity="0.5464726775850359"/><circle cx="442.8685806844747" cy="544.9778282909942" r="1.0377495485936405" fill="white" opacity="0.3879832557834341"/><circle cx="457.65256436825666" cy="480.9230333959393" r="0.5056387637703459" fill="white" opacity="0.718209316051365"/><circle cx="736.776330432681" cy="742.5865825266789" r="1.2867244959234005" fill="white" opacity="0.43564356272889615"/><circle cx="394.09574554998403" cy="310.8052998679864" r="0.7986562434573603" fill="#4affff" opacity="0.2320332240028954"/><circle cx="567.5485148047159" cy="325.7768024370163" r="1.5568899521221784" fill="white" opacity="0.30891048209371413"/><circle cx="346.1474590233629" cy="264.79750967639745" r="0.807239117710862" fill="white" opacity="0.48561255397427205"/><circle cx="442.9243897033406" cy="493.6757582361683" r="1.9409802165383354" fill="white" opacity="0.676174358306018"/><circle cx="261.66623086616323" cy="600.7939559785559" r="0.6805393154956905" fill="white" opacity="0.36819473488284893"/><circle cx="411.878143708749" cy="260.0678258418699" r="1.326941343508396" fill="#4affff" opacity="0.6005777668245718"/><circle cx="527.76871861511" cy="641.7882379135676" r="0.9449599769687618" fill="white" opacity="0.7264119122794461"/><circle cx="455.61923168629346" cy="478.2357021206291" r="2.450059726077085" fill="white" opacity="0.8556940125039565"/><circle cx="524.4953687921594" cy="588.9749386489344" r="2.051109954740742" fill="white" opacity="0.9568879571725486"/><circle cx="506.10432719549516" cy="337.5674974390266" r="1.189626439614572" fill="white" opacity="0.20431386819198158"/><circle cx="485.33942859061113" cy="592.3036935759238" r="1.247467366614551" fill="#4affff" opacity="0.984672630172921"/><circle cx="360.80432635460375" cy="567.2985182947644" r="1.5657707647028927" fill="white" opacity="0.7374677011746078"/><circle cx="726.6243571829739" cy="454.2720704656568" r="0.8413392205685346" fill="white" opacity="0.9502048919794259"/><circle cx="284.55458673823966" cy="259.242521507634" r="1.678612195718003" fill="white" opacity="0.27897247219073834"/><circle cx="470.3736287290798" cy="296.6859624894185" r="1.268281294069717" fill="white" opacity="0.28973034942533327"/><circle cx="499.30979767859577" cy="496.12546444077265" r="1.9806723666520982" fill="#4affff" opacity="0.7899436010720187"/><circle cx="592.326728528179" cy="703.2402698524826" r="1.913718753559956" fill="white" opacity="0.5048310720273721"/><circle cx="658.5678318304564" cy="647.4396191568592" r="2.0514424502027646" fill="white" opacity="0.939314146479435"/><circle cx="571.749694486685" cy="532.2782410837824" r="0.6691632839716677" fill="white" opacity="0.5811496100785876"/><circle cx="560.8102183394799" cy="212.85553204802875" r="1.0721417284377428" fill="white" opacity="0.7472659292466337"/><circle cx="455.95810882304556" cy="346.49214705151485" r="2.3537083091968904" fill="#4affff" opacity="0.37824064511832617"/><circle cx="560.8155285714821" cy="540.0976002779639" r="1.0432899961696767" fill="white" opacity="0.4552603846001761"/><circle cx="274.79576266590186" cy="315.35417146869133" r="1.9661090274464001" fill="white" opacity="0.5900854179531765"/><circle cx="535.338711454599" cy="654.4456113399289" r="2.330217286434252" fill="white" opacity="0.5201295852070201"/><circle cx="387.5057925864645" cy="398.7730392643462" r="1.4767633810870922" fill="white" opacity="0.7514152183284561"/><circle cx="294.047805271011" cy="698.6327786923944" r="2.452921696055583" fill="#4affff" opacity="0.3990656938445616"/><circle cx="636.853013185459" cy="602.5713826643383" r="2.0842854212198723" fill="white" opacity="0.6424776294413974"/><circle cx="600.4485806604966" cy="484.694606810352" r="2.250588018055658" fill="white" opacity="0.8184637485686557"/><circle cx="439.89760304396157" cy="477.7019596687305" r="1.3035752235513005" fill="white" opacity="0.31238712512147715"/><circle cx="509.90971478553433" cy="667.8190527172309" r="2.2732676617620604" fill="white" opacity="0.7015823574935085"/><circle cx="526.1369056642517" cy="534.7747155481757" r="0.5828018644443014" fill="#4affff" opacity="0.5488272170873358"/><circle cx="575.9232547549586" cy="446.9473543748178" r="0.6605676860364391" fill="white" opacity="0.8158789225485878"/><circle cx="469.85210591813296" cy="480.9309960916107" r="1.235893684310494" fill="white" opacity="0.32593645319988074"/><circle cx="628.7764349212135" cy="574.216924064349" r="2.135914005915507" fill="white" opacity="0.3969547759127304"/><circle cx="302.02046585060714" cy="631.7866049514755" r="1.60027296207853" fill="white" opacity="0.8253939542937361"/><circle cx="506.1437351578169" cy="490.39116095246936" r="0.7538442602654425" fill="#4affff" opacity="0.2606376868863647"/><circle cx="494.3601237350349" cy="502.8221725055264" r="1.842879237982047" fill="white" opacity="0.34318671326343453"/><circle cx="732.0226384592715" cy="466.6935115642375" r="2.134319663467004" fill="white" opacity="0.25415834601651693"/><circle cx="423.53151016009804" cy="474.80635033708484" r="0.8004630956608585" fill="white" opacity="0.7419491477232059"/><circle cx="638.1509109887015" cy="690.1491582800275" r="1.9351490086317185" fill="white" opacity="0.9186194396317646"/><circle cx="451.3794948161902" cy="593.4270438091721" r="0.8582780839351578" fill="#4affff" opacity="0.7006915811164303"/><circle cx="198.5463380175902" cy="372.3867159219072" r="1.3751239918482585" fill="white" opacity="0.7560976202025831"/><circle cx="247.81990900407823" cy="710.009715412942" r="1.4741840204739733" fill="white" opacity="0.37324778876989434"/><circle cx="640.3265744754297" cy="300.10874173831155" r="1.1083109747261348" fill="white" opacity="0.7385416340707252"/><circle cx="343.3844237615149" cy="736.9587091450971" r="2.433825119909732" fill="white" opacity="0.48096422019864243"/><circle cx="622.4953115701641" cy="686.6865336383888" r="1.9470365515387495" fill="#4affff" opacity="0.2512346305130267"/><circle cx="716.6174146984251" cy="580.770129840269" r="1.2458434038765942" fill="white" opacity="0.9068269805057161"/><circle cx="512.661671730747" cy="768.0083300346184" r="1.0627202262828837" fill="white" opacity="0.3043702771393328"/><circle cx="295.6731450602779" cy="674.4675712481769" r="2.445864050307993" fill="white" opacity="0.6550507232709611"/><circle cx="463.15838463279033" cy="596.2994371789707" r="1.9222969296563805" fill="white" opacity="0.33989475430526817"/><circle cx="614.6868719484958" cy="824.5690908912146" r="1.1502927791924176" fill="#4affff" opacity="0.919241839223014"/><circle cx="382.5959721381076" cy="644.5184977025332" r="1.3174285249463522" fill="white" opacity="0.32258785056764483"/><circle cx="559.5217004935209" cy="357.2059344033807" r="0.8419612748151" fill="white" opacity="0.42096730334393073"/><circle cx="638.237235329448" cy="509.15061392712215" r="1.1410341764887888" fill="white" opacity="0.6083327017536531"/><circle cx="575.4120469896022" cy="602.152180574838" r="2.4770926310210424" fill="white" opacity="0.21566559255197382"/><circle cx="355.8809384796954" cy="300.8112250946485" r="1.2686730546808822" fill="#4affff" opacity="0.5560900331512544"/><circle cx="603.0411851629992" cy="421.12793289231666" r="0.5318772193134409" fill="white" opacity="0.24125207357362355"/><circle cx="429.88818872146237" cy="255.0106559877347" r="2.4428086191602154" fill="white" opacity="0.20927975185789016"/><circle cx="537.1108172719235" cy="458.35204861116057" r="1.086592136416277" fill="white" opacity="0.33257801894307004"/><circle cx="447.86975536696826" cy="473.68585294495443" r="1.7106795639634003" fill="white" opacity="0.510058863265924"/><circle cx="496.9516740835654" cy="505.3363753012335" r="2.1205898804644874" fill="#4affff" opacity="0.8921846473333259"/><circle cx="489.1259500155628" cy="658.2525508906017" r="0.7443857579727982" fill="white" opacity="0.3523082121985713"/><circle cx="713.1052673222429" cy="323.5998307852611" r="1.9959706281949599" fill="white" opacity="0.6501133818798417"/><circle cx="440.9530834141018" cy="560.5550970322098" r="1.0016868436648294" fill="white" opacity="0.7575376329985424"/><circle cx="496.17861900740394" cy="500.7725727761571" r="1.8939654300052031" fill="white" opacity="0.2805089628155038"/><circle cx="494.79130523858043" cy="504.7275002202761" r="1.4509036814947822" fill="#4affff" opacity="0.31298707452069796"/><circle cx="513.1376628459038" cy="381.1702431097036" r="1.737615359390614" fill="white" opacity="0.6486468577910461"/><circle cx="534.2486781636999" cy="557.1402945627723" r="1.0739143641551339" fill="white" opacity="0.5940751104926758"/><circle cx="466.514149396041" cy="803.0741703823636" r="0.893255868152095" fill="white" opacity="0.861885380228786"/><circle cx="353.07114729588295" cy="514.7560149115168" r="2.193014576439776" fill="white" opacity="0.8194714972949588"/><circle cx="520.8809238123711" cy="520.9821175081917" r="0.9311802411068193" fill="#4affff" opacity="0.8783949835228515"/><circle cx="499.75153195932455" cy="499.27064011635997" r="1.4705645574294541" fill="white" opacity="0.9912860399536498"/><circle cx="419.7214607964862" cy="789.7070994785381" r="1.4916381668760552" fill="white" opacity="0.7430654558481566"/><circle cx="621.9096776854337" cy="496.0058768029442" r="1.4670037891323795" fill="white" opacity="0.6195006030800614"/><circle cx="493.397266497627" cy="669.1327911535027" r="0.6432342902367818" fill="white" opacity="0.5029020344686383"/><circle cx="287.0308600003949" cy="266.1033715872651" r="1.6684922754286498" fill="#4affff" opacity="0.5560133945700196"/><circle cx="252.03079229657598" cy="569.1296689037756" r="2.033776533757721" fill="white" opacity="0.49008065640249043"/><circle cx="556.0294903834484" cy="444.8473901711162" r="0.6823455826541149" fill="white" opacity="0.8534770011125035"/><circle cx="635.0805566953389" cy="506.9090110297094" r="2.0866641215276878" fill="white" opacity="0.8119178213783254"/><circle cx="544.6820074910788" cy="458.84107278211087" r="2.2926795861642892" fill="white" opacity="0.5840617850416583"/><circle cx="680.9186067240885" cy="323.52518618779726" r="0.8224364380571152" fill="#4affff" opacity="0.3488899939624679"/><circle cx="382.40797351987953" cy="507.4955763561516" r="1.0467480260286317" fill="white" opacity="0.7484817252829676"/><circle cx="502.5766973056223" cy="497.4889926182206" r="0.5326401945602628" fill="white" opacity="0.8627205679632521"/><circle cx="327.78617867212415" cy="648.4034145781214" r="1.261159811342118" fill="white" opacity="0.4148373140339338"/><circle cx="480.51033282172415" cy="326.14763098300875" r="0.6171428658726361" fill="white" opacity="0.3944892224727967"/><circle cx="479.4079719382962" cy="538.3914184950581" r="1.988092174446395" fill="#4affff" opacity="0.9249099993559267"/><circle cx="740.6179848223001" cy="294.37345922917086" r="2.2601561304096136" fill="white" opacity="0.8520961606498927"/><circle cx="647.9492814712752" cy="491.739267409742" r="0.7198580633711762" fill="white" opacity="0.6039606038510121"/><circle cx="730.2824043775081" cy="416.5964083738141" r="1.537660306442966" fill="white" opacity="0.6223677340401235"/><circle cx="563.3851797311247" cy="482.8634638611944" r="1.5493109854466165" fill="white" opacity="0.8163583231932527"/><circle cx="504.5694796091138" cy="346.72979214352904" r="2.3007381776692712" fill="#4affff" opacity="0.4506159567904936"/><circle cx="381.29849451385246" cy="573.6128749252489" r="1.500347032445399" fill="white" opacity="0.7851468433123852"/><circle cx="514.1219129271082" cy="477.26700642417336" r="1.6747051062199372" fill="white" opacity="0.6745024748508346"/><circle cx="587.9884586082977" cy="741.2193997501263" r="1.3357155030003374" fill="white" opacity="0.5031355560616708"/><circle cx="329.46851293604686" cy="401.5166976180105" r="1.5899421115034666" fill="white" opacity="0.7788434634690444"/><circle cx="639.5135710370919" cy="248.87315879679258" r="0.6707685174662283" fill="#4affff" opacity="0.8514471142360467"/><circle cx="466.80648470980265" cy="454.19705195344284" r="1.2699692078282143" fill="white" opacity="0.6391874102344849"/><circle cx="679.0890862809113" cy="362.97787411107436" r="0.6523536015789908" fill="white" opacity="0.9466663694010335"/><circle cx="495.40029477652206" cy="280.9508192623342" r="1.8517712823916894" fill="white" opacity="0.8518905512479347"/><circle cx="645.5393912727952" cy="743.5686587332369" r="1.4096530842690393" fill="white" opacity="0.7055581190161921"/><circle cx="475.1212231482174" cy="397.4664889209132" r="2.164544625610198" fill="#4affff" opacity="0.626222616538342"/><circle cx="344.6504141183607" cy="567.0776260523805" r="1.7163123032688934" fill="white" opacity="0.25869721872188534"/><circle cx="490.87906119865755" cy="490.8484837045173" r="1.0287225049082487" fill="white" opacity="0.38464130826111625"/><circle cx="755.9367254627097" cy="391.4840050273866" r="0.7038457979580119" fill="white" opacity="0.7856501974794594"/><circle cx="473.214500402064" cy="629.4457203078223" r="0.5403805205888657" fill="white" opacity="0.9979309658783821"/><circle cx="733.5812161377307" cy="663.8169239364012" r="1.0131665560522358" fill="#4affff" opacity="0.254979753712467"/><circle cx="511.65832126474794" cy="685.8089648280084" r="1.4226211935969473" fill="white" opacity="0.24971503684784102"/><circle cx="553.0865007947415" cy="156.63789714471972" r="0.7813895010460086" fill="white" opacity="0.48950219396508743"/><circle cx="577.4867627276348" cy="658.7583578596501" r="1.7979710199104293" fill="white" opacity="0.5617711383166732"/><circle cx="681.5569149327437" cy="589.1347276172203" r="1.562615164979304" fill="white" opacity="0.49084189198590966"/><circle cx="280.6718528813932" cy="375.379224714334" r="1.2284091568558098" fill="#4affff" opacity="0.9973849395633294"/><circle cx="377.4212359022795" cy="659.1640084772039" r="0.8394710749780976" fill="white" opacity="0.5923827901669535"/><circle cx="478.89373767982494" cy="499.58319452880914" r="0.9325131707662546" fill="white" opacity="0.25460778822471664"/><circle cx="730.095515166713" cy="698.2339751724867" r="2.0436203547583105" fill="white" opacity="0.5567994511176867"/><circle cx="498.4063769681945" cy="485.9824236131685" r="2.2796188173531906" fill="white" opacity="0.32788150365135105"/><circle cx="190.24309979984724" cy="528.8469828946837" r="1.1085331014795408" fill="#4affff" opacity="0.8418010127031674"/><circle cx="483.93010844608267" cy="474.3704428476459" r="1.7234747741177534" fill="white" opacity="0.9621312593503102"/><circle cx="716.2286440133314" cy="360.896876473241" r="1.268382838816057" fill="white" opacity="0.7636421598639387"/><circle cx="498.6102526190438" cy="379.4723206377752" r="0.9513754531824081" fill="white" opacity="0.8099877010527088"/><circle cx="606.0932595916948" cy="582.4286054274755" r="1.532163378494758" fill="white" opacity="0.6408294123736671"/><circle cx="458.8600951507809" cy="697.6411372824257" r="1.9967227916961465" fill="#4affff" opacity="0.9455727348706877"/><circle cx="675.4327772953039" cy="665.46273782943" r="1.4948219824428683" fill="white" opacity="0.8777885525728297"/><circle cx="576.5791841483472" cy="395.20293464874044" r="2.0045738888878395" fill="white" opacity="0.5557659088202904"/><circle cx="475.19866368966984" cy="363.3243099200015" r="0.9878408641363028" fill="white" opacity="0.5408907141502313"/><circle cx="516.5498265855073" cy="448.24402898963314" r="0.6038741827129988" fill="white" opacity="0.838510122393801"/><circle cx="516.9468615233658" cy="651.6350169420772" r="1.963105186506957" fill="#4affff" opacity="0.9821964437420487"/><circle cx="365.00659209608307" cy="242.07109570398632" r="1.4941182206799328" fill="white" opacity="0.7085419689917041"/><circle cx="430.26115093073463" cy="728.241316579973" r="1.3548942953055678" fill="white" opacity="0.24960563638788874"/><circle cx="522.2045209008422" cy="535.0092996576418" r="0.516575385543971" fill="white" opacity="0.5062037936203907"/><circle cx="494.88793693252387" cy="768.8385166924911" r="0.8186659036725361" fill="white" opacity="0.6328955080000263"/><circle cx="207.46950750326016" cy="616.8222536315343" r="0.9598142320579588" fill="#4affff" opacity="0.6529129312615718"/><circle cx="601.1504409404694" cy="541.6358014054742" r="1.2996092379930424" fill="white" opacity="0.6118239125482301"/><circle cx="437.1456062907888" cy="338.7346013872467" r="0.795603733122062" fill="white" opacity="0.21878017086532023"/><circle cx="243.91681572945618" cy="613.8524752710828" r="0.9960819756974764" fill="white" opacity="0.5558145054970551"/><circle cx="807.82494008373" cy="614.9508821523116" r="1.4327205510127192" fill="white" opacity="0.4288572125347745"/><circle cx="338.33829023034326" cy="400.77303431161727" r="1.3323331981438193" fill="#4affff" opacity="0.333676509167093"/><circle cx="415.2308220488772" cy="625.7966394389586" r="2.2434725555981267" fill="white" opacity="0.7187892049008104"/><circle cx="434.90538861737963" cy="767.109643030083" r="0.8705243317188982" fill="white" opacity="0.5523159588781086"/><circle cx="507.99384233655024" cy="466.28678941767186" r="1.4590210122210174" fill="white" opacity="0.8285036722338679"/><circle cx="270.5780246168317" cy="712.6332091782832" r="2.191706267920027" fill="white" opacity="0.5827969812743545"/><circle cx="663.4378789785465" cy="613.4994809934897" r="1.0008611168521857" fill="#4affff" opacity="0.2753603732380359"/><circle cx="332.39336513092996" cy="505.82133754603166" r="0.5641257875037184" fill="white" opacity="0.5801384967679125"/><circle cx="427.48545302542436" cy="337.26109253218846" r="0.6776075903340923" fill="white" opacity="0.4012871580235185"/><circle cx="369.014263820593" cy="408.87870272725974" r="0.6816286996807586" fill="white" opacity="0.748654918412063"/><circle cx="760.5283275327847" cy="406.2837590211162" r="1.6774517724770899" fill="white" opacity="0.37432474344498473"/><circle cx="825.3953387032216" cy="496.2129097847539" r="1.5931395538224424" fill="#4affff" opacity="0.5873156659744017"/><circle cx="501.336320950561" cy="518.1988887162825" r="2.1775309805630187" fill="white" opacity="0.5169515365927844"/><circle cx="441.6317676684595" cy="755.3093401474757" r="2.457338582887469" fill="white" opacity="0.8516082367037068"/><circle cx="543.5440027226815" cy="551.1121376136517" r="2.173496667680371" fill="white" opacity="0.7980321260040177"/><circle cx="496.5963551079558" cy="540.4918039518144" r="0.7410772443168478" fill="white" opacity="0.6993585216467851"/><circle cx="500.9494433285061" cy="579.0070183344657" r="0.6294903968055974" fill="#4affff" opacity="0.5729213111281584"/><circle cx="268.5832152129191" cy="504.43199271811733" r="1.0866416966473955" fill="white" opacity="0.7250780382582538"/><circle cx="313.4102279466074" cy="543.0111781438804" r="1.7449563495481186" fill="white" opacity="0.2985753107345088"/><circle cx="536.6565748698197" cy="680.4600234539458" r="2.3647051749690617" fill="white" opacity="0.8513060303231137"/><circle cx="590.256824504223" cy="308.54388945798655" r="1.3899987291395228" fill="white" opacity="0.4150088012098285"/><circle cx="700.4369831117582" cy="372.45330286207474" r="1.4333737365286279" fill="#4affff" opacity="0.7606130040609738"/><circle cx="621.4142950283425" cy="369.20225992530686" r="2.174229035829667" fill="white" opacity="0.8142427028322528"/><circle cx="565.4257475470023" cy="408.10170982927383" r="1.0532989030688973" fill="white" opacity="0.2671930319876493"/><circle cx="493.3553974053246" cy="494.56855461705595" r="1.2124099196995792" fill="white" opacity="0.6097921246033908"/><circle cx="458.8937532902206" cy="688.7076454249952" r="2.2078163916287292" fill="white" opacity="0.26957581102831174"/><circle cx="578.3010562843559" cy="838.2550191641719" r="1.8327294307467392" fill="#4affff" opacity="0.8313050856374948"/><circle cx="381.7996351312916" cy="246.24908888108646" r="2.0183614798408906" fill="white" opacity="0.9260782147732847"/><circle cx="544.0625480665038" cy="733.8002162081259" r="1.8483574939727658" fill="white" opacity="0.5912181376052961"/><circle cx="605.5676116242328" cy="546.5932240077223" r="2.0566142832051444" fill="white" opacity="0.4696266908642393"/><circle cx="671.4792686165355" cy="397.43485638897323" r="1.9219500554537632" fill="white" opacity="0.4229854000695424"/><circle cx="306.7894804843291" cy="411.858345238715" r="1.9175121181968686" fill="#4affff" opacity="0.5618011824368658"/><circle cx="846.823059698193" cy="476.9608159547872" r="1.1263736070737265" fill="white" opacity="0.36031366488597527"/><circle cx="550.9814899037709" cy="343.17316521052123" r="1.889630084438045" fill="white" opacity="0.2526700830442236"/><circle cx="391.23165457591034" cy="529.5115107780543" r="2.0044808162220376" fill="white" opacity="0.6931511935583838"/><circle cx="455.1945206380914" cy="544.4275657660442" r="1.5771758034029992" fill="white" opacity="0.2613015846751779"/><circle cx="595.3855790744034" cy="528.0532313893111" r="2.0801278439977726" fill="#4affff" opacity="0.7166291384656955"/><circle cx="499.8788412145871" cy="517.5550117936212" r="1.026074662595844" fill="white" opacity="0.3416453729659613"/><circle cx="412.3131844380299" cy="376.8889718169052" r="2.017240295599777" fill="white" opacity="0.2583237402386196"/><circle cx="841.2226677144774" cy="477.4131798945639" r="2.471239323958003" fill="white" opacity="0.4590772943895015"/><circle cx="491.15144430854053" cy="532.5209920020556" r="0.5633738882920944" fill="white" opacity="0.6069100925880195"/><circle cx="352.87236585016956" cy="243.2030571072641" r="1.8974358443328936" fill="#4affff" opacity="0.3060277265644887"/><circle cx="575.4394089956385" cy="481.441045281278" r="0.9600245841845028" fill="white" opacity="0.39429533336711614"/><circle cx="453.5202760456492" cy="619.7112601698999" r="2.1859697748095948" fill="white" opacity="0.6198659943347644"/><circle cx="482.0774621264028" cy="666.4653475112368" r="1.1759251138865991" fill="white" opacity="0.5192221920297092"/><circle cx="497.3434598813614" cy="464.4681074202747" r="0.6451815855080061" fill="white" opacity="0.4959391914917321"/><circle cx="208.51916334003909" cy="482.48564106902165" r="1.404910359710584" fill="#4affff" opacity="0.8398086946422365"/><circle cx="369.52566263897484" cy="318.28321052367755" r="2.0891139045451803" fill="white" opacity="0.45664636899067634"/><circle cx="603.7393283626835" cy="385.1008897853615" r="2.0903047093647698" fill="white" opacity="0.8707153722938898"/><circle cx="396.2706894888953" cy="560.1956793227831" r="0.866720694915267" fill="white" opacity="0.42120726090173055"/><circle cx="385.3283060188825" cy="581.3359906553762" r="0.6550977414725971" fill="white" opacity="0.6857689792242123"/><circle cx="533.3576681877337" cy="375.343143154269" r="2.0835131094400525" fill="#4affff" opacity="0.9230474903051009"/><circle cx="507.62789544673836" cy="420.6627097253672" r="0.5109171800361989" fill="white" opacity="0.5195196498516048"/><circle cx="564.2552916080245" cy="596.6598408338355" r="1.12671641704936" fill="white" opacity="0.9684705679136296"/><circle cx="358.9232205552379" cy="308.94537572627064" r="2.268745878499409" fill="white" opacity="0.3462030772479768"/><circle cx="689.1751152472688" cy="674.5095611223464" r="1.9669614076895465" fill="white" opacity="0.8923197606349917"/><circle cx="801.341735878058" cy="450.82125507411683" r="1.0623825507063192" fill="#4affff" opacity="0.27045188476974097"/><circle cx="556.4872065292217" cy="336.6572276680886" r="1.401560009096074" fill="white" opacity="0.5982414671741065"/><circle cx="603.5767060501664" cy="778.2737391483151" r="0.6542439422654058" fill="white" opacity="0.7468170540066088"/><circle cx="312.6976076744394" cy="755.3059748233429" r="2.2919426812365242" fill="white" opacity="0.2802207095315451"/><circle cx="504.1562782848163" cy="515.3499566582668" r="0.6678064278200502" fill="white" opacity="0.8754710938745176"/><circle cx="401.881620556937" cy="833.0931631754647" r="1.128933883099862" fill="#4affff" opacity="0.4635869954280695"/><circle cx="777.4412167667401" cy="450.6093593414858" r="1.9757334088529528" fill="white" opacity="0.9236018737660383"/><circle cx="634.6542208149571" cy="418.4677894429743" r="1.4904739597896421" fill="white" opacity="0.8884621447565706"/><circle cx="301.505798020659" cy="480.61947607007835" r="0.6655509537960835" fill="white" opacity="0.7130367401122477"/><circle cx="432.62657434039716" cy="499.4154552487861" r="0.6465038395157525" fill="white" opacity="0.8706818540015733"/><circle cx="709.7985315769843" cy="553.3022368545346" r="1.5023739526422326" fill="#4affff" opacity="0.9292524305208099"/><circle cx="474.9134864918768" cy="760.3374366273126" r="1.609167204574744" fill="white" opacity="0.9022764988469707"/><circle cx="512.01574520234" cy="392.11340412018046" r="1.0097629529100223" fill="white" opacity="0.7104459453583396"/><circle cx="477.4628788671601" cy="349.8042101040732" r="1.4655996983657982" fill="white" opacity="0.7807301213440649"/><circle cx="617.5690973314508" cy="369.48254965731303" r="1.3328156983681398" fill="white" opacity="0.45710169994280714"/><circle cx="546.7008292556478" cy="528.1760189407908" r="1.4910765431159936" fill="#4affff" opacity="0.21086858297514033"/><circle cx="499.2806133354328" cy="496.2322467169817" r="0.522076063138865" fill="white" opacity="0.20243568452254995"/><circle cx="494.86173743038677" cy="476.57524743264935" r="2.2354513337881987" fill="white" opacity="0.4415488730693786"/><circle cx="280.3626099124424" cy="733.5831500832778" r="1.5225956951001098" fill="white" opacity="0.7039627824516634"/><circle cx="508.445167030062" cy="491.19998169511774" r="2.177720548109547" fill="white" opacity="0.47048783632119967"/><circle cx="695.6531605381816" cy="585.0800609988959" r="1.6149313468965105" fill="#4affff" opacity="0.7173140254589931"/><circle cx="233.44128422192773" cy="387.2799867036531" r="2.4548513236051694" fill="white" opacity="0.8622357347950567"/><circle cx="690.5232292048632" cy="640.7214558735488" r="2.118039246467846" fill="white" opacity="0.46218187278239764"/><circle cx="443.7542922858678" cy="385.803455823027" r="1.8279157520467724" fill="white" opacity="0.42279650705402666"/><circle cx="330.44429324754884" cy="687.0241743257625" r="1.9326492117427843" fill="white" opacity="0.38137113667928735"/><circle cx="540.5336708370106" cy="490.00751982321077" r="1.3871525760051808" fill="#4affff" opacity="0.23634904796389122"/><circle cx="360.4161278088112" cy="649.8640743976731" r="0.6886932434320543" fill="white" opacity="0.7024438072530219"/><circle cx="388.4551730782598" cy="398.882462311687" r="2.4010767967269966" fill="white" opacity="0.3729735054325454"/><circle cx="374.1606813301769" cy="596.7631332117478" r="1.5027347961754542" fill="white" opacity="0.6890506179034317"/><circle cx="549.1736408328703" cy="208.0641668993137" r="1.5434700509837649" fill="white" opacity="0.8124956722926278"/><circle cx="573.8267486554481" cy="262.56253096039006" r="0.7967582609668802" fill="#4affff" opacity="0.6714174296595066"/><circle cx="464.5356222643276" cy="653.9813767666736" r="1.0224381615022518" fill="white" opacity="0.4321433525610354"/><circle cx="449.05638568303493" cy="556.0194279040043" r="2.3396226186732654" fill="white" opacity="0.5724529904165372"/><circle cx="759.8364665131691" cy="584.6328459127016" r="1.4126898645413708" fill="white" opacity="0.5235819655376199"/><circle cx="579.3447294071188" cy="277.6831384523208" r="2.2928177157119793" fill="white" opacity="0.7764027542178622"/><circle cx="557.6586290244796" cy="416.87450670101606" r="2.2989827311194944" fill="#4affff" opacity="0.9840367635242158"/><circle cx="358.91012710108885" cy="455.53881405857726" r="1.637058125606583" fill="white" opacity="0.4836576132066931"/><circle cx="456.3912516294356" cy="268.956314339122" r="1.1390054843690374" fill="white" opacity="0.4485982618272285"/><circle cx="448.64786277643015" cy="478.7409830859265" r="1.0469717693934308" fill="white" opacity="0.9993684356704902"/><circle cx="525.8857760662369" cy="478.87165611951605" r="1.154917642239039" fill="white" opacity="0.5297904141895449"/><circle cx="493.19698625429464" cy="490.73570825017197" r="2.3615165353954395" fill="#4affff" opacity="0.47104546449044876"/><circle cx="657.7710077388894" cy="247.8547255294088" r="2.3513319228747807" fill="white" opacity="0.9024902186331836"/><circle cx="409.96340015918287" cy="592.7216798916384" r="1.35801754541554" fill="white" opacity="0.6634788181807374"/><circle cx="481.5115950718652" cy="393.26728840351876" r="2.3044700778581757" fill="white" opacity="0.5935589627161879"/><circle cx="524.1422353422811" cy="544.1229876039466" r="2.104974689193307" fill="white" opacity="0.7146414090084539"/><circle cx="651.0988339822115" cy="467.60521090342877" r="2.221224392022078" fill="#4affff" opacity="0.23918014834550352"/><circle cx="628.2460902760483" cy="410.18342882348696" r="1.4098155218340431" fill="white" opacity="0.4930692058899592"/><circle cx="597.1641708278917" cy="516.7526365525164" r="0.86816677618094" fill="white" opacity="0.863261098787871"/><circle cx="217.04824188880912" cy="561.2444105294055" r="2.4891105536797395" fill="white" opacity="0.5488950025263094"/><circle cx="297.91807706181874" cy="521.5959878405342" r="2.2776568052570583" fill="white" opacity="0.4259669540029835"/><circle cx="517.344733749164" cy="798.6062790518822" r="0.8628596748110677" fill="#4affff" opacity="0.7936841284131448"/><circle cx="761.7085712535509" cy="586.0488506031636" r="0.552484217821398" fill="white" opacity="0.5851002410235169"/><circle cx="461.20080255164635" cy="397.4076519911291" r="0.9453696836597727" fill="white" opacity="0.938487960923323"/><circle cx="321.02823339234044" cy="784.8643039308525" r="0.6493238693456167" fill="white" opacity="0.8515236099957695"/><circle cx="274.81841419772707" cy="624.5346733523847" r="2.3418012229823635" fill="white" opacity="0.2698053604467259"/><circle cx="552.6246834727061" cy="491.2751573502408" r="1.438382542075629" fill="#4affff" opacity="0.3940954569796846"/><circle cx="590.1257076134981" cy="391.14104976336466" r="0.9947124758058203" fill="white" opacity="0.41983348069011406"/><circle cx="584.8026863071995" cy="320.2396975144774" r="2.397203611452942" fill="white" opacity="0.6838667844904732"/><circle cx="234.18547103576577" cy="529.2656468297948" r="0.914170873418886" fill="white" opacity="0.939057837014901"/><circle cx="697.1970681413802" cy="519.3149709121373" r="0.8864640317644845" fill="white" opacity="0.6024640207457947"/><circle cx="343.7309890611493" cy="446.77955127669304" r="0.785171226950721" fill="#4affff" opacity="0.2780369061154705"/><circle cx="579.4277252732256" cy="566.9549920544548" r="2.4229671073306944" fill="white" opacity="0.2181239813865572"/><circle cx="183.94042308143565" cy="376.0499608585051" r="2.2837451875480452" fill="white" opacity="0.29694376104374726"/><circle cx="719.0728551118989" cy="485.3887825033065" r="1.016933232502999" fill="white" opacity="0.6053556811232124"/><circle cx="690.3934980909468" cy="213.7313212735835" r="1.6450201850926542" fill="white" opacity="0.21804889892514528"/><circle cx="293.9916074606964" cy="505.4708838768531" r="1.5068567774142538" fill="#4affff" opacity="0.8192756475653575"/><circle cx="430.28171127198385" cy="345.7399440267586" r="0.9827041408727912" fill="white" opacity="0.20713684719551378"/><circle cx="371.946349493838" cy="720.0267624097557" r="2.291488895200424" fill="white" opacity="0.4034888380761597"/><circle cx="647.8151636521018" cy="551.6756621849555" r="0.631822213428797" fill="white" opacity="0.5839772315820126"/><circle cx="528.8102312136448" cy="456.41372166678934" r="0.535059203887406" fill="white" opacity="0.3491227201942465"/><circle cx="259.55358010273187" cy="598.4522960693728" r="1.6924098343603315" fill="#4affff" opacity="0.6273851090708562"/><circle cx="486.8334508889709" cy="651.1320279217747" r="1.9420448745681593" fill="white" opacity="0.9542813447249454"/><circle cx="826.652453075583" cy="516.4293669938771" r="1.4251362340258882" fill="white" opacity="0.9038342924455565"/><circle cx="532.445261720625" cy="476.9186520209328" r="0.6074757483456894" fill="white" opacity="0.8813854019469667"/><circle cx="484.29983783199276" cy="551.8142481017421" r="2.0938791338169715" fill="white" opacity="0.6321192152257997"/><circle cx="298.46692506385693" cy="759.1952567912501" r="1.2396325956974406" fill="#4affff" opacity="0.9090421961347168"/><circle cx="516.8306206350844" cy="504.1722519158798" r="0.7867729980377796" fill="white" opacity="0.7156491805272513"/><circle cx="510.1630019354219" cy="458.93820094823815" r="0.8650355280078945" fill="white" opacity="0.6218717302057275"/><circle cx="280.7538645881666" cy="636.8652741510068" r="1.309897590321921" fill="white" opacity="0.4756468305675666"/><circle cx="482.09776722382617" cy="491.42470774777524" r="2.3224435951057725" fill="white" opacity="0.7904162746615273"/><circle cx="459.37716373684833" cy="169.63684036752403" r="2.4404331893568285" fill="#4affff" opacity="0.9310664068501011"/><circle cx="414.8151731859183" cy="725.9860533445188" r="1.6937356952352252" fill="white" opacity="0.8335892568673171"/><circle cx="735.7065365420226" cy="521.6882014760779" r="1.6482744779443612" fill="white" opacity="0.2567869357534683"/><circle cx="440.26605503456904" cy="378.01945877074377" r="1.450441531421795" fill="white" opacity="0.8796055568480039"/><circle cx="482.03429356137644" cy="516.5529094528548" r="0.7779372519864336" fill="white" opacity="0.7502686986165363"/><circle cx="629.845951728076" cy="454.43543741646613" r="1.8984246592977678" fill="#4affff" opacity="0.3601003547694676"/><circle cx="483.145644072613" cy="431.6755775310396" r="1.6276703076813068" fill="white" opacity="0.6024964466278486"/><circle cx="343.9549171587221" cy="302.91956931687986" r="2.1315960322531895" fill="white" opacity="0.3218389756868167"/><circle cx="523.1307853160273" cy="526.8797001813513" r="1.5414909717655059" fill="white" opacity="0.372979514262604"/><circle cx="230.0691241900774" cy="306.45840315351074" r="0.5501943656861363" fill="white" opacity="0.7685714011736233"/><circle cx="288.35035285503557" cy="651.3977881808258" r="2.227845435776361" fill="#4affff" opacity="0.9837501144779164"/><circle cx="340.3752087382529" cy="200.72300364356965" r="1.71997470428431" fill="white" opacity="0.4105012086734332"/><circle cx="692.7716557217302" cy="361.20620203351865" r="1.7556164074538008" fill="white" opacity="0.8203515810966961"/><circle cx="515.6195903222512" cy="506.8282755352089" r="1.4362107323562983" fill="white" opacity="0.9631170807646736"/><circle cx="555.9480216426934" cy="698.8557109296114" r="1.1054737403015165" fill="white" opacity="0.7619720851246023"/><circle cx="459.33955429756185" cy="509.63388111626637" r="2.0931033231311447" fill="#4affff" opacity="0.5706602707135927"/><circle cx="482.13044433114726" cy="494.3864828494722" r="1.2941159945336076" fill="white" opacity="0.2780669633032222"/><circle cx="339.4527938423819" cy="615.6485798386703" r="1.9349487438079271" fill="white" opacity="0.3582305989099883"/><circle cx="448.3796978616413" cy="403.30657542175487" r="0.7020275350179475" fill="white" opacity="0.7001900590844541"/><circle cx="482.6104799881395" cy="577.0209446164152" r="2.284532685441846" fill="white" opacity="0.5677857071541847"/><circle cx="515.9888271757613" cy="495.865785998319" r="2.3087454122728164" fill="#4affff" opacity="0.598937185190425"/><circle cx="504.95315650136143" cy="536.5733967952979" r="0.9892294694520269" fill="white" opacity="0.3026851671664343"/><circle cx="209.923203812343" cy="668.8818264655354" r="1.4201473991913356" fill="white" opacity="0.9074225791343924"/><circle cx="314.54381948735454" cy="459.03470738757574" r="2.432373037003446" fill="white" opacity="0.5694089932495038"/><circle cx="502.3809746280805" cy="592.1824416530301" r="1.1022487139212536" fill="white" opacity="0.9288908866616146"/><circle cx="587.9476243629682" cy="664.2079891773423" r="1.1605830111271533" fill="#4affff" opacity="0.4647625476285846"/><circle cx="593.7972683891091" cy="560.3562487443119" r="1.5347771073482042" fill="white" opacity="0.30892390878565607"/><circle cx="488.4835470684984" cy="551.165877159701" r="1.5368656924738842" fill="white" opacity="0.4900158875302502"/><circle cx="623.909032154008" cy="357.72514982017043" r="0.912017912091224" fill="white" opacity="0.8478523679340275"/><circle cx="513.018116955792" cy="538.1322583973639" r="2.370014608592159" fill="white" opacity="0.5884273105993341"/><circle cx="233.5461402963611" cy="365.02836450912775" r="1.2408616763645433" fill="#4affff" opacity="0.4247975123167136"/><circle cx="567.5808968765086" cy="432.07500892092867" r="0.6459153996473188" fill="white" opacity="0.9934960996079418"/><circle cx="526.0847628773606" cy="508.25357325946817" r="2.465273115728137" fill="white" opacity="0.7737351745671348"/><circle cx="464.5132991039753" cy="368.48416967388346" r="0.756112327949519" fill="white" opacity="0.4910763853446762"/><circle cx="706.8712847101458" cy="434.0242691922401" r="1.7592215059121386" fill="white" opacity="0.41557564549765885"/><circle cx="307.15997946155954" cy="350.5584043322739" r="1.969666381087527" fill="#4affff" opacity="0.5144823472214866"/><circle cx="463.55640162543233" cy="476.97213361690837" r="2.1721719200291894" fill="white" opacity="0.4113085307642024"/><circle cx="377.9436382243911" cy="371.0887725998982" r="2.4626805446930766" fill="white" opacity="0.6328153552024892"/><circle cx="810.2130507874597" cy="463.0656602863461" r="2.127742245744035" fill="white" opacity="0.9322818631496792"/><circle cx="383.29012058781507" cy="414.0052977764945" r="1.8674455553936897" fill="white" opacity="0.33505725198041303"/><circle cx="836.9931447285062" cy="498.29556538231935" r="1.9653960933372785" fill="#4affff" opacity="0.335919323030846"/><circle cx="786.6628096655882" cy="380.45976936057247" r="1.597928405054232" fill="white" opacity="0.705878334593212"/><circle cx="405.0453532831945" cy="475.8196535957244" r="1.316112911290816" fill="white" opacity="0.39231816021424637"/><circle cx="534.0404262988828" cy="620.7564021988645" r="1.6415121528241063" fill="white" opacity="0.637191034200902"/><circle cx="379.0744169811363" cy="619.756230494753" r="0.7944367471862614" fill="white" opacity="0.7700564323466006"/><circle cx="397.95761873705237" cy="439.5916959400135" r="2.469324647832809" fill="#4affff" opacity="0.5797221016782961"/><circle cx="636.0722872085826" cy="585.8255518229316" r="1.9537269709015832" fill="white" opacity="0.5343632360096682"/><circle cx="571.170150539621" cy="644.6935365016641" r="1.0416574755377317" fill="white" opacity="0.4269890278674717"/><circle cx="679.1217423728167" cy="221.60772970246586" r="1.7374877287626385" fill="white" opacity="0.3388966799568559"/><circle cx="207.71711931227748" cy="647.7528759412061" r="0.9868943069041913" fill="white" opacity="0.9116528698772903"/><circle cx="282.07794758749503" cy="476.10263249868837" r="0.826936496377003" fill="#4affff" opacity="0.8979505862469748"/><circle cx="361.4713864223453" cy="447.8461055397672" r="1.8463958042890378" fill="white" opacity="0.8011264802172307"/><circle cx="278.660560265139" cy="562.8013178231955" r="1.8038297836574295" fill="white" opacity="0.869637760851083"/><circle cx="300.7034348898736" cy="380.0404597560791" r="2.3055834427148283" fill="white" opacity="0.5528593293671675"/><circle cx="428.00216662605726" cy="428.3796344239362" r="1.2765442643092362" fill="white" opacity="0.4471911811207882"/><circle cx="468.7449124881147" cy="628.3516987077309" r="0.6324520649534828" fill="#4affff" opacity="0.44661209527678775"/><circle cx="688.5240362950351" cy="441.5578321310229" r="2.30070269655104" fill="white" opacity="0.6814944193535191"/><circle cx="458.9835217573566" cy="589.0864815054261" r="1.7974497529013593" fill="white" opacity="0.2805242510192638"/><circle cx="513.5173442285018" cy="525.6057705066805" r="1.4069138290860144" fill="white" opacity="0.6887844075701857"/><circle cx="333.72405823197073" cy="508.3941477856513" r="2.102741428714062" fill="white" opacity="0.7711261757217067"/><circle cx="400.9857053368021" cy="707.3578704051272" r="2.408875717210007" fill="#4affff" opacity="0.45471573389119446"/><circle cx="475.58610478205077" cy="563.3290763773831" r="1.2723057544924936" fill="white" opacity="0.3043225713487523"/><circle cx="258.4868542954232" cy="647.5692756794483" r="1.2204904506130045" fill="white" opacity="0.517548176144422"/><circle cx="510.6956237604725" cy="496.63233565175346" r="1.8984106270312666" fill="white" opacity="0.5365979021341971"/><circle cx="615.5803610018891" cy="551.8998549713119" r="1.1550586505375864" fill="white" opacity="0.35973522530237934"/><circle cx="336.86664806351314" cy="715.8680820591924" r="0.8462597615134033" fill="#4affff" opacity="0.5894355375857785"/><circle cx="716.09545348238" cy="621.9385854062056" r="0.9227615814296395" fill="white" opacity="0.7297263305198469"/><circle cx="523.9229359560684" cy="504.11460723356396" r="1.1086073767782434" fill="white" opacity="0.48738746934252364"/><circle cx="485.4009656951284" cy="495.7066220513349" r="1.9536266872537271" fill="white" opacity="0.7322535616858843"/><circle cx="316.80433182997547" cy="306.8375766684386" r="2.4380921383826166" fill="white" opacity="0.9869940524887755"/><circle cx="429.0751984043681" cy="544.4741948941123" r="2.1994985468790356" fill="#4affff" opacity="0.8190848479650095"/><circle cx="502.7117306013848" cy="500.86569036189314" r="1.7596899715703906" fill="white" opacity="0.642870348178469"/><circle cx="366.1530722852772" cy="665.2465430126246" r="0.5903391350541063" fill="white" opacity="0.7438460581437965"/><circle cx="606.421019039396" cy="462.98914200919916" r="2.2757509383338035" fill="white" opacity="0.4848616518165493"/><circle cx="243.22969015155547" cy="598.8429686090451" r="1.3363859236405609" fill="white" opacity="0.9870622016208235"/><circle cx="499.92360666110284" cy="500.10414571961564" r="1.8951673314652155" fill="#4affff" opacity="0.574243809769794"/><circle cx="702.7446354015" cy="430.5746701558372" r="2.0903121584509017" fill="white" opacity="0.4541055703073587"/><circle cx="548.7405906574135" cy="698.0998125512001" r="1.5414941667832713" fill="white" opacity="0.7408258190032984"/><circle cx="405.14123296667566" cy="361.6460244300571" r="0.8276133433612656" fill="white" opacity="0.3298951606446311"/><circle cx="611.7097582536496" cy="349.26001705392343" r="0.8103233496643143" fill="white" opacity="0.5378442535642467"/><circle cx="719.9581096367184" cy="396.68852905064426" r="0.6461396935104387" fill="#4affff" opacity="0.3204430123800219"/><circle cx="547.7691689466748" cy="511.01410990427905" r="1.0672031366078705" fill="white" opacity="0.5527449710785239"/><circle cx="465.0409198312571" cy="426.49921903682105" r="1.1057054660296388" fill="white" opacity="0.2790251192729198"/><circle cx="661.5322185565094" cy="457.6402028307881" r="0.5078374283930702" fill="white" opacity="0.8341847128532138"/><circle cx="508.45372966480954" cy="709.6135827765117" r="2.203026889671214" fill="white" opacity="0.2485356625253461"/><circle cx="520.0038921798101" cy="432.7310387540104" r="0.5378286803817276" fill="#4affff" opacity="0.6960446988123437"/><circle cx="802.3658747225484" cy="340.0457061647036" r="1.5840827495460124" fill="white" opacity="0.6854985161419542"/><circle cx="490.40853079550755" cy="519.8009343621143" r="0.5888899053382857" fill="white" opacity="0.9085788703665652"/><circle cx="401.24821301858265" cy="524.6713805332839" r="0.850059048024868" fill="white" opacity="0.39348338668866334"/><circle cx="496.2902637343197" cy="479.1319514952407" r="1.155828927316806" fill="white" opacity="0.2771249073975495"/><circle cx="583.7249163329914" cy="598.2190340152639" r="1.8811096675456898" fill="#4affff" opacity="0.6456204772800385"/><circle cx="305.36583560096744" cy="714.4048529441562" r="1.0651583127418234" fill="white" opacity="0.7957025665873068"/><circle cx="387.37111951413505" cy="551.0396914564243" r="2.2609092795711083" fill="white" opacity="0.8745281624808958"/><circle cx="223.92115520598287" cy="458.67539993571165" r="1.9356002787904814" fill="white" opacity="0.3349108043186545"/><circle cx="633.6694116691629" cy="381.21874886395796" r="1.9543363699151692" fill="white" opacity="0.9533818043675575"/><circle cx="313.32868659616923" cy="422.17289150036993" r="1.0430191219354157" fill="#4affff" opacity="0.512969083446985"/><circle cx="503.1500008985426" cy="503.22582645986876" r="1.97299352263204" fill="white" opacity="0.27562576828666574"/><circle cx="381.028963704068" cy="655.7154780197711" r="2.162571192771802" fill="white" opacity="0.2626087485155436"/><circle cx="250.43145861956336" cy="693.9532864375485" r="1.2468452133566497" fill="white" opacity="0.2126186120297213"/><circle cx="355.7425367871764" cy="543.8919548410558" r="2.1016137159781323" fill="white" opacity="0.2565475170785895"/>
    </svg>