<svg xmlns="http://www.w3.org/2000/svg" width="1000" height="1000" viewBox="0 0 1000 1000"><defs><radialGradient id="galaxyGradient" cx="50%" cy="50%" r="50%" fx="50%" fy="50%"><stop offset="0%" stop-color="#4aff4a" stop-opacity=".3"/><stop offset="70%" stop-color="#4aff4a" stop-opacity=".1"/><stop offset="100%" stop-color="#4aff4a" stop-opacity="0"/></radialGradient></defs><rect width="1000" height="1000" fill="#0a1a0a"/><ellipse cx="500" cy="500" fill="url(#galaxyGradient)" rx="400" ry="200" transform="rotate(45, 500, 500)"/><circle cx="296.479" cy="300.231" r="1.801" fill="#4affff" opacity=".983"/><circle cx="365.99" cy="775.06" r="2.32" fill="#fff" opacity=".603"/><circle cx="630.743" cy="633.215" r="1.626" fill="#fff" opacity=".949"/><circle cx="537.535" cy="489.795" r="2.46" fill="#fff" opacity=".213"/><circle cx="577.338" cy="351.128" r="1.938" fill="#fff" opacity=".665"/><circle cx="657.94" cy="443.278" r="1.016" fill="#4affff" opacity=".794"/><circle cx="476.596" cy="498.667" r=".588" fill="#fff" opacity=".287"/><circle cx="431.186" cy="555.274" r=".942" fill="#fff" opacity=".546"/><circle cx="465.708" cy="552.558" r="1.477" fill="#fff" opacity=".348"/><circle cx="472.959" cy="562.88" r="1.984" fill="#fff" opacity=".599"/><circle cx="465.073" cy="221.279" r="2.167" fill="#4affff" opacity=".497"/><circle cx="581.16" cy="612.578" r="1.81" fill="#fff" opacity=".457"/><circle cx="308.844" cy="546.303" r="2.129" fill="#fff" opacity=".912"/><circle cx="336.301" cy="285.21" r="2.247" fill="#fff" opacity=".865"/><circle cx="534.856" cy="465.116" r="1.378" fill="#fff" opacity=".68"/><circle cx="646.485" cy="493.855" r="1.393" fill="#4affff" opacity=".529"/><circle cx="577.846" cy="820.338" r=".511" fill="#fff" opacity=".769"/><circle cx="644.305" cy="607.903" r=".913" fill="#fff" opacity=".274"/><circle cx="623.238" cy="388.716" r="2.142" fill="#fff" opacity=".254"/><circle cx="252.13" cy="347.035" r="1.328" fill="#fff" opacity=".75"/><circle cx="554.078" cy="444.312" r="2.423" fill="#4affff" opacity=".32"/><circle cx="616.647" cy="727.475" r="1.511" fill="#fff" opacity=".769"/><circle cx="452.541" cy="190.393" r="1.872" fill="#fff" opacity=".922"/><circle cx="447.885" cy="455.709" r="1.359" fill="#fff" opacity=".791"/><circle cx="510.299" cy="485.024" r="1.492" fill="#fff" opacity=".449"/><circle cx="731.63" cy="560.669" r="1.959" fill="#4affff" opacity=".713"/><circle cx="489.442" cy="342.864" r=".949" fill="#fff" opacity=".816"/><circle cx="624.716" cy="728.905" r="1.069" fill="#fff" opacity=".688"/><circle cx="414.973" cy="522.548" r="1.705" fill="#fff" opacity=".261"/><circle cx="586.089" cy="496.969" r=".899" fill="#fff" opacity=".202"/><circle cx="487.282" cy="428.296" r="2.317" fill="#4affff" opacity=".626"/><circle cx="680.611" cy="794.883" r="2.08" fill="#fff" opacity=".201"/><circle cx="524.266" cy="520.521" r="1.624" fill="#fff" opacity=".734"/><circle cx="251.518" cy="477.251" r="1.71" fill="#fff" opacity=".862"/><circle cx="614.602" cy="422.991" r="1.598" fill="#fff" opacity=".204"/><circle cx="349.641" cy="462.871" r="1.399" fill="#4affff" opacity=".896"/><circle cx="488.489" cy="507.967" r="1.241" fill="#fff" opacity=".347"/><circle cx="431.429" cy="226.659" r=".536" fill="#fff" opacity=".864"/><circle cx="479.736" cy="419.991" r="2.467" fill="#fff" opacity=".545"/><circle cx="712.735" cy="414.302" r="1.757" fill="#fff" opacity=".771"/><circle cx="498.883" cy="561.928" r=".991" fill="#4affff" opacity=".717"/><circle cx="384.926" cy="586.048" r="1.428" fill="#fff" opacity=".608"/><circle cx="358.998" cy="443.421" r=".998" fill="#fff" opacity=".233"/><circle cx="502.513" cy="487.593" r="1.106" fill="#fff" opacity=".802"/><circle cx="475.654" cy="489.636" r="1.697" fill="#fff" opacity=".659"/><circle cx="380.791" cy="706.066" r="1.861" fill="#4affff" opacity=".998"/><circle cx="785.118" cy="565.315" r="1.658" fill="#fff" opacity=".753"/><circle cx="391.609" cy="471.943" r=".515" fill="#fff" opacity=".753"/><circle cx="684.287" cy="218.187" r="1.156" fill="#fff" opacity=".844"/><circle cx="453.04" cy="543.458" r=".556" fill="#fff" opacity=".508"/><circle cx="652.684" cy="404.44" r="1.785" fill="#4affff" opacity=".395"/><circle cx="278.732" cy="385.834" r="1.753" fill="#fff" opacity=".378"/><circle cx="425.083" cy="392.928" r="2.068" fill="#fff" opacity=".335"/><circle cx="156.987" cy="479.629" r=".686" fill="#fff" opacity=".615"/><circle cx="285.978" cy="376.231" r=".914" fill="#fff" opacity=".335"/><circle cx="226.088" cy="472.47" r="1.649" fill="#4affff" opacity=".722"/><circle cx="424.86" cy="595.074" r="1.967" fill="#fff" opacity=".901"/><circle cx="409.363" cy="529.656" r="2.198" fill="#fff" opacity=".757"/><circle cx="509.043" cy="486.884" r="2.463" fill="#fff" opacity=".836"/><circle cx="573.672" cy="670.503" r="2.166" fill="#fff" opacity=".821"/><circle cx="318.944" cy="554.522" r="1.443" fill="#4affff" opacity=".406"/><circle cx="375.833" cy="269.837" r="1.011" fill="#fff" opacity=".465"/><circle cx="524.787" cy="595.897" r=".905" fill="#fff" opacity=".383"/><circle cx="591.715" cy="394.152" r=".592" fill="#fff" opacity=".821"/><circle cx="553.242" cy="323.224" r="2.055" fill="#fff" opacity=".737"/><circle cx="495.764" cy="471.332" r="2.041" fill="#4affff" opacity=".878"/><circle cx="709.394" cy="401.41" r="1.735" fill="#fff" opacity=".993"/><circle cx="487.326" cy="184.406" r=".762" fill="#fff" opacity=".515"/><circle cx="230.777" cy="285.481" r="2.275" fill="#fff" opacity=".746"/><circle cx="499.571" cy="500.89" r=".884" fill="#fff" opacity=".719"/><circle cx="368.552" cy="575.356" r="2.072" fill="#4affff" opacity=".373"/><circle cx="449.405" cy="368.404" r="1.299" fill="#fff" opacity=".808"/><circle cx="186.756" cy="384.332" r="1.402" fill="#fff" opacity=".573"/><circle cx="422.298" cy="512.053" r="1.259" fill="#fff" opacity=".224"/><circle cx="482.546" cy="626.701" r=".618" fill="#fff" opacity=".818"/><circle cx="540.379" cy="352.48" r="1.289" fill="#4affff" opacity=".845"/><circle cx="755.895" cy="706.518" r="2.151" fill="#fff" opacity=".781"/><circle cx="353.831" cy="393.904" r="2.105" fill="#fff" opacity=".34"/><circle cx="438.378" cy="611.529" r="2.207" fill="#fff" opacity=".255"/><circle cx="263.371" cy="673.09" r="1.647" fill="#fff" opacity=".374"/><circle cx="503.903" cy="668.325" r="1.104" fill="#4affff" opacity=".55"/><circle cx="223.819" cy="471.085" r="1.276" fill="#fff" opacity=".271"/><circle cx="457.67" cy="302.904" r="2.378" fill="#fff" opacity=".725"/><circle cx="724.935" cy="493.584" r="1.403" fill="#fff" opacity=".566"/><circle cx="745.457" cy="425.364" r="1.642" fill="#fff" opacity=".398"/><circle cx="700.138" cy="292.167" r=".57" fill="#4affff" opacity=".72"/><circle cx="600.816" cy="604.625" r=".996" fill="#fff" opacity=".882"/><circle cx="682.267" cy="489.996" r="1.46" fill="#fff" opacity=".336"/><circle cx="575.33" cy="428.668" r="1.493" fill="#fff" opacity=".37"/><circle cx="279.279" cy="282.38" r="1.465" fill="#fff" opacity=".279"/><circle cx="473.525" cy="551.685" r="1.24" fill="#4affff" opacity=".733"/><circle cx="379.068" cy="643.285" r="1.621" fill="#fff" opacity=".653"/><circle cx="230.872" cy="375.579" r="1.122" fill="#fff" opacity=".913"/><circle cx="296.255" cy="713.678" r="1.039" fill="#fff" opacity=".773"/><circle cx="564.796" cy="433.584" r=".936" fill="#fff" opacity=".832"/><circle cx="666.788" cy="247.867" r="1.553" fill="#4affff" opacity=".623"/><circle cx="352.181" cy="773.83" r="1.584" fill="#fff" opacity=".213"/><circle cx="311.563" cy="682.174" r="2.221" fill="#fff" opacity=".629"/><circle cx="556.383" cy="225.595" r=".883" fill="#fff" opacity=".869"/><circle cx="699.223" cy="301.19" r="2.17" fill="#fff" opacity=".987"/><circle cx="408.669" cy="579.101" r="2.309" fill="#4affff" opacity=".568"/><circle cx="340.027" cy="345.928" r="1.517" fill="#fff" opacity=".757"/><circle cx="248.53" cy="397.364" r=".698" fill="#fff" opacity=".441"/><circle cx="623.819" cy="469.024" r=".673" fill="#fff" opacity=".529"/><circle cx="344.735" cy="737.652" r=".723" fill="#fff" opacity=".36"/><circle cx="429.011" cy="434.446" r="1.253" fill="#4affff" opacity=".96"/><circle cx="404.931" cy="618.254" r="2.139" fill="#fff" opacity=".689"/><circle cx="630.663" cy="394.374" r="1.936" fill="#fff" opacity=".274"/><circle cx="291.213" cy="486.656" r="2.059" fill="#fff" opacity=".585"/><circle cx="353.238" cy="282.794" r="1.322" fill="#fff" opacity=".461"/><circle cx="700.354" cy="525.926" r=".792" fill="#4affff" opacity=".824"/><circle cx="314.229" cy="636.175" r=".605" fill="#fff" opacity=".79"/><circle cx="324.026" cy="429.052" r="2.027" fill="#fff" opacity=".229"/><circle cx="510.019" cy="502.132" r=".699" fill="#fff" opacity=".349"/><circle cx="688.221" cy="522.981" r="1.98" fill="#fff" opacity=".538"/><circle cx="358.007" cy="427.861" r="2.49" fill="#4affff" opacity=".846"/><circle cx="431.579" cy="757.134" r=".95" fill="#fff" opacity=".906"/><circle cx="379.065" cy="579.987" r="2.428" fill="#fff" opacity=".255"/><circle cx="626.554" cy="255.682" r="1.333" fill="#fff" opacity=".427"/><circle cx="452.326" cy="446.646" r="1.59" fill="#fff" opacity=".462"/><circle cx="566.04" cy="483.677" r="1.088" fill="#4affff" opacity=".712"/><circle cx="465.971" cy="457.032" r="1.865" fill="#fff" opacity=".832"/><circle cx="268.951" cy="250.044" r=".889" fill="#fff" opacity=".396"/><circle cx="697.782" cy="763.302" r=".644" fill="#fff" opacity=".972"/><circle cx="606.621" cy="490.064" r="1.715" fill="#fff" opacity=".766"/><circle cx="449.535" cy="521.798" r=".848" fill="#4affff" opacity=".453"/><circle cx="530.72" cy="470.098" r="1.079" fill="#fff" opacity=".566"/><circle cx="261.685" cy="708.75" r="1.561" fill="#fff" opacity=".506"/><circle cx="470.351" cy="507.716" r="1.019" fill="#fff" opacity=".737"/><circle cx="478.527" cy="237.284" r=".747" fill="#fff" opacity=".972"/><circle cx="474.665" cy="564.333" r="1.798" fill="#4affff" opacity=".378"/><circle cx="695.114" cy="406.631" r="1.231" fill="#fff" opacity=".267"/><circle cx="391.867" cy="754.564" r="1.279" fill="#fff" opacity=".913"/><circle cx="531.998" cy="398.061" r=".733" fill="#fff" opacity=".966"/><circle cx="379.832" cy="331.593" r="1.052" fill="#fff" opacity=".956"/><circle cx="362.213" cy="503.684" r="1.269" fill="#4affff" opacity=".717"/><circle cx="704.37" cy="664.325" r=".923" fill="#fff" opacity=".742"/><circle cx="457.891" cy="806.157" r="1.503" fill="#fff" opacity=".246"/><circle cx="268.395" cy="482.876" r="1.791" fill="#fff" opacity=".512"/><circle cx="710.92" cy="423.995" r="1.845" fill="#fff" opacity=".703"/><circle cx="299.031" cy="743.931" r="1.183" fill="#4affff" opacity=".862"/><circle cx="557.545" cy="739.856" r="2.48" fill="#fff" opacity=".939"/><circle cx="303.146" cy="270.64" r="1.455" fill="#fff" opacity=".921"/><circle cx="680.779" cy="562.487" r="1.822" fill="#fff" opacity=".626"/><circle cx="306.259" cy="737.212" r="1.625" fill="#fff" opacity=".584"/><circle cx="487.358" cy="566.921" r="2.012" fill="#4affff" opacity=".952"/><circle cx="464.629" cy="504.638" r="1.176" fill="#fff" opacity=".909"/><circle cx="473.563" cy="520.816" r="1.659" fill="#fff" opacity=".727"/><circle cx="498.919" cy="628.452" r="1.42" fill="#fff" opacity=".494"/><circle cx="641.004" cy="253.714" r=".668" fill="#fff" opacity=".96"/><circle cx="456.805" cy="808.816" r="1.559" fill="#4affff" opacity=".959"/><circle cx="525.301" cy="832.653" r=".742" fill="#fff" opacity=".295"/><circle cx="404.093" cy="267.366" r="1.445" fill="#fff" opacity=".771"/><circle cx="400.962" cy="512.617" r=".938" fill="#fff" opacity=".807"/><circle cx="642.246" cy="589.902" r="1.672" fill="#fff" opacity=".422"/><circle cx="349.882" cy="423.872" r=".673" fill="#4affff" opacity=".84"/><circle cx="475.067" cy="519.75" r="1.238" fill="#fff" opacity=".677"/><circle cx="461.689" cy="485.119" r="1.946" fill="#fff" opacity=".967"/><circle cx="423.137" cy="394.819" r=".89" fill="#fff" opacity=".523"/><circle cx="625.454" cy="589.548" r="1.689" fill="#fff" opacity=".606"/><circle cx="443.807" cy="162.249" r=".702" fill="#4affff" opacity=".859"/><circle cx="440.652" cy="529.523" r=".575" fill="#fff" opacity=".928"/><circle cx="633.52" cy="285.221" r="1.703" fill="#fff" opacity=".404"/><circle cx="502.769" cy="506.009" r=".741" fill="#fff" opacity=".29"/><circle cx="668.109" cy="354.285" r="1.49" fill="#fff" opacity=".21"/><circle cx="616.83" cy="703.85" r="1.571" fill="#4affff" opacity=".488"/><circle cx="588.042" cy="332.79" r="1.155" fill="#fff" opacity=".971"/><circle cx="504.815" cy="521.834" r="1.671" fill="#fff" opacity=".264"/><circle cx="409.509" cy="435.015" r=".804" fill="#fff" opacity=".998"/><circle cx="187.544" cy="647.378" r="1.726" fill="#fff" opacity=".39"/><circle cx="412.256" cy="550.635" r="2.343" fill="#4affff" opacity=".721"/><circle cx="589.793" cy="296.211" r="1.166" fill="#fff" opacity=".439"/><circle cx="596.276" cy="796.883" r="1.6" fill="#fff" opacity=".699"/><circle cx="466.462" cy="518.242" r="1.232" fill="#fff" opacity=".215"/><circle cx="744.019" cy="460.449" r=".997" fill="#fff" opacity=".621"/><circle cx="273.371" cy="658.555" r="1.52" fill="#4affff" opacity=".939"/><circle cx="719.645" cy="711.595" r="1.263" fill="#fff" opacity=".669"/><circle cx="836.339" cy="473.738" r="1.979" fill="#fff" opacity=".531"/><circle cx="630.046" cy="689.955" r="1.061" fill="#fff" opacity=".248"/><circle cx="639.778" cy="602.264" r="1.153" fill="#fff" opacity=".392"/><circle cx="646.16" cy="207.132" r="2.105" fill="#4affff" opacity=".703"/><circle cx="416.332" cy="227.76" r="1.478" fill="#fff" opacity=".269"/><circle cx="421.27" cy="422.639" r=".713" fill="#fff" opacity=".864"/><circle cx="700.873" cy="288.618" r="2.379" fill="#fff" opacity=".318"/><circle cx="821.836" cy="388.087" r="2.158" fill="#fff" opacity=".313"/><circle cx="542.007" cy="380.073" r="2.08" fill="#4affff" opacity=".431"/><circle cx="802.459" cy="485.103" r="1.338" fill="#fff" opacity=".779"/><circle cx="689.273" cy="786.112" r="2.248" fill="#fff" opacity=".632"/><circle cx="808.35" cy="436.385" r="1.253" fill="#fff" opacity=".62"/><circle cx="829.445" cy="385.153" r=".545" fill="#fff" opacity=".728"/><circle cx="378.73" cy="660.299" r=".649" fill="#4affff" opacity=".217"/><circle cx="502.726" cy="403.92" r="1.746" fill="#fff" opacity=".915"/><circle cx="722.788" cy="392.553" r="2.212" fill="#fff" opacity=".571"/><circle cx="542.153" cy="455.351" r="2.44" fill="#fff" opacity=".511"/><circle cx="568.355" cy="719.085" r="1.429" fill="#fff" opacity=".395"/><circle cx="434.506" cy="772.964" r="2.169" fill="#4affff" opacity=".809"/><circle cx="546.425" cy="337.517" r="1.165" fill="#fff" opacity=".756"/><circle cx="394.479" cy="514.423" r="2.388" fill="#fff" opacity=".686"/><circle cx="433.441" cy="398.891" r="2.371" fill="#fff" opacity=".367"/><circle cx="772.977" cy="664.747" r="1.593" fill="#fff" opacity=".745"/><circle cx="394.449" cy="491.383" r="1.431" fill="#4affff" opacity=".45"/><circle cx="538.659" cy="507.944" r="2.452" fill="#fff" opacity=".214"/><circle cx="775.046" cy="456.065" r=".968" fill="#fff" opacity=".713"/><circle cx="291.701" cy="263.812" r="1.821" fill="#fff" opacity=".501"/><circle cx="310.355" cy="442.877" r=".586" fill="#fff" opacity=".675"/><circle cx="599.049" cy="564.832" r=".998" fill="#4affff" opacity=".922"/><circle cx="611.986" cy="298.937" r="2.185" fill="#fff" opacity=".787"/><circle cx="467.471" cy="519.197" r="2.329" fill="#fff" opacity=".848"/><circle cx="677.7" cy="583.128" r="2.426" fill="#fff" opacity=".842"/><circle cx="548.193" cy="271.534" r="2.011" fill="#fff" opacity=".495"/><circle cx="440.934" cy="347.55" r="1.311" fill="#4affff" opacity=".527"/><circle cx="510.012" cy="426.037" r=".837" fill="#fff" opacity=".218"/><circle cx="286.461" cy="316.343" r="2.261" fill="#fff" opacity=".538"/><circle cx="699.154" cy="455.63" r=".823" fill="#fff" opacity=".866"/><circle cx="393.456" cy="637.103" r="1.984" fill="#fff" opacity=".498"/><circle cx="368.985" cy="267.567" r=".712" fill="#4affff" opacity=".448"/><circle cx="710.004" cy="660.896" r=".687" fill="#fff" opacity=".599"/><circle cx="494.995" cy="529.604" r="1.113" fill="#fff" opacity=".861"/><circle cx="557.446" cy="372.085" r="2.48" fill="#fff" opacity=".366"/><circle cx="408.236" cy="171.282" r=".707" fill="#fff" opacity=".846"/><circle cx="273.487" cy="581.782" r="1.007" fill="#4affff" opacity=".952"/><circle cx="776.021" cy="663.141" r=".901" fill="#fff" opacity=".356"/><circle cx="569.313" cy="772.592" r="1.707" fill="#fff" opacity=".237"/><circle cx="371.415" cy="599.423" r="1.149" fill="#fff" opacity=".603"/><circle cx="244.113" cy="266.068" r="2.286" fill="#fff" opacity=".202"/><circle cx="411.493" cy="581.247" r=".878" fill="#4affff" opacity=".268"/><circle cx="612.995" cy="609.153" r="1.363" fill="#fff" opacity=".229"/><circle cx="358.911" cy="529.478" r="1.886" fill="#fff" opacity=".827"/><circle cx="312.187" cy="426.905" r="1.026" fill="#fff" opacity=".546"/><circle cx="357.781" cy="656.039" r="2.085" fill="#fff" opacity=".451"/><circle cx="480.786" cy="467.993" r="1.481" fill="#4affff" opacity=".488"/><circle cx="657.07" cy="653.415" r="2.012" fill="#fff" opacity=".608"/><circle cx="484.234" cy="453.201" r="1.709" fill="#fff" opacity=".37"/><circle cx="294.771" cy="413.725" r="1.534" fill="#fff" opacity=".974"/><circle cx="476.167" cy="192.889" r="1.107" fill="#fff" opacity=".722"/><circle cx="376.376" cy="562.804" r=".943" fill="#4affff" opacity=".68"/><circle cx="398.033" cy="517.976" r="1.605" fill="#fff" opacity=".706"/><circle cx="634.456" cy="357.737" r="1.923" fill="#fff" opacity=".63"/><circle cx="451.426" cy="410.775" r="1.771" fill="#fff" opacity=".756"/><circle cx="545.864" cy="749.832" r="1.222" fill="#fff" opacity=".801"/><circle cx="342.536" cy="295.823" r=".543" fill="#4affff" opacity=".332"/><circle cx="525.202" cy="259.897" r="1.482" fill="#fff" opacity=".917"/><circle cx="638.949" cy="606.729" r="1.139" fill="#fff" opacity=".676"/><circle cx="497.51" cy="660.362" r="1.072" fill="#fff" opacity=".904"/><circle cx="435.399" cy="523.379" r="1.915" fill="#fff" opacity=".745"/><circle cx="424.244" cy="463.372" r="1.61" fill="#4affff" opacity=".529"/><circle cx="677.189" cy="669.797" r="1.933" fill="#fff" opacity=".817"/><circle cx="706.918" cy="618.103" r=".72" fill="#fff" opacity=".494"/><circle cx="234.79" cy="667.195" r="1.256" fill="#fff" opacity=".614"/><circle cx="494.448" cy="501.6" r="1.811" fill="#fff" opacity=".518"/><circle cx="471.81" cy="258.88" r="1.102" fill="#4affff" opacity=".936"/><circle cx="550.757" cy="527.089" r="2.266" fill="#fff" opacity=".451"/><circle cx="597.283" cy="813.27" r=".654" fill="#fff" opacity=".412"/><circle cx="663.65" cy="487.553" r=".668" fill="#fff" opacity=".877"/><circle cx="220.515" cy="434.886" r="1.085" fill="#fff" opacity=".284"/><circle cx="430.09" cy="459.664" r="2.357" fill="#4affff" opacity=".382"/><circle cx="205.31" cy="378.112" r="1.37" fill="#fff" opacity=".777"/><circle cx="371.2" cy="802.17" r="2.458" fill="#fff" opacity=".214"/><circle cx="517.433" cy="486.288" r=".881" fill="#fff" opacity=".63"/><circle cx="446.522" cy="499.207" r="1.809" fill="#fff" opacity=".323"/><circle cx="629.951" cy="404.233" r=".74" fill="#4affff" opacity=".397"/><circle cx="421.372" cy="529.753" r="1.866" fill="#fff" opacity=".542"/><circle cx="517.545" cy="496.063" r="2.141" fill="#fff" opacity=".2"/><circle cx="640.407" cy="238.473" r="1.934" fill="#fff" opacity=".63"/><circle cx="309.263" cy="244.004" r="2.076" fill="#fff" opacity=".888"/><circle cx="382.25" cy="413.508" r="1.289" fill="#4affff" opacity=".921"/><circle cx="280.115" cy="481.66" r="1.448" fill="#fff" opacity=".554"/><circle cx="255.72" cy="406.101" r="1.496" fill="#fff" opacity=".637"/><circle cx="485.781" cy="504.499" r=".902" fill="#fff" opacity=".939"/><circle cx="504.479" cy="509.724" r=".628" fill="#fff" opacity=".53"/><circle cx="720.144" cy="441.892" r="1.19" fill="#4affff" opacity=".336"/><circle cx="474.712" cy="455.679" r=".995" fill="#fff" opacity=".653"/><circle cx="529.876" cy="686.979" r=".557" fill="#fff" opacity=".585"/><circle cx="488.235" cy="502.61" r=".782" fill="#fff" opacity=".476"/><circle cx="655.082" cy="590.127" r="2.442" fill="#fff" opacity=".846"/><circle cx="530.9" cy="488.124" r="1.293" fill="#4affff" opacity=".722"/><circle cx="358.337" cy="672.902" r="1.073" fill="#fff" opacity=".289"/><circle cx="482.404" cy="534.113" r=".976" fill="#fff" opacity=".321"/><circle cx="522.763" cy="426.197" r="2.324" fill="#fff" opacity=".591"/><circle cx="644.723" cy="713.106" r=".783" fill="#fff" opacity=".295"/><circle cx="597.498" cy="548.893" r=".979" fill="#4affff" opacity=".243"/><circle cx="384.882" cy="450.154" r="2.284" fill="#fff" opacity=".907"/><circle cx="626.722" cy="244.177" r=".582" fill="#fff" opacity=".237"/><circle cx="484.628" cy="434.377" r="1.893" fill="#fff" opacity=".456"/><circle cx="532.026" cy="472.394" r="1.139" fill="#fff" opacity=".948"/><circle cx="646.769" cy="325.8" r="1.873" fill="#4affff" opacity=".704"/><circle cx="714.365" cy="292.4" r="1.553" fill="#fff" opacity=".219"/><circle cx="346.495" cy="806.764" r="1.305" fill="#fff" opacity=".949"/><circle cx="569.318" cy="539.616" r="2.355" fill="#fff" opacity=".906"/><circle cx="472.108" cy="477.448" r="2.199" fill="#fff" opacity=".636"/><circle cx="639.742" cy="371.244" r="1.256" fill="#4affff" opacity=".245"/><circle cx="230.298" cy="426.663" r="1.95" fill="#fff" opacity=".541"/><circle cx="442.561" cy="648.871" r="2.378" fill="#fff" opacity=".657"/><circle cx="676.223" cy="784.476" r=".99" fill="#fff" opacity=".218"/><circle cx="243.051" cy="452.952" r="2.44" fill="#fff" opacity=".775"/><circle cx="672.994" cy="622.419" r=".708" fill="#4affff" opacity=".639"/><circle cx="588.483" cy="511.594" r="1.354" fill="#fff" opacity=".7"/><circle cx="562.823" cy="669.515" r="1.595" fill="#fff" opacity=".446"/><circle cx="443.922" cy="663.994" r=".656" fill="#fff" opacity=".379"/><circle cx="461.137" cy="499.224" r="1.677" fill="#fff" opacity=".676"/><circle cx="518.671" cy="543.152" r="1.518" fill="#4affff" opacity=".659"/><circle cx="475.886" cy="489.335" r="1.436" fill="#fff" opacity=".496"/><circle cx="525.865" cy="502.373" r="1.782" fill="#fff" opacity=".36"/><circle cx="480.945" cy="557.49" r="1.001" fill="#fff" opacity=".367"/><circle cx="424.388" cy="289.478" r="1.628" fill="#fff" opacity=".735"/><circle cx="601.504" cy="374.689" r="2.077" fill="#4affff" opacity=".324"/><circle cx="680.812" cy="657.946" r="2.462" fill="#fff" opacity=".848"/><circle cx="523.542" cy="422.248" r="2.047" fill="#fff" opacity=".248"/><circle cx="489.965" cy="489.361" r="1.531" fill="#fff" opacity=".585"/><circle cx="533.705" cy="488.69" r=".555" fill="#fff" opacity=".653"/><circle cx="528.666" cy="505.804" r="1.71" fill="#4affff" opacity=".228"/><circle cx="680.734" cy="430.07" r="1.046" fill="#fff" opacity=".326"/><circle cx="709.663" cy="424.888" r=".52" fill="#fff" opacity=".322"/><circle cx="360.041" cy="767.405" r="2.224" fill="#fff" opacity=".259"/><circle cx="347.796" cy="380.004" r=".626" fill="#fff" opacity=".522"/><circle cx="420.549" cy="510.422" r=".766" fill="#4affff" opacity=".898"/><circle cx="298.645" cy="266.047" r="2.221" fill="#fff" opacity=".205"/><circle cx="500.015" cy="500.782" r="1.477" fill="#fff" opacity=".746"/><circle cx="547.614" cy="564.689" r=".52" fill="#fff" opacity=".666"/><circle cx="345.357" cy="645.508" r="1.569" fill="#fff" opacity=".629"/><circle cx="493.478" cy="508.317" r=".743" fill="#4affff" opacity=".931"/><circle cx="657.205" cy="274.828" r=".722" fill="#fff" opacity=".997"/><circle cx="567.896" cy="257.258" r="1.412" fill="#fff" opacity=".358"/><circle cx="498.225" cy="483.861" r="1.275" fill="#fff" opacity=".861"/><circle cx="698.428" cy="353.873" r="1.818" fill="#fff" opacity=".62"/><circle cx="529.676" cy="521.794" r="2.314" fill="#4affff" opacity=".831"/><circle cx="563.133" cy="553.303" r="1.95" fill="#fff" opacity=".683"/><circle cx="530.126" cy="739.126" r=".917" fill="#fff" opacity=".634"/><circle cx="725.699" cy="333.86" r=".924" fill="#fff" opacity=".879"/><circle cx="307.796" cy="425.134" r="1.517" fill="#fff" opacity=".25"/><circle cx="238.643" cy="322.897" r="2.401" fill="#4affff" opacity=".274"/><circle cx="287.353" cy="258.967" r="2.467" fill="#fff" opacity=".929"/><circle cx="764.652" cy="339.319" r="1.353" fill="#fff" opacity=".348"/><circle cx="525.406" cy="684.818" r="2.256" fill="#fff" opacity=".829"/><circle cx="629.305" cy="593.168" r="1.111" fill="#fff" opacity=".835"/><circle cx="389.38" cy="260.541" r="2.108" fill="#4affff" opacity=".382"/><circle cx="511.566" cy="457.072" r=".847" fill="#fff" opacity=".607"/><circle cx="500.385" cy="508.441" r="2.161" fill="#fff" opacity=".507"/><circle cx="633.926" cy="275.659" r="2.388" fill="#fff" opacity=".83"/><circle cx="811.648" cy="471.635" r=".59" fill="#fff" opacity=".377"/><circle cx="341.33" cy="199.413" r=".779" fill="#4affff" opacity=".269"/><circle cx="490.161" cy="524.978" r=".773" fill="#fff" opacity=".439"/><circle cx="671.442" cy="752.631" r=".528" fill="#fff" opacity=".647"/><circle cx="477.933" cy="843.917" r=".72" fill="#fff" opacity=".767"/><circle cx="330.587" cy="608.272" r="1.514" fill="#fff" opacity=".706"/><circle cx="520.265" cy="311.106" r="1.8" fill="#4affff" opacity=".403"/><circle cx="583.32" cy="469.199" r="1.162" fill="#fff" opacity=".428"/><circle cx="623.808" cy="686.745" r=".94" fill="#fff" opacity=".49"/><circle cx="651.349" cy="506.273" r=".927" fill="#fff" opacity=".758"/><circle cx="518.676" cy="517.891" r="1.847" fill="#fff" opacity=".818"/><circle cx="634.846" cy="483.899" r=".987" fill="#4affff" opacity=".47"/><circle cx="412.54" cy="474.216" r="2.115" fill="#fff" opacity=".942"/><circle cx="436.776" cy="476.702" r="2.202" fill="#fff" opacity=".582"/><circle cx="758.355" cy="433.725" r="1.39" fill="#fff" opacity=".495"/><circle cx="468.296" cy="521.052" r="2.344" fill="#fff" opacity=".865"/><circle cx="459.605" cy="577.073" r="2.092" fill="#4affff" opacity=".969"/><circle cx="601.493" cy="623.611" r="2.349" fill="#fff" opacity=".764"/><circle cx="506.305" cy="404.323" r="1.66" fill="#fff" opacity=".635"/><circle cx="453.411" cy="487.349" r="1.735" fill="#fff" opacity=".785"/><circle cx="522.291" cy="507.77" r="1.35" fill="#fff" opacity=".656"/><circle cx="444.134" cy="468.681" r="2.04" fill="#4affff" opacity=".273"/><circle cx="232.599" cy="718.376" r="1.857" fill="#fff" opacity=".635"/><circle cx="513.462" cy="502.03" r="1.384" fill="#fff" opacity=".537"/><circle cx="487.597" cy="516.004" r="1.528" fill="#fff" opacity=".756"/><circle cx="710.182" cy="362.029" r="2.343" fill="#fff" opacity=".307"/><circle cx="553.037" cy="625.974" r="1.354" fill="#4affff" opacity=".697"/><circle cx="169.415" cy="449.173" r="1.602" fill="#fff" opacity=".939"/><circle cx="668.864" cy="465.877" r="2.404" fill="#fff" opacity=".616"/><circle cx="209.229" cy="435.166" r="1.185" fill="#fff" opacity=".201"/><circle cx="523.454" cy="541.99" r="2.202" fill="#fff" opacity=".628"/><circle cx="353.48" cy="731.9" r="1.835" fill="#4affff" opacity=".798"/><circle cx="292.345" cy="300.157" r="1.727" fill="#fff" opacity=".251"/><circle cx="260.8" cy="687.514" r="1.622" fill="#fff" opacity=".491"/><circle cx="477.334" cy="450.664" r="1.961" fill="#fff" opacity=".398"/><circle cx="621.29" cy="488.554" r="1.922" fill="#fff" opacity=".638"/><circle cx="432.034" cy="629.609" r=".629" fill="#4affff" opacity=".809"/><circle cx="385.043" cy="588.88" r="1.196" fill="#fff" opacity=".857"/><circle cx="520.614" cy="507.436" r="2.063" fill="#fff" opacity=".943"/><circle cx="333.033" cy="724.684" r=".699" fill="#fff" opacity=".622"/><circle cx="268.22" cy="441.279" r="1.45" fill="#fff" opacity=".611"/><circle cx="607.148" cy="572.815" r="1.505" fill="#4affff" opacity=".591"/><circle cx="484.618" cy="526.701" r=".847" fill="#fff" opacity=".907"/><circle cx="845.078" cy="513.396" r="2.456" fill="#fff" opacity=".61"/><circle cx="494.93" cy="247.051" r="1.896" fill="#fff" opacity=".772"/><circle cx="508.761" cy="501.193" r="1.802" fill="#fff" opacity=".718"/><circle cx="543.885" cy="535.669" r="1.475" fill="#4affff" opacity=".676"/><circle cx="440.998" cy="226.29" r="1.464" fill="#fff" opacity=".688"/><circle cx="649.726" cy="740.248" r=".875" fill="#fff" opacity=".529"/><circle cx="397.42" cy="683.297" r="1.33" fill="#fff" opacity=".498"/><circle cx="545.934" cy="594.099" r="2.005" fill="#fff" opacity=".226"/><circle cx="250.402" cy="512.782" r=".978" fill="#4affff" opacity=".565"/><circle cx="745.753" cy="547.583" r=".658" fill="#fff" opacity=".46"/><circle cx="604.85" cy="628.68" r=".626" fill="#fff" opacity=".274"/><circle cx="483.788" cy="464.03" r=".702" fill="#fff" opacity=".304"/><circle cx="408.93" cy="680.533" r="2.133" fill="#fff" opacity=".312"/><circle cx="515.539" cy="528.64" r="2.139" fill="#4affff" opacity=".661"/><circle cx="235.442" cy="697.554" r="2.01" fill="#fff" opacity=".577"/><circle cx="668.477" cy="697.377" r="1.936" fill="#fff" opacity=".356"/><circle cx="480.126" cy="496.233" r="1.423" fill="#fff" opacity=".592"/><circle cx="575.276" cy="478.193" r="2.29" fill="#fff" opacity=".638"/></svg>