<svg width="1000" height="1000" viewBox="0 0 1000 1000" xmlns="http://www.w3.org/2000/svg">
      <defs>
        <radialGradient id="galaxyGradient" cx="50%" cy="50%" r="50%" fx="50%" fy="50%">
          <stop offset="0%" stop-color="#4aff4a" stop-opacity="0.3"/>
          <stop offset="70%" stop-color="#4aff4a" stop-opacity="0.1"/>
          <stop offset="100%" stop-color="#4aff4a" stop-opacity="0"/>
        </radialGradient>
      </defs>
      <rect width="1000" height="1000" fill="#0a1a0a"/>
      <ellipse cx="500" cy="500" rx="400" ry="200" fill="url(#galaxyGradient)" transform="rotate(45, 500, 500)"/>
      <circle cx="296.47937139096905" cy="300.2311339216776" r="1.801177480741147" fill="#4affff" opacity="0.9826786564417873"/><circle cx="365.9900305572271" cy="775.0595899605503" r="2.320299719738" fill="white" opacity="0.6027271002238019"/><circle cx="630.7433294889465" cy="633.2152370890337" r="1.626082711637963" fill="white" opacity="0.9486968007638501"/><circle cx="537.5346433414543" cy="489.7947633602686" r="2.4598829927903063" fill="white" opacity="0.2131386647379742"/><circle cx="577.3380823823554" cy="351.1284348235079" r="1.9381537597102412" fill="white" opacity="0.6646147094851509"/><circle cx="657.9400796708014" cy="443.2783878901702" r="1.0158431020469387" fill="#4affff" opacity="0.793618537970104"/><circle cx="476.5961570029854" cy="498.66728752922813" r="0.5875376688789822" fill="white" opacity="0.28665361466641104"/><circle cx="431.18646475600474" cy="555.2735526208141" r="0.9422621992390359" fill="white" opacity="0.5462382401705008"/><circle cx="465.70784494792423" cy="552.5578291302904" r="1.4767391750886687" fill="white" opacity="0.3479740618631165"/><circle cx="472.9591407893551" cy="562.8798538448317" r="1.984011619732689" fill="white" opacity="0.5989008844847211"/><circle cx="465.07286274487024" cy="221.27942094801512" r="2.166755351029996" fill="#4affff" opacity="0.4969064024041243"/><circle cx="581.1603165216952" cy="612.5779598659022" r="1.8099844200914275" fill="white" opacity="0.45728135722911195"/><circle cx="308.8435590302387" cy="546.3029815978878" r="2.1294055367955433" fill="white" opacity="0.911503480704243"/><circle cx="336.3012658710636" cy="285.209967597972" r="2.246754109296988" fill="white" opacity="0.8650889213295663"/><circle cx="534.8556891926185" cy="465.11609457060365" r="1.3781563151183192" fill="white" opacity="0.6801914028353562"/><circle cx="646.4850825456859" cy="493.85486641615375" r="1.3926675088760212" fill="#4affff" opacity="0.5288775862246642"/><circle cx="577.8455201402852" cy="820.3384399211609" r="0.510528510489864" fill="white" opacity="0.7694564128279493"/><circle cx="644.3054860045916" cy="607.9034829666999" r="0.9127062979970977" fill="white" opacity="0.27381140013219324"/><circle cx="623.2379114383755" cy="388.71550372964913" r="2.1424701897072644" fill="white" opacity="0.254089520127431"/><circle cx="252.1301977880169" cy="347.035110380907" r="1.328300991590647" fill="white" opacity="0.750027089957845"/><circle cx="554.0783856805622" cy="444.312446924874" r="2.422506587307074" fill="#4affff" opacity="0.32028073395985096"/><circle cx="616.6470797079373" cy="727.4749914299196" r="1.5114307619961909" fill="white" opacity="0.7685069614581364"/><circle cx="452.5411937173739" cy="190.3931353403325" r="1.8716111064602141" fill="white" opacity="0.922410743547539"/><circle cx="447.88544562972567" cy="455.7094895455247" r="1.3591606051695053" fill="white" opacity="0.7914279828769577"/><circle cx="510.29893828004293" cy="485.0241996560988" r="1.4921077892568553" fill="white" opacity="0.44932987559441373"/><circle cx="731.6304066606479" cy="560.6687189378184" r="1.9588606655255925" fill="#4affff" opacity="0.712689942713248"/><circle cx="489.4417184899291" cy="342.86354403430107" r="0.9485669053375907" fill="white" opacity="0.8157521781767458"/><circle cx="624.71575747578" cy="728.9052370692916" r="1.0688204446691727" fill="white" opacity="0.688254872838848"/><circle cx="414.97349034657276" cy="522.5483437586106" r="1.7049237928511016" fill="white" opacity="0.2611682690670053"/><circle cx="586.0887811388257" cy="496.96936392436106" r="0.8992082947239965" fill="white" opacity="0.20170832148728746"/><circle cx="487.28169534152784" cy="428.2960859689054" r="2.3172207819365553" fill="#4affff" opacity="0.6262298903396166"/><circle cx="680.6105542965704" cy="794.8830532073978" r="2.0804424576734073" fill="white" opacity="0.20050708895913394"/><circle cx="524.2657947629007" cy="520.5205514996856" r="1.6237140935358152" fill="white" opacity="0.7336416431367363"/><circle cx="251.51786057396558" cy="477.25125795771356" r="1.7100078313091216" fill="white" opacity="0.8624551771616527"/><circle cx="614.601679762229" cy="422.9913950042612" r="1.5978686955038026" fill="white" opacity="0.20401696309409872"/><circle cx="349.64065343494076" cy="462.8714994383876" r="1.3988207686567864" fill="#4affff" opacity="0.8955538618734884"/><circle cx="488.4885845582453" cy="507.9671143753752" r="1.2409463410709254" fill="white" opacity="0.3474508746600439"/><circle cx="431.4290001973349" cy="226.6585919471978" r="0.5363398783566722" fill="white" opacity="0.8642462842956729"/><circle cx="479.7360807611302" cy="419.99126202588513" r="2.466652737937242" fill="white" opacity="0.5448856032343472"/><circle cx="712.7352894320898" cy="414.3019971543756" r="1.7566559235564037" fill="white" opacity="0.7708132452149092"/><circle cx="498.8832824909695" cy="561.9281345961612" r="0.9911804973910319" fill="#4affff" opacity="0.7173613273023747"/><circle cx="384.926039533616" cy="586.0483985173555" r="1.4278041068964473" fill="white" opacity="0.6080390562446121"/><circle cx="358.99846685711566" cy="443.42132376087125" r="0.99828192537748" fill="white" opacity="0.23270267045698853"/><circle cx="502.5129029054672" cy="487.5925456665305" r="1.1064409138402276" fill="white" opacity="0.8020147817101928"/><circle cx="475.6540093089354" cy="489.63591433452774" r="1.696768308118906" fill="white" opacity="0.6593957042158627"/><circle cx="380.79068569357577" cy="706.0655057637412" r="1.8613205750073591" fill="#4affff" opacity="0.9982358930407125"/><circle cx="785.1181923609695" cy="565.3148441987732" r="1.6582880696384197" fill="white" opacity="0.7528967802845148"/><circle cx="391.60852466487313" cy="471.94318122814593" r="0.515069926481373" fill="white" opacity="0.7531103018548642"/><circle cx="684.2870454576848" cy="218.18749663705682" r="1.1562288870864825" fill="white" opacity="0.8443431301141451"/><circle cx="453.04021769140815" cy="543.4583726720037" r="0.5563049990815867" fill="white" opacity="0.5083418173058702"/><circle cx="652.6835690406924" cy="404.4397791627189" r="1.7846834202963922" fill="#4affff" opacity="0.39485245704106886"/><circle cx="278.73153166375766" cy="385.8338778812349" r="1.7532831478117958" fill="white" opacity="0.37754575559879666"/><circle cx="425.08262060999647" cy="392.9281632953815" r="2.068242117796385" fill="white" opacity="0.33473145820355066"/><circle cx="156.9873230013862" cy="479.6293775366423" r="0.6863154013679789" fill="white" opacity="0.6150096327999501"/><circle cx="285.9776383827399" cy="376.2309179060101" r="0.9136727056267873" fill="white" opacity="0.3354989690619513"/><circle cx="226.0876425705398" cy="472.4703073581715" r="1.6488032026841042" fill="#4affff" opacity="0.721608065340442"/><circle cx="424.85984820520395" cy="595.0742607671443" r="1.9665180969314946" fill="white" opacity="0.9006475460271737"/><circle cx="409.36271160520874" cy="529.6558140854964" r="2.1982304896320293" fill="white" opacity="0.7565662557360289"/><circle cx="509.0428297616815" cy="486.8843648963845" r="2.463268317700346" fill="white" opacity="0.8358830673873778"/><circle cx="573.6724859099495" cy="670.5030141663178" r="2.1656714655109464" fill="white" opacity="0.8211853579295867"/><circle cx="318.94425752584436" cy="554.5221068542393" r="1.44312775775516" fill="#4affff" opacity="0.40585486410712673"/><circle cx="375.8329705502953" cy="269.837094259422" r="1.0112434233881693" fill="white" opacity="0.4648229280577445"/><circle cx="524.7867102624035" cy="595.8972071818173" r="0.9053219092387006" fill="white" opacity="0.38314802685146976"/><circle cx="591.7154226657174" cy="394.15154331219446" r="0.5920938706773935" fill="white" opacity="0.8207845371681397"/><circle cx="553.2418211486355" cy="323.2243022190446" r="2.0545915459464985" fill="white" opacity="0.7368737139644117"/><circle cx="495.76416868997717" cy="471.3316442662268" r="2.040795186589732" fill="#4affff" opacity="0.8784443889057625"/><circle cx="709.3942032136503" cy="401.41010464415444" r="1.7349025842704413" fill="white" opacity="0.992924193627108"/><circle cx="487.32556495018275" cy="184.40610986759071" r="0.7619436912904485" fill="white" opacity="0.5146315225117957"/><circle cx="230.77726384122377" cy="285.4806323942829" r="2.274669769721482" fill="white" opacity="0.7459868156695744"/><circle cx="499.57077110305386" cy="500.89012956613954" r="0.8839829897696982" fill="white" opacity="0.7187873451450562"/><circle cx="368.55185148361136" cy="575.3564835894159" r="2.0720929625751863" fill="#4affff" opacity="0.3729552807994891"/><circle cx="449.40474779668523" cy="368.40385091292836" r="1.2986904831480666" fill="white" opacity="0.8078273548352608"/><circle cx="186.75627899613687" cy="384.3316645141095" r="1.4023947807309032" fill="white" opacity="0.5729968014735121"/><circle cx="422.29768602527815" cy="512.0534870444453" r="1.2594695399160223" fill="white" opacity="0.22361205787654406"/><circle cx="482.5463769277192" cy="626.700950748225" r="0.6180603718496269" fill="white" opacity="0.818375262411055"/><circle cx="540.3786495993062" cy="352.48046796589205" r="1.289178550473732" fill="#4affff" opacity="0.8454818503238228"/><circle cx="755.8945644417615" cy="706.5182258071177" r="2.1505981016963593" fill="white" opacity="0.781221828702376"/><circle cx="353.8307346588981" cy="393.90379120381" r="2.105111793600314" fill="white" opacity="0.3400293728805117"/><circle cx="438.37751757235475" cy="611.5288306986574" r="2.2068759983851614" fill="white" opacity="0.2547483052311197"/><circle cx="263.3705711182413" cy="673.0900068762876" r="1.646527799739892" fill="white" opacity="0.37375044344302977"/><circle cx="503.90285870813113" cy="668.3250787743" r="1.1038301078470139" fill="#4affff" opacity="0.5503538394117149"/><circle cx="223.8189232786911" cy="471.08480219552695" r="1.27575425439731" fill="white" opacity="0.2712424034659501"/><circle cx="457.66961449656725" cy="302.90371813513576" r="2.3783542704710294" fill="white" opacity="0.7253294747408041"/><circle cx="724.9351915711164" cy="493.5840143893388" r="1.4029944332602602" fill="white" opacity="0.5658015854831855"/><circle cx="745.4569090694711" cy="425.3641381779684" r="1.6420015939025365" fill="white" opacity="0.3981589402576162"/><circle cx="700.137975256547" cy="292.16746560982205" r="0.5695681617028843" fill="#4affff" opacity="0.7196458330910069"/><circle cx="600.815774377693" cy="604.6252438622505" r="0.9961427347926053" fill="white" opacity="0.8823114929995128"/><circle cx="682.2669787698374" cy="489.99558904180066" r="1.460404398555304" fill="white" opacity="0.33647287665113057"/><circle cx="575.3300206290708" cy="428.66832772810807" r="1.4932682121831622" fill="white" opacity="0.3703761109265248"/><circle cx="279.2785686646697" cy="282.3803475820094" r="1.4648463786619677" fill="white" opacity="0.2789865972267711"/><circle cx="473.5246580973077" cy="551.6851807478693" r="1.2402089010542805" fill="#4affff" opacity="0.732733618746336"/><circle cx="379.0684436209523" cy="643.2853367582436" r="1.6211760883797965" fill="white" opacity="0.652893122395756"/><circle cx="230.87233901888345" cy="375.57909975604866" r="1.1220078532523154" fill="white" opacity="0.9125295114738772"/><circle cx="296.2551664052642" cy="713.677911197195" r="1.0386354439183219" fill="white" opacity="0.7733704702859916"/><circle cx="564.7960193085647" cy="433.5840714035653" r="0.9362460779657211" fill="white" opacity="0.8324398750112689"/><circle cx="666.7880235221551" cy="247.867027878695" r="1.55251468384298" fill="#4affff" opacity="0.6230988371203967"/><circle cx="352.18143447688124" cy="773.8299889877499" r="1.584484872764354" fill="white" opacity="0.21279615660204315"/><circle cx="311.562601476285" cy="682.1740416446047" r="2.220613721037065" fill="white" opacity="0.6293813626969471"/><circle cx="556.3829284890851" cy="225.5946206975442" r="0.8829770587708432" fill="white" opacity="0.8687370449730971"/><circle cx="699.2234993434191" cy="301.19001657913697" r="2.169657223280166" fill="white" opacity="0.9868121995303554"/><circle cx="408.6692534415812" cy="579.1007973336933" r="2.309097734411607" fill="#4affff" opacity="0.5679427901088072"/><circle cx="340.02672563310665" cy="345.9275481438669" r="1.5167180890425338" fill="white" opacity="0.7572784014106604"/><circle cx="248.52959888695457" cy="397.3638101310414" r="0.6979633124666216" fill="white" opacity="0.44112230049164247"/><circle cx="623.8189946598314" cy="469.02404628286394" r="0.6732570505303994" fill="white" opacity="0.5289386876696385"/><circle cx="344.73502024649315" cy="737.6522155630832" r="0.7228919311363962" fill="white" opacity="0.3604230763167534"/><circle cx="429.0112883084303" cy="434.44578060781464" r="1.2529048254459907" fill="#4affff" opacity="0.9604836306201514"/><circle cx="404.93090353918655" cy="618.254033363187" r="2.1393842443190105" fill="white" opacity="0.6894706858505494"/><circle cx="630.6625719004759" cy="394.37395926558423" r="1.9362898258892227" fill="white" opacity="0.2739985326562039"/><circle cx="291.2126253597321" cy="486.65600296918996" r="2.0588555001573927" fill="white" opacity="0.5853418490875276"/><circle cx="353.2376981235451" cy="282.7942671569364" r="1.3223973374803677" fill="white" opacity="0.46148400505242243"/><circle cx="700.3540940247202" cy="525.9263519549582" r="0.7922291044304726" fill="#4affff" opacity="0.824448723138558"/><circle cx="314.2293162808263" cy="636.1753183513439" r="0.6046041875409509" fill="white" opacity="0.7902599431468456"/><circle cx="324.0262393000613" cy="429.05218389891775" r="2.0274176065312024" fill="white" opacity="0.22882368582794987"/><circle cx="510.0194267139315" cy="502.1317068342149" r="0.6986043663901902" fill="white" opacity="0.3485757058931386"/><circle cx="688.2207256133956" cy="522.9805826570457" r="1.9803398132555108" fill="white" opacity="0.5377431257992378"/><circle cx="358.0065104563673" cy="427.86148602368695" r="2.49024298190841" fill="#4affff" opacity="0.846034170694786"/><circle cx="431.57928599461553" cy="757.134401445651" r="0.9501227602449824" fill="white" opacity="0.905647478552307"/><circle cx="379.0654784632392" cy="579.9865634516995" r="2.4283816711154356" fill="white" opacity="0.25501103895174637"/><circle cx="626.5544002725599" cy="255.68160451506307" r="1.3326843834247724" fill="white" opacity="0.4268978041813558"/><circle cx="452.32586894377954" cy="446.6463321112174" r="1.5895090377088579" fill="white" opacity="0.4615907596739698"/><circle cx="566.0400356606724" cy="483.67730182425" r="1.0875979781539735" fill="#4affff" opacity="0.7124881599222188"/><circle cx="465.97084776908963" cy="457.03204495339145" r="1.864551814314877" fill="white" opacity="0.8316432284639628"/><circle cx="268.9514840288143" cy="250.0444963204262" r="0.8888982317072722" fill="white" opacity="0.3955607383107266"/><circle cx="697.7820527121715" cy="763.3024374902953" r="0.6444639632388873" fill="white" opacity="0.9724536022357093"/><circle cx="606.6208574906807" cy="490.06405819060353" r="1.7146633054301188" fill="white" opacity="0.7660585761233316"/><circle cx="449.53518281491347" cy="521.7978434388932" r="0.8476391836642572" fill="#4affff" opacity="0.45271313957066295"/><circle cx="530.7200522685573" cy="470.0981172832616" r="1.0785426402951384" fill="white" opacity="0.5660692335846578"/><circle cx="261.6850337183238" cy="708.7504203096148" r="1.560889723486211" fill="white" opacity="0.5059501653850587"/><circle cx="470.35077504329706" cy="507.71568802844354" r="1.0186238602418385" fill="white" opacity="0.7368853568206057"/><circle cx="478.52687832436874" cy="237.28424484635343" r="0.7467602230200008" fill="white" opacity="0.9720125348577118"/><circle cx="474.66490086964825" cy="564.3325285976446" r="1.7981481216372561" fill="#4affff" opacity="0.3783814123577809"/><circle cx="695.1143632676458" cy="406.63142087153074" r="1.2314558460101348" fill="white" opacity="0.2668037261657714"/><circle cx="391.86667289722595" cy="754.5641662686057" r="1.2791414201900562" fill="white" opacity="0.9126954368877283"/><circle cx="531.9976747272683" cy="398.06092337838277" r="0.7328490312654923" fill="white" opacity="0.9659502651347298"/><circle cx="379.8317403042277" cy="331.5929527758542" r="1.051798454764468" fill="white" opacity="0.9562374234396531"/><circle cx="362.21313293562844" cy="503.6835380775815" r="1.2694257425775062" fill="#4affff" opacity="0.716852439860231"/><circle cx="704.3701508815491" cy="664.3249609052298" r="0.9230474405882005" fill="white" opacity="0.7422352926493747"/><circle cx="457.89143766894784" cy="806.1571490013955" r="1.5025172604136978" fill="white" opacity="0.24570516831033462"/><circle cx="268.3951470250849" cy="482.87637094365067" r="1.7908178715923389" fill="white" opacity="0.511687415596042"/><circle cx="710.9197237388483" cy="423.9947378572251" r="1.8446292859129416" fill="white" opacity="0.7033664401457436"/><circle cx="299.03054040443527" cy="743.9314387098793" r="1.182877045441741" fill="#4affff" opacity="0.8623505963812994"/><circle cx="557.5450200747288" cy="739.8556863695813" r="2.479843973566603" fill="white" opacity="0.9394069334928625"/><circle cx="303.1456473149363" cy="270.63978245721444" r="1.4554369489263688" fill="white" opacity="0.920516706177944"/><circle cx="680.7787971727299" cy="562.4867600494101" r="1.8221149885331251" fill="white" opacity="0.6259452501563404"/><circle cx="306.25939039450276" cy="737.2117994703698" r="1.6251774243071542" fill="white" opacity="0.583972553487115"/><circle cx="487.35756850459387" cy="566.9206499897638" r="2.0119199080414916" fill="#4affff" opacity="0.9523450853633415"/><circle cx="464.6288332834925" cy="504.6375041381751" r="1.176116755396797" fill="white" opacity="0.9090991670097963"/><circle cx="473.5634102112911" cy="520.8157851190018" r="1.6588539854709183" fill="white" opacity="0.7274832859664961"/><circle cx="498.9186925832667" cy="628.4520650317033" r="1.4199353236590682" fill="white" opacity="0.4941873036663612"/><circle cx="641.0043943493303" cy="253.71446072366078" r="0.6682186268312762" fill="white" opacity="0.9599725876637182"/><circle cx="456.80457912458274" cy="808.816242026325" r="1.5585992692305024" fill="#4affff" opacity="0.9587857787916854"/><circle cx="525.3008595182644" cy="832.6532193383823" r="0.7420410719375212" fill="white" opacity="0.29548997449167747"/><circle cx="404.0932763642578" cy="267.36649984819144" r="1.4452942468998562" fill="white" opacity="0.7706915342892573"/><circle cx="400.9624891024495" cy="512.6167306313719" r="0.9378056636578482" fill="white" opacity="0.8067424487851154"/><circle cx="642.246116289132" cy="589.9019505981372" r="1.6719579658272834" fill="white" opacity="0.42207056657413955"/><circle cx="349.88217954754924" cy="423.8715844503859" r="0.6731460077365656" fill="#4affff" opacity="0.8402784950431252"/><circle cx="475.0669585938645" cy="519.74975020035" r="1.2376761861208028" fill="white" opacity="0.6773401087389175"/><circle cx="461.68853440185876" cy="485.1191108146422" r="1.9456692115507273" fill="white" opacity="0.9673325846201652"/><circle cx="423.13700042156387" cy="394.8194327430912" r="0.8904225313757874" fill="white" opacity="0.5226342236851838"/><circle cx="625.4535239533237" cy="589.5484262284554" r="1.6885251867302529" fill="white" opacity="0.6061833774299501"/><circle cx="443.80659085822776" cy="162.2487594642564" r="0.7024804007285161" fill="#4affff" opacity="0.8589132492888358"/><circle cx="440.6521217042669" cy="529.5233867800717" r="0.5751827553218947" fill="white" opacity="0.9277875725185873"/><circle cx="633.5204826869607" cy="285.2213230576027" r="1.7033886801070026" fill="white" opacity="0.40381568811427776"/><circle cx="502.7691883721679" cy="506.00893807613926" r="0.740520526161561" fill="white" opacity="0.2900280977840778"/><circle cx="668.1091756776816" cy="354.28511816327443" r="1.4902248968148086" fill="white" opacity="0.2103116867302866"/><circle cx="616.8302764124124" cy="703.8497343313868" r="1.5711295679619623" fill="#4affff" opacity="0.4882942670980166"/><circle cx="588.0424484310975" cy="332.78959594615856" r="1.1547443962553663" fill="white" opacity="0.9705122170605629"/><circle cx="504.81484557243124" cy="521.8339374315623" r="1.6713496917957165" fill="white" opacity="0.2639306611398814"/><circle cx="409.509230874" cy="435.01505858228404" r="0.8036992389367055" fill="white" opacity="0.9984637767557654"/><circle cx="187.54411572427438" cy="647.3779636825548" r="1.7261438503315212" fill="white" opacity="0.3895684588534348"/><circle cx="412.2556010853134" cy="550.6350293444679" r="2.342985104140502" fill="#4affff" opacity="0.7211234119689913"/><circle cx="589.7932768875886" cy="296.21109227755665" r="1.1656773455852365" fill="white" opacity="0.43862006498655665"/><circle cx="596.2761505059084" cy="796.882887402817" r="1.6000116725786926" fill="white" opacity="0.6987363782207809"/><circle cx="466.4617462264694" cy="518.2424034313769" r="1.2323487232298382" fill="white" opacity="0.21489889718067287"/><circle cx="744.0188013514729" cy="460.44928552846426" r="0.9966529478907908" fill="white" opacity="0.6208202414042818"/><circle cx="273.3706192265431" cy="658.5545781629712" r="1.5200965851531292" fill="#4affff" opacity="0.9385572092752741"/><circle cx="719.6454811145283" cy="711.5950763718846" r="1.262814910666234" fill="white" opacity="0.6685169381497078"/><circle cx="836.3389699778346" cy="473.7378091009588" r="1.9789554396299627" fill="white" opacity="0.5313983088414942"/><circle cx="630.0460304905282" cy="689.9551552530207" r="1.0611867385448845" fill="white" opacity="0.247820175056121"/><circle cx="639.7777362269791" cy="602.2637677517321" r="1.1530085099085388" fill="white" opacity="0.39243937159903947"/><circle cx="646.1600518859348" cy="207.13234303440942" r="2.105087981354593" fill="#4affff" opacity="0.703149844370693"/><circle cx="416.3315745567781" cy="227.75965084870222" r="1.4780750560772438" fill="white" opacity="0.2694810611586398"/><circle cx="421.26979000245296" cy="422.63936370039386" r="0.713439185456997" fill="white" opacity="0.8642183897649194"/><circle cx="700.8729896408303" cy="288.6180458418405" r="2.378639694099739" fill="white" opacity="0.31790933628374723"/><circle cx="821.8358714158918" cy="388.0871991069181" r="2.15758272941102" fill="white" opacity="0.3133499180312656"/><circle cx="542.0065938271592" cy="380.0726610658106" r="2.0797375100635387" fill="#4affff" opacity="0.43125160812225655"/><circle cx="802.4589064776419" cy="485.10310651203906" r="1.337971042619" fill="white" opacity="0.7794767436841388"/><circle cx="689.2730854043814" cy="786.1115326902834" r="2.2475478774471243" fill="white" opacity="0.6324211772918318"/><circle cx="808.3499081532389" cy="436.38472471577916" r="1.253298626808264" fill="white" opacity="0.6203286173348082"/><circle cx="829.4449765614775" cy="385.1529535267905" r="0.5446539007334597" fill="white" opacity="0.7278034517117753"/><circle cx="378.7300970122808" cy="660.2985583156902" r="0.6494264251368524" fill="#4affff" opacity="0.21681504445954491"/><circle cx="502.7262664314279" cy="403.9197943182198" r="1.7462716334837185" fill="white" opacity="0.9146018256961699"/><circle cx="722.7881928560062" cy="392.5529124761226" r="2.211682202537557" fill="white" opacity="0.570960245012256"/><circle cx="542.1531241176689" cy="455.3510342485583" r="2.4402918912482634" fill="white" opacity="0.5110803333011976"/><circle cx="568.3553931553531" cy="719.084871629845" r="1.429316254809478" fill="white" opacity="0.3947450576338472"/><circle cx="434.5062483312685" cy="772.9639450870916" r="2.1688783926230357" fill="#4affff" opacity="0.8085737088497591"/><circle cx="546.4253117995299" cy="337.5170326847938" r="1.1651675458250126" fill="white" opacity="0.7562108633125566"/><circle cx="394.4787421966761" cy="514.422907363673" r="2.3876153883039475" fill="white" opacity="0.6859769016389281"/><circle cx="433.44136935728955" cy="398.8906736641572" r="2.371256380606171" fill="white" opacity="0.36699977014168506"/><circle cx="772.9772158590488" cy="664.7466016507435" r="1.5929161205940727" fill="white" opacity="0.7449034499233997"/><circle cx="394.4487883950511" cy="491.382701488316" r="1.4306103524075975" fill="#4affff" opacity="0.45040535118141795"/><circle cx="538.6592934339089" cy="507.9437188403189" r="2.452163679058277" fill="white" opacity="0.2137980346864321"/><circle cx="775.0459876951232" cy="456.06465002868276" r="0.9681894871044583" fill="white" opacity="0.7130730943655348"/><circle cx="291.7012933812515" cy="263.81169172736145" r="1.8214738201229492" fill="white" opacity="0.5007485565911214"/><circle cx="310.35524810024236" cy="442.876780307126" r="0.5856542752707683" fill="white" opacity="0.6748850874114729"/><circle cx="599.048685761718" cy="564.8323302466353" r="0.9975131737504457" fill="#4affff" opacity="0.9218512117027151"/><circle cx="611.9859653794722" cy="298.93665326157577" r="2.1852747605543943" fill="white" opacity="0.7866084830198143"/><circle cx="467.4712539661122" cy="519.1972915019489" r="2.329471017971263" fill="white" opacity="0.8478905912010768"/><circle cx="677.7003918747733" cy="583.1281406971436" r="2.4262896554915216" fill="white" opacity="0.8419793801382287"/><circle cx="548.1928970377268" cy="271.5337953842551" r="2.0107046700364397" fill="white" opacity="0.4946915827158906"/><circle cx="440.93417793172136" cy="347.5502540423989" r="1.3114008016350591" fill="#4affff" opacity="0.5269237014746283"/><circle cx="510.01219255414975" cy="426.037426513054" r="0.8368916147853569" fill="white" opacity="0.21825791313240456"/><circle cx="286.4608559257748" cy="316.34295444676997" r="2.2609895948355625" fill="white" opacity="0.537718607292645"/><circle cx="699.1542494566481" cy="455.63013228462216" r="0.823478292015484" fill="white" opacity="0.8655865105424965"/><circle cx="393.4561296766142" cy="637.103059990929" r="1.983966492205119" fill="white" opacity="0.49753557360474315"/><circle cx="368.98462975869006" cy="267.5674339628415" r="0.712096798307388" fill="#4affff" opacity="0.4480129805851199"/><circle cx="710.0036603732053" cy="660.8964463231002" r="0.6871189594397085" fill="white" opacity="0.5985929168759802"/><circle cx="494.9950364273049" cy="529.6043409660398" r="1.1134724892954702" fill="white" opacity="0.8613545927476529"/><circle cx="557.4464702571184" cy="372.08495935115883" r="2.4803086024194134" fill="white" opacity="0.36610800579226627"/><circle cx="408.23560398762675" cy="171.28189006207458" r="0.707241616961912" fill="white" opacity="0.8463261775526778"/><circle cx="273.48737348323436" cy="581.7819048999274" r="1.00651395420696" fill="#4affff" opacity="0.9518000604165846"/><circle cx="776.021251671802" cy="663.1414089288621" r="0.9014818187280498" fill="white" opacity="0.3562355906136683"/><circle cx="569.3132033304964" cy="772.5921271407321" r="1.7066384275110127" fill="white" opacity="0.23658031094572696"/><circle cx="371.41512767146776" cy="599.4231309129203" r="1.148539365091958" fill="white" opacity="0.60346914715737"/><circle cx="244.11262338875872" cy="266.06782785487184" r="2.285803443924176" fill="white" opacity="0.202221117061346"/><circle cx="411.4934737372365" cy="581.2472318603659" r="0.878408676195396" fill="#4affff" opacity="0.26828722444762026"/><circle cx="612.9947187484775" cy="609.152668726765" r="1.3629546201253482" fill="white" opacity="0.22942982538219586"/><circle cx="358.9105641214122" cy="529.4779871039062" r="1.8864483083610848" fill="white" opacity="0.8270484986660873"/><circle cx="312.1872637850322" cy="426.90513971873366" r="1.0262132577378065" fill="white" opacity="0.5457284683595411"/><circle cx="357.7810873721152" cy="656.0387810742877" r="2.0847301619701524" fill="white" opacity="0.45093956029867927"/><circle cx="480.78619286367984" cy="467.9927477739632" r="1.4813031695589327" fill="#4affff" opacity="0.487737009962685"/><circle cx="657.0697013252988" cy="653.4149498687738" r="2.011566041416712" fill="white" opacity="0.608381642126973"/><circle cx="484.23377269002833" cy="453.2009644395458" r="1.7093534581949923" fill="white" opacity="0.3703503162855237"/><circle cx="294.77096376071813" cy="413.72464111879935" r="1.5336956295182667" fill="white" opacity="0.9736518685072362"/><circle cx="476.16736008271357" cy="192.88890241487655" r="1.1066181810586513" fill="white" opacity="0.7220917746339126"/><circle cx="376.3756678598193" cy="562.8040406786904" r="0.9432251910088061" fill="#4affff" opacity="0.6801263587370858"/><circle cx="398.03271567728126" cy="517.9756663699003" r="1.6045894010298714" fill="white" opacity="0.706339873698435"/><circle cx="634.4562194596401" cy="357.7372912594411" r="1.923449493735533" fill="white" opacity="0.6297050180350988"/><circle cx="451.4258339121104" cy="410.7751707179524" r="1.770674052980632" fill="white" opacity="0.7558150623795015"/><circle cx="545.8638253587835" cy="749.8319794995066" r="1.221593824268226" fill="white" opacity="0.8008999011905944"/><circle cx="342.5357725669244" cy="295.8229916153206" r="0.5425431996765866" fill="#4affff" opacity="0.33220020072707457"/><circle cx="525.201847248812" cy="259.8965708324605" r="1.4818639843510826" fill="white" opacity="0.9174263151990003"/><circle cx="638.9486815533386" cy="606.7287552741997" r="1.1385397419320742" fill="white" opacity="0.6758258141089888"/><circle cx="497.5100303069832" cy="660.3616637972132" r="1.0721956461892481" fill="white" opacity="0.9037566055553736"/><circle cx="435.3988865415789" cy="523.3787937725367" r="1.9152748498513978" fill="white" opacity="0.7451283607967945"/><circle cx="424.2439573329789" cy="463.37159027946626" r="1.6102438287683851" fill="#4affff" opacity="0.5286812643487684"/><circle cx="677.1893690489491" cy="669.797267424582" r="1.9330511352158082" fill="white" opacity="0.8166125065628556"/><circle cx="706.9181399730494" cy="618.1033737721294" r="0.7198502191116187" fill="white" opacity="0.49401330219514733"/><circle cx="234.79037695302577" cy="667.1949705243646" r="1.2561099348335492" fill="white" opacity="0.6136847503113507"/><circle cx="494.4484132347488" cy="501.59996107480146" r="1.8108925441190875" fill="white" opacity="0.517700269202499"/><circle cx="471.8099428904509" cy="258.8796290662668" r="1.1017869187818956" fill="#4affff" opacity="0.9361629571839793"/><circle cx="550.7570958648341" cy="527.0886364120053" r="2.2663087509426063" fill="white" opacity="0.45098730039640655"/><circle cx="597.2826607042682" cy="813.2695864678767" r="0.6535255461351648" fill="white" opacity="0.4121013401370524"/><circle cx="663.6502931878189" cy="487.5531725199722" r="0.6680754584971793" fill="white" opacity="0.8771588046929595"/><circle cx="220.51529954123532" cy="434.88592492773853" r="1.0853774718530325" fill="white" opacity="0.28364081449674183"/><circle cx="430.0898377381493" cy="459.6637286765569" r="2.357050005263222" fill="#4affff" opacity="0.3817050861631476"/><circle cx="205.3100855480726" cy="378.11219472651305" r="1.3704836460220728" fill="white" opacity="0.7770428890508234"/><circle cx="371.2002349281678" cy="802.169678054679" r="2.4576505075643755" fill="white" opacity="0.21384010863263134"/><circle cx="517.4328360798138" cy="486.28803623863405" r="0.8809637465886682" fill="white" opacity="0.6302413617593534"/><circle cx="446.52216630994116" cy="499.20731169908737" r="1.8089926243165149" fill="white" opacity="0.32254931019410515"/><circle cx="629.9510690290152" cy="404.23295062852645" r="0.7400936025330029" fill="#4affff" opacity="0.396917566532389"/><circle cx="421.3721338334573" cy="529.753451600016" r="1.8658168045090173" fill="white" opacity="0.541793250643952"/><circle cx="517.544825342083" cy="496.063410558842" r="2.1409566776625297" fill="white" opacity="0.20006254880200558"/><circle cx="640.4071864905585" cy="238.4731193831591" r="1.9341515848555533" fill="white" opacity="0.6299182799128049"/><circle cx="309.26347189513444" cy="244.00425168076225" r="2.076094275187639" fill="white" opacity="0.8878703102984635"/><circle cx="382.2500467474939" cy="413.5079651855567" r="1.288598678897983" fill="#4affff" opacity="0.921121302595598"/><circle cx="280.11462316719894" cy="481.66044561939583" r="1.4482735054386078" fill="white" opacity="0.5540822659801758"/><circle cx="255.72021679595622" cy="406.10105447234594" r="1.4964793455589804" fill="white" opacity="0.6368138593158101"/><circle cx="485.78066141925945" cy="504.49883545619235" r="0.9021604750986225" fill="white" opacity="0.9392343361387594"/><circle cx="504.4794837541131" cy="509.7241975851637" r="0.6277599874001218" fill="white" opacity="0.5302838795790579"/><circle cx="720.1435696090714" cy="441.8921008907642" r="1.1904883492580702" fill="#4affff" opacity="0.335785087050571"/><circle cx="474.7123462782276" cy="455.67851966739255" r="0.995140478779835" fill="white" opacity="0.6531139890853419"/><circle cx="529.8764736646452" cy="686.9787665250851" r="0.5573443664583215" fill="white" opacity="0.5854983294212861"/><circle cx="488.23511692003837" cy="502.61043853174687" r="0.7816456218964913" fill="white" opacity="0.47599501183414183"/><circle cx="655.0815251545132" cy="590.1265363126015" r="2.4422751505581357" fill="white" opacity="0.8459972102510576"/><circle cx="530.9000065819287" cy="488.1239180799989" r="1.2934857724858126" fill="#4affff" opacity="0.7218780378439316"/><circle cx="358.3370683602875" cy="672.9016471843814" r="1.072936223688977" fill="white" opacity="0.2886117899565601"/><circle cx="482.40376957645196" cy="534.1133271135889" r="0.9756799820729603" fill="white" opacity="0.32051286934897816"/><circle cx="522.7632550145756" cy="426.1967282894558" r="2.324480799744039" fill="white" opacity="0.5914544748938511"/><circle cx="644.7232665419099" cy="713.1057044886162" r="0.7829117178237377" fill="white" opacity="0.2952522777600029"/><circle cx="597.4978132936769" cy="548.8926361011789" r="0.9794879857556196" fill="#4affff" opacity="0.24281716315690557"/><circle cx="384.8818001292577" cy="450.15379541303923" r="2.2842250308255982" fill="white" opacity="0.906662975812847"/><circle cx="626.7215715580109" cy="244.17724471209291" r="0.5821399771913529" fill="white" opacity="0.2373882121018218"/><circle cx="484.62819742187435" cy="434.3766467129817" r="1.892513325270242" fill="white" opacity="0.4562410185327238"/><circle cx="532.0262414764745" cy="472.3937572783408" r="1.1392225439083026" fill="white" opacity="0.948059523242482"/><circle cx="646.7689129172306" cy="325.8002547485062" r="1.8725590311622593" fill="#4affff" opacity="0.7044334084830632"/><circle cx="714.3651281688981" cy="292.40032602548547" r="1.5530905091762692" fill="white" opacity="0.21939643425143115"/><circle cx="346.49493990040685" cy="806.7640752010108" r="1.304541542173998" fill="white" opacity="0.9490799381072872"/><circle cx="569.3179311012393" cy="539.6164893549341" r="2.354772987000765" fill="white" opacity="0.9061934675900478"/><circle cx="472.10750090399586" cy="477.447921742084" r="2.199373804072303" fill="white" opacity="0.6357797893843953"/><circle cx="639.7422137164983" cy="371.24444426615594" r="1.2560491669829714" fill="#4affff" opacity="0.24521454732476933"/><circle cx="230.29750530039138" cy="426.6628811072369" r="1.949765443040914" fill="white" opacity="0.5414936157767644"/><circle cx="442.56064836425617" cy="648.8711799785148" r="2.3779150954549064" fill="white" opacity="0.6573629463827123"/><circle cx="676.2225599213547" cy="784.4756961159806" r="0.9903382988676572" fill="white" opacity="0.21849115487822124"/><circle cx="243.0506601059805" cy="452.952336019015" r="2.4398290517134535" fill="white" opacity="0.7750017163763434"/><circle cx="672.9944659000859" cy="622.4193663301861" r="0.7082895270892613" fill="#4affff" opacity="0.6390880633753768"/><circle cx="588.4828221518919" cy="511.59436965716156" r="1.354417124148326" fill="white" opacity="0.7001650378423665"/><circle cx="562.8234759929591" cy="669.5147666426112" r="1.5951381266263716" fill="white" opacity="0.4455442691296012"/><circle cx="443.92214276681034" cy="663.993752878407" r="0.6563868892117224" fill="white" opacity="0.3786699607679307"/><circle cx="461.1371633022156" cy="499.2243603123603" r="1.6772160623848769" fill="white" opacity="0.6760656426054323"/><circle cx="518.6711533538546" cy="543.1516905701233" r="1.517937078565394" fill="#4affff" opacity="0.6593305777120484"/><circle cx="475.88617800915694" cy="489.3351753924903" r="1.4364433180428344" fill="white" opacity="0.4960690715023697"/><circle cx="525.8654880071283" cy="502.37299832533364" r="1.782372405174172" fill="white" opacity="0.3603695413249609"/><circle cx="480.94495418204053" cy="557.4902926205463" r="1.0012967897810081" fill="white" opacity="0.3669072482967206"/><circle cx="424.38799960319477" cy="289.4779431129427" r="1.6277638694341738" fill="white" opacity="0.7346359822246185"/><circle cx="601.503630396914" cy="374.68915758691463" r="2.076569892013683" fill="#4affff" opacity="0.32430873959365186"/><circle cx="680.8117994948831" cy="657.9458243282975" r="2.461681434663676" fill="white" opacity="0.8481942757704273"/><circle cx="523.5421413256022" cy="422.2483739322212" r="2.047041943837963" fill="white" opacity="0.24805573897735622"/><circle cx="489.9651064786997" cy="489.3605811902139" r="1.5305021185387777" fill="white" opacity="0.584890265203367"/><circle cx="533.7050060989563" cy="488.6903753404438" r="0.5549235192897943" fill="white" opacity="0.6531836077623177"/><circle cx="528.6657355154588" cy="505.8039462438115" r="1.71018112416234" fill="#4affff" opacity="0.22759557043847833"/><circle cx="680.7335528588662" cy="430.07045126307645" r="1.045771413078325" fill="white" opacity="0.3258012652926565"/><circle cx="709.6631370123182" cy="424.8875376788005" r="0.5199309155113494" fill="white" opacity="0.32160477880573474"/><circle cx="360.04051029213963" cy="767.4046184083141" r="2.2243510073192367" fill="white" opacity="0.2585159371783894"/><circle cx="347.7962657969571" cy="380.0039816269024" r="0.6258542602122352" fill="white" opacity="0.5218660336563806"/><circle cx="420.5488534477695" cy="510.4224862619948" r="0.7655392604020861" fill="#4affff" opacity="0.8975076453101265"/><circle cx="298.6445234711284" cy="266.0465710060646" r="2.221041588599716" fill="white" opacity="0.20529444077949696"/><circle cx="500.01500931763917" cy="500.78171804514545" r="1.4765375287773694" fill="white" opacity="0.7464531729696742"/><circle cx="547.6143584574597" cy="564.689345772613" r="0.5201940819980959" fill="white" opacity="0.6656341244774475"/><circle cx="345.3570544834702" cy="645.5076186510765" r="1.5688096161347969" fill="white" opacity="0.6287075618956288"/><circle cx="493.47788163329" cy="508.317221622716" r="0.7432077559717496" fill="#4affff" opacity="0.9309395736038171"/><circle cx="657.2053588031041" cy="274.8283686552636" r="0.7219610329531392" fill="white" opacity="0.9966572919310459"/><circle cx="567.896215237444" cy="257.2580356174501" r="1.411534316769747" fill="white" opacity="0.35846795971170753"/><circle cx="498.22458670592727" cy="483.86136428621546" r="1.2748951495400633" fill="white" opacity="0.8614475948359634"/><circle cx="698.427592168537" cy="353.87323452184995" r="1.8176529358213922" fill="white" opacity="0.6200231175842283"/><circle cx="529.675650244354" cy="521.79365948516" r="2.3136060042493387" fill="#4affff" opacity="0.831186125870772"/><circle cx="563.1326647320966" cy="553.3032985192917" r="1.9499236581973052" fill="white" opacity="0.6829051135101056"/><circle cx="530.1263531009529" cy="739.1260583242101" r="0.916923463287902" fill="white" opacity="0.6343936018954863"/><circle cx="725.6993116278677" cy="333.85982460079225" r="0.9236798555463759" fill="white" opacity="0.8790737284498409"/><circle cx="307.7955839234069" cy="425.13419991205285" r="1.5168563386732878" fill="white" opacity="0.25042858303708543"/><circle cx="238.6429723820624" cy="322.8973643580963" r="2.4011992346015165" fill="#4affff" opacity="0.274388886424817"/><circle cx="287.3530901497492" cy="258.9668214153125" r="2.4665061702413826" fill="white" opacity="0.9285899138217488"/><circle cx="764.6523261044961" cy="339.3192428540181" r="1.3532122136377196" fill="white" opacity="0.3479473710365024"/><circle cx="525.4063195124389" cy="684.8175208132153" r="2.2563527401538046" fill="white" opacity="0.8290921814457346"/><circle cx="629.3049538197404" cy="593.1677064280045" r="1.111342701719586" fill="white" opacity="0.8349628395900115"/><circle cx="389.37989589659406" cy="260.54102547000093" r="2.108400258529474" fill="#4affff" opacity="0.3821045127824778"/><circle cx="511.5660265956994" cy="457.07198505810936" r="0.8468651234718614" fill="white" opacity="0.606712585232579"/><circle cx="500.3847871088991" cy="508.44143336266086" r="2.1613230525273015" fill="white" opacity="0.5073027315988652"/><circle cx="633.9258366999285" cy="275.65855308365224" r="2.387613202831384" fill="white" opacity="0.8302759674254532"/><circle cx="811.6481255960234" cy="471.6353390512009" r="0.5897257512646998" fill="white" opacity="0.3767453994854343"/><circle cx="341.32973268357625" cy="199.41338138246465" r="0.7790235198152597" fill="#4affff" opacity="0.26922777185042257"/><circle cx="490.1605277137193" cy="524.97806850945" r="0.7730742675374374" fill="white" opacity="0.43858485112146006"/><circle cx="671.4417929104342" cy="752.6306429502296" r="0.5284440473237777" fill="white" opacity="0.6474864318128439"/><circle cx="477.9332824303154" cy="843.9173884680808" r="0.7202891434975776" fill="white" opacity="0.7672624907067165"/><circle cx="330.5869239028067" cy="608.2716404786644" r="1.5136877243444093" fill="white" opacity="0.7055118274146042"/><circle cx="520.2650229194317" cy="311.1059960651471" r="1.799520947943658" fill="#4affff" opacity="0.402990858383661"/><circle cx="583.3202240027972" cy="469.1990873939429" r="1.1624533884482648" fill="white" opacity="0.4277505266758828"/><circle cx="623.808108032089" cy="686.7452615750631" r="0.9398156884570206" fill="white" opacity="0.48988769330638143"/><circle cx="651.348580894301" cy="506.27301716221353" r="0.927221143460851" fill="white" opacity="0.7583286206455411"/><circle cx="518.6764066410309" cy="517.8909372448826" r="1.8468088224234966" fill="white" opacity="0.8183151704532043"/><circle cx="634.8464066300332" cy="483.8988280794794" r="0.9869112131996607" fill="#4affff" opacity="0.47013416717321327"/><circle cx="412.53999152388815" cy="474.2158208406696" r="2.1145343852346117" fill="white" opacity="0.9423013096928103"/><circle cx="436.77582528920993" cy="476.7015962260134" r="2.202459907858876" fill="white" opacity="0.5819902012565601"/><circle cx="758.3545113629448" cy="433.72475452265707" r="1.3896995253866447" fill="white" opacity="0.4954549716734315"/><circle cx="468.29606792027204" cy="521.0521907724933" r="2.3440603313576966" fill="white" opacity="0.8648904931258896"/><circle cx="459.6051150999189" cy="577.0729093353405" r="2.0924564971191" fill="#4affff" opacity="0.969380951771394"/><circle cx="601.4925750677858" cy="623.6114875749798" r="2.348544295510714" fill="white" opacity="0.7637815639584253"/><circle cx="506.30451997879413" cy="404.3225254420958" r="1.6600341954618205" fill="white" opacity="0.6346978520102764"/><circle cx="453.4111600032955" cy="487.34891514484946" r="1.7348015825826022" fill="white" opacity="0.7849222207180482"/><circle cx="522.2909544337036" cy="507.7700906687227" r="1.3495646569094721" fill="white" opacity="0.6557745859544102"/><circle cx="444.1344631028956" cy="468.68146642438467" r="2.0400820962692228" fill="#4affff" opacity="0.27278652068279485"/><circle cx="232.59929948715836" cy="718.3760254871205" r="1.8570168513660748" fill="white" opacity="0.6349737979577323"/><circle cx="513.4615355094543" cy="502.03026185555456" r="1.3836501827144652" fill="white" opacity="0.5374194216321013"/><circle cx="487.5972773478143" cy="516.0044041822572" r="1.5275206189479795" fill="white" opacity="0.7562250363512428"/><circle cx="710.1815724104157" cy="362.0293618154627" r="2.3433372268994637" fill="white" opacity="0.3066112034177449"/><circle cx="553.037151615237" cy="625.974475238701" r="1.3537521674190502" fill="#4affff" opacity="0.697082669171101"/><circle cx="169.4151239328806" cy="449.1726994734602" r="1.6024732585399266" fill="white" opacity="0.9393609602563513"/><circle cx="668.8641366600093" cy="465.87741247001816" r="2.40424286793862" fill="white" opacity="0.6157913240399511"/><circle cx="209.2287188679154" cy="435.16572236162614" r="1.1853027405990257" fill="white" opacity="0.20132279924970078"/><circle cx="523.4536362422839" cy="541.9903589872293" r="2.2018444107567245" fill="white" opacity="0.6276225515371726"/><circle cx="353.4803446945514" cy="731.9001197335851" r="1.8348100674827483" fill="#4affff" opacity="0.797662245191203"/><circle cx="292.3451868542007" cy="300.1569057691891" r="1.7268707314272205" fill="white" opacity="0.25053037401949735"/><circle cx="260.8003380221784" cy="687.5138917882822" r="1.6223333376091706" fill="white" opacity="0.4912160921232722"/><circle cx="477.3339157098492" cy="450.6641279654602" r="1.9607742309774756" fill="white" opacity="0.3979757912790888"/><circle cx="621.289831935637" cy="488.55357969485937" r="1.9217806018923995" fill="white" opacity="0.637753999587912"/><circle cx="432.0337436743726" cy="629.609065289992" r="0.6293805019564278" fill="#4affff" opacity="0.8085194324106484"/><circle cx="385.0425431197512" cy="588.8802544344293" r="1.1955369323292748" fill="white" opacity="0.8573296431796578"/><circle cx="520.6135873275499" cy="507.43614295299636" r="2.063252886775362" fill="white" opacity="0.9428061685250917"/><circle cx="333.03336206865146" cy="724.6837301226803" r="0.6994890116581653" fill="white" opacity="0.6217491461933822"/><circle cx="268.21981226260334" cy="441.27853024463434" r="1.4497064030182614" fill="white" opacity="0.6109970409080516"/><circle cx="607.1483978832338" cy="572.8151748810894" r="1.5051416812658913" fill="#4affff" opacity="0.5909700048930877"/><circle cx="484.6175612405261" cy="526.7014225284872" r="0.8472436514681485" fill="white" opacity="0.9065625998685753"/><circle cx="845.0775598144261" cy="513.3958308932555" r="2.455809600031942" fill="white" opacity="0.6103823205740376"/><circle cx="494.92964135460903" cy="247.05084128943918" r="1.8959848178073004" fill="white" opacity="0.7715564479228014"/><circle cx="508.7609556783106" cy="501.19302166321313" r="1.8018876661680543" fill="white" opacity="0.7182300586354269"/><circle cx="543.884741270494" cy="535.6690775553625" r="1.4752980007506942" fill="#4affff" opacity="0.6758227161262251"/><circle cx="440.99842381303426" cy="226.28996036422876" r="1.4639179715474557" fill="white" opacity="0.6878717585288823"/><circle cx="649.726374130329" cy="740.2484277862335" r="0.8753206341591495" fill="white" opacity="0.5294344508776361"/><circle cx="397.4195107567551" cy="683.2969740000455" r="1.330024875079666" fill="white" opacity="0.49847075198522667"/><circle cx="545.9341411669902" cy="594.0987942752506" r="2.005362660879199" fill="white" opacity="0.2255986705542119"/><circle cx="250.40171465772175" cy="512.7819440753418" r="0.9780936148797355" fill="#4affff" opacity="0.5647522923647351"/><circle cx="745.7527648103137" cy="547.5832213044812" r="0.658088360798446" fill="white" opacity="0.46026791944686174"/><circle cx="604.8500392985002" cy="628.6801405820481" r="0.6256309275948833" fill="white" opacity="0.27403597787055534"/><circle cx="483.78822883976534" cy="464.0304411261502" r="0.702103536321665" fill="white" opacity="0.3039142743767276"/><circle cx="408.929992829714" cy="680.5331294572279" r="2.1328571009711563" fill="white" opacity="0.312168062105777"/><circle cx="515.5391458294746" cy="528.6403118544333" r="2.1390216179454224" fill="#4affff" opacity="0.6613241514219705"/><circle cx="235.44231116175672" cy="697.5536021021818" r="2.009995301351253" fill="white" opacity="0.5767710001529303"/><circle cx="668.4767385434991" cy="697.3773407442263" r="1.9364147569467032" fill="white" opacity="0.3563008517356524"/><circle cx="480.12609431526397" cy="496.23282234266287" r="1.423061370198329" fill="white" opacity="0.5922146817426035"/><circle cx="575.27582323172" cy="478.1927852829855" r="2.289556302828887" fill="white" opacity="0.6377917588997294"/>
    </svg>