<svg xmlns="http://www.w3.org/2000/svg" width="1000" height="1000" viewBox="0 0 1000 1000"><defs><radialGradient id="galaxyGradient" cx="50%" cy="50%" r="50%" fx="50%" fy="50%"><stop offset="0%" stop-color="#4a4aff" stop-opacity=".3"/><stop offset="70%" stop-color="#4a4aff" stop-opacity=".1"/><stop offset="100%" stop-color="#4a4aff" stop-opacity="0"/></radialGradient></defs><rect width="1000" height="1000" fill="#0a0a2a"/><ellipse cx="500" cy="500" fill="url(#galaxyGradient)" rx="400" ry="200" transform="rotate(45, 500, 500)"/><circle cx="310.66" cy="391.796" r="1.493" fill="#4affff" opacity=".437"/><circle cx="566.66" cy="618.006" r=".869" fill="#fff" opacity=".718"/><circle cx="589.044" cy="231.105" r="1.374" fill="#fff" opacity=".837"/><circle cx="809.842" cy="374.281" r="2.304" fill="#fff" opacity=".586"/><circle cx="380.22" cy="252.817" r="1.699" fill="#fff" opacity=".842"/><circle cx="485.303" cy="511.519" r="1.788" fill="#4affff" opacity=".264"/><circle cx="290.757" cy="457.846" r="1.575" fill="#fff" opacity=".462"/><circle cx="307.659" cy="230.348" r="1.078" fill="#fff" opacity=".728"/><circle cx="533.767" cy="524.429" r="2.054" fill="#fff" opacity=".639"/><circle cx="399.649" cy="300.037" r="1.159" fill="#fff" opacity=".845"/><circle cx="518.185" cy="487.743" r="1.299" fill="#4affff" opacity=".457"/><circle cx="275.208" cy="499.692" r="2.39" fill="#fff" opacity=".723"/><circle cx="269.041" cy="288.798" r="2.456" fill="#fff" opacity=".535"/><circle cx="499.965" cy="498.837" r="1.331" fill="#fff" opacity=".884"/><circle cx="439.725" cy="688.967" r=".617" fill="#fff" opacity=".918"/><circle cx="598.587" cy="555.754" r="2.366" fill="#4affff" opacity=".683"/><circle cx="531.896" cy="393.151" r=".869" fill="#fff" opacity=".373"/><circle cx="272.219" cy="239.009" r="1.007" fill="#fff" opacity=".826"/><circle cx="393.526" cy="176.166" r=".603" fill="#fff" opacity=".928"/><circle cx="473.84" cy="508.045" r="2.224" fill="#fff" opacity=".62"/><circle cx="601.19" cy="205.643" r="1.58" fill="#4affff" opacity=".955"/><circle cx="384.99" cy="797.719" r="1.13" fill="#fff" opacity=".347"/><circle cx="640.541" cy="215.773" r="1.722" fill="#fff" opacity=".896"/><circle cx="483.658" cy="259.206" r=".939" fill="#fff" opacity=".556"/><circle cx="525.383" cy="485.966" r="2.069" fill="#fff" opacity=".535"/><circle cx="445.131" cy="576.657" r="2.43" fill="#4affff" opacity=".916"/><circle cx="364.002" cy="398.874" r="1.022" fill="#fff" opacity=".546"/><circle cx="442.869" cy="544.978" r="1.038" fill="#fff" opacity=".388"/><circle cx="457.653" cy="480.923" r=".506" fill="#fff" opacity=".718"/><circle cx="736.776" cy="742.587" r="1.287" fill="#fff" opacity=".436"/><circle cx="394.096" cy="310.805" r=".799" fill="#4affff" opacity=".232"/><circle cx="567.549" cy="325.777" r="1.557" fill="#fff" opacity=".309"/><circle cx="346.147" cy="264.798" r=".807" fill="#fff" opacity=".486"/><circle cx="442.924" cy="493.676" r="1.941" fill="#fff" opacity=".676"/><circle cx="261.666" cy="600.794" r=".681" fill="#fff" opacity=".368"/><circle cx="411.878" cy="260.068" r="1.327" fill="#4affff" opacity=".601"/><circle cx="527.769" cy="641.788" r=".945" fill="#fff" opacity=".726"/><circle cx="455.619" cy="478.236" r="2.45" fill="#fff" opacity=".856"/><circle cx="524.495" cy="588.975" r="2.051" fill="#fff" opacity=".957"/><circle cx="506.104" cy="337.567" r="1.19" fill="#fff" opacity=".204"/><circle cx="485.339" cy="592.304" r="1.247" fill="#4affff" opacity=".985"/><circle cx="360.804" cy="567.299" r="1.566" fill="#fff" opacity=".737"/><circle cx="726.624" cy="454.272" r=".841" fill="#fff" opacity=".95"/><circle cx="284.555" cy="259.243" r="1.679" fill="#fff" opacity=".279"/><circle cx="470.374" cy="296.686" r="1.268" fill="#fff" opacity=".29"/><circle cx="499.31" cy="496.125" r="1.981" fill="#4affff" opacity=".79"/><circle cx="592.327" cy="703.24" r="1.914" fill="#fff" opacity=".505"/><circle cx="658.568" cy="647.44" r="2.051" fill="#fff" opacity=".939"/><circle cx="571.75" cy="532.278" r=".669" fill="#fff" opacity=".581"/><circle cx="560.81" cy="212.856" r="1.072" fill="#fff" opacity=".747"/><circle cx="455.958" cy="346.492" r="2.354" fill="#4affff" opacity=".378"/><circle cx="560.816" cy="540.098" r="1.043" fill="#fff" opacity=".455"/><circle cx="274.796" cy="315.354" r="1.966" fill="#fff" opacity=".59"/><circle cx="535.339" cy="654.446" r="2.33" fill="#fff" opacity=".52"/><circle cx="387.506" cy="398.773" r="1.477" fill="#fff" opacity=".751"/><circle cx="294.048" cy="698.633" r="2.453" fill="#4affff" opacity=".399"/><circle cx="636.853" cy="602.571" r="2.084" fill="#fff" opacity=".642"/><circle cx="600.449" cy="484.695" r="2.251" fill="#fff" opacity=".818"/><circle cx="439.898" cy="477.702" r="1.304" fill="#fff" opacity=".312"/><circle cx="509.91" cy="667.819" r="2.273" fill="#fff" opacity=".702"/><circle cx="526.137" cy="534.775" r=".583" fill="#4affff" opacity=".549"/><circle cx="575.923" cy="446.947" r=".661" fill="#fff" opacity=".816"/><circle cx="469.852" cy="480.931" r="1.236" fill="#fff" opacity=".326"/><circle cx="628.776" cy="574.217" r="2.136" fill="#fff" opacity=".397"/><circle cx="302.02" cy="631.787" r="1.6" fill="#fff" opacity=".825"/><circle cx="506.144" cy="490.391" r=".754" fill="#4affff" opacity=".261"/><circle cx="494.36" cy="502.822" r="1.843" fill="#fff" opacity=".343"/><circle cx="732.023" cy="466.694" r="2.134" fill="#fff" opacity=".254"/><circle cx="423.532" cy="474.806" r=".8" fill="#fff" opacity=".742"/><circle cx="638.151" cy="690.149" r="1.935" fill="#fff" opacity=".919"/><circle cx="451.379" cy="593.427" r=".858" fill="#4affff" opacity=".701"/><circle cx="198.546" cy="372.387" r="1.375" fill="#fff" opacity=".756"/><circle cx="247.82" cy="710.01" r="1.474" fill="#fff" opacity=".373"/><circle cx="640.327" cy="300.109" r="1.108" fill="#fff" opacity=".739"/><circle cx="343.384" cy="736.959" r="2.434" fill="#fff" opacity=".481"/><circle cx="622.495" cy="686.687" r="1.947" fill="#4affff" opacity=".251"/><circle cx="716.617" cy="580.77" r="1.246" fill="#fff" opacity=".907"/><circle cx="512.662" cy="768.008" r="1.063" fill="#fff" opacity=".304"/><circle cx="295.673" cy="674.468" r="2.446" fill="#fff" opacity=".655"/><circle cx="463.158" cy="596.299" r="1.922" fill="#fff" opacity=".34"/><circle cx="614.687" cy="824.569" r="1.15" fill="#4affff" opacity=".919"/><circle cx="382.596" cy="644.518" r="1.317" fill="#fff" opacity=".323"/><circle cx="559.522" cy="357.206" r=".842" fill="#fff" opacity=".421"/><circle cx="638.237" cy="509.151" r="1.141" fill="#fff" opacity=".608"/><circle cx="575.412" cy="602.152" r="2.477" fill="#fff" opacity=".216"/><circle cx="355.881" cy="300.811" r="1.269" fill="#4affff" opacity=".556"/><circle cx="603.041" cy="421.128" r=".532" fill="#fff" opacity=".241"/><circle cx="429.888" cy="255.011" r="2.443" fill="#fff" opacity=".209"/><circle cx="537.111" cy="458.352" r="1.087" fill="#fff" opacity=".333"/><circle cx="447.87" cy="473.686" r="1.711" fill="#fff" opacity=".51"/><circle cx="496.952" cy="505.336" r="2.121" fill="#4affff" opacity=".892"/><circle cx="489.126" cy="658.253" r=".744" fill="#fff" opacity=".352"/><circle cx="713.105" cy="323.6" r="1.996" fill="#fff" opacity=".65"/><circle cx="440.953" cy="560.555" r="1.002" fill="#fff" opacity=".758"/><circle cx="496.179" cy="500.773" r="1.894" fill="#fff" opacity=".281"/><circle cx="494.791" cy="504.728" r="1.451" fill="#4affff" opacity=".313"/><circle cx="513.138" cy="381.17" r="1.738" fill="#fff" opacity=".649"/><circle cx="534.249" cy="557.14" r="1.074" fill="#fff" opacity=".594"/><circle cx="466.514" cy="803.074" r=".893" fill="#fff" opacity=".862"/><circle cx="353.071" cy="514.756" r="2.193" fill="#fff" opacity=".819"/><circle cx="520.881" cy="520.982" r=".931" fill="#4affff" opacity=".878"/><circle cx="499.752" cy="499.271" r="1.471" fill="#fff" opacity=".991"/><circle cx="419.721" cy="789.707" r="1.492" fill="#fff" opacity=".743"/><circle cx="621.91" cy="496.006" r="1.467" fill="#fff" opacity=".62"/><circle cx="493.397" cy="669.133" r=".643" fill="#fff" opacity=".503"/><circle cx="287.031" cy="266.103" r="1.668" fill="#4affff" opacity=".556"/><circle cx="252.031" cy="569.13" r="2.034" fill="#fff" opacity=".49"/><circle cx="556.029" cy="444.847" r=".682" fill="#fff" opacity=".853"/><circle cx="635.081" cy="506.909" r="2.087" fill="#fff" opacity=".812"/><circle cx="544.682" cy="458.841" r="2.293" fill="#fff" opacity=".584"/><circle cx="680.919" cy="323.525" r=".822" fill="#4affff" opacity=".349"/><circle cx="382.408" cy="507.496" r="1.047" fill="#fff" opacity=".748"/><circle cx="502.577" cy="497.489" r=".533" fill="#fff" opacity=".863"/><circle cx="327.786" cy="648.403" r="1.261" fill="#fff" opacity=".415"/><circle cx="480.51" cy="326.148" r=".617" fill="#fff" opacity=".394"/><circle cx="479.408" cy="538.391" r="1.988" fill="#4affff" opacity=".925"/><circle cx="740.618" cy="294.373" r="2.26" fill="#fff" opacity=".852"/><circle cx="647.949" cy="491.739" r=".72" fill="#fff" opacity=".604"/><circle cx="730.282" cy="416.596" r="1.538" fill="#fff" opacity=".622"/><circle cx="563.385" cy="482.863" r="1.549" fill="#fff" opacity=".816"/><circle cx="504.569" cy="346.73" r="2.301" fill="#4affff" opacity=".451"/><circle cx="381.298" cy="573.613" r="1.5" fill="#fff" opacity=".785"/><circle cx="514.122" cy="477.267" r="1.675" fill="#fff" opacity=".675"/><circle cx="587.988" cy="741.219" r="1.336" fill="#fff" opacity=".503"/><circle cx="329.469" cy="401.517" r="1.59" fill="#fff" opacity=".779"/><circle cx="639.514" cy="248.873" r=".671" fill="#4affff" opacity=".851"/><circle cx="466.806" cy="454.197" r="1.27" fill="#fff" opacity=".639"/><circle cx="679.089" cy="362.978" r=".652" fill="#fff" opacity=".947"/><circle cx="495.4" cy="280.951" r="1.852" fill="#fff" opacity=".852"/><circle cx="645.539" cy="743.569" r="1.41" fill="#fff" opacity=".706"/><circle cx="475.121" cy="397.466" r="2.165" fill="#4affff" opacity=".626"/><circle cx="344.65" cy="567.078" r="1.716" fill="#fff" opacity=".259"/><circle cx="490.879" cy="490.848" r="1.029" fill="#fff" opacity=".385"/><circle cx="755.937" cy="391.484" r=".704" fill="#fff" opacity=".786"/><circle cx="473.215" cy="629.446" r=".54" fill="#fff" opacity=".998"/><circle cx="733.581" cy="663.817" r="1.013" fill="#4affff" opacity=".255"/><circle cx="511.658" cy="685.809" r="1.423" fill="#fff" opacity=".25"/><circle cx="553.087" cy="156.638" r=".781" fill="#fff" opacity=".49"/><circle cx="577.487" cy="658.758" r="1.798" fill="#fff" opacity=".562"/><circle cx="681.557" cy="589.135" r="1.563" fill="#fff" opacity=".491"/><circle cx="280.672" cy="375.379" r="1.228" fill="#4affff" opacity=".997"/><circle cx="377.421" cy="659.164" r=".839" fill="#fff" opacity=".592"/><circle cx="478.894" cy="499.583" r=".933" fill="#fff" opacity=".255"/><circle cx="730.096" cy="698.234" r="2.044" fill="#fff" opacity=".557"/><circle cx="498.406" cy="485.982" r="2.28" fill="#fff" opacity=".328"/><circle cx="190.243" cy="528.847" r="1.109" fill="#4affff" opacity=".842"/><circle cx="483.93" cy="474.37" r="1.723" fill="#fff" opacity=".962"/><circle cx="716.229" cy="360.897" r="1.268" fill="#fff" opacity=".764"/><circle cx="498.61" cy="379.472" r=".951" fill="#fff" opacity=".81"/><circle cx="606.093" cy="582.429" r="1.532" fill="#fff" opacity=".641"/><circle cx="458.86" cy="697.641" r="1.997" fill="#4affff" opacity=".946"/><circle cx="675.433" cy="665.463" r="1.495" fill="#fff" opacity=".878"/><circle cx="576.579" cy="395.203" r="2.005" fill="#fff" opacity=".556"/><circle cx="475.199" cy="363.324" r=".988" fill="#fff" opacity=".541"/><circle cx="516.55" cy="448.244" r=".604" fill="#fff" opacity=".839"/><circle cx="516.947" cy="651.635" r="1.963" fill="#4affff" opacity=".982"/><circle cx="365.007" cy="242.071" r="1.494" fill="#fff" opacity=".709"/><circle cx="430.261" cy="728.241" r="1.355" fill="#fff" opacity=".25"/><circle cx="522.205" cy="535.009" r=".517" fill="#fff" opacity=".506"/><circle cx="494.888" cy="768.839" r=".819" fill="#fff" opacity=".633"/><circle cx="207.47" cy="616.822" r=".96" fill="#4affff" opacity=".653"/><circle cx="601.15" cy="541.636" r="1.3" fill="#fff" opacity=".612"/><circle cx="437.146" cy="338.735" r=".796" fill="#fff" opacity=".219"/><circle cx="243.917" cy="613.852" r=".996" fill="#fff" opacity=".556"/><circle cx="807.825" cy="614.951" r="1.433" fill="#fff" opacity=".429"/><circle cx="338.338" cy="400.773" r="1.332" fill="#4affff" opacity=".334"/><circle cx="415.231" cy="625.797" r="2.243" fill="#fff" opacity=".719"/><circle cx="434.905" cy="767.11" r=".871" fill="#fff" opacity=".552"/><circle cx="507.994" cy="466.287" r="1.459" fill="#fff" opacity=".829"/><circle cx="270.578" cy="712.633" r="2.192" fill="#fff" opacity=".583"/><circle cx="663.438" cy="613.499" r="1.001" fill="#4affff" opacity=".275"/><circle cx="332.393" cy="505.821" r=".564" fill="#fff" opacity=".58"/><circle cx="427.485" cy="337.261" r=".678" fill="#fff" opacity=".401"/><circle cx="369.014" cy="408.879" r=".682" fill="#fff" opacity=".749"/><circle cx="760.528" cy="406.284" r="1.677" fill="#fff" opacity=".374"/><circle cx="825.395" cy="496.213" r="1.593" fill="#4affff" opacity=".587"/><circle cx="501.336" cy="518.199" r="2.178" fill="#fff" opacity=".517"/><circle cx="441.632" cy="755.309" r="2.457" fill="#fff" opacity=".852"/><circle cx="543.544" cy="551.112" r="2.173" fill="#fff" opacity=".798"/><circle cx="496.596" cy="540.492" r=".741" fill="#fff" opacity=".699"/><circle cx="500.949" cy="579.007" r=".629" fill="#4affff" opacity=".573"/><circle cx="268.583" cy="504.432" r="1.087" fill="#fff" opacity=".725"/><circle cx="313.41" cy="543.011" r="1.745" fill="#fff" opacity=".299"/><circle cx="536.657" cy="680.46" r="2.365" fill="#fff" opacity=".851"/><circle cx="590.257" cy="308.544" r="1.39" fill="#fff" opacity=".415"/><circle cx="700.437" cy="372.453" r="1.433" fill="#4affff" opacity=".761"/><circle cx="621.414" cy="369.202" r="2.174" fill="#fff" opacity=".814"/><circle cx="565.426" cy="408.102" r="1.053" fill="#fff" opacity=".267"/><circle cx="493.355" cy="494.569" r="1.212" fill="#fff" opacity=".61"/><circle cx="458.894" cy="688.708" r="2.208" fill="#fff" opacity=".27"/><circle cx="578.301" cy="838.255" r="1.833" fill="#4affff" opacity=".831"/><circle cx="381.8" cy="246.249" r="2.018" fill="#fff" opacity=".926"/><circle cx="544.063" cy="733.8" r="1.848" fill="#fff" opacity=".591"/><circle cx="605.568" cy="546.593" r="2.057" fill="#fff" opacity=".47"/><circle cx="671.479" cy="397.435" r="1.922" fill="#fff" opacity=".423"/><circle cx="306.789" cy="411.858" r="1.918" fill="#4affff" opacity=".562"/><circle cx="846.823" cy="476.961" r="1.126" fill="#fff" opacity=".36"/><circle cx="550.981" cy="343.173" r="1.89" fill="#fff" opacity=".253"/><circle cx="391.232" cy="529.512" r="2.004" fill="#fff" opacity=".693"/><circle cx="455.195" cy="544.428" r="1.577" fill="#fff" opacity=".261"/><circle cx="595.386" cy="528.053" r="2.08" fill="#4affff" opacity=".717"/><circle cx="499.879" cy="517.555" r="1.026" fill="#fff" opacity=".342"/><circle cx="412.313" cy="376.889" r="2.017" fill="#fff" opacity=".258"/><circle cx="841.223" cy="477.413" r="2.471" fill="#fff" opacity=".459"/><circle cx="491.151" cy="532.521" r=".563" fill="#fff" opacity=".607"/><circle cx="352.872" cy="243.203" r="1.897" fill="#4affff" opacity=".306"/><circle cx="575.439" cy="481.441" r=".96" fill="#fff" opacity=".394"/><circle cx="453.52" cy="619.711" r="2.186" fill="#fff" opacity=".62"/><circle cx="482.077" cy="666.465" r="1.176" fill="#fff" opacity=".519"/><circle cx="497.343" cy="464.468" r=".645" fill="#fff" opacity=".496"/><circle cx="208.519" cy="482.486" r="1.405" fill="#4affff" opacity=".84"/><circle cx="369.526" cy="318.283" r="2.089" fill="#fff" opacity=".457"/><circle cx="603.739" cy="385.101" r="2.09" fill="#fff" opacity=".871"/><circle cx="396.271" cy="560.196" r=".867" fill="#fff" opacity=".421"/><circle cx="385.328" cy="581.336" r=".655" fill="#fff" opacity=".686"/><circle cx="533.358" cy="375.343" r="2.084" fill="#4affff" opacity=".923"/><circle cx="507.628" cy="420.663" r=".511" fill="#fff" opacity=".52"/><circle cx="564.255" cy="596.66" r="1.127" fill="#fff" opacity=".968"/><circle cx="358.923" cy="308.945" r="2.269" fill="#fff" opacity=".346"/><circle cx="689.175" cy="674.51" r="1.967" fill="#fff" opacity=".892"/><circle cx="801.342" cy="450.821" r="1.062" fill="#4affff" opacity=".27"/><circle cx="556.487" cy="336.657" r="1.402" fill="#fff" opacity=".598"/><circle cx="603.577" cy="778.274" r=".654" fill="#fff" opacity=".747"/><circle cx="312.698" cy="755.306" r="2.292" fill="#fff" opacity=".28"/><circle cx="504.156" cy="515.35" r=".668" fill="#fff" opacity=".875"/><circle cx="401.882" cy="833.093" r="1.129" fill="#4affff" opacity=".464"/><circle cx="777.441" cy="450.609" r="1.976" fill="#fff" opacity=".924"/><circle cx="634.654" cy="418.468" r="1.49" fill="#fff" opacity=".888"/><circle cx="301.506" cy="480.619" r=".666" fill="#fff" opacity=".713"/><circle cx="432.627" cy="499.415" r=".647" fill="#fff" opacity=".871"/><circle cx="709.799" cy="553.302" r="1.502" fill="#4affff" opacity=".929"/><circle cx="474.913" cy="760.337" r="1.609" fill="#fff" opacity=".902"/><circle cx="512.016" cy="392.113" r="1.01" fill="#fff" opacity=".71"/><circle cx="477.463" cy="349.804" r="1.466" fill="#fff" opacity=".781"/><circle cx="617.569" cy="369.483" r="1.333" fill="#fff" opacity=".457"/><circle cx="546.701" cy="528.176" r="1.491" fill="#4affff" opacity=".211"/><circle cx="499.281" cy="496.232" r=".522" fill="#fff" opacity=".202"/><circle cx="494.862" cy="476.575" r="2.235" fill="#fff" opacity=".442"/><circle cx="280.363" cy="733.583" r="1.523" fill="#fff" opacity=".704"/><circle cx="508.445" cy="491.2" r="2.178" fill="#fff" opacity=".47"/><circle cx="695.653" cy="585.08" r="1.615" fill="#4affff" opacity=".717"/><circle cx="233.441" cy="387.28" r="2.455" fill="#fff" opacity=".862"/><circle cx="690.523" cy="640.721" r="2.118" fill="#fff" opacity=".462"/><circle cx="443.754" cy="385.803" r="1.828" fill="#fff" opacity=".423"/><circle cx="330.444" cy="687.024" r="1.933" fill="#fff" opacity=".381"/><circle cx="540.534" cy="490.008" r="1.387" fill="#4affff" opacity=".236"/><circle cx="360.416" cy="649.864" r=".689" fill="#fff" opacity=".702"/><circle cx="388.455" cy="398.882" r="2.401" fill="#fff" opacity=".373"/><circle cx="374.161" cy="596.763" r="1.503" fill="#fff" opacity=".689"/><circle cx="549.174" cy="208.064" r="1.543" fill="#fff" opacity=".812"/><circle cx="573.827" cy="262.563" r=".797" fill="#4affff" opacity=".671"/><circle cx="464.536" cy="653.981" r="1.022" fill="#fff" opacity=".432"/><circle cx="449.056" cy="556.019" r="2.34" fill="#fff" opacity=".572"/><circle cx="759.836" cy="584.633" r="1.413" fill="#fff" opacity=".524"/><circle cx="579.345" cy="277.683" r="2.293" fill="#fff" opacity=".776"/><circle cx="557.659" cy="416.875" r="2.299" fill="#4affff" opacity=".984"/><circle cx="358.91" cy="455.539" r="1.637" fill="#fff" opacity=".484"/><circle cx="456.391" cy="268.956" r="1.139" fill="#fff" opacity=".449"/><circle cx="448.648" cy="478.741" r="1.047" fill="#fff" opacity=".999"/><circle cx="525.886" cy="478.872" r="1.155" fill="#fff" opacity=".53"/><circle cx="493.197" cy="490.736" r="2.362" fill="#4affff" opacity=".471"/><circle cx="657.771" cy="247.855" r="2.351" fill="#fff" opacity=".902"/><circle cx="409.963" cy="592.722" r="1.358" fill="#fff" opacity=".663"/><circle cx="481.512" cy="393.267" r="2.304" fill="#fff" opacity=".594"/><circle cx="524.142" cy="544.123" r="2.105" fill="#fff" opacity=".715"/><circle cx="651.099" cy="467.605" r="2.221" fill="#4affff" opacity=".239"/><circle cx="628.246" cy="410.183" r="1.41" fill="#fff" opacity=".493"/><circle cx="597.164" cy="516.753" r=".868" fill="#fff" opacity=".863"/><circle cx="217.048" cy="561.244" r="2.489" fill="#fff" opacity=".549"/><circle cx="297.918" cy="521.596" r="2.278" fill="#fff" opacity=".426"/><circle cx="517.345" cy="798.606" r=".863" fill="#4affff" opacity=".794"/><circle cx="761.709" cy="586.049" r=".552" fill="#fff" opacity=".585"/><circle cx="461.201" cy="397.408" r=".945" fill="#fff" opacity=".938"/><circle cx="321.028" cy="784.864" r=".649" fill="#fff" opacity=".852"/><circle cx="274.818" cy="624.535" r="2.342" fill="#fff" opacity=".27"/><circle cx="552.625" cy="491.275" r="1.438" fill="#4affff" opacity=".394"/><circle cx="590.126" cy="391.141" r=".995" fill="#fff" opacity=".42"/><circle cx="584.803" cy="320.24" r="2.397" fill="#fff" opacity=".684"/><circle cx="234.185" cy="529.266" r=".914" fill="#fff" opacity=".939"/><circle cx="697.197" cy="519.315" r=".886" fill="#fff" opacity=".602"/><circle cx="343.731" cy="446.78" r=".785" fill="#4affff" opacity=".278"/><circle cx="579.428" cy="566.955" r="2.423" fill="#fff" opacity=".218"/><circle cx="183.94" cy="376.05" r="2.284" fill="#fff" opacity=".297"/><circle cx="719.073" cy="485.389" r="1.017" fill="#fff" opacity=".605"/><circle cx="690.393" cy="213.731" r="1.645" fill="#fff" opacity=".218"/><circle cx="293.992" cy="505.471" r="1.507" fill="#4affff" opacity=".819"/><circle cx="430.282" cy="345.74" r=".983" fill="#fff" opacity=".207"/><circle cx="371.946" cy="720.027" r="2.291" fill="#fff" opacity=".403"/><circle cx="647.815" cy="551.676" r=".632" fill="#fff" opacity=".584"/><circle cx="528.81" cy="456.414" r=".535" fill="#fff" opacity=".349"/><circle cx="259.554" cy="598.452" r="1.692" fill="#4affff" opacity=".627"/><circle cx="486.833" cy="651.132" r="1.942" fill="#fff" opacity=".954"/><circle cx="826.652" cy="516.429" r="1.425" fill="#fff" opacity=".904"/><circle cx="532.445" cy="476.919" r=".607" fill="#fff" opacity=".881"/><circle cx="484.3" cy="551.814" r="2.094" fill="#fff" opacity=".632"/><circle cx="298.467" cy="759.195" r="1.24" fill="#4affff" opacity=".909"/><circle cx="516.831" cy="504.172" r=".787" fill="#fff" opacity=".716"/><circle cx="510.163" cy="458.938" r=".865" fill="#fff" opacity=".622"/><circle cx="280.754" cy="636.865" r="1.31" fill="#fff" opacity=".476"/><circle cx="482.098" cy="491.425" r="2.322" fill="#fff" opacity=".79"/><circle cx="459.377" cy="169.637" r="2.44" fill="#4affff" opacity=".931"/><circle cx="414.815" cy="725.986" r="1.694" fill="#fff" opacity=".834"/><circle cx="735.707" cy="521.688" r="1.648" fill="#fff" opacity=".257"/><circle cx="440.266" cy="378.019" r="1.45" fill="#fff" opacity=".88"/><circle cx="482.034" cy="516.553" r=".778" fill="#fff" opacity=".75"/><circle cx="629.846" cy="454.435" r="1.898" fill="#4affff" opacity=".36"/><circle cx="483.146" cy="431.676" r="1.628" fill="#fff" opacity=".602"/><circle cx="343.955" cy="302.92" r="2.132" fill="#fff" opacity=".322"/><circle cx="523.131" cy="526.88" r="1.541" fill="#fff" opacity=".373"/><circle cx="230.069" cy="306.458" r=".55" fill="#fff" opacity=".769"/><circle cx="288.35" cy="651.398" r="2.228" fill="#4affff" opacity=".984"/><circle cx="340.375" cy="200.723" r="1.72" fill="#fff" opacity=".411"/><circle cx="692.772" cy="361.206" r="1.756" fill="#fff" opacity=".82"/><circle cx="515.62" cy="506.828" r="1.436" fill="#fff" opacity=".963"/><circle cx="555.948" cy="698.856" r="1.105" fill="#fff" opacity=".762"/><circle cx="459.34" cy="509.634" r="2.093" fill="#4affff" opacity=".571"/><circle cx="482.13" cy="494.386" r="1.294" fill="#fff" opacity=".278"/><circle cx="339.453" cy="615.649" r="1.935" fill="#fff" opacity=".358"/><circle cx="448.38" cy="403.307" r=".702" fill="#fff" opacity=".7"/><circle cx="482.61" cy="577.021" r="2.285" fill="#fff" opacity=".568"/><circle cx="515.989" cy="495.866" r="2.309" fill="#4affff" opacity=".599"/><circle cx="504.953" cy="536.573" r=".989" fill="#fff" opacity=".303"/><circle cx="209.923" cy="668.882" r="1.42" fill="#fff" opacity=".907"/><circle cx="314.544" cy="459.035" r="2.432" fill="#fff" opacity=".569"/><circle cx="502.381" cy="592.182" r="1.102" fill="#fff" opacity=".929"/><circle cx="587.948" cy="664.208" r="1.161" fill="#4affff" opacity=".465"/><circle cx="593.797" cy="560.356" r="1.535" fill="#fff" opacity=".309"/><circle cx="488.484" cy="551.166" r="1.537" fill="#fff" opacity=".49"/><circle cx="623.909" cy="357.725" r=".912" fill="#fff" opacity=".848"/><circle cx="513.018" cy="538.132" r="2.37" fill="#fff" opacity=".588"/><circle cx="233.546" cy="365.028" r="1.241" fill="#4affff" opacity=".425"/><circle cx="567.581" cy="432.075" r=".646" fill="#fff" opacity=".993"/><circle cx="526.085" cy="508.254" r="2.465" fill="#fff" opacity=".774"/><circle cx="464.513" cy="368.484" r=".756" fill="#fff" opacity=".491"/><circle cx="706.871" cy="434.024" r="1.759" fill="#fff" opacity=".416"/><circle cx="307.16" cy="350.558" r="1.97" fill="#4affff" opacity=".514"/><circle cx="463.556" cy="476.972" r="2.172" fill="#fff" opacity=".411"/><circle cx="377.944" cy="371.089" r="2.463" fill="#fff" opacity=".633"/><circle cx="810.213" cy="463.066" r="2.128" fill="#fff" opacity=".932"/><circle cx="383.29" cy="414.005" r="1.867" fill="#fff" opacity=".335"/><circle cx="836.993" cy="498.296" r="1.965" fill="#4affff" opacity=".336"/><circle cx="786.663" cy="380.46" r="1.598" fill="#fff" opacity=".706"/><circle cx="405.045" cy="475.82" r="1.316" fill="#fff" opacity=".392"/><circle cx="534.04" cy="620.756" r="1.642" fill="#fff" opacity=".637"/><circle cx="379.074" cy="619.756" r=".794" fill="#fff" opacity=".77"/><circle cx="397.958" cy="439.592" r="2.469" fill="#4affff" opacity=".58"/><circle cx="636.072" cy="585.826" r="1.954" fill="#fff" opacity=".534"/><circle cx="571.17" cy="644.694" r="1.042" fill="#fff" opacity=".427"/><circle cx="679.122" cy="221.608" r="1.737" fill="#fff" opacity=".339"/><circle cx="207.717" cy="647.753" r=".987" fill="#fff" opacity=".912"/><circle cx="282.078" cy="476.103" r=".827" fill="#4affff" opacity=".898"/><circle cx="361.471" cy="447.846" r="1.846" fill="#fff" opacity=".801"/><circle cx="278.661" cy="562.801" r="1.804" fill="#fff" opacity=".87"/><circle cx="300.703" cy="380.04" r="2.306" fill="#fff" opacity=".553"/><circle cx="428.002" cy="428.38" r="1.277" fill="#fff" opacity=".447"/><circle cx="468.745" cy="628.352" r=".632" fill="#4affff" opacity=".447"/><circle cx="688.524" cy="441.558" r="2.301" fill="#fff" opacity=".681"/><circle cx="458.984" cy="589.086" r="1.797" fill="#fff" opacity=".281"/><circle cx="513.517" cy="525.606" r="1.407" fill="#fff" opacity=".689"/><circle cx="333.724" cy="508.394" r="2.103" fill="#fff" opacity=".771"/><circle cx="400.986" cy="707.358" r="2.409" fill="#4affff" opacity=".455"/><circle cx="475.586" cy="563.329" r="1.272" fill="#fff" opacity=".304"/><circle cx="258.487" cy="647.569" r="1.22" fill="#fff" opacity=".518"/><circle cx="510.696" cy="496.632" r="1.898" fill="#fff" opacity=".537"/><circle cx="615.58" cy="551.9" r="1.155" fill="#fff" opacity=".36"/><circle cx="336.867" cy="715.868" r=".846" fill="#4affff" opacity=".589"/><circle cx="716.095" cy="621.939" r=".923" fill="#fff" opacity=".73"/><circle cx="523.923" cy="504.115" r="1.109" fill="#fff" opacity=".487"/><circle cx="485.401" cy="495.707" r="1.954" fill="#fff" opacity=".732"/><circle cx="316.804" cy="306.838" r="2.438" fill="#fff" opacity=".987"/><circle cx="429.075" cy="544.474" r="2.199" fill="#4affff" opacity=".819"/><circle cx="502.712" cy="500.866" r="1.76" fill="#fff" opacity=".643"/><circle cx="366.153" cy="665.247" r=".59" fill="#fff" opacity=".744"/><circle cx="606.421" cy="462.989" r="2.276" fill="#fff" opacity=".485"/><circle cx="243.23" cy="598.843" r="1.336" fill="#fff" opacity=".987"/><circle cx="499.924" cy="500.104" r="1.895" fill="#4affff" opacity=".574"/><circle cx="702.745" cy="430.575" r="2.09" fill="#fff" opacity=".454"/><circle cx="548.741" cy="698.1" r="1.541" fill="#fff" opacity=".741"/><circle cx="405.141" cy="361.646" r=".828" fill="#fff" opacity=".33"/><circle cx="611.71" cy="349.26" r=".81" fill="#fff" opacity=".538"/><circle cx="719.958" cy="396.689" r=".646" fill="#4affff" opacity=".32"/><circle cx="547.769" cy="511.014" r="1.067" fill="#fff" opacity=".553"/><circle cx="465.041" cy="426.499" r="1.106" fill="#fff" opacity=".279"/><circle cx="661.532" cy="457.64" r=".508" fill="#fff" opacity=".834"/><circle cx="508.454" cy="709.614" r="2.203" fill="#fff" opacity=".249"/><circle cx="520.004" cy="432.731" r=".538" fill="#4affff" opacity=".696"/><circle cx="802.366" cy="340.046" r="1.584" fill="#fff" opacity=".685"/><circle cx="490.409" cy="519.801" r=".589" fill="#fff" opacity=".909"/><circle cx="401.248" cy="524.671" r=".85" fill="#fff" opacity=".393"/><circle cx="496.29" cy="479.132" r="1.156" fill="#fff" opacity=".277"/><circle cx="583.725" cy="598.219" r="1.881" fill="#4affff" opacity=".646"/><circle cx="305.366" cy="714.405" r="1.065" fill="#fff" opacity=".796"/><circle cx="387.371" cy="551.04" r="2.261" fill="#fff" opacity=".875"/><circle cx="223.921" cy="458.675" r="1.936" fill="#fff" opacity=".335"/><circle cx="633.669" cy="381.219" r="1.954" fill="#fff" opacity=".953"/><circle cx="313.329" cy="422.173" r="1.043" fill="#4affff" opacity=".513"/><circle cx="503.15" cy="503.226" r="1.973" fill="#fff" opacity=".276"/><circle cx="381.029" cy="655.715" r="2.163" fill="#fff" opacity=".263"/><circle cx="250.431" cy="693.953" r="1.247" fill="#fff" opacity=".213"/><circle cx="355.743" cy="543.892" r="2.102" fill="#fff" opacity=".257"/></svg>