<svg width="1920" height="1920" viewBox="0 0 1000 1000" xmlns="http://www.w3.org/2000/svg">
      <rect width="1000" height="1000" fill="#0a0a2a"/>
      <circle cx="340" cy="699" r="0.5845307186157613" fill="white" opacity="0.8808771261222998"/><circle cx="634" cy="237" r="1.5165055204431945" fill="white" opacity="0.7595103880764688"/><circle cx="724" cy="452" r="0.3999314858421195" fill="white" opacity="0.31046972568010084"/><circle cx="836" cy="757" r="0.2179169917753448" fill="white" opacity="0.5649150781062253"/><circle cx="912" cy="981" r="1.6187819739940377" fill="white" opacity="0.3682713446501129"/><circle cx="144" cy="764" r="0.861966429689337" fill="white" opacity="0.6698812297028321"/><circle cx="230" cy="369" r="1.218292925583188" fill="white" opacity="0.62934745319459"/><circle cx="550" cy="155" r="0.21062470726804033" fill="white" opacity="0.39744624087410646"/><circle cx="866" cy="108" r="1.4610339643256107" fill="white" opacity="0.7036212516853593"/><circle cx="252" cy="473" r="0.6187161615424559" fill="white" opacity="0.4699675917933535"/><circle cx="766" cy="832" r="1.4824894419542969" fill="white" opacity="0.7999248035036344"/><circle cx="543" cy="63" r="1.5012299426059361" fill="white" opacity="0.3955844577861801"/><circle cx="99" cy="558" r="1.287913306956235" fill="white" opacity="0.9696064275589737"/><circle cx="868" cy="80" r="1.4826155542553696" fill="white" opacity="0.4394498694134582"/><circle cx="395" cy="399" r="0.5587984281012726" fill="white" opacity="0.6889948705889802"/><circle cx="474" cy="722" r="1.4907376498911178" fill="white" opacity="0.6011639390902273"/><circle cx="997" cy="423" r="0.6697089366660887" fill="white" opacity="0.9867742950213259"/><circle cx="731" cy="516" r="1.442063747156762" fill="white" opacity="0.6645871849881932"/><circle cx="439" cy="727" r="0.2858422698964433" fill="white" opacity="0.5130516029777483"/><circle cx="889" cy="996" r="1.002630766474941" fill="white" opacity="0.5541224858613049"/><circle cx="547" cy="295" r="0.4911600400983363" fill="white" opacity="0.8015600277796922"/><circle cx="935" cy="15" r="0.5609893596316091" fill="white" opacity="0.9401976323669476"/><circle cx="591" cy="329" r="1.215213685882907" fill="white" opacity="0.5930730104151885"/><circle cx="152" cy="879" r="1.5540674680817135" fill="white" opacity="0.5058486951260135"/><circle cx="440" cy="292" r="1.6827290376281305" fill="white" opacity="0.5846924200336157"/><circle cx="653" cy="586" r="1.1190701267972065" fill="white" opacity="0.6423473272001019"/><circle cx="410" cy="79" r="1.1596575265864852" fill="white" opacity="0.4596846923474076"/><circle cx="762" cy="529" r="0.3899541127119894" fill="white" opacity="0.42244226696162845"/><circle cx="817" cy="271" r="0.32437573207710907" fill="white" opacity="0.6907045254476807"/><circle cx="847" cy="198" r="0.8249919839588493" fill="white" opacity="0.6637610679375872"/><circle cx="639" cy="400" r="0.4077329578582663" fill="white" opacity="0.5697819719933255"/><circle cx="499" cy="175" r="0.4883784873363704" fill="white" opacity="0.7861759037660884"/><circle cx="197" cy="958" r="0.709481233440711" fill="white" opacity="0.5375354732278192"/><circle cx="653" cy="349" r="0.38968400999748004" fill="white" opacity="0.8630011788268217"/><circle cx="214" cy="97" r="0.23720012234136495" fill="white" opacity="0.6314167475924725"/><circle cx="444" cy="140" r="0.4856769672705518" fill="white" opacity="0.5937481700517467"/><circle cx="29" cy="854" r="1.164865411897729" fill="white" opacity="0.8056266241095771"/><circle cx="643" cy="514" r="0.5455441800535998" fill="white" opacity="0.5852757896961989"/><circle cx="133" cy="113" r="1.2431478413975283" fill="white" opacity="0.3212358548131824"/><circle cx="798" cy="202" r="1.3427171059784964" fill="white" opacity="0.6862869196419962"/><circle cx="839" cy="736" r="1.2336496570044764" fill="white" opacity="0.4881785630138418"/><circle cx="30" cy="966" r="1.6305871163747043" fill="white" opacity="0.8309611474114222"/><circle cx="401" cy="883" r="0.48784514247482985" fill="white" opacity="0.5883455288168284"/><circle cx="168" cy="286" r="1.1946011536450525" fill="white" opacity="0.6100804922713283"/><circle cx="535" cy="751" r="1.0033433716237663" fill="white" opacity="0.35393926480216525"/><circle cx="517" cy="683" r="1.4562211724336336" fill="white" opacity="0.5012918393613552"/><circle cx="999" cy="37" r="0.8581982717084393" fill="white" opacity="0.7408508650225146"/><circle cx="572" cy="941" r="1.1920203313990834" fill="white" opacity="0.4034552625627458"/><circle cx="950" cy="130" r="0.9363510762261145" fill="white" opacity="0.37735651456155506"/><circle cx="183" cy="110" r="0.6598113577413047" fill="white" opacity="0.7462985110694553"/><circle cx="924" cy="900" r="1.6468021365170131" fill="white" opacity="0.5561746133788132"/><circle cx="224" cy="124" r="0.5720186528639088" fill="white" opacity="0.6166923556381798"/><circle cx="851" cy="528" r="0.9931513520989841" fill="white" opacity="0.9765234919485415"/><circle cx="63" cy="649" r="1.2002883871896268" fill="white" opacity="0.7122276093114525"/><circle cx="366" cy="474" r="1.0250247225982454" fill="white" opacity="0.5749660371025023"/><circle cx="554" cy="241" r="1.0929889483641755" fill="white" opacity="0.9642477916300589"/><circle cx="420" cy="490" r="0.2871499944588322" fill="white" opacity="0.4957241228656981"/><circle cx="815" cy="420" r="0.7310015467330948" fill="white" opacity="0.7461374282495062"/><circle cx="139" cy="65" r="1.5887891535393945" fill="white" opacity="0.3627273968625745"/><circle cx="985" cy="32" r="1.4159625111550451" fill="white" opacity="0.8382738361751314"/><circle cx="98" cy="997" r="1.2628863559401078" fill="white" opacity="0.6554771599076487"/><circle cx="532" cy="633" r="0.621720760404652" fill="white" opacity="0.5397196634976686"/><circle cx="596" cy="607" r="0.6890913931094422" fill="white" opacity="0.40991088305266504"/><circle cx="907" cy="287" r="1.125206226399944" fill="white" opacity="0.7148362857539521"/><circle cx="578" cy="230" r="0.21053369360379087" fill="white" opacity="0.6591019874014012"/><circle cx="299" cy="220" r="0.4029690749400571" fill="white" opacity="0.5534516682873111"/><circle cx="813" cy="693" r="0.9918379721415325" fill="white" opacity="0.6339434992038697"/><circle cx="713" cy="775" r="0.4595261387095296" fill="white" opacity="0.49632864899031"/><circle cx="632" cy="318" r="0.36537372882920566" fill="white" opacity="0.6628361403615413"/><circle cx="91" cy="36" r="0.9950465559946242" fill="white" opacity="0.3503045234883562"/><circle cx="186" cy="149" r="0.9000153353224265" fill="white" opacity="0.7176236928753531"/><circle cx="227" cy="577" r="1.4964443783928816" fill="white" opacity="0.6263495276267539"/><circle cx="378" cy="70" r="1.6336531505573328" fill="white" opacity="0.43235807270553767"/><circle cx="385" cy="631" r="0.8063227610163113" fill="white" opacity="0.3647920218464741"/><circle cx="279" cy="119" r="0.6823286016721515" fill="white" opacity="0.4025211559053251"/><circle cx="104" cy="658" r="0.9309789909362665" fill="white" opacity="0.31811521969565354"/><circle cx="994" cy="399" r="0.7477944800815044" fill="white" opacity="0.33234830305475027"/><circle cx="482" cy="911" r="0.20908313567331588" fill="white" opacity="0.7928950730957509"/><circle cx="634" cy="13" r="1.5762094908582587" fill="white" opacity="0.8073834680737084"/><circle cx="823" cy="44" r="1.239140952896051" fill="white" opacity="0.7676593242726227"/><circle cx="994" cy="295" r="0.6743659909984994" fill="white" opacity="0.6229004500841071"/><circle cx="431" cy="522" r="1.277666943098544" fill="white" opacity="0.4109513131893216"/><circle cx="51" cy="460" r="0.83574524160519" fill="white" opacity="0.40021209350151277"/><circle cx="785" cy="833" r="0.34892483115306133" fill="white" opacity="0.9491098274677237"/><circle cx="807" cy="704" r="0.20352307747428616" fill="white" opacity="0.5442237913432928"/><circle cx="505" cy="392" r="0.8163563514230785" fill="white" opacity="0.9429789101771824"/><circle cx="513" cy="952" r="1.5866462015019824" fill="white" opacity="0.3744472995043332"/><circle cx="862" cy="446" r="0.5416795578300546" fill="white" opacity="0.3305124859454235"/><circle cx="999" cy="331" r="0.9541921443379391" fill="white" opacity="0.5203058199078133"/><circle cx="371" cy="132" r="0.48398286824243214" fill="white" opacity="0.47724423675266264"/><circle cx="185" cy="154" r="1.6500329490783086" fill="white" opacity="0.9061961217548975"/><circle cx="290" cy="559" r="1.257731350106309" fill="white" opacity="0.43951245833865826"/><circle cx="990" cy="281" r="0.31105823382961156" fill="white" opacity="0.9615943850426025"/><circle cx="124" cy="954" r="1.1708445618836794" fill="white" opacity="0.8974343636852262"/><circle cx="909" cy="949" r="0.589480951498311" fill="white" opacity="0.34400915396484455"/><circle cx="189" cy="508" r="1.5058315677520118" fill="white" opacity="0.4050035280252102"/><circle cx="761" cy="872" r="0.9627958568741479" fill="white" opacity="0.45919134413602264"/><circle cx="399" cy="808" r="0.6811203446650076" fill="white" opacity="0.4677999542075591"/><circle cx="227" cy="235" r="1.253742058700357" fill="white" opacity="0.8101982766770444"/><circle cx="710" cy="164" r="0.21438837338236577" fill="white" opacity="0.9290082889062203"/><circle cx="878" cy="531" r="0.41255921717857064" fill="white" opacity="0.3276199287293144"/><circle cx="406" cy="163" r="0.6242382094785284" fill="white" opacity="0.5309156832230624"/><circle cx="419" cy="480" r="0.5742904995563247" fill="white" opacity="0.5575667349621001"/><circle cx="850" cy="407" r="1.5966463279887504" fill="white" opacity="0.8023631496417747"/><circle cx="552" cy="918" r="1.0396462042322256" fill="white" opacity="0.5645063058534184"/><circle cx="776" cy="196" r="1.5516438135816157" fill="white" opacity="0.4719602871360731"/><circle cx="970" cy="695" r="0.6537528786621447" fill="white" opacity="0.9207587106720512"/><circle cx="315" cy="570" r="0.41937124235222073" fill="white" opacity="0.33477330368008673"/><circle cx="41" cy="847" r="0.4170291477291987" fill="white" opacity="0.4782400390129921"/><circle cx="549" cy="79" r="1.323286096026209" fill="white" opacity="0.5326696273396044"/><circle cx="657" cy="388" r="1.2955682000664888" fill="white" opacity="0.6894662190164915"/><circle cx="233" cy="465" r="1.520100786527752" fill="white" opacity="0.9795534732705096"/><circle cx="145" cy="718" r="0.5555691268367347" fill="white" opacity="0.9357672539738757"/><circle cx="317" cy="500" r="1.447426573374745" fill="white" opacity="0.537507940018444"/><circle cx="986" cy="775" r="1.442641854266431" fill="white" opacity="0.9623534337520427"/><circle cx="53" cy="550" r="1.253083038018339" fill="white" opacity="0.4537692093980691"/><circle cx="46" cy="398" r="1.516278077567379" fill="white" opacity="0.6854306374249459"/><circle cx="896" cy="709" r="0.41390374667135127" fill="white" opacity="0.8926856518998447"/><circle cx="93" cy="502" r="1.2900290329612456" fill="white" opacity="0.3525731461212883"/><circle cx="71" cy="594" r="1.3986093420377252" fill="white" opacity="0.4592300657371414"/><circle cx="268" cy="119" r="1.3584438604118312" fill="white" opacity="0.7201725222892561"/><circle cx="440" cy="546" r="1.679702656809215" fill="white" opacity="0.4403108103331893"/><circle cx="408" cy="311" r="0.5452507461686902" fill="white" opacity="0.8921189993788436"/><circle cx="440" cy="100" r="0.6050472091661336" fill="white" opacity="0.49416833821364137"/><circle cx="132" cy="987" r="1.118539868052306" fill="white" opacity="0.7578130299175574"/><circle cx="652" cy="89" r="1.5963432374907571" fill="white" opacity="0.6446636400616894"/><circle cx="825" cy="416" r="0.8238011408548052" fill="white" opacity="0.8435098340233242"/><circle cx="143" cy="636" r="0.45676834809149053" fill="white" opacity="0.36976866668927966"/><circle cx="762" cy="872" r="0.6357113249031112" fill="white" opacity="0.8031932739441761"/><circle cx="486" cy="591" r="0.5314518023021158" fill="white" opacity="0.6824629545980125"/><circle cx="205" cy="635" r="0.9176135641670149" fill="white" opacity="0.5277731158591921"/><circle cx="772" cy="182" r="1.694333937041416" fill="white" opacity="0.6198313060085596"/><circle cx="436" cy="374" r="1.113146556288788" fill="white" opacity="0.7156423034931758"/><circle cx="40" cy="208" r="0.6672178221204552" fill="white" opacity="0.9314908059700155"/><circle cx="679" cy="617" r="0.3428745098383525" fill="white" opacity="0.737076016705078"/><circle cx="70" cy="374" r="1.0979191478865447" fill="white" opacity="0.3491581545471832"/><circle cx="179" cy="464" r="1.212163393883142" fill="white" opacity="0.4692555343842988"/><circle cx="289" cy="286" r="1.3464429652914058" fill="white" opacity="0.834946346320401"/><circle cx="549" cy="314" r="0.5508520549416152" fill="white" opacity="0.47663231106824205"/><circle cx="673" cy="973" r="1.166007758688385" fill="white" opacity="0.4780275318732204"/><circle cx="514" cy="317" r="1.1155719233354635" fill="white" opacity="0.725323931814631"/><circle cx="550" cy="763" r="1.4359455730222603" fill="white" opacity="0.8438437090809576"/><circle cx="634" cy="311" r="0.8945125351504322" fill="white" opacity="0.36818681863275693"/><circle cx="506" cy="931" r="1.145422674605702" fill="white" opacity="0.6123505434284087"/><circle cx="83" cy="606" r="1.67739191872704" fill="white" opacity="0.9557188241301764"/><circle cx="244" cy="325" r="0.8863247330060346" fill="white" opacity="0.8402511743776122"/><circle cx="180" cy="74" r="1.4770831990234259" fill="white" opacity="0.8997620640122415"/><circle cx="611" cy="454" r="1.1300317398573392" fill="white" opacity="0.7452749010303855"/><circle cx="650" cy="370" r="1.6126005832689143" fill="white" opacity="0.9010177157231392"/><circle cx="119" cy="810" r="0.45199907654080546" fill="white" opacity="0.40728222538015213"/><circle cx="101" cy="50" r="0.7975129215954295" fill="white" opacity="0.7285334195727641"/><circle cx="179" cy="449" r="0.6948777631201499" fill="white" opacity="0.6295292689858469"/><circle cx="846" cy="943" r="0.48079349282044187" fill="white" opacity="0.7567641653942044"/><circle cx="248" cy="816" r="1.237794119516691" fill="white" opacity="0.3325560200241505"/><circle cx="948" cy="879" r="1.3801615691737992" fill="white" opacity="0.3146783379745575"/><circle cx="362" cy="544" r="0.2232486420187863" fill="white" opacity="0.3190314399740737"/><circle cx="194" cy="167" r="1.6968582208532565" fill="white" opacity="0.643474121644434"/><circle cx="377" cy="333" r="1.4775522357819444" fill="white" opacity="0.5664563597454954"/><circle cx="435" cy="134" r="1.0433200885998553" fill="white" opacity="0.4542953025985882"/><circle cx="429" cy="298" r="0.8732709991193335" fill="white" opacity="0.8385149938118799"/><circle cx="576" cy="355" r="0.2503010303853372" fill="white" opacity="0.8847616752777165"/><circle cx="605" cy="712" r="0.6685111740261744" fill="white" opacity="0.40735366456684413"/><circle cx="0" cy="340" r="0.5067212203037088" fill="white" opacity="0.4985292577538096"/><circle cx="76" cy="543" r="1.5155842667057975" fill="white" opacity="0.5001663917045491"/><circle cx="736" cy="174" r="0.6181418733269977" fill="white" opacity="0.8702424183212427"/><circle cx="127" cy="601" r="0.3537005254236633" fill="white" opacity="0.8545231461449889"/><circle cx="253" cy="105" r="1.0363490397523072" fill="white" opacity="0.36049900729278384"/><circle cx="760" cy="992" r="1.182572127675882" fill="white" opacity="0.6068942205658832"/><circle cx="278" cy="702" r="0.7814522371207016" fill="white" opacity="0.6479689693418613"/><circle cx="737" cy="904" r="1.1516928152332482" fill="white" opacity="0.8124964589913704"/><circle cx="380" cy="254" r="0.23146019245882749" fill="white" opacity="0.8426882810229754"/><circle cx="83" cy="450" r="0.8751030830813156" fill="white" opacity="0.5889484035032047"/><circle cx="929" cy="422" r="1.1719149126884676" fill="white" opacity="0.96696054447913"/><circle cx="301" cy="263" r="0.9938885458511855" fill="white" opacity="0.38785797663950505"/><circle cx="819" cy="17" r="0.2964480828400306" fill="white" opacity="0.37306242468094925"/><circle cx="715" cy="250" r="0.9903723319597633" fill="white" opacity="0.9435862570378568"/><circle cx="1" cy="654" r="1.4715195110770605" fill="white" opacity="0.3682798004227853"/><circle cx="262" cy="907" r="1.5122878295564304" fill="white" opacity="0.8724222220551465"/><circle cx="645" cy="517" r="0.6253329776955128" fill="white" opacity="0.8612383132528785"/><circle cx="574" cy="986" r="0.8573093157124896" fill="white" opacity="0.4236669351302184"/><circle cx="734" cy="949" r="1.5537199534149886" fill="white" opacity="0.36443196651709087"/><circle cx="408" cy="474" r="0.5791984292249432" fill="white" opacity="0.6532379514731901"/><circle cx="762" cy="427" r="1.2576467106295761" fill="white" opacity="0.5796872048498816"/><circle cx="730" cy="316" r="0.6305055680901839" fill="white" opacity="0.6130374068093005"/><circle cx="16" cy="586" r="0.5444392072686055" fill="white" opacity="0.6783992774071171"/><circle cx="940" cy="175" r="1.417449678763737" fill="white" opacity="0.8053256811311365"/><circle cx="134" cy="18" r="0.7405040049512674" fill="white" opacity="0.4242250111626886"/><circle cx="825" cy="614" r="1.4515841023509573" fill="white" opacity="0.4136752803089956"/><circle cx="685" cy="551" r="0.3677834825735153" fill="white" opacity="0.9696174951812373"/><circle cx="205" cy="448" r="1.0476064513423546" fill="white" opacity="0.5403894062940838"/><circle cx="425" cy="662" r="0.3653240053971169" fill="white" opacity="0.3119235618247462"/><circle cx="985" cy="979" r="0.9828451716678963" fill="white" opacity="0.6329336069960041"/><circle cx="881" cy="591" r="0.25175509916947897" fill="white" opacity="0.6464510936223509"/><circle cx="292" cy="173" r="0.22336604471392923" fill="white" opacity="0.8803836928284368"/><circle cx="211" cy="530" r="0.9772287503373891" fill="white" opacity="0.8574536620256228"/><circle cx="105" cy="58" r="1.2131253699420068" fill="white" opacity="0.7271459787426662"/><circle cx="842" cy="705" r="0.2705967135163077" fill="white" opacity="0.6514912075727961"/><circle cx="732" cy="409" r="0.6190049610048891" fill="white" opacity="0.5950651869402512"/><circle cx="959" cy="619" r="0.9470579885859527" fill="white" opacity="0.7867539083121011"/><circle cx="958" cy="7" r="0.8293913647348454" fill="white" opacity="0.37700805958113803"/><circle cx="380" cy="962" r="0.5949346833635429" fill="white" opacity="0.3714245889984641"/><circle cx="288" cy="428" r="0.8923711874123084" fill="white" opacity="0.8958403862264637"/><circle cx="755" cy="771" r="1.0236111761238214" fill="white" opacity="0.6404235299246539"/><circle cx="769" cy="337" r="1.2067747040334453" fill="white" opacity="0.8074940307232554"/><circle cx="786" cy="220" r="1.2237137746771374" fill="white" opacity="0.5699199757861333"/><circle cx="602" cy="41" r="1.0397574645143042" fill="white" opacity="0.5295122487013322"/><circle cx="549" cy="8" r="0.2293084167166321" fill="white" opacity="0.990602003180489"/><circle cx="793" cy="539" r="1.6003726876380568" fill="white" opacity="0.3013378471286077"/><circle cx="312" cy="556" r="1.679206108985326" fill="white" opacity="0.4073857466172149"/><circle cx="247" cy="453" r="1.0691415557680422" fill="white" opacity="0.7888023526194432"/><circle cx="805" cy="945" r="0.3281636649294099" fill="white" opacity="0.4505483235225732"/><circle cx="430" cy="617" r="0.8304713979024552" fill="white" opacity="0.7732253125004545"/><circle cx="684" cy="7" r="0.446467385033084" fill="white" opacity="0.4468402365115944"/><circle cx="762" cy="48" r="1.5309563113010836" fill="white" opacity="0.8292928371265635"/><circle cx="143" cy="400" r="1.1196407563895792" fill="white" opacity="0.837001296290673"/><circle cx="138" cy="689" r="1.5039783183159525" fill="white" opacity="0.42031544216627076"/><circle cx="488" cy="622" r="0.36108399149328935" fill="white" opacity="0.9797385621705672"/><circle cx="976" cy="516" r="1.378485163801235" fill="white" opacity="0.6942166214767296"/><circle cx="697" cy="574" r="0.44024993788261596" fill="white" opacity="0.7892239838260442"/><circle cx="613" cy="486" r="1.5457298910960449" fill="white" opacity="0.3637323129055301"/><circle cx="861" cy="323" r="0.9094514308491799" fill="white" opacity="0.44733649287227883"/><circle cx="373" cy="823" r="1.577820801566278" fill="white" opacity="0.5913116010723636"/><circle cx="675" cy="408" r="1.1145507237868553" fill="white" opacity="0.5418633189799489"/><circle cx="997" cy="643" r="1.6121361375706866" fill="white" opacity="0.7748443100801197"/><circle cx="328" cy="28" r="0.4111079929465297" fill="white" opacity="0.8126419563698717"/><circle cx="972" cy="913" r="0.35259213040608967" fill="white" opacity="0.5394595562523329"/><circle cx="235" cy="893" r="0.38898128964689466" fill="white" opacity="0.6854307410868155"/><circle cx="117" cy="739" r="0.8721865808958871" fill="white" opacity="0.9279044885195387"/><circle cx="105" cy="725" r="1.4794915687518324" fill="white" opacity="0.3831916980034641"/><circle cx="572" cy="953" r="0.2613395140749443" fill="white" opacity="0.5896761554134009"/><circle cx="558" cy="237" r="1.0156376283481745" fill="white" opacity="0.5625024068847239"/><circle cx="529" cy="895" r="1.2002359356996795" fill="white" opacity="0.835769734871354"/><circle cx="226" cy="842" r="1.6972466357456275" fill="white" opacity="0.42138003249717454"/><circle cx="576" cy="532" r="1.1079008412660458" fill="white" opacity="0.4431741005845272"/><circle cx="29" cy="451" r="0.49646049908868745" fill="white" opacity="0.7748452242467797"/><circle cx="11" cy="461" r="0.9319490966750614" fill="white" opacity="0.8784969561255846"/><circle cx="618" cy="366" r="0.7848624039002894" fill="white" opacity="0.3013846482238337"/><circle cx="872" cy="789" r="1.3145759826349024" fill="white" opacity="0.38276678212837"/><circle cx="268" cy="501" r="0.7188578861438895" fill="white" opacity="0.8317192045392852"/><circle cx="343" cy="295" r="0.5693704255791454" fill="white" opacity="0.9585356428635794"/><circle cx="617" cy="756" r="0.25799514125652706" fill="white" opacity="0.8402810618909773"/><circle cx="336" cy="607" r="0.9405301397132642" fill="white" opacity="0.654083403931133"/><circle cx="852" cy="740" r="1.158037096530962" fill="white" opacity="0.43256897058696564"/><circle cx="589" cy="142" r="0.9337307592914668" fill="white" opacity="0.4195087807638524"/><circle cx="116" cy="205" r="0.21983711132133082" fill="white" opacity="0.6826888938634115"/><circle cx="121" cy="949" r="0.4261375412789556" fill="white" opacity="0.45218471506852465"/><circle cx="434" cy="726" r="1.4437619587580601" fill="white" opacity="0.47266427585616577"/><circle cx="312" cy="363" r="1.6921949419663502" fill="white" opacity="0.6752040286523819"/><circle cx="376" cy="978" r="0.6280438710712777" fill="white" opacity="0.33341721582169287"/><circle cx="450" cy="923" r="1.2741678758567023" fill="white" opacity="0.9888574409199411"/><circle cx="965" cy="503" r="1.544897074334034" fill="white" opacity="0.8148722521911314"/><circle cx="432" cy="261" r="1.3446124792925402" fill="white" opacity="0.4566175467498509"/><circle cx="680" cy="265" r="0.3659014123861208" fill="white" opacity="0.3075197285941015"/><circle cx="909" cy="100" r="0.8159216632980981" fill="white" opacity="0.7235416460715676"/><circle cx="249" cy="508" r="1.142829748654074" fill="white" opacity="0.6881660675447607"/><circle cx="172" cy="861" r="1.3443271397328573" fill="white" opacity="0.8920966441696585"/><circle cx="842" cy="188" r="0.5816357227527129" fill="white" opacity="0.40540881628579156"/><circle cx="180" cy="65" r="0.744137308020905" fill="white" opacity="0.9065908668441236"/><circle cx="717" cy="976" r="0.8054337907469649" fill="white" opacity="0.5796851373475067"/><circle cx="244" cy="427" r="0.2702573085337671" fill="white" opacity="0.9389001838257434"/><circle cx="925" cy="264" r="0.6154866776739418" fill="white" opacity="0.43735621585014794"/><circle cx="833" cy="844" r="1.498483815704544" fill="white" opacity="0.8043577336209251"/><circle cx="856" cy="951" r="0.9835273761843664" fill="white" opacity="0.89925584472652"/><circle cx="230" cy="44" r="1.3487423695976506" fill="white" opacity="0.35605926527674714"/><circle cx="937" cy="362" r="1.5246865822903453" fill="white" opacity="0.7362902869239738"/><circle cx="627" cy="819" r="1.0550308127406918" fill="white" opacity="0.9386262373867951"/><circle cx="756" cy="626" r="0.7199714704023348" fill="white" opacity="0.35685376469436414"/><circle cx="106" cy="120" r="1.229977142599688" fill="white" opacity="0.9064349767667801"/><circle cx="649" cy="4" r="1.1965255950304017" fill="white" opacity="0.4284288842625304"/><circle cx="491" cy="370" r="0.9789195158416686" fill="white" opacity="0.9479045331449685"/><circle cx="253" cy="207" r="1.461025125271745" fill="white" opacity="0.3436542809516835"/><circle cx="669" cy="749" r="0.35482140631399933" fill="white" opacity="0.38927228023807964"/><circle cx="100" cy="338" r="0.4035434415021674" fill="white" opacity="0.43828231017758407"/><circle cx="15" cy="707" r="1.3007828804695991" fill="white" opacity="0.9313629072296288"/><circle cx="89" cy="500" r="0.34681027450766017" fill="white" opacity="0.4339653211208695"/><circle cx="46" cy="210" r="0.23104142514987763" fill="white" opacity="0.3369119964819077"/><circle cx="647" cy="880" r="0.7110484500770737" fill="white" opacity="0.9895261530316157"/><circle cx="278" cy="97" r="0.2336355006031025" fill="white" opacity="0.4154500903310151"/><circle cx="866" cy="622" r="1.0298242942954965" fill="white" opacity="0.3858479305871046"/><circle cx="735" cy="279" r="1.2425972263730636" fill="white" opacity="0.7628331375305284"/><circle cx="838" cy="356" r="0.4183528528544483" fill="white" opacity="0.7938650076843692"/><circle cx="469" cy="625" r="1.2613396335968143" fill="white" opacity="0.4215780683505439"/><circle cx="990" cy="316" r="1.2384134856698723" fill="white" opacity="0.678568612422926"/><circle cx="173" cy="157" r="0.8553590456002067" fill="white" opacity="0.7653936564301025"/><circle cx="906" cy="140" r="1.5776301374419177" fill="white" opacity="0.7664941870246182"/><circle cx="169" cy="866" r="1.1271168842801864" fill="white" opacity="0.93656794640541"/><circle cx="625" cy="153" r="1.0179035276978814" fill="white" opacity="0.9094846978400615"/><circle cx="429" cy="441" r="1.0021383128381383" fill="white" opacity="0.5234470916554447"/><circle cx="866" cy="548" r="1.353409883478188" fill="white" opacity="0.43062760625981916"/><circle cx="421" cy="306" r="1.4889598596995617" fill="white" opacity="0.5002675060274404"/><circle cx="3" cy="371" r="1.0427954577348375" fill="white" opacity="0.9923597366028789"/><circle cx="833" cy="308" r="0.6003600848955302" fill="white" opacity="0.9864364338921565"/><circle cx="653" cy="100" r="0.22545858542894298" fill="white" opacity="0.7044377074845405"/><circle cx="390" cy="192" r="0.7655886880983227" fill="white" opacity="0.6320328963813546"/><circle cx="276" cy="768" r="1.2194974873529227" fill="white" opacity="0.5780392450591623"/><circle cx="839" cy="945" r="0.6730755902973633" fill="white" opacity="0.9061555203636591"/><circle cx="4" cy="767" r="0.9143700247484916" fill="white" opacity="0.3378354528225206"/><circle cx="849" cy="220" r="1.0302918238984853" fill="white" opacity="0.3572260785849007"/><circle cx="575" cy="120" r="1.6752080671025238" fill="white" opacity="0.9530227103431337"/><circle cx="57" cy="186" r="1.3367848911881723" fill="white" opacity="0.9283071068714182"/><circle cx="128" cy="941" r="1.621854222762316" fill="white" opacity="0.6139476430824515"/><circle cx="376" cy="573" r="0.26121032930932114" fill="white" opacity="0.6441074999961057"/><circle cx="8" cy="434" r="1.5176195419952558" fill="white" opacity="0.9852612163077443"/><circle cx="801" cy="841" r="0.2327310189166853" fill="white" opacity="0.47142664750337154"/><circle cx="313" cy="988" r="1.419669906397515" fill="white" opacity="0.37951143167717705"/><circle cx="592" cy="474" r="0.5585117150444248" fill="white" opacity="0.836954671177041"/><circle cx="997" cy="391" r="0.8977130038212715" fill="white" opacity="0.792309052621911"/><circle cx="6" cy="200" r="0.5643545001706547" fill="white" opacity="0.8526273662456452"/><circle cx="920" cy="858" r="0.6045415744234677" fill="white" opacity="0.6146956981073681"/><circle cx="271" cy="931" r="0.7239759588898742" fill="white" opacity="0.6862152172219611"/><circle cx="244" cy="951" r="0.7749881303195048" fill="white" opacity="0.714507069217259"/><circle cx="30" cy="319" r="1.6134302116803292" fill="white" opacity="0.683345904596159"/><circle cx="805" cy="347" r="1.3976267738484671" fill="white" opacity="0.6844674194986491"/><circle cx="189" cy="902" r="0.22005055531828116" fill="white" opacity="0.8343178160899634"/><circle cx="150" cy="16" r="0.8874947561055273" fill="white" opacity="0.8152987433896566"/><circle cx="971" cy="342" r="0.9008713806832" fill="white" opacity="0.6674084966193151"/><circle cx="406" cy="849" r="1.0769847412047397" fill="white" opacity="0.30536972415861396"/><circle cx="160" cy="876" r="1.3899427191699676" fill="white" opacity="0.42723956301763083"/><circle cx="465" cy="294" r="1.6379722694038088" fill="white" opacity="0.8723120338072625"/><circle cx="486" cy="124" r="0.6483092761027922" fill="white" opacity="0.46498804141167777"/><circle cx="758" cy="318" r="1.0970531896322162" fill="white" opacity="0.9837720082024479"/><circle cx="556" cy="868" r="0.6331723036937145" fill="white" opacity="0.5572187365551016"/><circle cx="74" cy="748" r="0.2704978640315611" fill="white" opacity="0.44277158630583585"/><circle cx="216" cy="667" r="0.20114255240735796" fill="white" opacity="0.9622236302732485"/><circle cx="362" cy="520" r="1.3479938810970418" fill="white" opacity="0.9391575430231698"/><circle cx="904" cy="718" r="0.664880478293308" fill="white" opacity="0.7652025169753585"/><circle cx="469" cy="195" r="1.1467568255833092" fill="white" opacity="0.8302844435656234"/><circle cx="343" cy="307" r="1.2500885246779199" fill="white" opacity="0.740439600131956"/><circle cx="647" cy="825" r="1.082053710606902" fill="white" opacity="0.5923655187524997"/><circle cx="136" cy="158" r="0.9198978257357637" fill="white" opacity="0.30724101317794733"/><circle cx="993" cy="969" r="1.3237807976377518" fill="white" opacity="0.555296322401348"/><circle cx="28" cy="351" r="1.2769643030278144" fill="white" opacity="0.9335993678816157"/><circle cx="879" cy="732" r="0.9014531215338604" fill="white" opacity="0.5062457526764448"/><circle cx="252" cy="167" r="1.2879211117482814" fill="white" opacity="0.9982857937629819"/><circle cx="462" cy="878" r="1.6525314057216405" fill="white" opacity="0.6717690701918284"/><circle cx="365" cy="387" r="0.23419445106150388" fill="white" opacity="0.7219993938564884"/><circle cx="798" cy="378" r="0.7419011606699955" fill="white" opacity="0.7812934379922689"/><circle cx="286" cy="19" r="1.0955473602475096" fill="white" opacity="0.5230342104647359"/><circle cx="822" cy="831" r="1.0537488448522765" fill="white" opacity="0.3127771830345615"/><circle cx="463" cy="988" r="1.14452133777751" fill="white" opacity="0.6777693134767602"/><circle cx="513" cy="962" r="0.6105373382279653" fill="white" opacity="0.4057276025733029"/><circle cx="185" cy="697" r="0.41948654418293024" fill="white" opacity="0.6495159190737019"/><circle cx="887" cy="163" r="1.0155986528225915" fill="white" opacity="0.5426897148635201"/><circle cx="121" cy="129" r="0.536867218487409" fill="white" opacity="0.3559233466189087"/><circle cx="876" cy="471" r="0.2321848302406661" fill="white" opacity="0.7252302681854561"/><circle cx="500" cy="906" r="1.647621039419525" fill="white" opacity="0.9792278209190264"/><circle cx="392" cy="356" r="0.9349516018918449" fill="white" opacity="0.46679738457217024"/><circle cx="842" cy="140" r="0.872238563355594" fill="white" opacity="0.37582310495391835"/><circle cx="758" cy="921" r="1.0494324784995925" fill="white" opacity="0.9182488463663705"/><circle cx="829" cy="917" r="1.6590932332764414" fill="white" opacity="0.4157286355103128"/><circle cx="30" cy="108" r="1.0368296456291757" fill="white" opacity="0.684325393425697"/><circle cx="626" cy="92" r="1.484479753736015" fill="white" opacity="0.4021470236138435"/><circle cx="458" cy="49" r="1.491242357588879" fill="white" opacity="0.7486202859571102"/><circle cx="341" cy="167" r="0.5919907657283714" fill="white" opacity="0.8673232027853357"/><circle cx="506" cy="132" r="0.9684949286958378" fill="white" opacity="0.7075611654228553"/><circle cx="382" cy="451" r="1.064250213664261" fill="white" opacity="0.3682875249922486"/><circle cx="563" cy="167" r="0.9593505797921034" fill="white" opacity="0.8640672655548152"/><circle cx="433" cy="710" r="1.330454202113696" fill="white" opacity="0.5306851138237253"/><circle cx="354" cy="805" r="1.1607812553006458" fill="white" opacity="0.48072177538973637"/><circle cx="902" cy="763" r="0.22296313360031378" fill="white" opacity="0.51861336143573"/><circle cx="841" cy="776" r="0.7024672031065526" fill="white" opacity="0.33777937103176653"/><circle cx="785" cy="207" r="1.176261559839093" fill="white" opacity="0.8139874947901962"/><circle cx="390" cy="468" r="1.236173756822309" fill="white" opacity="0.6522906299216734"/><circle cx="824" cy="385" r="1.4996553354489832" fill="white" opacity="0.6979201706863885"/><circle cx="28" cy="818" r="0.5295438764644138" fill="white" opacity="0.8914494676946016"/><circle cx="546" cy="751" r="0.722217169513131" fill="white" opacity="0.5337823698313964"/><circle cx="794" cy="163" r="0.8332617801779754" fill="white" opacity="0.7139513821513392"/><circle cx="878" cy="894" r="1.4069294657962812" fill="white" opacity="0.5969045147063279"/><circle cx="231" cy="836" r="0.765858761309844" fill="white" opacity="0.517018483093665"/><circle cx="587" cy="731" r="1.0794068808216235" fill="white" opacity="0.7343355167892471"/><circle cx="480" cy="179" r="0.3043277877365416" fill="white" opacity="0.5470833754706477"/><circle cx="905" cy="516" r="1.13845482432844" fill="white" opacity="0.7712532368620426"/><circle cx="230" cy="671" r="1.1281571609160754" fill="white" opacity="0.6451854952568584"/><circle cx="530" cy="527" r="1.2057566167800247" fill="white" opacity="0.9711877454500311"/><circle cx="64" cy="837" r="0.600245042247556" fill="white" opacity="0.4620455698307143"/><circle cx="90" cy="749" r="0.32899811485849123" fill="white" opacity="0.41771702268099015"/><circle cx="134" cy="694" r="0.5375174995236982" fill="white" opacity="0.5347842342702647"/><circle cx="640" cy="504" r="1.1883166922473853" fill="white" opacity="0.9005255892262443"/><circle cx="628" cy="154" r="0.3982386083375365" fill="white" opacity="0.6533263886199858"/><circle cx="116" cy="855" r="1.4524387373966237" fill="white" opacity="0.8967742420782476"/><circle cx="207" cy="182" r="0.6573513866891321" fill="white" opacity="0.5389372292407324"/><circle cx="803" cy="276" r="0.6339847723053309" fill="white" opacity="0.5887590619402456"/><circle cx="927" cy="584" r="0.6864928427061392" fill="white" opacity="0.8777755808412657"/><circle cx="343" cy="723" r="0.995742464139489" fill="white" opacity="0.5303511848286729"/><circle cx="875" cy="468" r="0.9946695203228222" fill="white" opacity="0.3763187460971754"/><circle cx="799" cy="454" r="1.2046934623844188" fill="white" opacity="0.5563260862036872"/><circle cx="359" cy="356" r="0.7155263556045552" fill="white" opacity="0.4634838999148059"/><circle cx="176" cy="622" r="0.4753721376648566" fill="white" opacity="0.5092959275941045"/><circle cx="522" cy="412" r="1.6520705536102187" fill="white" opacity="0.6487216732343652"/><circle cx="92" cy="55" r="1.2886257814063315" fill="white" opacity="0.642649430580637"/><circle cx="275" cy="975" r="1.014795768959747" fill="white" opacity="0.798818640486392"/><circle cx="232" cy="326" r="1.4904972505595604" fill="white" opacity="0.3245359027593969"/><circle cx="735" cy="987" r="0.27799565267540477" fill="white" opacity="0.6369177197431204"/><circle cx="128" cy="533" r="0.7855426421949077" fill="white" opacity="0.36457699436467467"/><circle cx="828" cy="320" r="1.001834592462153" fill="white" opacity="0.3061887979452194"/><circle cx="542" cy="97" r="1.1198900566157712" fill="white" opacity="0.6732604663683979"/><circle cx="800" cy="19" r="1.2615776456631622" fill="white" opacity="0.40626875314014926"/><circle cx="905" cy="49" r="0.3851945439962651" fill="white" opacity="0.6877177875708695"/><circle cx="624" cy="439" r="1.449362986276442" fill="white" opacity="0.5199744906503083"/><circle cx="653" cy="964" r="0.5251791121634644" fill="white" opacity="0.5339724427376539"/><circle cx="811" cy="113" r="1.5720506228505595" fill="white" opacity="0.41514523088164723"/><circle cx="861" cy="308" r="1.4557291273900528" fill="white" opacity="0.49352519606560996"/><circle cx="401" cy="427" r="1.0981792755278506" fill="white" opacity="0.5517342044864894"/><circle cx="774" cy="547" r="0.5291952811363989" fill="white" opacity="0.40294741376056936"/><circle cx="433" cy="958" r="0.7970554341083225" fill="white" opacity="0.8695182296275492"/><circle cx="351" cy="589" r="1.5868177758484343" fill="white" opacity="0.6697623006001208"/><circle cx="946" cy="85" r="1.6349661006970269" fill="white" opacity="0.9265585674073049"/><circle cx="857" cy="193" r="0.5838233356733726" fill="white" opacity="0.4108755638482229"/><circle cx="371" cy="598" r="0.20425376476262852" fill="white" opacity="0.9137951293439004"/><circle cx="115" cy="876" r="0.9151760807429825" fill="white" opacity="0.41382784746822654"/><circle cx="324" cy="418" r="0.9435795564477301" fill="white" opacity="0.6725027360161796"/><circle cx="634" cy="982" r="1.4572850394777164" fill="white" opacity="0.4192785165432255"/><circle cx="590" cy="582" r="0.8822855702980279" fill="white" opacity="0.7178419628653576"/><circle cx="192" cy="561" r="1.338244477657392" fill="white" opacity="0.8401698676335894"/><circle cx="514" cy="466" r="0.8809475129807154" fill="white" opacity="0.423579195355532"/><circle cx="231" cy="328" r="0.5779338335978828" fill="white" opacity="0.9401326413191173"/><circle cx="628" cy="663" r="1.331669363168792" fill="white" opacity="0.4781772392300695"/><circle cx="556" cy="267" r="0.8322883306547526" fill="white" opacity="0.8357152755690933"/><circle cx="246" cy="263" r="1.1392911545723492" fill="white" opacity="0.6964696425320904"/><circle cx="66" cy="23" r="1.6654930100488163" fill="white" opacity="0.5498222777155445"/><circle cx="527" cy="679" r="0.245629592224259" fill="white" opacity="0.9320371879122409"/><circle cx="120" cy="640" r="0.28845634047096286" fill="white" opacity="0.5976814444308777"/><circle cx="602" cy="57" r="0.3827693962339798" fill="white" opacity="0.4726293835802819"/><circle cx="499" cy="811" r="0.7223828991709542" fill="white" opacity="0.6889727792451734"/><circle cx="541" cy="327" r="1.1728925522350193" fill="white" opacity="0.4893941620506677"/><circle cx="563" cy="261" r="1.6662989663557035" fill="white" opacity="0.32540542908183306"/><circle cx="780" cy="365" r="0.9876662808736332" fill="white" opacity="0.6173259950419137"/><circle cx="586" cy="512" r="1.0496033888586218" fill="white" opacity="0.7451533537083647"/><circle cx="592" cy="341" r="1.3510474716611918" fill="white" opacity="0.3731845471027946"/><circle cx="329" cy="929" r="1.1587760150605424" fill="white" opacity="0.6168097580499602"/><circle cx="157" cy="967" r="1.5992798672067903" fill="white" opacity="0.3706942084263378"/><circle cx="160" cy="748" r="1.1912245122163947" fill="white" opacity="0.4286712715358125"/><circle cx="401" cy="658" r="0.466482452276116" fill="white" opacity="0.6775834969867391"/><circle cx="104" cy="470" r="0.9759673418928378" fill="white" opacity="0.5622880993160437"/><circle cx="826" cy="890" r="0.7535840565813647" fill="white" opacity="0.91713565014681"/><circle cx="339" cy="97" r="1.323251367601596" fill="white" opacity="0.9342207287026703"/><circle cx="738" cy="509" r="1.5813948328294678" fill="white" opacity="0.898262165824419"/><circle cx="405" cy="394" r="0.9125600241482286" fill="white" opacity="0.995071139519853"/><circle cx="83" cy="859" r="1.3864630006545393" fill="white" opacity="0.742426073804286"/><circle cx="943" cy="520" r="1.6816874026376034" fill="white" opacity="0.4418006661948527"/><circle cx="530" cy="197" r="0.8295990111007718" fill="white" opacity="0.4898901197861028"/><circle cx="419" cy="440" r="0.6872862607622754" fill="white" opacity="0.8674518163925418"/><circle cx="432" cy="398" r="0.32041046206002904" fill="white" opacity="0.5951735698745956"/><circle cx="434" cy="17" r="0.5660001758301378" fill="white" opacity="0.3941389283043116"/><circle cx="118" cy="786" r="1.3514435547678205" fill="white" opacity="0.9950001319237134"/><circle cx="65" cy="234" r="0.5787349619032198" fill="white" opacity="0.41202628954354636"/><circle cx="360" cy="14" r="1.0036586354879078" fill="white" opacity="0.5638961362993682"/><circle cx="896" cy="356" r="1.1036219374747835" fill="white" opacity="0.6358898417350738"/><circle cx="418" cy="911" r="1.2659948380757553" fill="white" opacity="0.778156800609314"/><circle cx="716" cy="356" r="1.572911040345151" fill="white" opacity="0.5396056927478458"/><circle cx="313" cy="138" r="1.1584659003826119" fill="white" opacity="0.6244303196199715"/><circle cx="101" cy="214" r="1.5892173928579452" fill="white" opacity="0.6271811928025228"/><circle cx="42" cy="334" r="1.4442512887809138" fill="white" opacity="0.8368749607012089"/><circle cx="717" cy="798" r="1.1388282040796713" fill="white" opacity="0.9694851656826604"/><circle cx="616" cy="206" r="1.3525207927406393" fill="white" opacity="0.9399256196546661"/><circle cx="154" cy="470" r="1.0479976909939388" fill="white" opacity="0.4875910486674469"/><circle cx="897" cy="984" r="1.1512230279531268" fill="white" opacity="0.6415129187055728"/><circle cx="239" cy="521" r="1.183363829496962" fill="white" opacity="0.8534086032456993"/><circle cx="423" cy="339" r="1.0100251001501515" fill="white" opacity="0.9409177243285649"/><circle cx="127" cy="469" r="0.8498313330264105" fill="white" opacity="0.43337472725290205"/><circle cx="483" cy="230" r="0.8241025027686646" fill="white" opacity="0.6062509288391262"/><circle cx="764" cy="60" r="1.3033104845255081" fill="white" opacity="0.9201104309000345"/><circle cx="557" cy="800" r="1.582232545196505" fill="white" opacity="0.7890369421517256"/><circle cx="810" cy="819" r="0.5265384127603991" fill="white" opacity="0.8455563059610802"/><circle cx="213" cy="502" r="1.3327049970135836" fill="white" opacity="0.7724681673725695"/><circle cx="180" cy="206" r="1.4547260760754552" fill="white" opacity="0.7737680456639167"/><circle cx="846" cy="291" r="1.5741427907291745" fill="white" opacity="0.7742573543147322"/><circle cx="949" cy="835" r="1.6254721107100238" fill="white" opacity="0.9296508226007492"/><circle cx="127" cy="664" r="1.3350293684652745" fill="white" opacity="0.855434327032899"/><circle cx="858" cy="581" r="0.9634011750246885" fill="white" opacity="0.7629338055514765"/><circle cx="839" cy="224" r="0.5702032831829213" fill="white" opacity="0.7138125892304543"/><circle cx="722" cy="50" r="0.26365878820231653" fill="white" opacity="0.6128284594922102"/><circle cx="675" cy="97" r="1.2891437031918533" fill="white" opacity="0.660965216336581"/><circle cx="478" cy="738" r="0.7303547286091419" fill="white" opacity="0.5810465278576081"/><circle cx="332" cy="471" r="0.25585452450360896" fill="white" opacity="0.3646792507786798"/><circle cx="237" cy="104" r="0.8881569014446093" fill="white" opacity="0.9667625579422003"/><circle cx="680" cy="954" r="1.0904145010302322" fill="white" opacity="0.670582905324627"/><circle cx="707" cy="345" r="0.22291535101449572" fill="white" opacity="0.6548488972146709"/><circle cx="432" cy="409" r="1.328912409000169" fill="white" opacity="0.7456121717503734"/><circle cx="271" cy="710" r="1.502534910549944" fill="white" opacity="0.7788127586665097"/><circle cx="464" cy="712" r="0.3427818264729397" fill="white" opacity="0.9961088324066818"/><circle cx="198" cy="78" r="1.0752766316663473" fill="white" opacity="0.7392110815923931"/><circle cx="388" cy="90" r="0.47213341333979736" fill="white" opacity="0.352869381309038"/><circle cx="427" cy="629" r="1.3961479190086707" fill="white" opacity="0.9182084549986587"/><circle cx="252" cy="858" r="1.314008691252748" fill="white" opacity="0.7471853664013325"/><circle cx="353" cy="599" r="1.6974871701144703" fill="white" opacity="0.7609164911077746"/><circle cx="297" cy="903" r="1.5835934302508035" fill="white" opacity="0.8020214815779774"/><circle cx="948" cy="598" r="0.5323393450065979" fill="white" opacity="0.7621783880649122"/><circle cx="634" cy="822" r="1.085129852058991" fill="white" opacity="0.5425073122744568"/><circle cx="520" cy="403" r="0.6706696922374455" fill="white" opacity="0.9891482658011754"/><circle cx="141" cy="797" r="0.81889389271914" fill="white" opacity="0.8159768544404122"/><circle cx="586" cy="70" r="1.6848531140921612" fill="white" opacity="0.4681889982695459"/><circle cx="837" cy="22" r="1.0455387231789053" fill="white" opacity="0.8186225306720483"/><circle cx="94" cy="81" r="0.7813139862224221" fill="white" opacity="0.6751012083301958"/><circle cx="880" cy="225" r="0.5524706769425343" fill="white" opacity="0.42392591375263305"/><circle cx="42" cy="528" r="0.23812376457455703" fill="white" opacity="0.7411756622967767"/><circle cx="627" cy="84" r="0.8712200844623679" fill="white" opacity="0.5337980912317831"/><circle cx="154" cy="858" r="1.13396652719645" fill="white" opacity="0.37842906020357947"/><circle cx="705" cy="276" r="1.3198627295796526" fill="white" opacity="0.9606678274216374"/><circle cx="357" cy="856" r="1.0344284394869214" fill="white" opacity="0.5131516656272564"/>
      <circle cx="906" cy="230" r="113.28198308488021" fill="#4a4aff" opacity="0.04310171684608187"/><circle cx="265" cy="829" r="131.3470277752142" fill="#4a4aff" opacity="0.02102531316961435"/><circle cx="302" cy="987" r="95.63084566131224" fill="#4a4aff" opacity="0.022473935595832356"/><circle cx="764" cy="776" r="66.39375893966934" fill="#4a4aff" opacity="0.03789740148279603"/><circle cx="754" cy="939" r="137.06992787547037" fill="#4a4aff" opacity="0.02883932120698606"/><circle cx="743" cy="50" r="71.6960372906569" fill="#4a4aff" opacity="0.04107196041783408"/><circle cx="289" cy="268" r="79.73136020204976" fill="#4a4aff" opacity="0.02253843675178075"/><circle cx="767" cy="793" r="72.9484940772145" fill="#4a4aff" opacity="0.059921124229802544"/><circle cx="178" cy="547" r="54.5660932676106" fill="#4a4aff" opacity="0.02095144220049238"/><circle cx="560" cy="788" r="92.27074582820813" fill="#4a4aff" opacity="0.03997668006805771"/><circle cx="778" cy="659" r="66.16361470452912" fill="#4a4aff" opacity="0.0652857577793582"/><circle cx="613" cy="11" r="96.15495101838752" fill="#4a4aff" opacity="0.04606440748902821"/><circle cx="962" cy="984" r="79.70376343292777" fill="#4a4aff" opacity="0.04046732811418231"/><circle cx="767" cy="616" r="134.51287155344724" fill="#4a4aff" opacity="0.034823329786066885"/><circle cx="621" cy="868" r="69.55497802215291" fill="#4a4aff" opacity="0.0670298714148608"/><circle cx="540" cy="780" r="63.7681893476056" fill="#4a4aff" opacity="0.06790666740851882"/><circle cx="556" cy="263" r="77.4928157872063" fill="#4a4aff" opacity="0.03318572327645775"/><circle cx="366" cy="930" r="112.56662698078983" fill="#4a4aff" opacity="0.0254503341558261"/><circle cx="179" cy="25" r="140.62353133828327" fill="#4a4aff" opacity="0.06201368220264182"/><circle cx="130" cy="875" r="98.04718169805247" fill="#4a4aff" opacity="0.03136181133585609"/>
      <circle cx="597" cy="636" r="43.11315604060969" fill="#4affff" opacity="0.031337665863309425"/><circle cx="640" cy="902" r="95.17366001328013" fill="#4affff" opacity="0.05606927727401645"/><circle cx="887" cy="278" r="85.53451618244907" fill="#4affff" opacity="0.06382430964564346"/><circle cx="333" cy="52" r="71.49682867723685" fill="#4affff" opacity="0.03186024372079023"/><circle cx="954" cy="971" r="58.756783628182454" fill="#4affff" opacity="0.04292713414992884"/><circle cx="217" cy="371" r="97.64161768636832" fill="#4affff" opacity="0.06899524147023589"/><circle cx="46" cy="19" r="70.1337485967723" fill="#4affff" opacity="0.023452823051730028"/><circle cx="359" cy="613" r="75.08166613547404" fill="#4affff" opacity="0.044803217927120456"/><circle cx="422" cy="992" r="109.06403002089243" fill="#4affff" opacity="0.033867361939907185"/><circle cx="867" cy="221" r="57.978379608678274" fill="#4affff" opacity="0.057915328960931295"/>
    </svg>