<svg xmlns="http://www.w3.org/2000/svg" width="1920" height="1920" viewBox="0 0 1000 1000"><rect width="1000" height="1000" fill="#0a0a2a"/><circle cx="340" cy="699" r=".585" fill="#fff" opacity=".881"/><circle cx="634" cy="237" r="1.517" fill="#fff" opacity=".76"/><circle cx="724" cy="452" r=".4" fill="#fff" opacity=".31"/><circle cx="836" cy="757" r=".218" fill="#fff" opacity=".565"/><circle cx="912" cy="981" r="1.619" fill="#fff" opacity=".368"/><circle cx="144" cy="764" r=".862" fill="#fff" opacity=".67"/><circle cx="230" cy="369" r="1.218" fill="#fff" opacity=".629"/><circle cx="550" cy="155" r=".211" fill="#fff" opacity=".397"/><circle cx="866" cy="108" r="1.461" fill="#fff" opacity=".704"/><circle cx="252" cy="473" r=".619" fill="#fff" opacity=".47"/><circle cx="766" cy="832" r="1.482" fill="#fff" opacity=".8"/><circle cx="543" cy="63" r="1.501" fill="#fff" opacity=".396"/><circle cx="99" cy="558" r="1.288" fill="#fff" opacity=".97"/><circle cx="868" cy="80" r="1.483" fill="#fff" opacity=".439"/><circle cx="395" cy="399" r=".559" fill="#fff" opacity=".689"/><circle cx="474" cy="722" r="1.491" fill="#fff" opacity=".601"/><circle cx="997" cy="423" r=".67" fill="#fff" opacity=".987"/><circle cx="731" cy="516" r="1.442" fill="#fff" opacity=".665"/><circle cx="439" cy="727" r=".286" fill="#fff" opacity=".513"/><circle cx="889" cy="996" r="1.003" fill="#fff" opacity=".554"/><circle cx="547" cy="295" r=".491" fill="#fff" opacity=".802"/><circle cx="935" cy="15" r=".561" fill="#fff" opacity=".94"/><circle cx="591" cy="329" r="1.215" fill="#fff" opacity=".593"/><circle cx="152" cy="879" r="1.554" fill="#fff" opacity=".506"/><circle cx="440" cy="292" r="1.683" fill="#fff" opacity=".585"/><circle cx="653" cy="586" r="1.119" fill="#fff" opacity=".642"/><circle cx="410" cy="79" r="1.16" fill="#fff" opacity=".46"/><circle cx="762" cy="529" r=".39" fill="#fff" opacity=".422"/><circle cx="817" cy="271" r=".324" fill="#fff" opacity=".691"/><circle cx="847" cy="198" r=".825" fill="#fff" opacity=".664"/><circle cx="639" cy="400" r=".408" fill="#fff" opacity=".57"/><circle cx="499" cy="175" r=".488" fill="#fff" opacity=".786"/><circle cx="197" cy="958" r=".709" fill="#fff" opacity=".538"/><circle cx="653" cy="349" r=".39" fill="#fff" opacity=".863"/><circle cx="214" cy="97" r=".237" fill="#fff" opacity=".631"/><circle cx="444" cy="140" r=".486" fill="#fff" opacity=".594"/><circle cx="29" cy="854" r="1.165" fill="#fff" opacity=".806"/><circle cx="643" cy="514" r=".546" fill="#fff" opacity=".585"/><circle cx="133" cy="113" r="1.243" fill="#fff" opacity=".321"/><circle cx="798" cy="202" r="1.343" fill="#fff" opacity=".686"/><circle cx="839" cy="736" r="1.234" fill="#fff" opacity=".488"/><circle cx="30" cy="966" r="1.631" fill="#fff" opacity=".831"/><circle cx="401" cy="883" r=".488" fill="#fff" opacity=".588"/><circle cx="168" cy="286" r="1.195" fill="#fff" opacity=".61"/><circle cx="535" cy="751" r="1.003" fill="#fff" opacity=".354"/><circle cx="517" cy="683" r="1.456" fill="#fff" opacity=".501"/><circle cx="999" cy="37" r=".858" fill="#fff" opacity=".741"/><circle cx="572" cy="941" r="1.192" fill="#fff" opacity=".403"/><circle cx="950" cy="130" r=".936" fill="#fff" opacity=".377"/><circle cx="183" cy="110" r=".66" fill="#fff" opacity=".746"/><circle cx="924" cy="900" r="1.647" fill="#fff" opacity=".556"/><circle cx="224" cy="124" r=".572" fill="#fff" opacity=".617"/><circle cx="851" cy="528" r=".993" fill="#fff" opacity=".977"/><circle cx="63" cy="649" r="1.2" fill="#fff" opacity=".712"/><circle cx="366" cy="474" r="1.025" fill="#fff" opacity=".575"/><circle cx="554" cy="241" r="1.093" fill="#fff" opacity=".964"/><circle cx="420" cy="490" r=".287" fill="#fff" opacity=".496"/><circle cx="815" cy="420" r=".731" fill="#fff" opacity=".746"/><circle cx="139" cy="65" r="1.589" fill="#fff" opacity=".363"/><circle cx="985" cy="32" r="1.416" fill="#fff" opacity=".838"/><circle cx="98" cy="997" r="1.263" fill="#fff" opacity=".655"/><circle cx="532" cy="633" r=".622" fill="#fff" opacity=".54"/><circle cx="596" cy="607" r=".689" fill="#fff" opacity=".41"/><circle cx="907" cy="287" r="1.125" fill="#fff" opacity=".715"/><circle cx="578" cy="230" r=".211" fill="#fff" opacity=".659"/><circle cx="299" cy="220" r=".403" fill="#fff" opacity=".553"/><circle cx="813" cy="693" r=".992" fill="#fff" opacity=".634"/><circle cx="713" cy="775" r=".46" fill="#fff" opacity=".496"/><circle cx="632" cy="318" r=".365" fill="#fff" opacity=".663"/><circle cx="91" cy="36" r=".995" fill="#fff" opacity=".35"/><circle cx="186" cy="149" r=".9" fill="#fff" opacity=".718"/><circle cx="227" cy="577" r="1.496" fill="#fff" opacity=".626"/><circle cx="378" cy="70" r="1.634" fill="#fff" opacity=".432"/><circle cx="385" cy="631" r=".806" fill="#fff" opacity=".365"/><circle cx="279" cy="119" r=".682" fill="#fff" opacity=".403"/><circle cx="104" cy="658" r=".931" fill="#fff" opacity=".318"/><circle cx="994" cy="399" r=".748" fill="#fff" opacity=".332"/><circle cx="482" cy="911" r=".209" fill="#fff" opacity=".793"/><circle cx="634" cy="13" r="1.576" fill="#fff" opacity=".807"/><circle cx="823" cy="44" r="1.239" fill="#fff" opacity=".768"/><circle cx="994" cy="295" r=".674" fill="#fff" opacity=".623"/><circle cx="431" cy="522" r="1.278" fill="#fff" opacity=".411"/><circle cx="51" cy="460" r=".836" fill="#fff" opacity=".4"/><circle cx="785" cy="833" r=".349" fill="#fff" opacity=".949"/><circle cx="807" cy="704" r=".204" fill="#fff" opacity=".544"/><circle cx="505" cy="392" r=".816" fill="#fff" opacity=".943"/><circle cx="513" cy="952" r="1.587" fill="#fff" opacity=".374"/><circle cx="862" cy="446" r=".542" fill="#fff" opacity=".331"/><circle cx="999" cy="331" r=".954" fill="#fff" opacity=".52"/><circle cx="371" cy="132" r=".484" fill="#fff" opacity=".477"/><circle cx="185" cy="154" r="1.65" fill="#fff" opacity=".906"/><circle cx="290" cy="559" r="1.258" fill="#fff" opacity=".44"/><circle cx="990" cy="281" r=".311" fill="#fff" opacity=".962"/><circle cx="124" cy="954" r="1.171" fill="#fff" opacity=".897"/><circle cx="909" cy="949" r=".589" fill="#fff" opacity=".344"/><circle cx="189" cy="508" r="1.506" fill="#fff" opacity=".405"/><circle cx="761" cy="872" r=".963" fill="#fff" opacity=".459"/><circle cx="399" cy="808" r=".681" fill="#fff" opacity=".468"/><circle cx="227" cy="235" r="1.254" fill="#fff" opacity=".81"/><circle cx="710" cy="164" r=".214" fill="#fff" opacity=".929"/><circle cx="878" cy="531" r=".413" fill="#fff" opacity=".328"/><circle cx="406" cy="163" r=".624" fill="#fff" opacity=".531"/><circle cx="419" cy="480" r=".574" fill="#fff" opacity=".558"/><circle cx="850" cy="407" r="1.597" fill="#fff" opacity=".802"/><circle cx="552" cy="918" r="1.04" fill="#fff" opacity=".565"/><circle cx="776" cy="196" r="1.552" fill="#fff" opacity=".472"/><circle cx="970" cy="695" r=".654" fill="#fff" opacity=".921"/><circle cx="315" cy="570" r=".419" fill="#fff" opacity=".335"/><circle cx="41" cy="847" r=".417" fill="#fff" opacity=".478"/><circle cx="549" cy="79" r="1.323" fill="#fff" opacity=".533"/><circle cx="657" cy="388" r="1.296" fill="#fff" opacity=".689"/><circle cx="233" cy="465" r="1.52" fill="#fff" opacity=".98"/><circle cx="145" cy="718" r=".556" fill="#fff" opacity=".936"/><circle cx="317" cy="500" r="1.447" fill="#fff" opacity=".538"/><circle cx="986" cy="775" r="1.443" fill="#fff" opacity=".962"/><circle cx="53" cy="550" r="1.253" fill="#fff" opacity=".454"/><circle cx="46" cy="398" r="1.516" fill="#fff" opacity=".685"/><circle cx="896" cy="709" r=".414" fill="#fff" opacity=".893"/><circle cx="93" cy="502" r="1.29" fill="#fff" opacity=".353"/><circle cx="71" cy="594" r="1.399" fill="#fff" opacity=".459"/><circle cx="268" cy="119" r="1.358" fill="#fff" opacity=".72"/><circle cx="440" cy="546" r="1.68" fill="#fff" opacity=".44"/><circle cx="408" cy="311" r=".545" fill="#fff" opacity=".892"/><circle cx="440" cy="100" r=".605" fill="#fff" opacity=".494"/><circle cx="132" cy="987" r="1.119" fill="#fff" opacity=".758"/><circle cx="652" cy="89" r="1.596" fill="#fff" opacity=".645"/><circle cx="825" cy="416" r=".824" fill="#fff" opacity=".844"/><circle cx="143" cy="636" r=".457" fill="#fff" opacity=".37"/><circle cx="762" cy="872" r=".636" fill="#fff" opacity=".803"/><circle cx="486" cy="591" r=".531" fill="#fff" opacity=".682"/><circle cx="205" cy="635" r=".918" fill="#fff" opacity=".528"/><circle cx="772" cy="182" r="1.694" fill="#fff" opacity=".62"/><circle cx="436" cy="374" r="1.113" fill="#fff" opacity=".716"/><circle cx="40" cy="208" r=".667" fill="#fff" opacity=".931"/><circle cx="679" cy="617" r=".343" fill="#fff" opacity=".737"/><circle cx="70" cy="374" r="1.098" fill="#fff" opacity=".349"/><circle cx="179" cy="464" r="1.212" fill="#fff" opacity=".469"/><circle cx="289" cy="286" r="1.346" fill="#fff" opacity=".835"/><circle cx="549" cy="314" r=".551" fill="#fff" opacity=".477"/><circle cx="673" cy="973" r="1.166" fill="#fff" opacity=".478"/><circle cx="514" cy="317" r="1.116" fill="#fff" opacity=".725"/><circle cx="550" cy="763" r="1.436" fill="#fff" opacity=".844"/><circle cx="634" cy="311" r=".895" fill="#fff" opacity=".368"/><circle cx="506" cy="931" r="1.145" fill="#fff" opacity=".612"/><circle cx="83" cy="606" r="1.677" fill="#fff" opacity=".956"/><circle cx="244" cy="325" r=".886" fill="#fff" opacity=".84"/><circle cx="180" cy="74" r="1.477" fill="#fff" opacity=".9"/><circle cx="611" cy="454" r="1.13" fill="#fff" opacity=".745"/><circle cx="650" cy="370" r="1.613" fill="#fff" opacity=".901"/><circle cx="119" cy="810" r=".452" fill="#fff" opacity=".407"/><circle cx="101" cy="50" r=".798" fill="#fff" opacity=".729"/><circle cx="179" cy="449" r=".695" fill="#fff" opacity=".63"/><circle cx="846" cy="943" r=".481" fill="#fff" opacity=".757"/><circle cx="248" cy="816" r="1.238" fill="#fff" opacity=".333"/><circle cx="948" cy="879" r="1.38" fill="#fff" opacity=".315"/><circle cx="362" cy="544" r=".223" fill="#fff" opacity=".319"/><circle cx="194" cy="167" r="1.697" fill="#fff" opacity=".643"/><circle cx="377" cy="333" r="1.478" fill="#fff" opacity=".566"/><circle cx="435" cy="134" r="1.043" fill="#fff" opacity=".454"/><circle cx="429" cy="298" r=".873" fill="#fff" opacity=".839"/><circle cx="576" cy="355" r=".25" fill="#fff" opacity=".885"/><circle cx="605" cy="712" r=".669" fill="#fff" opacity=".407"/><circle cx="0" cy="340" r=".507" fill="#fff" opacity=".499"/><circle cx="76" cy="543" r="1.516" fill="#fff" opacity=".5"/><circle cx="736" cy="174" r=".618" fill="#fff" opacity=".87"/><circle cx="127" cy="601" r=".354" fill="#fff" opacity=".855"/><circle cx="253" cy="105" r="1.036" fill="#fff" opacity=".36"/><circle cx="760" cy="992" r="1.183" fill="#fff" opacity=".607"/><circle cx="278" cy="702" r=".781" fill="#fff" opacity=".648"/><circle cx="737" cy="904" r="1.152" fill="#fff" opacity=".812"/><circle cx="380" cy="254" r=".231" fill="#fff" opacity=".843"/><circle cx="83" cy="450" r=".875" fill="#fff" opacity=".589"/><circle cx="929" cy="422" r="1.172" fill="#fff" opacity=".967"/><circle cx="301" cy="263" r=".994" fill="#fff" opacity=".388"/><circle cx="819" cy="17" r=".296" fill="#fff" opacity=".373"/><circle cx="715" cy="250" r=".99" fill="#fff" opacity=".944"/><circle cx="1" cy="654" r="1.472" fill="#fff" opacity=".368"/><circle cx="262" cy="907" r="1.512" fill="#fff" opacity=".872"/><circle cx="645" cy="517" r=".625" fill="#fff" opacity=".861"/><circle cx="574" cy="986" r=".857" fill="#fff" opacity=".424"/><circle cx="734" cy="949" r="1.554" fill="#fff" opacity=".364"/><circle cx="408" cy="474" r=".579" fill="#fff" opacity=".653"/><circle cx="762" cy="427" r="1.258" fill="#fff" opacity=".58"/><circle cx="730" cy="316" r=".631" fill="#fff" opacity=".613"/><circle cx="16" cy="586" r=".544" fill="#fff" opacity=".678"/><circle cx="940" cy="175" r="1.417" fill="#fff" opacity=".805"/><circle cx="134" cy="18" r=".741" fill="#fff" opacity=".424"/><circle cx="825" cy="614" r="1.452" fill="#fff" opacity=".414"/><circle cx="685" cy="551" r=".368" fill="#fff" opacity=".97"/><circle cx="205" cy="448" r="1.048" fill="#fff" opacity=".54"/><circle cx="425" cy="662" r=".365" fill="#fff" opacity=".312"/><circle cx="985" cy="979" r=".983" fill="#fff" opacity=".633"/><circle cx="881" cy="591" r=".252" fill="#fff" opacity=".646"/><circle cx="292" cy="173" r=".223" fill="#fff" opacity=".88"/><circle cx="211" cy="530" r=".977" fill="#fff" opacity=".857"/><circle cx="105" cy="58" r="1.213" fill="#fff" opacity=".727"/><circle cx="842" cy="705" r=".271" fill="#fff" opacity=".651"/><circle cx="732" cy="409" r=".619" fill="#fff" opacity=".595"/><circle cx="959" cy="619" r=".947" fill="#fff" opacity=".787"/><circle cx="958" cy="7" r=".829" fill="#fff" opacity=".377"/><circle cx="380" cy="962" r=".595" fill="#fff" opacity=".371"/><circle cx="288" cy="428" r=".892" fill="#fff" opacity=".896"/><circle cx="755" cy="771" r="1.024" fill="#fff" opacity=".64"/><circle cx="769" cy="337" r="1.207" fill="#fff" opacity=".807"/><circle cx="786" cy="220" r="1.224" fill="#fff" opacity=".57"/><circle cx="602" cy="41" r="1.04" fill="#fff" opacity=".53"/><circle cx="549" cy="8" r=".229" fill="#fff" opacity=".991"/><circle cx="793" cy="539" r="1.6" fill="#fff" opacity=".301"/><circle cx="312" cy="556" r="1.679" fill="#fff" opacity=".407"/><circle cx="247" cy="453" r="1.069" fill="#fff" opacity=".789"/><circle cx="805" cy="945" r=".328" fill="#fff" opacity=".451"/><circle cx="430" cy="617" r=".83" fill="#fff" opacity=".773"/><circle cx="684" cy="7" r=".446" fill="#fff" opacity=".447"/><circle cx="762" cy="48" r="1.531" fill="#fff" opacity=".829"/><circle cx="143" cy="400" r="1.12" fill="#fff" opacity=".837"/><circle cx="138" cy="689" r="1.504" fill="#fff" opacity=".42"/><circle cx="488" cy="622" r=".361" fill="#fff" opacity=".98"/><circle cx="976" cy="516" r="1.378" fill="#fff" opacity=".694"/><circle cx="697" cy="574" r=".44" fill="#fff" opacity=".789"/><circle cx="613" cy="486" r="1.546" fill="#fff" opacity=".364"/><circle cx="861" cy="323" r=".909" fill="#fff" opacity=".447"/><circle cx="373" cy="823" r="1.578" fill="#fff" opacity=".591"/><circle cx="675" cy="408" r="1.115" fill="#fff" opacity=".542"/><circle cx="997" cy="643" r="1.612" fill="#fff" opacity=".775"/><circle cx="328" cy="28" r=".411" fill="#fff" opacity=".813"/><circle cx="972" cy="913" r=".353" fill="#fff" opacity=".539"/><circle cx="235" cy="893" r=".389" fill="#fff" opacity=".685"/><circle cx="117" cy="739" r=".872" fill="#fff" opacity=".928"/><circle cx="105" cy="725" r="1.479" fill="#fff" opacity=".383"/><circle cx="572" cy="953" r=".261" fill="#fff" opacity=".59"/><circle cx="558" cy="237" r="1.016" fill="#fff" opacity=".563"/><circle cx="529" cy="895" r="1.2" fill="#fff" opacity=".836"/><circle cx="226" cy="842" r="1.697" fill="#fff" opacity=".421"/><circle cx="576" cy="532" r="1.108" fill="#fff" opacity=".443"/><circle cx="29" cy="451" r=".496" fill="#fff" opacity=".775"/><circle cx="11" cy="461" r=".932" fill="#fff" opacity=".878"/><circle cx="618" cy="366" r=".785" fill="#fff" opacity=".301"/><circle cx="872" cy="789" r="1.315" fill="#fff" opacity=".383"/><circle cx="268" cy="501" r=".719" fill="#fff" opacity=".832"/><circle cx="343" cy="295" r=".569" fill="#fff" opacity=".959"/><circle cx="617" cy="756" r=".258" fill="#fff" opacity=".84"/><circle cx="336" cy="607" r=".941" fill="#fff" opacity=".654"/><circle cx="852" cy="740" r="1.158" fill="#fff" opacity=".433"/><circle cx="589" cy="142" r=".934" fill="#fff" opacity=".42"/><circle cx="116" cy="205" r=".22" fill="#fff" opacity=".683"/><circle cx="121" cy="949" r=".426" fill="#fff" opacity=".452"/><circle cx="434" cy="726" r="1.444" fill="#fff" opacity=".473"/><circle cx="312" cy="363" r="1.692" fill="#fff" opacity=".675"/><circle cx="376" cy="978" r=".628" fill="#fff" opacity=".333"/><circle cx="450" cy="923" r="1.274" fill="#fff" opacity=".989"/><circle cx="965" cy="503" r="1.545" fill="#fff" opacity=".815"/><circle cx="432" cy="261" r="1.345" fill="#fff" opacity=".457"/><circle cx="680" cy="265" r=".366" fill="#fff" opacity=".308"/><circle cx="909" cy="100" r=".816" fill="#fff" opacity=".724"/><circle cx="249" cy="508" r="1.143" fill="#fff" opacity=".688"/><circle cx="172" cy="861" r="1.344" fill="#fff" opacity=".892"/><circle cx="842" cy="188" r=".582" fill="#fff" opacity=".405"/><circle cx="180" cy="65" r=".744" fill="#fff" opacity=".907"/><circle cx="717" cy="976" r=".805" fill="#fff" opacity=".58"/><circle cx="244" cy="427" r=".27" fill="#fff" opacity=".939"/><circle cx="925" cy="264" r=".615" fill="#fff" opacity=".437"/><circle cx="833" cy="844" r="1.498" fill="#fff" opacity=".804"/><circle cx="856" cy="951" r=".984" fill="#fff" opacity=".899"/><circle cx="230" cy="44" r="1.349" fill="#fff" opacity=".356"/><circle cx="937" cy="362" r="1.525" fill="#fff" opacity=".736"/><circle cx="627" cy="819" r="1.055" fill="#fff" opacity=".939"/><circle cx="756" cy="626" r=".72" fill="#fff" opacity=".357"/><circle cx="106" cy="120" r="1.23" fill="#fff" opacity=".906"/><circle cx="649" cy="4" r="1.197" fill="#fff" opacity=".428"/><circle cx="491" cy="370" r=".979" fill="#fff" opacity=".948"/><circle cx="253" cy="207" r="1.461" fill="#fff" opacity=".344"/><circle cx="669" cy="749" r=".355" fill="#fff" opacity=".389"/><circle cx="100" cy="338" r=".404" fill="#fff" opacity=".438"/><circle cx="15" cy="707" r="1.301" fill="#fff" opacity=".931"/><circle cx="89" cy="500" r=".347" fill="#fff" opacity=".434"/><circle cx="46" cy="210" r=".231" fill="#fff" opacity=".337"/><circle cx="647" cy="880" r=".711" fill="#fff" opacity=".99"/><circle cx="278" cy="97" r=".234" fill="#fff" opacity=".415"/><circle cx="866" cy="622" r="1.03" fill="#fff" opacity=".386"/><circle cx="735" cy="279" r="1.243" fill="#fff" opacity=".763"/><circle cx="838" cy="356" r=".418" fill="#fff" opacity=".794"/><circle cx="469" cy="625" r="1.261" fill="#fff" opacity=".422"/><circle cx="990" cy="316" r="1.238" fill="#fff" opacity=".679"/><circle cx="173" cy="157" r=".855" fill="#fff" opacity=".765"/><circle cx="906" cy="140" r="1.578" fill="#fff" opacity=".766"/><circle cx="169" cy="866" r="1.127" fill="#fff" opacity=".937"/><circle cx="625" cy="153" r="1.018" fill="#fff" opacity=".909"/><circle cx="429" cy="441" r="1.002" fill="#fff" opacity=".523"/><circle cx="866" cy="548" r="1.353" fill="#fff" opacity=".431"/><circle cx="421" cy="306" r="1.489" fill="#fff" opacity=".5"/><circle cx="3" cy="371" r="1.043" fill="#fff" opacity=".992"/><circle cx="833" cy="308" r=".6" fill="#fff" opacity=".986"/><circle cx="653" cy="100" r=".225" fill="#fff" opacity=".704"/><circle cx="390" cy="192" r=".766" fill="#fff" opacity=".632"/><circle cx="276" cy="768" r="1.219" fill="#fff" opacity=".578"/><circle cx="839" cy="945" r=".673" fill="#fff" opacity=".906"/><circle cx="4" cy="767" r=".914" fill="#fff" opacity=".338"/><circle cx="849" cy="220" r="1.03" fill="#fff" opacity=".357"/><circle cx="575" cy="120" r="1.675" fill="#fff" opacity=".953"/><circle cx="57" cy="186" r="1.337" fill="#fff" opacity=".928"/><circle cx="128" cy="941" r="1.622" fill="#fff" opacity=".614"/><circle cx="376" cy="573" r=".261" fill="#fff" opacity=".644"/><circle cx="8" cy="434" r="1.518" fill="#fff" opacity=".985"/><circle cx="801" cy="841" r=".233" fill="#fff" opacity=".471"/><circle cx="313" cy="988" r="1.42" fill="#fff" opacity=".38"/><circle cx="592" cy="474" r=".559" fill="#fff" opacity=".837"/><circle cx="997" cy="391" r=".898" fill="#fff" opacity=".792"/><circle cx="6" cy="200" r=".564" fill="#fff" opacity=".853"/><circle cx="920" cy="858" r=".605" fill="#fff" opacity=".615"/><circle cx="271" cy="931" r=".724" fill="#fff" opacity=".686"/><circle cx="244" cy="951" r=".775" fill="#fff" opacity=".715"/><circle cx="30" cy="319" r="1.613" fill="#fff" opacity=".683"/><circle cx="805" cy="347" r="1.398" fill="#fff" opacity=".684"/><circle cx="189" cy="902" r=".22" fill="#fff" opacity=".834"/><circle cx="150" cy="16" r=".887" fill="#fff" opacity=".815"/><circle cx="971" cy="342" r=".901" fill="#fff" opacity=".667"/><circle cx="406" cy="849" r="1.077" fill="#fff" opacity=".305"/><circle cx="160" cy="876" r="1.39" fill="#fff" opacity=".427"/><circle cx="465" cy="294" r="1.638" fill="#fff" opacity=".872"/><circle cx="486" cy="124" r=".648" fill="#fff" opacity=".465"/><circle cx="758" cy="318" r="1.097" fill="#fff" opacity=".984"/><circle cx="556" cy="868" r=".633" fill="#fff" opacity=".557"/><circle cx="74" cy="748" r=".27" fill="#fff" opacity=".443"/><circle cx="216" cy="667" r=".201" fill="#fff" opacity=".962"/><circle cx="362" cy="520" r="1.348" fill="#fff" opacity=".939"/><circle cx="904" cy="718" r=".665" fill="#fff" opacity=".765"/><circle cx="469" cy="195" r="1.147" fill="#fff" opacity=".83"/><circle cx="343" cy="307" r="1.25" fill="#fff" opacity=".74"/><circle cx="647" cy="825" r="1.082" fill="#fff" opacity=".592"/><circle cx="136" cy="158" r=".92" fill="#fff" opacity=".307"/><circle cx="993" cy="969" r="1.324" fill="#fff" opacity=".555"/><circle cx="28" cy="351" r="1.277" fill="#fff" opacity=".934"/><circle cx="879" cy="732" r=".901" fill="#fff" opacity=".506"/><circle cx="252" cy="167" r="1.288" fill="#fff" opacity=".998"/><circle cx="462" cy="878" r="1.653" fill="#fff" opacity=".672"/><circle cx="365" cy="387" r=".234" fill="#fff" opacity=".722"/><circle cx="798" cy="378" r=".742" fill="#fff" opacity=".781"/><circle cx="286" cy="19" r="1.096" fill="#fff" opacity=".523"/><circle cx="822" cy="831" r="1.054" fill="#fff" opacity=".313"/><circle cx="463" cy="988" r="1.145" fill="#fff" opacity=".678"/><circle cx="513" cy="962" r=".611" fill="#fff" opacity=".406"/><circle cx="185" cy="697" r=".419" fill="#fff" opacity=".65"/><circle cx="887" cy="163" r="1.016" fill="#fff" opacity=".543"/><circle cx="121" cy="129" r=".537" fill="#fff" opacity=".356"/><circle cx="876" cy="471" r=".232" fill="#fff" opacity=".725"/><circle cx="500" cy="906" r="1.648" fill="#fff" opacity=".979"/><circle cx="392" cy="356" r=".935" fill="#fff" opacity=".467"/><circle cx="842" cy="140" r=".872" fill="#fff" opacity=".376"/><circle cx="758" cy="921" r="1.049" fill="#fff" opacity=".918"/><circle cx="829" cy="917" r="1.659" fill="#fff" opacity=".416"/><circle cx="30" cy="108" r="1.037" fill="#fff" opacity=".684"/><circle cx="626" cy="92" r="1.484" fill="#fff" opacity=".402"/><circle cx="458" cy="49" r="1.491" fill="#fff" opacity=".749"/><circle cx="341" cy="167" r=".592" fill="#fff" opacity=".867"/><circle cx="506" cy="132" r=".968" fill="#fff" opacity=".708"/><circle cx="382" cy="451" r="1.064" fill="#fff" opacity=".368"/><circle cx="563" cy="167" r=".959" fill="#fff" opacity=".864"/><circle cx="433" cy="710" r="1.33" fill="#fff" opacity=".531"/><circle cx="354" cy="805" r="1.161" fill="#fff" opacity=".481"/><circle cx="902" cy="763" r=".223" fill="#fff" opacity=".519"/><circle cx="841" cy="776" r=".702" fill="#fff" opacity=".338"/><circle cx="785" cy="207" r="1.176" fill="#fff" opacity=".814"/><circle cx="390" cy="468" r="1.236" fill="#fff" opacity=".652"/><circle cx="824" cy="385" r="1.5" fill="#fff" opacity=".698"/><circle cx="28" cy="818" r=".53" fill="#fff" opacity=".891"/><circle cx="546" cy="751" r=".722" fill="#fff" opacity=".534"/><circle cx="794" cy="163" r=".833" fill="#fff" opacity=".714"/><circle cx="878" cy="894" r="1.407" fill="#fff" opacity=".597"/><circle cx="231" cy="836" r=".766" fill="#fff" opacity=".517"/><circle cx="587" cy="731" r="1.079" fill="#fff" opacity=".734"/><circle cx="480" cy="179" r=".304" fill="#fff" opacity=".547"/><circle cx="905" cy="516" r="1.138" fill="#fff" opacity=".771"/><circle cx="230" cy="671" r="1.128" fill="#fff" opacity=".645"/><circle cx="530" cy="527" r="1.206" fill="#fff" opacity=".971"/><circle cx="64" cy="837" r=".6" fill="#fff" opacity=".462"/><circle cx="90" cy="749" r=".329" fill="#fff" opacity=".418"/><circle cx="134" cy="694" r=".538" fill="#fff" opacity=".535"/><circle cx="640" cy="504" r="1.188" fill="#fff" opacity=".901"/><circle cx="628" cy="154" r=".398" fill="#fff" opacity=".653"/><circle cx="116" cy="855" r="1.452" fill="#fff" opacity=".897"/><circle cx="207" cy="182" r=".657" fill="#fff" opacity=".539"/><circle cx="803" cy="276" r=".634" fill="#fff" opacity=".589"/><circle cx="927" cy="584" r=".686" fill="#fff" opacity=".878"/><circle cx="343" cy="723" r=".996" fill="#fff" opacity=".53"/><circle cx="875" cy="468" r=".995" fill="#fff" opacity=".376"/><circle cx="799" cy="454" r="1.205" fill="#fff" opacity=".556"/><circle cx="359" cy="356" r=".716" fill="#fff" opacity=".463"/><circle cx="176" cy="622" r=".475" fill="#fff" opacity=".509"/><circle cx="522" cy="412" r="1.652" fill="#fff" opacity=".649"/><circle cx="92" cy="55" r="1.289" fill="#fff" opacity=".643"/><circle cx="275" cy="975" r="1.015" fill="#fff" opacity=".799"/><circle cx="232" cy="326" r="1.49" fill="#fff" opacity=".325"/><circle cx="735" cy="987" r=".278" fill="#fff" opacity=".637"/><circle cx="128" cy="533" r=".786" fill="#fff" opacity=".365"/><circle cx="828" cy="320" r="1.002" fill="#fff" opacity=".306"/><circle cx="542" cy="97" r="1.12" fill="#fff" opacity=".673"/><circle cx="800" cy="19" r="1.262" fill="#fff" opacity=".406"/><circle cx="905" cy="49" r=".385" fill="#fff" opacity=".688"/><circle cx="624" cy="439" r="1.449" fill="#fff" opacity=".52"/><circle cx="653" cy="964" r=".525" fill="#fff" opacity=".534"/><circle cx="811" cy="113" r="1.572" fill="#fff" opacity=".415"/><circle cx="861" cy="308" r="1.456" fill="#fff" opacity=".494"/><circle cx="401" cy="427" r="1.098" fill="#fff" opacity=".552"/><circle cx="774" cy="547" r=".529" fill="#fff" opacity=".403"/><circle cx="433" cy="958" r=".797" fill="#fff" opacity=".87"/><circle cx="351" cy="589" r="1.587" fill="#fff" opacity=".67"/><circle cx="946" cy="85" r="1.635" fill="#fff" opacity=".927"/><circle cx="857" cy="193" r=".584" fill="#fff" opacity=".411"/><circle cx="371" cy="598" r=".204" fill="#fff" opacity=".914"/><circle cx="115" cy="876" r=".915" fill="#fff" opacity=".414"/><circle cx="324" cy="418" r=".944" fill="#fff" opacity=".673"/><circle cx="634" cy="982" r="1.457" fill="#fff" opacity=".419"/><circle cx="590" cy="582" r=".882" fill="#fff" opacity=".718"/><circle cx="192" cy="561" r="1.338" fill="#fff" opacity=".84"/><circle cx="514" cy="466" r=".881" fill="#fff" opacity=".424"/><circle cx="231" cy="328" r=".578" fill="#fff" opacity=".94"/><circle cx="628" cy="663" r="1.332" fill="#fff" opacity=".478"/><circle cx="556" cy="267" r=".832" fill="#fff" opacity=".836"/><circle cx="246" cy="263" r="1.139" fill="#fff" opacity=".696"/><circle cx="66" cy="23" r="1.665" fill="#fff" opacity=".55"/><circle cx="527" cy="679" r=".246" fill="#fff" opacity=".932"/><circle cx="120" cy="640" r=".288" fill="#fff" opacity=".598"/><circle cx="602" cy="57" r=".383" fill="#fff" opacity=".473"/><circle cx="499" cy="811" r=".722" fill="#fff" opacity=".689"/><circle cx="541" cy="327" r="1.173" fill="#fff" opacity=".489"/><circle cx="563" cy="261" r="1.666" fill="#fff" opacity=".325"/><circle cx="780" cy="365" r=".988" fill="#fff" opacity=".617"/><circle cx="586" cy="512" r="1.05" fill="#fff" opacity=".745"/><circle cx="592" cy="341" r="1.351" fill="#fff" opacity=".373"/><circle cx="329" cy="929" r="1.159" fill="#fff" opacity=".617"/><circle cx="157" cy="967" r="1.599" fill="#fff" opacity=".371"/><circle cx="160" cy="748" r="1.191" fill="#fff" opacity=".429"/><circle cx="401" cy="658" r=".466" fill="#fff" opacity=".678"/><circle cx="104" cy="470" r=".976" fill="#fff" opacity=".562"/><circle cx="826" cy="890" r=".754" fill="#fff" opacity=".917"/><circle cx="339" cy="97" r="1.323" fill="#fff" opacity=".934"/><circle cx="738" cy="509" r="1.581" fill="#fff" opacity=".898"/><circle cx="405" cy="394" r=".913" fill="#fff" opacity=".995"/><circle cx="83" cy="859" r="1.386" fill="#fff" opacity=".742"/><circle cx="943" cy="520" r="1.682" fill="#fff" opacity=".442"/><circle cx="530" cy="197" r=".83" fill="#fff" opacity=".49"/><circle cx="419" cy="440" r=".687" fill="#fff" opacity=".867"/><circle cx="432" cy="398" r=".32" fill="#fff" opacity=".595"/><circle cx="434" cy="17" r=".566" fill="#fff" opacity=".394"/><circle cx="118" cy="786" r="1.351" fill="#fff" opacity=".995"/><circle cx="65" cy="234" r=".579" fill="#fff" opacity=".412"/><circle cx="360" cy="14" r="1.004" fill="#fff" opacity=".564"/><circle cx="896" cy="356" r="1.104" fill="#fff" opacity=".636"/><circle cx="418" cy="911" r="1.266" fill="#fff" opacity=".778"/><circle cx="716" cy="356" r="1.573" fill="#fff" opacity=".54"/><circle cx="313" cy="138" r="1.158" fill="#fff" opacity=".624"/><circle cx="101" cy="214" r="1.589" fill="#fff" opacity=".627"/><circle cx="42" cy="334" r="1.444" fill="#fff" opacity=".837"/><circle cx="717" cy="798" r="1.139" fill="#fff" opacity=".969"/><circle cx="616" cy="206" r="1.353" fill="#fff" opacity=".94"/><circle cx="154" cy="470" r="1.048" fill="#fff" opacity=".488"/><circle cx="897" cy="984" r="1.151" fill="#fff" opacity=".642"/><circle cx="239" cy="521" r="1.183" fill="#fff" opacity=".853"/><circle cx="423" cy="339" r="1.01" fill="#fff" opacity=".941"/><circle cx="127" cy="469" r=".85" fill="#fff" opacity=".433"/><circle cx="483" cy="230" r=".824" fill="#fff" opacity=".606"/><circle cx="764" cy="60" r="1.303" fill="#fff" opacity=".92"/><circle cx="557" cy="800" r="1.582" fill="#fff" opacity=".789"/><circle cx="810" cy="819" r=".527" fill="#fff" opacity=".846"/><circle cx="213" cy="502" r="1.333" fill="#fff" opacity=".772"/><circle cx="180" cy="206" r="1.455" fill="#fff" opacity=".774"/><circle cx="846" cy="291" r="1.574" fill="#fff" opacity=".774"/><circle cx="949" cy="835" r="1.625" fill="#fff" opacity=".93"/><circle cx="127" cy="664" r="1.335" fill="#fff" opacity=".855"/><circle cx="858" cy="581" r=".963" fill="#fff" opacity=".763"/><circle cx="839" cy="224" r=".57" fill="#fff" opacity=".714"/><circle cx="722" cy="50" r=".264" fill="#fff" opacity=".613"/><circle cx="675" cy="97" r="1.289" fill="#fff" opacity=".661"/><circle cx="478" cy="738" r=".73" fill="#fff" opacity=".581"/><circle cx="332" cy="471" r=".256" fill="#fff" opacity=".365"/><circle cx="237" cy="104" r=".888" fill="#fff" opacity=".967"/><circle cx="680" cy="954" r="1.09" fill="#fff" opacity=".671"/><circle cx="707" cy="345" r=".223" fill="#fff" opacity=".655"/><circle cx="432" cy="409" r="1.329" fill="#fff" opacity=".746"/><circle cx="271" cy="710" r="1.503" fill="#fff" opacity=".779"/><circle cx="464" cy="712" r=".343" fill="#fff" opacity=".996"/><circle cx="198" cy="78" r="1.075" fill="#fff" opacity=".739"/><circle cx="388" cy="90" r=".472" fill="#fff" opacity=".353"/><circle cx="427" cy="629" r="1.396" fill="#fff" opacity=".918"/><circle cx="252" cy="858" r="1.314" fill="#fff" opacity=".747"/><circle cx="353" cy="599" r="1.697" fill="#fff" opacity=".761"/><circle cx="297" cy="903" r="1.584" fill="#fff" opacity=".802"/><circle cx="948" cy="598" r=".532" fill="#fff" opacity=".762"/><circle cx="634" cy="822" r="1.085" fill="#fff" opacity=".543"/><circle cx="520" cy="403" r=".671" fill="#fff" opacity=".989"/><circle cx="141" cy="797" r=".819" fill="#fff" opacity=".816"/><circle cx="586" cy="70" r="1.685" fill="#fff" opacity=".468"/><circle cx="837" cy="22" r="1.046" fill="#fff" opacity=".819"/><circle cx="94" cy="81" r=".781" fill="#fff" opacity=".675"/><circle cx="880" cy="225" r=".552" fill="#fff" opacity=".424"/><circle cx="42" cy="528" r=".238" fill="#fff" opacity=".741"/><circle cx="627" cy="84" r=".871" fill="#fff" opacity=".534"/><circle cx="154" cy="858" r="1.134" fill="#fff" opacity=".378"/><circle cx="705" cy="276" r="1.32" fill="#fff" opacity=".961"/><circle cx="357" cy="856" r="1.034" fill="#fff" opacity=".513"/><circle cx="906" cy="230" r="113.282" fill="#4a4aff" opacity=".043"/><circle cx="265" cy="829" r="131.347" fill="#4a4aff" opacity=".021"/><circle cx="302" cy="987" r="95.631" fill="#4a4aff" opacity=".022"/><circle cx="764" cy="776" r="66.394" fill="#4a4aff" opacity=".038"/><circle cx="754" cy="939" r="137.07" fill="#4a4aff" opacity=".029"/><circle cx="743" cy="50" r="71.696" fill="#4a4aff" opacity=".041"/><circle cx="289" cy="268" r="79.731" fill="#4a4aff" opacity=".023"/><circle cx="767" cy="793" r="72.948" fill="#4a4aff" opacity=".06"/><circle cx="178" cy="547" r="54.566" fill="#4a4aff" opacity=".021"/><circle cx="560" cy="788" r="92.271" fill="#4a4aff" opacity=".04"/><circle cx="778" cy="659" r="66.164" fill="#4a4aff" opacity=".065"/><circle cx="613" cy="11" r="96.155" fill="#4a4aff" opacity=".046"/><circle cx="962" cy="984" r="79.704" fill="#4a4aff" opacity=".04"/><circle cx="767" cy="616" r="134.513" fill="#4a4aff" opacity=".035"/><circle cx="621" cy="868" r="69.555" fill="#4a4aff" opacity=".067"/><circle cx="540" cy="780" r="63.768" fill="#4a4aff" opacity=".068"/><circle cx="556" cy="263" r="77.493" fill="#4a4aff" opacity=".033"/><circle cx="366" cy="930" r="112.567" fill="#4a4aff" opacity=".025"/><circle cx="179" cy="25" r="140.624" fill="#4a4aff" opacity=".062"/><circle cx="130" cy="875" r="98.047" fill="#4a4aff" opacity=".031"/><circle cx="597" cy="636" r="43.113" fill="#4affff" opacity=".031"/><circle cx="640" cy="902" r="95.174" fill="#4affff" opacity=".056"/><circle cx="887" cy="278" r="85.535" fill="#4affff" opacity=".064"/><circle cx="333" cy="52" r="71.497" fill="#4affff" opacity=".032"/><circle cx="954" cy="971" r="58.757" fill="#4affff" opacity=".043"/><circle cx="217" cy="371" r="97.642" fill="#4affff" opacity=".069"/><circle cx="46" cy="19" r="70.134" fill="#4affff" opacity=".023"/><circle cx="359" cy="613" r="75.082" fill="#4affff" opacity=".045"/><circle cx="422" cy="992" r="109.064" fill="#4affff" opacity=".034"/><circle cx="867" cy="221" r="57.978" fill="#4affff" opacity=".058"/></svg>