<svg width="1000" height="1000" viewBox="0 0 1000 1000" xmlns="http://www.w3.org/2000/svg">
      <defs>
        <radialGradient id="nebulaGradient" cx="50%" cy="50%" r="70%" fx="50%" fy="50%">
          <stop offset="0%" stop-color="#4a4aff" stop-opacity="0.1"/>
          <stop offset="50%" stop-color="#4a4aff" stop-opacity="0.05"/>
          <stop offset="100%" stop-color="#4a4aff" stop-opacity="0"/>
        </radialGradient>
        <radialGradient id="nebulaGradient2" cx="30%" cy="30%" r="50%" fx="30%" fy="30%">
          <stop offset="0%" stop-color="#4affff" stop-opacity="0.1"/>
          <stop offset="50%" stop-color="#4affff" stop-opacity="0.05"/>
          <stop offset="100%" stop-color="#4affff" stop-opacity="0"/>
        </radialGradient>
      </defs>
      <rect width="1000" height="1000" fill="#0a0a2a"/>
      <circle cx="500" cy="500" r="400" fill="url(#nebulaGradient)"/>
      <circle cx="300" cy="300" r="300" fill="url(#nebulaGradient2)"/>
      <circle cx="118" cy="758" r="1.3606881370995088" fill="white" opacity="0.43963574199519756"/><circle cx="203" cy="635" r="0.9093407716154562" fill="white" opacity="0.8365661969085134"/><circle cx="490" cy="45" r="1.9463057065498326" fill="white" opacity="0.3483866325035052"/><circle cx="320" cy="13" r="0.7746978864502241" fill="white" opacity="0.8003600955954082"/><circle cx="945" cy="286" r="1.126858212915145" fill="white" opacity="0.3666501210342739"/><circle cx="404" cy="887" r="1.4460837817594063" fill="white" opacity="0.6719157267403579"/><circle cx="153" cy="604" r="1.3314089401610811" fill="white" opacity="0.9324925522500853"/><circle cx="958" cy="469" r="2.12218648473882" fill="white" opacity="0.21838318794740896"/><circle cx="841" cy="990" r="1.0782810160825687" fill="white" opacity="0.5155277085809244"/><circle cx="765" cy="657" r="0.5880113608255191" fill="white" opacity="0.717276480251515"/><circle cx="880" cy="865" r="1.9964183601066008" fill="white" opacity="0.31459076641345923"/><circle cx="34" cy="842" r="1.1685520512234047" fill="white" opacity="0.35087954494844403"/><circle cx="549" cy="751" r="2.078406936370221" fill="white" opacity="0.37130663270263825"/><circle cx="651" cy="65" r="0.5481478425175772" fill="white" opacity="0.333419154722136"/><circle cx="196" cy="776" r="0.699442607438785" fill="white" opacity="0.28521297143019225"/><circle cx="329" cy="539" r="2.1679806819753966" fill="white" opacity="0.2168352465965473"/><circle cx="828" cy="28" r="0.9445357132477139" fill="white" opacity="0.7800969623136023"/><circle cx="465" cy="522" r="1.678080890699146" fill="white" opacity="0.26116857563514345"/><circle cx="955" cy="792" r="1.322871289443456" fill="white" opacity="0.6108074310369229"/><circle cx="219" cy="575" r="1.2491772068887528" fill="white" opacity="0.8749823671886006"/><circle cx="302" cy="383" r="0.9702546777641299" fill="white" opacity="0.6635987082387222"/><circle cx="426" cy="191" r="0.9820221368716515" fill="white" opacity="0.5346293830463151"/><circle cx="965" cy="586" r="0.6617940567048031" fill="white" opacity="0.8677636470773276"/><circle cx="136" cy="997" r="1.581503711571763" fill="white" opacity="0.3427281709839388"/><circle cx="954" cy="132" r="2.4024386761003576" fill="white" opacity="0.985882869745347"/><circle cx="310" cy="473" r="1.8788102923071381" fill="white" opacity="0.6527362203833074"/><circle cx="784" cy="695" r="1.353746194671892" fill="white" opacity="0.5641542107778543"/><circle cx="381" cy="423" r="0.805185119294415" fill="white" opacity="0.24708635973156312"/><circle cx="72" cy="973" r="2.1240370611544974" fill="white" opacity="0.343495760539934"/><circle cx="880" cy="552" r="2.2110783375070717" fill="white" opacity="0.6210500541452875"/><circle cx="944" cy="239" r="2.4121714162488663" fill="white" opacity="0.9396658082623073"/><circle cx="121" cy="163" r="0.9775023568412688" fill="white" opacity="0.8322992201740149"/><circle cx="239" cy="252" r="2.3691204961947565" fill="white" opacity="0.7855486947437471"/><circle cx="258" cy="355" r="1.8750468874286002" fill="white" opacity="0.3388077521874763"/><circle cx="937" cy="666" r="1.03806305085042" fill="white" opacity="0.49833323402117763"/><circle cx="318" cy="322" r="2.189375366117731" fill="white" opacity="0.3470874450110678"/><circle cx="719" cy="671" r="0.6318643125285206" fill="white" opacity="0.8583170330387428"/><circle cx="776" cy="2" r="2.1168031775879284" fill="white" opacity="0.4782278624504329"/><circle cx="996" cy="1" r="1.7720189965714455" fill="white" opacity="0.48894767719369253"/><circle cx="769" cy="87" r="0.886120293264069" fill="white" opacity="0.6881597262109391"/><circle cx="588" cy="613" r="1.1483074059498928" fill="white" opacity="0.4806209175885876"/><circle cx="729" cy="372" r="1.9595528536173457" fill="white" opacity="0.4676620185405133"/><circle cx="48" cy="294" r="1.2004521177221412" fill="white" opacity="0.5603519803304928"/><circle cx="291" cy="230" r="2.1355883190571436" fill="white" opacity="0.7126229583117276"/><circle cx="725" cy="38" r="0.6091300822445329" fill="white" opacity="0.5007668868461655"/><circle cx="674" cy="650" r="1.8819553201999693" fill="white" opacity="0.6016225420129097"/><circle cx="619" cy="354" r="2.2735166913006357" fill="white" opacity="0.989163043036789"/><circle cx="96" cy="303" r="0.8016747120151582" fill="white" opacity="0.6535694100199396"/><circle cx="740" cy="494" r="2.06310535514662" fill="white" opacity="0.8419768794695026"/><circle cx="350" cy="341" r="1.775164766028198" fill="white" opacity="0.3608567025847679"/><circle cx="880" cy="677" r="2.292198577441625" fill="white" opacity="0.6454438949201182"/><circle cx="143" cy="804" r="0.9333560148898887" fill="white" opacity="0.48043190269291075"/><circle cx="867" cy="15" r="1.9193383236390433" fill="white" opacity="0.6563783780909749"/><circle cx="281" cy="573" r="2.2368695782090695" fill="white" opacity="0.6933173959004959"/><circle cx="88" cy="158" r="1.6306544976643735" fill="white" opacity="0.8351635409040699"/><circle cx="695" cy="683" r="1.1435430783257163" fill="white" opacity="0.9868047741854495"/><circle cx="611" cy="568" r="0.7236180469404729" fill="white" opacity="0.3622577424897612"/><circle cx="812" cy="939" r="1.5121509416237195" fill="white" opacity="0.3891996672086359"/><circle cx="575" cy="574" r="0.7172801740163517" fill="white" opacity="0.35629126846936077"/><circle cx="280" cy="614" r="1.1124574140472596" fill="white" opacity="0.4388362524427651"/><circle cx="487" cy="351" r="2.288178386076783" fill="white" opacity="0.35953765439135704"/><circle cx="200" cy="841" r="1.3705736505422874" fill="white" opacity="0.7883362786187753"/><circle cx="871" cy="522" r="1.5357870743165623" fill="white" opacity="0.39862444362785576"/><circle cx="184" cy="482" r="1.482367554184063" fill="white" opacity="0.6904177288832938"/><circle cx="936" cy="907" r="2.180193141778849" fill="white" opacity="0.7927981863754787"/><circle cx="74" cy="627" r="2.4601524559842227" fill="white" opacity="0.9381497109278085"/><circle cx="940" cy="101" r="2.394432808510706" fill="white" opacity="0.3642009612444692"/><circle cx="503" cy="218" r="1.3680111990883241" fill="white" opacity="0.3047157740154951"/><circle cx="328" cy="332" r="2.2096514364997306" fill="white" opacity="0.36520097074683966"/><circle cx="153" cy="770" r="2.485700633787944" fill="white" opacity="0.6615101489204644"/><circle cx="233" cy="855" r="1.8545850047051582" fill="white" opacity="0.29155191599263497"/><circle cx="856" cy="418" r="2.070791595803932" fill="white" opacity="0.4839032146558987"/><circle cx="738" cy="907" r="1.5665149370145084" fill="white" opacity="0.4066969047817544"/><circle cx="624" cy="408" r="0.5040447635662071" fill="white" opacity="0.6180062226674027"/><circle cx="454" cy="470" r="2.1866521498588334" fill="white" opacity="0.7301650070073109"/><circle cx="784" cy="57" r="2.15465118506567" fill="white" opacity="0.436955984951779"/><circle cx="55" cy="987" r="0.9490649215370963" fill="white" opacity="0.8244715699676033"/><circle cx="119" cy="382" r="1.8134400469568108" fill="white" opacity="0.8658610451285549"/><circle cx="346" cy="190" r="1.830944480619034" fill="white" opacity="0.25140347875332447"/><circle cx="696" cy="799" r="1.8758506314763128" fill="white" opacity="0.5207377530797943"/><circle cx="824" cy="993" r="0.7656924865784185" fill="white" opacity="0.7115805147234617"/><circle cx="231" cy="489" r="1.63839145734639" fill="white" opacity="0.6875661317216943"/><circle cx="105" cy="239" r="1.762337094371326" fill="white" opacity="0.8920270210724921"/><circle cx="798" cy="916" r="1.984512948406218" fill="white" opacity="0.5009834486110594"/><circle cx="699" cy="269" r="2.099631602711392" fill="white" opacity="0.4387649318866125"/><circle cx="134" cy="464" r="2.0465291900229388" fill="white" opacity="0.8555827509063785"/><circle cx="787" cy="976" r="1.383210004542347" fill="white" opacity="0.2775065959349625"/><circle cx="903" cy="162" r="1.2704953369519183" fill="white" opacity="0.6644455789380388"/><circle cx="472" cy="668" r="2.4188826441029514" fill="white" opacity="0.2655698100084758"/><circle cx="131" cy="677" r="1.9423490057286954" fill="white" opacity="0.5967302721342964"/><circle cx="185" cy="803" r="1.293280012211663" fill="white" opacity="0.7551014041757642"/><circle cx="48" cy="284" r="1.648403844308712" fill="white" opacity="0.9414149490424677"/><circle cx="614" cy="519" r="1.4622901403536175" fill="white" opacity="0.40666034143932656"/><circle cx="708" cy="399" r="1.7695232493913022" fill="white" opacity="0.6037060041042164"/><circle cx="329" cy="822" r="2.344794133735591" fill="white" opacity="0.634222860885999"/><circle cx="705" cy="779" r="0.9651876170244265" fill="white" opacity="0.4050941218731417"/><circle cx="681" cy="651" r="2.2287108502556072" fill="white" opacity="0.2535784165700996"/><circle cx="214" cy="770" r="1.3368288509912363" fill="white" opacity="0.7654725174814518"/><circle cx="842" cy="45" r="0.7062196191979733" fill="white" opacity="0.8955452737223144"/><circle cx="623" cy="457" r="1.3082994345670467" fill="white" opacity="0.9585852507374939"/><circle cx="513" cy="467" r="1.7181278309472616" fill="white" opacity="0.9841842736096906"/><circle cx="452" cy="442" r="0.8869591238311165" fill="white" opacity="0.7420592240254797"/><circle cx="122" cy="845" r="1.6403439846541996" fill="white" opacity="0.6115623275947693"/><circle cx="404" cy="589" r="2.424568182743548" fill="white" opacity="0.8106247552626156"/><circle cx="744" cy="322" r="0.5230278808226756" fill="white" opacity="0.499695688317693"/><circle cx="740" cy="621" r="1.3267522559575688" fill="white" opacity="0.21926097306579173"/><circle cx="984" cy="323" r="1.1862781038237107" fill="white" opacity="0.9451152725079164"/><circle cx="280" cy="857" r="1.1314298628263164" fill="white" opacity="0.6964474758778976"/><circle cx="284" cy="506" r="1.4046921083542308" fill="white" opacity="0.41244170130215463"/><circle cx="932" cy="482" r="1.4621503194162981" fill="white" opacity="0.7120291365612335"/><circle cx="865" cy="459" r="0.8563081077796681" fill="white" opacity="0.8215922947935732"/><circle cx="58" cy="147" r="2.2941872612934455" fill="white" opacity="0.4118315233745719"/><circle cx="730" cy="338" r="0.7304439402304643" fill="white" opacity="0.7101814184321751"/><circle cx="492" cy="779" r="0.6327273040701353" fill="white" opacity="0.5816444090244202"/><circle cx="900" cy="61" r="1.1313323322153197" fill="white" opacity="0.21475413882959205"/><circle cx="733" cy="782" r="1.2301190336189132" fill="white" opacity="0.2292378054533117"/><circle cx="652" cy="121" r="1.7696717032285774" fill="white" opacity="0.22365662835618905"/><circle cx="14" cy="489" r="1.0469809104895171" fill="white" opacity="0.9010024888100516"/><circle cx="590" cy="634" r="1.5369083152686374" fill="white" opacity="0.5180302869741291"/><circle cx="410" cy="223" r="0.8247460068883137" fill="white" opacity="0.5903788969745853"/><circle cx="531" cy="631" r="1.7123440974817261" fill="white" opacity="0.6696295428712112"/><circle cx="442" cy="3" r="0.9890218520312333" fill="white" opacity="0.6513342552706898"/><circle cx="544" cy="249" r="1.9117140772224883" fill="white" opacity="0.6090140378277497"/><circle cx="950" cy="765" r="1.4971163951753947" fill="white" opacity="0.5393747177716455"/><circle cx="357" cy="640" r="1.5019091295796634" fill="white" opacity="0.6840254519643021"/><circle cx="878" cy="839" r="1.2475129158241494" fill="white" opacity="0.4001189028547783"/><circle cx="248" cy="316" r="0.7343906029180283" fill="white" opacity="0.6247761521755268"/><circle cx="631" cy="933" r="1.257310433656881" fill="white" opacity="0.7513444183418434"/><circle cx="474" cy="124" r="1.8877954108818416" fill="white" opacity="0.598040944714527"/><circle cx="628" cy="218" r="1.5252685733910414" fill="white" opacity="0.9511481541096891"/><circle cx="284" cy="964" r="1.5294664481547167" fill="white" opacity="0.4837992846694988"/><circle cx="228" cy="204" r="2.043039988133921" fill="white" opacity="0.9896627476213664"/><circle cx="8" cy="709" r="0.8169981530345498" fill="white" opacity="0.8877281431611648"/><circle cx="667" cy="92" r="2.233179420767813" fill="white" opacity="0.4064751179715817"/><circle cx="638" cy="149" r="0.7328866952003645" fill="white" opacity="0.6841515188595224"/><circle cx="382" cy="305" r="0.7728221537908744" fill="white" opacity="0.9400635242639628"/><circle cx="844" cy="83" r="2.0275297301120214" fill="white" opacity="0.9068049628257053"/><circle cx="999" cy="651" r="1.6827201377960788" fill="white" opacity="0.39855671460451386"/><circle cx="656" cy="200" r="2.0255571232691842" fill="white" opacity="0.9512834550436979"/><circle cx="422" cy="347" r="1.7564610446209277" fill="white" opacity="0.43417822837206493"/><circle cx="709" cy="795" r="1.9229766802526518" fill="white" opacity="0.31168769526409346"/><circle cx="802" cy="982" r="1.1403337493131773" fill="white" opacity="0.7169784602102585"/><circle cx="433" cy="948" r="2.088798127203744" fill="white" opacity="0.22800113600100344"/><circle cx="410" cy="721" r="1.2593349671057505" fill="white" opacity="0.42991347912411104"/><circle cx="411" cy="997" r="1.1151575675622456" fill="white" opacity="0.6873620189954903"/><circle cx="162" cy="48" r="1.4013880106346446" fill="white" opacity="0.7052313680288984"/><circle cx="443" cy="149" r="0.552465991583881" fill="white" opacity="0.7278233081248924"/><circle cx="601" cy="437" r="1.2533639878339056" fill="white" opacity="0.835187699217248"/><circle cx="746" cy="608" r="2.4947142263718853" fill="white" opacity="0.9805653204110232"/><circle cx="833" cy="605" r="2.3753685351405287" fill="white" opacity="0.2552380067559945"/><circle cx="380" cy="567" r="1.3557085076388748" fill="white" opacity="0.9324425782237795"/><circle cx="330" cy="67" r="0.8100315056707763" fill="white" opacity="0.973536563455556"/><circle cx="421" cy="485" r="1.7311228609843332" fill="white" opacity="0.7845352510606209"/><circle cx="291" cy="461" r="0.5245590803325793" fill="white" opacity="0.4341535806224984"/><circle cx="119" cy="889" r="1.401681078998001" fill="white" opacity="0.7814888159861331"/><circle cx="356" cy="43" r="0.963096003325747" fill="white" opacity="0.5880677507519616"/><circle cx="994" cy="348" r="1.8503689870917843" fill="white" opacity="0.8903040085165637"/><circle cx="699" cy="892" r="2.332637724498569" fill="white" opacity="0.24854946195898348"/><circle cx="560" cy="529" r="2.143825734616189" fill="white" opacity="0.9929636628778675"/><circle cx="269" cy="293" r="1.298156121585436" fill="white" opacity="0.6956928922454996"/><circle cx="891" cy="886" r="1.1198132725501027" fill="white" opacity="0.5812450246852725"/><circle cx="328" cy="367" r="1.6212152302972491" fill="white" opacity="0.3681031136584194"/><circle cx="479" cy="291" r="2.1319849200290304" fill="white" opacity="0.35992371188504874"/><circle cx="986" cy="431" r="1.3778686250262502" fill="white" opacity="0.8043538925936111"/><circle cx="464" cy="354" r="0.9310162318834698" fill="white" opacity="0.9500601403409412"/><circle cx="670" cy="316" r="2.463201999835937" fill="white" opacity="0.8931927168362739"/><circle cx="201" cy="118" r="0.9809451256135797" fill="white" opacity="0.3548632689897637"/><circle cx="616" cy="255" r="1.4188853886376749" fill="white" opacity="0.8634564282800581"/><circle cx="731" cy="86" r="2.0551527537162815" fill="white" opacity="0.5057565394447232"/><circle cx="466" cy="394" r="1.70771683095446" fill="white" opacity="0.7362283066234154"/><circle cx="59" cy="533" r="1.5653164533707669" fill="white" opacity="0.8404194638515463"/><circle cx="649" cy="653" r="1.8137387420693702" fill="white" opacity="0.2715616322671924"/><circle cx="920" cy="524" r="0.7433665865658594" fill="white" opacity="0.504125306111822"/><circle cx="148" cy="490" r="1.6983320127064498" fill="white" opacity="0.42746121145898397"/><circle cx="363" cy="649" r="2.4257927070111958" fill="white" opacity="0.29199431454515956"/><circle cx="260" cy="734" r="2.3215766104981146" fill="white" opacity="0.5139093602571894"/><circle cx="945" cy="45" r="1.5614737253806341" fill="white" opacity="0.48921182773545"/><circle cx="745" cy="592" r="0.7138050068194954" fill="white" opacity="0.9689543228464119"/><circle cx="100" cy="242" r="1.5555848186634869" fill="white" opacity="0.2500419293395966"/><circle cx="278" cy="783" r="2.4247754752644783" fill="white" opacity="0.9364606698593732"/><circle cx="80" cy="719" r="2.23327313485038" fill="white" opacity="0.21099437708183155"/><circle cx="782" cy="865" r="1.2205413069056044" fill="white" opacity="0.5073670279680402"/><circle cx="989" cy="480" r="0.6225022152336841" fill="white" opacity="0.754248119928757"/><circle cx="641" cy="918" r="0.5508120747007688" fill="white" opacity="0.2876998847549104"/><circle cx="361" cy="903" r="1.2371701945249032" fill="white" opacity="0.9810735943869335"/><circle cx="683" cy="557" r="1.273070159820488" fill="white" opacity="0.8919140998339201"/><circle cx="110" cy="769" r="2.199987174431428" fill="white" opacity="0.41368010980764985"/><circle cx="253" cy="998" r="1.3251595114478842" fill="white" opacity="0.6277180786297972"/><circle cx="50" cy="629" r="1.9742183846649" fill="white" opacity="0.3941507472409782"/><circle cx="957" cy="754" r="1.8609606273698462" fill="white" opacity="0.3597388611779708"/><circle cx="935" cy="979" r="0.9432850303153097" fill="white" opacity="0.30169218887933147"/><circle cx="824" cy="862" r="1.73035134620672" fill="white" opacity="0.22806485045568403"/><circle cx="860" cy="601" r="2.134514234036119" fill="white" opacity="0.2864782633545856"/><circle cx="718" cy="684" r="2.2539429592490485" fill="white" opacity="0.504438226993115"/><circle cx="882" cy="371" r="1.0622820790131855" fill="white" opacity="0.42487910951749974"/><circle cx="791" cy="364" r="1.3474883992979332" fill="white" opacity="0.9898835949357092"/><circle cx="940" cy="198" r="1.392134830648855" fill="white" opacity="0.6952347632415863"/><circle cx="270" cy="112" r="1.073888555641787" fill="white" opacity="0.22792676580319196"/><circle cx="891" cy="523" r="2.2547935272081725" fill="white" opacity="0.23781007921757916"/><circle cx="892" cy="131" r="1.9584296936531813" fill="white" opacity="0.7247653234668785"/><circle cx="140" cy="568" r="1.9927246668226077" fill="white" opacity="0.6411394727525386"/><circle cx="570" cy="621" r="1.5752028270044591" fill="white" opacity="0.8449084136104765"/><circle cx="742" cy="872" r="1.0745582960437106" fill="white" opacity="0.7915489359448784"/><circle cx="754" cy="901" r="0.8358976962366356" fill="white" opacity="0.24952275898644258"/><circle cx="403" cy="345" r="2.0084903222054677" fill="white" opacity="0.7302831831744327"/><circle cx="209" cy="302" r="2.3517290557307473" fill="white" opacity="0.2532109921340059"/><circle cx="237" cy="229" r="1.5116471120342072" fill="white" opacity="0.5388380854801393"/><circle cx="51" cy="926" r="1.520436617230732" fill="white" opacity="0.23827232253904002"/><circle cx="29" cy="877" r="1.8371344328810935" fill="white" opacity="0.21739743277543191"/><circle cx="10" cy="409" r="2.4861206004428835" fill="white" opacity="0.949467990240352"/><circle cx="133" cy="456" r="0.530960639079507" fill="white" opacity="0.9351911173244241"/><circle cx="214" cy="122" r="2.155148739436713" fill="white" opacity="0.8177781139106974"/><circle cx="530" cy="102" r="1.089714250415411" fill="white" opacity="0.22390244845857518"/><circle cx="538" cy="31" r="0.9100250507681995" fill="white" opacity="0.9718304435340872"/><circle cx="55" cy="681" r="0.6858088296089533" fill="white" opacity="0.6422609523554921"/><circle cx="418" cy="193" r="1.9620074943804693" fill="white" opacity="0.7384672309751372"/><circle cx="400" cy="783" r="0.9911085517122524" fill="white" opacity="0.6878688255117185"/><circle cx="933" cy="97" r="1.5139309091041415" fill="white" opacity="0.7316294859408579"/><circle cx="339" cy="330" r="2.259865018610488" fill="white" opacity="0.3303694354240374"/><circle cx="581" cy="460" r="2.1437378407507275" fill="white" opacity="0.41189021032216594"/><circle cx="767" cy="182" r="0.6863179187408699" fill="white" opacity="0.8597351947771232"/><circle cx="746" cy="255" r="1.4394551588289977" fill="white" opacity="0.25904676163326884"/><circle cx="577" cy="788" r="1.3871989657492931" fill="white" opacity="0.3657977630442808"/><circle cx="271" cy="310" r="1.3009897289866177" fill="white" opacity="0.34564237875033665"/><circle cx="930" cy="983" r="2.179536286262337" fill="white" opacity="0.2232486882023249"/><circle cx="695" cy="93" r="1.9875264395777879" fill="white" opacity="0.7598712066807574"/><circle cx="446" cy="254" r="2.2489623842985447" fill="white" opacity="0.4197504850166194"/><circle cx="737" cy="543" r="1.4890127866108558" fill="white" opacity="0.5993195095525021"/><circle cx="408" cy="342" r="0.6444166128174729" fill="white" opacity="0.7721295307395952"/><circle cx="320" cy="588" r="2.125484008940039" fill="white" opacity="0.9955577582870594"/><circle cx="802" cy="916" r="2.189112185698371" fill="white" opacity="0.4463542448798894"/><circle cx="668" cy="724" r="0.8406563343802094" fill="white" opacity="0.776340595855026"/><circle cx="27" cy="790" r="1.1590403551784392" fill="white" opacity="0.5575568125643202"/><circle cx="498" cy="481" r="1.8174895461273959" fill="white" opacity="0.6281472544993495"/><circle cx="592" cy="919" r="2.3442732251941427" fill="white" opacity="0.2531972968899105"/><circle cx="845" cy="877" r="1.8432585185359622" fill="white" opacity="0.7094813258448265"/><circle cx="576" cy="589" r="2.175971466862213" fill="white" opacity="0.8224180725660284"/><circle cx="18" cy="977" r="0.9555422707061694" fill="white" opacity="0.35655679181917377"/><circle cx="156" cy="951" r="0.5031630650115586" fill="white" opacity="0.5169286334744059"/><circle cx="753" cy="146" r="0.6085986869924405" fill="white" opacity="0.5578081469569165"/><circle cx="440" cy="872" r="2.1363836513672054" fill="white" opacity="0.23973894215240749"/><circle cx="288" cy="177" r="2.2234470175042538" fill="white" opacity="0.4539594295415791"/><circle cx="330" cy="143" r="2.140647085400825" fill="white" opacity="0.6249554102808395"/><circle cx="366" cy="307" r="1.3883806194997748" fill="white" opacity="0.6175133446982675"/><circle cx="475" cy="73" r="2.0696415043627496" fill="white" opacity="0.9639864140540788"/><circle cx="799" cy="482" r="2.159379097786855" fill="white" opacity="0.4921779582582211"/><circle cx="289" cy="209" r="1.832425554376377" fill="white" opacity="0.3836355827276696"/><circle cx="12" cy="807" r="1.3540858337420532" fill="white" opacity="0.6599268141722472"/><circle cx="917" cy="310" r="1.3214039323864748" fill="white" opacity="0.5173901810344447"/><circle cx="429" cy="189" r="2.3071734260528416" fill="white" opacity="0.48269658586687963"/><circle cx="811" cy="649" r="1.7261819741372548" fill="white" opacity="0.5066118571379461"/><circle cx="797" cy="620" r="1.5499581885864724" fill="white" opacity="0.453677014113152"/><circle cx="738" cy="753" r="1.4442026661218197" fill="white" opacity="0.7883568784663035"/><circle cx="714" cy="823" r="0.5186425222662683" fill="white" opacity="0.9852105303117995"/><circle cx="475" cy="63" r="0.8204463129150437" fill="white" opacity="0.31474200395662727"/><circle cx="456" cy="346" r="1.845135808044203" fill="white" opacity="0.8746577393707469"/><circle cx="717" cy="78" r="2.1806863441274844" fill="white" opacity="0.506675875623608"/><circle cx="113" cy="185" r="1.3587208674849611" fill="white" opacity="0.32182554174838707"/><circle cx="749" cy="123" r="2.33489019658163" fill="white" opacity="0.7602123521351447"/><circle cx="422" cy="251" r="0.6697364390118867" fill="white" opacity="0.6349425192818222"/><circle cx="462" cy="684" r="1.1085635615259943" fill="white" opacity="0.6362453853152383"/><circle cx="647" cy="35" r="0.5121883569614631" fill="white" opacity="0.21361341967402547"/><circle cx="420" cy="706" r="0.9808678355370404" fill="white" opacity="0.6101234475125166"/><circle cx="16" cy="473" r="2.345138923416118" fill="white" opacity="0.7780034236603013"/><circle cx="636" cy="797" r="1.3985421934661297" fill="white" opacity="0.6181262235731333"/><circle cx="673" cy="894" r="2.0499228379261" fill="white" opacity="0.7650954811596429"/><circle cx="586" cy="707" r="0.7563560046120492" fill="white" opacity="0.9245474286779491"/><circle cx="445" cy="523" r="1.0307261237323626" fill="white" opacity="0.8640957901258188"/><circle cx="313" cy="329" r="1.1908558272376508" fill="white" opacity="0.5113204418677342"/><circle cx="465" cy="611" r="1.630203838651064" fill="white" opacity="0.8643694731268645"/><circle cx="683" cy="242" r="1.5748942126581071" fill="white" opacity="0.8049146138290082"/><circle cx="371" cy="70" r="0.5004401943826355" fill="white" opacity="0.21421309315855608"/><circle cx="228" cy="898" r="1.8383322844340828" fill="white" opacity="0.6101202776664405"/><circle cx="553" cy="940" r="2.467408067310731" fill="white" opacity="0.20365085979484177"/><circle cx="399" cy="807" r="0.8691052269726227" fill="white" opacity="0.6064516438594769"/><circle cx="25" cy="992" r="1.4769631676777344" fill="white" opacity="0.6613859238490496"/><circle cx="12" cy="415" r="1.0864057861139251" fill="white" opacity="0.5819781644229107"/><circle cx="5" cy="336" r="1.923490257456454" fill="white" opacity="0.4522109689866673"/><circle cx="450" cy="498" r="2.411195986433157" fill="white" opacity="0.7926537717662361"/><circle cx="17" cy="246" r="1.3033610251418741" fill="white" opacity="0.9008722038656105"/><circle cx="555" cy="486" r="1.188476006028115" fill="white" opacity="0.8102381613635579"/><circle cx="952" cy="607" r="0.751063652342923" fill="white" opacity="0.7093549822473286"/><circle cx="725" cy="625" r="1.9398066122037774" fill="white" opacity="0.7564220109353721"/><circle cx="221" cy="628" r="2.473274563203784" fill="white" opacity="0.9568036728828915"/><circle cx="968" cy="971" r="1.188109003477035" fill="white" opacity="0.23614060099910328"/><circle cx="714" cy="358" r="1.9512432410233207" fill="white" opacity="0.9691033439296595"/><circle cx="527" cy="143" r="2.3860605539189312" fill="white" opacity="0.24622839517542908"/><circle cx="386" cy="569" r="0.7501644671004448" fill="white" opacity="0.4196225134778351"/><circle cx="720" cy="917" r="1.5991320302055558" fill="white" opacity="0.5362045340114412"/><circle cx="903" cy="565" r="2.118707352084878" fill="white" opacity="0.4493288100733855"/><circle cx="557" cy="745" r="1.5902494750003418" fill="white" opacity="0.28015357735254887"/><circle cx="719" cy="245" r="1.0805677891065915" fill="white" opacity="0.9500285642658692"/><circle cx="613" cy="622" r="1.9231337811192049" fill="white" opacity="0.5574663502927399"/><circle cx="170" cy="221" r="0.6808600464201588" fill="white" opacity="0.3898758007091896"/><circle cx="294" cy="436" r="2.2894777668233295" fill="white" opacity="0.3174883541707718"/><circle cx="251" cy="460" r="0.6123200021533748" fill="white" opacity="0.7605828080133168"/><circle cx="749" cy="487" r="2.316412012738442" fill="white" opacity="0.4179000683020322"/><circle cx="914" cy="617" r="1.6535138858016443" fill="white" opacity="0.4407455685028239"/><circle cx="921" cy="203" r="1.3329018850598935" fill="white" opacity="0.6680093569005097"/><circle cx="46" cy="149" r="2.1453280440505247" fill="white" opacity="0.3710418471890384"/>
    </svg>