<svg width="1000" height="1000" viewBox="0 0 1000 1000" xmlns="http://www.w3.org/2000/svg">
      <defs>
        <radialGradient id="nebulaGradient" cx="50%" cy="50%" r="70%" fx="50%" fy="50%">
          <stop offset="0%" stop-color="#aa4aff" stop-opacity="0.1"/>
          <stop offset="50%" stop-color="#aa4aff" stop-opacity="0.05"/>
          <stop offset="100%" stop-color="#aa4aff" stop-opacity="0"/>
        </radialGradient>
        <radialGradient id="nebulaGradient2" cx="30%" cy="30%" r="50%" fx="30%" fy="30%">
          <stop offset="0%" stop-color="#ff4aaa" stop-opacity="0.1"/>
          <stop offset="50%" stop-color="#ff4aaa" stop-opacity="0.05"/>
          <stop offset="100%" stop-color="#ff4aaa" stop-opacity="0"/>
        </radialGradient>
      </defs>
      <rect width="1000" height="1000" fill="#1a0a2a"/>
      <circle cx="500" cy="500" r="400" fill="url(#nebulaGradient)"/>
      <circle cx="300" cy="300" r="300" fill="url(#nebulaGradient2)"/>
      <circle cx="186" cy="188" r="1.1701193548155504" fill="white" opacity="0.6353085453542213"/><circle cx="112" cy="733" r="1.724685009403999" fill="white" opacity="0.3314686823773945"/><circle cx="513" cy="664" r="1.457395393245609" fill="white" opacity="0.3912136962830188"/><circle cx="965" cy="589" r="1.0652330310417049" fill="white" opacity="0.5066320168636185"/><circle cx="432" cy="80" r="1.5296335162206316" fill="white" opacity="0.959078445117135"/><circle cx="826" cy="307" r="2.276012538377215" fill="white" opacity="0.5939062907840553"/><circle cx="999" cy="229" r="1.4584690926292643" fill="white" opacity="0.4496272146561182"/><circle cx="62" cy="525" r="1.804086491820939" fill="white" opacity="0.31934347385671225"/><circle cx="552" cy="858" r="1.2445178124215706" fill="white" opacity="0.3295200995815204"/><circle cx="355" cy="662" r="1.747639996206805" fill="white" opacity="0.8410145741463773"/><circle cx="175" cy="898" r="1.8074356146421935" fill="white" opacity="0.7637401540685784"/><circle cx="229" cy="138" r="2.224240009834265" fill="white" opacity="0.5639425797638978"/><circle cx="494" cy="292" r="1.5968734555482351" fill="white" opacity="0.3197789076610278"/><circle cx="323" cy="642" r="0.8219535043770754" fill="white" opacity="0.4589372513383264"/><circle cx="677" cy="481" r="1.9953673866643014" fill="white" opacity="0.5414665853458465"/><circle cx="844" cy="808" r="1.9750436936003677" fill="white" opacity="0.8732592244668573"/><circle cx="775" cy="312" r="0.8708402457572495" fill="white" opacity="0.3985755208744237"/><circle cx="840" cy="405" r="0.822006368602699" fill="white" opacity="0.3256778146046353"/><circle cx="495" cy="922" r="0.9564816137906802" fill="white" opacity="0.4640257367284461"/><circle cx="787" cy="582" r="1.690137092796287" fill="white" opacity="0.36830379688832093"/><circle cx="582" cy="132" r="1.5064030195269362" fill="white" opacity="0.30263161732057625"/><circle cx="544" cy="684" r="1.1503084815574676" fill="white" opacity="0.206468867652843"/><circle cx="83" cy="26" r="1.6017180967922746" fill="white" opacity="0.598896403626253"/><circle cx="728" cy="537" r="0.8484020524564637" fill="white" opacity="0.48452100685370714"/><circle cx="514" cy="954" r="0.5182622575217204" fill="white" opacity="0.7562978998083689"/><circle cx="235" cy="792" r="1.983272860778873" fill="white" opacity="0.4553915167331404"/><circle cx="270" cy="18" r="2.4027964342740065" fill="white" opacity="0.9043358885639292"/><circle cx="985" cy="833" r="1.9658597883939417" fill="white" opacity="0.8087557479938632"/><circle cx="562" cy="347" r="2.0345389959721234" fill="white" opacity="0.44973800905560124"/><circle cx="506" cy="809" r="0.5720349025648073" fill="white" opacity="0.3932138427889209"/><circle cx="725" cy="429" r="0.6008355253071658" fill="white" opacity="0.8154053352400841"/><circle cx="339" cy="849" r="1.2944831645286787" fill="white" opacity="0.23066165038424238"/><circle cx="439" cy="466" r="1.2277117621881275" fill="white" opacity="0.49637322006245416"/><circle cx="779" cy="777" r="2.380962596940383" fill="white" opacity="0.42373585166311956"/><circle cx="42" cy="775" r="1.198536773297708" fill="white" opacity="0.23902583848807205"/><circle cx="661" cy="181" r="1.688317089380054" fill="white" opacity="0.8642830263586629"/><circle cx="517" cy="260" r="1.0652009386044452" fill="white" opacity="0.8029922285038642"/><circle cx="956" cy="530" r="1.3837356589232015" fill="white" opacity="0.471123469026494"/><circle cx="797" cy="140" r="0.7651948425333788" fill="white" opacity="0.20764932915012704"/><circle cx="29" cy="134" r="2.12984394054387" fill="white" opacity="0.999816327196305"/><circle cx="641" cy="994" r="1.7150220291918115" fill="white" opacity="0.9064260035627576"/><circle cx="232" cy="973" r="1.3833629371132576" fill="white" opacity="0.817572717976371"/><circle cx="328" cy="12" r="1.9595446414972826" fill="white" opacity="0.6676074192775232"/><circle cx="928" cy="631" r="0.7419319921923848" fill="white" opacity="0.8898024931470243"/><circle cx="884" cy="329" r="1.066310642476457" fill="white" opacity="0.7756921427242236"/><circle cx="558" cy="229" r="1.616685206882842" fill="white" opacity="0.9011707620656975"/><circle cx="326" cy="414" r="1.3431192210584535" fill="white" opacity="0.8474321182810551"/><circle cx="589" cy="296" r="0.7437221428463561" fill="white" opacity="0.540937731392237"/><circle cx="703" cy="77" r="1.013101315411605" fill="white" opacity="0.2878247553447857"/><circle cx="260" cy="411" r="0.9990534969201912" fill="white" opacity="0.3688372018591043"/><circle cx="559" cy="947" r="1.218646561968927" fill="white" opacity="0.20275904302807923"/><circle cx="343" cy="250" r="2.362757200134897" fill="white" opacity="0.7532557603984797"/><circle cx="26" cy="661" r="0.6582485995329534" fill="white" opacity="0.772277835767635"/><circle cx="980" cy="286" r="0.822046900728115" fill="white" opacity="0.9354213279634682"/><circle cx="921" cy="377" r="1.3366229239367002" fill="white" opacity="0.42034390465337507"/><circle cx="747" cy="463" r="1.0814074312577557" fill="white" opacity="0.5051719059547894"/><circle cx="81" cy="617" r="2.292609080366677" fill="white" opacity="0.32488492598714735"/><circle cx="631" cy="107" r="1.1948487481771704" fill="white" opacity="0.5577747531054416"/><circle cx="482" cy="943" r="1.884697493011123" fill="white" opacity="0.8997049925356395"/><circle cx="100" cy="781" r="0.5263597545349756" fill="white" opacity="0.3921600305160835"/><circle cx="712" cy="72" r="0.5252088672601967" fill="white" opacity="0.20237608610016747"/><circle cx="751" cy="798" r="1.7225676927278157" fill="white" opacity="0.3012703360887823"/><circle cx="213" cy="418" r="1.0483775396663004" fill="white" opacity="0.901922016446522"/><circle cx="857" cy="555" r="1.099004769330024" fill="white" opacity="0.9306439560564992"/><circle cx="49" cy="401" r="0.5024033583980487" fill="white" opacity="0.5651722023051016"/><circle cx="815" cy="728" r="1.2824065824490867" fill="white" opacity="0.4840552824452067"/><circle cx="626" cy="173" r="1.9742987608403681" fill="white" opacity="0.3387943970865248"/><circle cx="143" cy="681" r="2.0168908322104633" fill="white" opacity="0.6038306167315458"/><circle cx="496" cy="643" r="2.2772844367740297" fill="white" opacity="0.7662137936740179"/><circle cx="730" cy="922" r="2.1882606884366607" fill="white" opacity="0.6435011602488748"/><circle cx="676" cy="396" r="1.132321023199328" fill="white" opacity="0.5992306986007632"/><circle cx="882" cy="785" r="0.9023111112122368" fill="white" opacity="0.8124933453197123"/><circle cx="398" cy="924" r="2.129379832966856" fill="white" opacity="0.3909780506620566"/><circle cx="219" cy="649" r="1.640414729321718" fill="white" opacity="0.8756205497585452"/><circle cx="674" cy="577" r="1.0305682391666457" fill="white" opacity="0.35381201559093134"/><circle cx="124" cy="100" r="1.2495284916180527" fill="white" opacity="0.4345913936616397"/><circle cx="793" cy="38" r="1.3674289414544" fill="white" opacity="0.4514299595983589"/><circle cx="640" cy="257" r="1.588041403715089" fill="white" opacity="0.6363682036211022"/><circle cx="660" cy="466" r="0.8501393668409141" fill="white" opacity="0.7245728479834319"/><circle cx="746" cy="937" r="0.7763103132258373" fill="white" opacity="0.2999964547366572"/><circle cx="861" cy="451" r="2.2128833422322858" fill="white" opacity="0.7778801026337516"/><circle cx="438" cy="443" r="1.290101145361311" fill="white" opacity="0.680779986621388"/><circle cx="85" cy="954" r="2.035005604767315" fill="white" opacity="0.8326122262709612"/><circle cx="725" cy="273" r="1.1836942842352074" fill="white" opacity="0.4125009858638162"/><circle cx="353" cy="575" r="1.3010300838700188" fill="white" opacity="0.8716277253369469"/><circle cx="239" cy="842" r="0.8746597218174323" fill="white" opacity="0.43724667562354774"/><circle cx="429" cy="120" r="0.7401856019533679" fill="white" opacity="0.4766023966820182"/><circle cx="462" cy="410" r="2.164355704969592" fill="white" opacity="0.6293715675888919"/><circle cx="968" cy="764" r="1.9766894663890042" fill="white" opacity="0.3869085569020152"/><circle cx="17" cy="652" r="1.8772247012822652" fill="white" opacity="0.9712467076044142"/><circle cx="268" cy="714" r="0.7029580880855066" fill="white" opacity="0.774857816451404"/><circle cx="689" cy="108" r="0.7704757541902798" fill="white" opacity="0.30670100267497863"/><circle cx="26" cy="214" r="1.0732809241574577" fill="white" opacity="0.7146516662758058"/><circle cx="501" cy="229" r="1.0091807800392059" fill="white" opacity="0.9649870452406233"/><circle cx="315" cy="123" r="1.9900798666613158" fill="white" opacity="0.6120196472442587"/><circle cx="563" cy="595" r="1.2752259777472905" fill="white" opacity="0.6763672244141654"/><circle cx="315" cy="220" r="1.0050530810300202" fill="white" opacity="0.32407354094978835"/><circle cx="386" cy="307" r="1.6545850630682728" fill="white" opacity="0.8512597132638795"/><circle cx="737" cy="854" r="2.259238845834782" fill="white" opacity="0.3742258117177226"/><circle cx="705" cy="895" r="1.6501597785555107" fill="white" opacity="0.8782600101327673"/><circle cx="963" cy="658" r="1.6392910030446752" fill="white" opacity="0.41721291426760543"/><circle cx="658" cy="8" r="1.9319930347426775" fill="white" opacity="0.9317897197897183"/><circle cx="454" cy="288" r="1.136853080464816" fill="white" opacity="0.7454498018227023"/><circle cx="859" cy="757" r="2.3982188524529673" fill="white" opacity="0.5975691138784462"/><circle cx="496" cy="550" r="1.3829568650728872" fill="white" opacity="0.7037513125574171"/><circle cx="189" cy="942" r="0.5716227963671403" fill="white" opacity="0.20424527870061732"/><circle cx="469" cy="944" r="1.5857865838490168" fill="white" opacity="0.45229045586527783"/><circle cx="3" cy="100" r="1.766473229324006" fill="white" opacity="0.4330358449841807"/><circle cx="885" cy="390" r="1.8557179376931656" fill="white" opacity="0.40908322760329946"/><circle cx="365" cy="134" r="2.2783774401279944" fill="white" opacity="0.5611715028945954"/><circle cx="46" cy="61" r="1.7404970181004962" fill="white" opacity="0.6625503559117739"/><circle cx="115" cy="24" r="1.470769501915783" fill="white" opacity="0.9613544023133036"/><circle cx="27" cy="65" r="2.0214054183983636" fill="white" opacity="0.36627110509000754"/><circle cx="360" cy="74" r="1.389118968545016" fill="white" opacity="0.3759469373138002"/><circle cx="56" cy="405" r="1.443694369356575" fill="white" opacity="0.6574372817985594"/><circle cx="702" cy="771" r="1.4540827392977747" fill="white" opacity="0.7330009542052285"/><circle cx="838" cy="93" r="0.6778142076024358" fill="white" opacity="0.8971526019680724"/><circle cx="393" cy="704" r="1.3910452453216395" fill="white" opacity="0.9522655691644901"/><circle cx="785" cy="898" r="1.726834939932301" fill="white" opacity="0.5333917683492322"/><circle cx="395" cy="660" r="1.6848760489586727" fill="white" opacity="0.2836537501106035"/><circle cx="848" cy="873" r="1.1063762417119718" fill="white" opacity="0.3805403393317681"/><circle cx="876" cy="641" r="1.732373917126555" fill="white" opacity="0.5507229126292545"/><circle cx="952" cy="636" r="2.0144409098474214" fill="white" opacity="0.9369885954932546"/><circle cx="663" cy="989" r="1.975412108307407" fill="white" opacity="0.49584819049781825"/><circle cx="254" cy="749" r="0.674431779407437" fill="white" opacity="0.25797841369785157"/><circle cx="368" cy="109" r="2.144086256664537" fill="white" opacity="0.617642717058243"/><circle cx="31" cy="229" r="2.297754008961663" fill="white" opacity="0.7418746418664188"/><circle cx="430" cy="732" r="1.5286007728518727" fill="white" opacity="0.41372198921541553"/><circle cx="887" cy="303" r="1.747547910823394" fill="white" opacity="0.49481339910911243"/><circle cx="419" cy="349" r="1.9376150469764455" fill="white" opacity="0.8207008507505373"/><circle cx="658" cy="750" r="0.6125014786732135" fill="white" opacity="0.7623074046019624"/><circle cx="451" cy="612" r="1.3802548940916157" fill="white" opacity="0.9483433736055165"/><circle cx="338" cy="777" r="1.1760658690758437" fill="white" opacity="0.5623988041058194"/><circle cx="109" cy="178" r="1.7090601145097049" fill="white" opacity="0.5074183304095297"/><circle cx="888" cy="429" r="1.2603237444017248" fill="white" opacity="0.4478677988261506"/><circle cx="827" cy="360" r="1.9908037642842928" fill="white" opacity="0.8934278723216993"/><circle cx="940" cy="491" r="0.7280188949309578" fill="white" opacity="0.37437957202810923"/><circle cx="496" cy="221" r="0.9574869843462106" fill="white" opacity="0.49491466152772845"/><circle cx="147" cy="63" r="0.6077673959335765" fill="white" opacity="0.333008309996343"/><circle cx="118" cy="546" r="1.0254008388104743" fill="white" opacity="0.9172740150837899"/><circle cx="453" cy="519" r="1.2151142761586669" fill="white" opacity="0.738319535213396"/><circle cx="453" cy="80" r="2.3813599499542297" fill="white" opacity="0.29191865667816813"/><circle cx="40" cy="866" r="1.6410122569193342" fill="white" opacity="0.3863778546727341"/><circle cx="448" cy="218" r="1.151860499544827" fill="white" opacity="0.27558283334858286"/><circle cx="327" cy="129" r="0.6418181368994347" fill="white" opacity="0.9447801460646481"/><circle cx="901" cy="128" r="1.0000621136409844" fill="white" opacity="0.617721738460778"/><circle cx="807" cy="662" r="1.9929403888934853" fill="white" opacity="0.696699479404083"/><circle cx="464" cy="267" r="0.8667798317032704" fill="white" opacity="0.720320968698569"/><circle cx="823" cy="219" r="0.5903391551848718" fill="white" opacity="0.6985794708694915"/><circle cx="431" cy="744" r="2.0433161459396474" fill="white" opacity="0.48596230766124365"/><circle cx="747" cy="945" r="2.260898511913236" fill="white" opacity="0.6524379266460296"/><circle cx="202" cy="890" r="1.455232778937606" fill="white" opacity="0.666761879967777"/><circle cx="37" cy="949" r="1.8557504035744166" fill="white" opacity="0.587827600006195"/><circle cx="845" cy="641" r="0.6662083658928095" fill="white" opacity="0.7429771530354305"/><circle cx="866" cy="755" r="1.1036217971926496" fill="white" opacity="0.9198515334790562"/><circle cx="985" cy="851" r="0.5167844664360861" fill="white" opacity="0.4385327903909058"/><circle cx="906" cy="416" r="0.5057550689014718" fill="white" opacity="0.5810194089745535"/><circle cx="285" cy="482" r="2.1809739821933136" fill="white" opacity="0.24535290082194747"/><circle cx="964" cy="835" r="1.495794859065359" fill="white" opacity="0.47840251459878175"/><circle cx="1" cy="978" r="2.029911571354464" fill="white" opacity="0.5505994116500075"/><circle cx="856" cy="218" r="2.0278690303647378" fill="white" opacity="0.4675138122783448"/><circle cx="379" cy="214" r="2.2491356211094327" fill="white" opacity="0.4541192741646045"/><circle cx="447" cy="155" r="2.118144179004309" fill="white" opacity="0.75194915248777"/><circle cx="318" cy="816" r="1.2998182542258316" fill="white" opacity="0.21245276534882349"/><circle cx="458" cy="48" r="2.374570748586157" fill="white" opacity="0.9956014741262951"/><circle cx="778" cy="97" r="2.3570895662424545" fill="white" opacity="0.9232996054641978"/><circle cx="560" cy="518" r="1.3434902138047784" fill="white" opacity="0.21418847281448328"/><circle cx="497" cy="984" r="2.3314953883106213" fill="white" opacity="0.5551279426342939"/><circle cx="541" cy="999" r="1.7039804304695205" fill="white" opacity="0.8268860509343898"/><circle cx="510" cy="373" r="2.129672778348166" fill="white" opacity="0.438539291645907"/><circle cx="769" cy="117" r="0.9264972026717988" fill="white" opacity="0.40288919522462496"/><circle cx="606" cy="474" r="1.8276930555502342" fill="white" opacity="0.31844968408168006"/><circle cx="166" cy="686" r="0.512456779126008" fill="white" opacity="0.36691528385798833"/><circle cx="523" cy="964" r="1.8402287601487202" fill="white" opacity="0.4421644277798432"/><circle cx="451" cy="749" r="0.9468729397702282" fill="white" opacity="0.21962647465909166"/><circle cx="428" cy="517" r="1.765197106430766" fill="white" opacity="0.24382383058654986"/><circle cx="499" cy="208" r="1.7790677334117166" fill="white" opacity="0.9081726507311314"/><circle cx="192" cy="264" r="2.059451271972988" fill="white" opacity="0.7922456955578356"/><circle cx="613" cy="467" r="1.055504245439372" fill="white" opacity="0.6664847992059946"/><circle cx="119" cy="440" r="0.7710819957441113" fill="white" opacity="0.20650628212214742"/><circle cx="202" cy="544" r="1.5602827662401548" fill="white" opacity="0.7563447709564128"/><circle cx="632" cy="499" r="1.0535210602795608" fill="white" opacity="0.5530041016562217"/><circle cx="755" cy="549" r="2.2978867701211527" fill="white" opacity="0.9328573703910554"/><circle cx="925" cy="392" r="1.7870488578712553" fill="white" opacity="0.5102582587542173"/><circle cx="820" cy="193" r="1.7986517600336986" fill="white" opacity="0.8179577179530544"/><circle cx="809" cy="211" r="0.9852449365114095" fill="white" opacity="0.6034725699996608"/><circle cx="335" cy="280" r="1.103829708454224" fill="white" opacity="0.41786959739134955"/><circle cx="289" cy="725" r="1.4674042539278838" fill="white" opacity="0.9137361669496225"/><circle cx="346" cy="552" r="2.222013959392558" fill="white" opacity="0.5707317500075677"/><circle cx="870" cy="509" r="2.0043300653008767" fill="white" opacity="0.34182237972045704"/><circle cx="627" cy="15" r="2.010506244483415" fill="white" opacity="0.5413489042621027"/><circle cx="405" cy="565" r="1.5117655907020513" fill="white" opacity="0.5393564692295718"/><circle cx="914" cy="54" r="0.5159153697676224" fill="white" opacity="0.5340649034778955"/><circle cx="672" cy="238" r="0.5351132353296149" fill="white" opacity="0.4474963628809663"/><circle cx="773" cy="327" r="2.0914038106951254" fill="white" opacity="0.3412392338157041"/><circle cx="312" cy="489" r="1.402105869514211" fill="white" opacity="0.32667981634863263"/><circle cx="184" cy="279" r="2.479272028005869" fill="white" opacity="0.2812779071864935"/><circle cx="973" cy="995" r="0.7079725536997308" fill="white" opacity="0.458383342197654"/><circle cx="990" cy="366" r="2.0053673689316764" fill="white" opacity="0.6815748241016966"/><circle cx="790" cy="777" r="2.09213656877972" fill="white" opacity="0.333431353996572"/><circle cx="364" cy="669" r="1.9422934787504778" fill="white" opacity="0.28373518329314573"/><circle cx="546" cy="671" r="2.407058913385693" fill="white" opacity="0.32335085597350677"/><circle cx="335" cy="381" r="0.6253345352425477" fill="white" opacity="0.8964817700638485"/><circle cx="310" cy="678" r="1.6277059192401393" fill="white" opacity="0.5770945807523777"/><circle cx="539" cy="527" r="2.0104293343392357" fill="white" opacity="0.6091929214555187"/><circle cx="946" cy="685" r="1.758314367986313" fill="white" opacity="0.8255024696532283"/><circle cx="680" cy="284" r="1.0950922172181987" fill="white" opacity="0.4137274982864483"/><circle cx="463" cy="145" r="2.054759641159706" fill="white" opacity="0.9545858454605776"/><circle cx="787" cy="299" r="1.5827295924277949" fill="white" opacity="0.9809321641561477"/><circle cx="121" cy="596" r="1.3399107285465104" fill="white" opacity="0.9913810783718222"/><circle cx="30" cy="529" r="1.557747370760692" fill="white" opacity="0.8186428804123984"/><circle cx="307" cy="312" r="1.8751458364588944" fill="white" opacity="0.7535237614914787"/><circle cx="798" cy="77" r="2.4321113013437063" fill="white" opacity="0.5422001395807792"/><circle cx="445" cy="888" r="1.4039120393518214" fill="white" opacity="0.4626371161019943"/><circle cx="662" cy="28" r="2.119351001338506" fill="white" opacity="0.24462964765864792"/><circle cx="328" cy="897" r="1.4693822394830107" fill="white" opacity="0.29239850203538875"/><circle cx="36" cy="156" r="2.2100512943836157" fill="white" opacity="0.45486790063741633"/><circle cx="200" cy="114" r="2.4315445062888306" fill="white" opacity="0.5073809177533992"/><circle cx="648" cy="560" r="1.595675623642319" fill="white" opacity="0.7823485109962185"/><circle cx="864" cy="154" r="1.9625027793894776" fill="white" opacity="0.590250384981173"/><circle cx="298" cy="189" r="1.6969790215812668" fill="white" opacity="0.4614389397643024"/><circle cx="904" cy="703" r="0.5714472181062353" fill="white" opacity="0.6877355699025453"/><circle cx="710" cy="53" r="2.066413269225563" fill="white" opacity="0.5460053129379865"/><circle cx="39" cy="853" r="1.3903805328204868" fill="white" opacity="0.2712711087209691"/><circle cx="158" cy="650" r="1.9855034805664298" fill="white" opacity="0.389726747903382"/><circle cx="583" cy="922" r="2.0095843602174064" fill="white" opacity="0.7266119501158432"/><circle cx="630" cy="722" r="0.7893498508778185" fill="white" opacity="0.8094585772268792"/><circle cx="462" cy="288" r="2.103497493002049" fill="white" opacity="0.3229315414414325"/><circle cx="920" cy="152" r="2.2314672628748107" fill="white" opacity="0.3266260930253635"/><circle cx="744" cy="194" r="2.1638561147475577" fill="white" opacity="0.9643011158851973"/><circle cx="995" cy="122" r="2.3433072662670518" fill="white" opacity="0.806245060764901"/><circle cx="617" cy="923" r="0.8432248472546133" fill="white" opacity="0.3352637219266157"/><circle cx="90" cy="868" r="0.7005357303638511" fill="white" opacity="0.5583862026681512"/><circle cx="531" cy="502" r="2.152210671554443" fill="white" opacity="0.43096791284470265"/><circle cx="615" cy="940" r="1.0082889015036574" fill="white" opacity="0.44147977715857184"/><circle cx="580" cy="284" r="1.3719677216018233" fill="white" opacity="0.9537260853907827"/><circle cx="129" cy="428" r="2.466869525142146" fill="white" opacity="0.5565187351590386"/><circle cx="452" cy="673" r="1.4206735290099184" fill="white" opacity="0.38738373609692794"/><circle cx="116" cy="150" r="0.9674508577717287" fill="white" opacity="0.32669021701615364"/><circle cx="362" cy="951" r="1.8719792374692483" fill="white" opacity="0.7679446136701751"/><circle cx="533" cy="167" r="2.3094292328951864" fill="white" opacity="0.7455739386604481"/><circle cx="663" cy="118" r="1.2253813548910522" fill="white" opacity="0.42014312914352864"/><circle cx="581" cy="731" r="1.9558052026749126" fill="white" opacity="0.29222184290831255"/><circle cx="21" cy="820" r="1.796624050829767" fill="white" opacity="0.41330234421637435"/><circle cx="815" cy="101" r="1.407164988351051" fill="white" opacity="0.3695443494935843"/><circle cx="564" cy="434" r="1.52448975733124" fill="white" opacity="0.3144273551702938"/><circle cx="943" cy="314" r="2.1803060677768236" fill="white" opacity="0.6986851781818709"/><circle cx="213" cy="864" r="0.507425289054996" fill="white" opacity="0.6654304777217208"/><circle cx="591" cy="195" r="1.6619823437114687" fill="white" opacity="0.7953297705319602"/><circle cx="898" cy="543" r="0.7249082194195817" fill="white" opacity="0.7359190213107059"/><circle cx="935" cy="547" r="2.0079747759661184" fill="white" opacity="0.37380900178986054"/><circle cx="892" cy="876" r="1.467918752707404" fill="white" opacity="0.23881069122769746"/><circle cx="389" cy="987" r="1.4008214288555685" fill="white" opacity="0.24020886549290132"/><circle cx="366" cy="968" r="1.686014471392245" fill="white" opacity="0.20512737093039135"/><circle cx="358" cy="276" r="0.8169472716514541" fill="white" opacity="0.7598957886751763"/><circle cx="268" cy="820" r="1.190530014485557" fill="white" opacity="0.915193598440941"/><circle cx="951" cy="858" r="0.723614026544301" fill="white" opacity="0.6292825037560816"/><circle cx="605" cy="845" r="2.4715327612549554" fill="white" opacity="0.42757744078627447"/><circle cx="526" cy="202" r="1.7484591407050418" fill="white" opacity="0.5819075428826643"/><circle cx="430" cy="572" r="0.7853126161707809" fill="white" opacity="0.8846250943547094"/><circle cx="648" cy="2" r="0.7018083898490142" fill="white" opacity="0.6304505887446685"/><circle cx="728" cy="695" r="0.5449144972178694" fill="white" opacity="0.5612964420825546"/><circle cx="527" cy="172" r="0.6984202139685562" fill="white" opacity="0.40605101159560775"/><circle cx="562" cy="355" r="1.579923690321714" fill="white" opacity="0.8254816149304989"/><circle cx="66" cy="277" r="2.0206047494530894" fill="white" opacity="0.6190583242980605"/><circle cx="215" cy="466" r="1.4313934365540204" fill="white" opacity="0.6766187284095448"/><circle cx="999" cy="186" r="1.2288659935738009" fill="white" opacity="0.6423028942417837"/><circle cx="154" cy="723" r="2.397108894051432" fill="white" opacity="0.2231041241230944"/><circle cx="367" cy="285" r="1.525402684142191" fill="white" opacity="0.9022886435642832"/><circle cx="169" cy="292" r="2.115484162562752" fill="white" opacity="0.42901704812847985"/><circle cx="392" cy="313" r="1.5236763280790067" fill="white" opacity="0.3230014757869224"/><circle cx="663" cy="465" r="0.5691959467229308" fill="white" opacity="0.7689352787783732"/><circle cx="330" cy="671" r="2.1230667089825292" fill="white" opacity="0.745933894288676"/><circle cx="535" cy="515" r="1.0763762622989823" fill="white" opacity="0.3103209411549248"/><circle cx="640" cy="491" r="1.420763175990512" fill="white" opacity="0.4061012543688556"/><circle cx="861" cy="583" r="1.3220548936077035" fill="white" opacity="0.8263503268439198"/><circle cx="715" cy="803" r="1.539190768767778" fill="white" opacity="0.6920856318932542"/><circle cx="263" cy="301" r="2.479788053759949" fill="white" opacity="0.2269608232454271"/><circle cx="556" cy="271" r="2.1768265043568054" fill="white" opacity="0.37389723230595173"/><circle cx="762" cy="221" r="0.7059430793958068" fill="white" opacity="0.838000005058319"/><circle cx="469" cy="227" r="0.8298779504554772" fill="white" opacity="0.5162159402915624"/><circle cx="701" cy="638" r="1.939361728791233" fill="white" opacity="0.4811653385188187"/><circle cx="235" cy="497" r="0.971206068445027" fill="white" opacity="0.9563001338605666"/><circle cx="112" cy="946" r="0.7392246577953645" fill="white" opacity="0.20289429884621946"/><circle cx="516" cy="605" r="2.4967822743394317" fill="white" opacity="0.523109150718423"/><circle cx="270" cy="65" r="2.1960209724723545" fill="white" opacity="0.8142093708118052"/><circle cx="805" cy="971" r="1.5898920867516004" fill="white" opacity="0.3047972986804894"/><circle cx="742" cy="287" r="0.5966997108091294" fill="white" opacity="0.2649625126808248"/><circle cx="375" cy="815" r="2.2866693329725827" fill="white" opacity="0.26244765801933245"/><circle cx="507" cy="466" r="1.2385911129577956" fill="white" opacity="0.6837279989451726"/><circle cx="155" cy="338" r="1.3023154958385206" fill="white" opacity="0.5820167818029371"/><circle cx="940" cy="452" r="0.5290683516096322" fill="white" opacity="0.8032263462834732"/><circle cx="424" cy="325" r="1.8410722204001826" fill="white" opacity="0.5774658680008292"/><circle cx="53" cy="976" r="1.6046210464699082" fill="white" opacity="0.37484543452899877"/><circle cx="694" cy="411" r="0.5795278125999364" fill="white" opacity="0.25224823503344407"/><circle cx="859" cy="396" r="0.6425429994848546" fill="white" opacity="0.5315882793491364"/><circle cx="441" cy="291" r="1.777192973690045" fill="white" opacity="0.5945282548402047"/><circle cx="966" cy="57" r="1.2388331064867786" fill="white" opacity="0.5601837290367031"/><circle cx="244" cy="702" r="1.0683662348486784" fill="white" opacity="0.9206763378077185"/><circle cx="462" cy="366" r="1.1161845674152913" fill="white" opacity="0.36549054679766474"/>
    </svg>