<svg xmlns="http://www.w3.org/2000/svg" width="1000" height="1000" viewBox="0 0 1000 1000"><defs><radialGradient id="nebulaGradient" cx="50%" cy="50%" r="70%" fx="50%" fy="50%"><stop offset="0%" stop-color="#aa4aff" stop-opacity=".1"/><stop offset="50%" stop-color="#aa4aff" stop-opacity=".05"/><stop offset="100%" stop-color="#aa4aff" stop-opacity="0"/></radialGradient><radialGradient id="nebulaGradient2" cx="30%" cy="30%" r="50%" fx="30%" fy="30%"><stop offset="0%" stop-color="#ff4aaa" stop-opacity=".1"/><stop offset="50%" stop-color="#ff4aaa" stop-opacity=".05"/><stop offset="100%" stop-color="#ff4aaa" stop-opacity="0"/></radialGradient></defs><rect width="1000" height="1000" fill="#1a0a2a"/><circle cx="500" cy="500" r="400" fill="url(#nebulaGradient)"/><circle cx="300" cy="300" r="300" fill="url(#nebulaGradient2)"/><circle cx="186" cy="188" r="1.17" fill="#fff" opacity=".635"/><circle cx="112" cy="733" r="1.725" fill="#fff" opacity=".331"/><circle cx="513" cy="664" r="1.457" fill="#fff" opacity=".391"/><circle cx="965" cy="589" r="1.065" fill="#fff" opacity=".507"/><circle cx="432" cy="80" r="1.53" fill="#fff" opacity=".959"/><circle cx="826" cy="307" r="2.276" fill="#fff" opacity=".594"/><circle cx="999" cy="229" r="1.458" fill="#fff" opacity=".45"/><circle cx="62" cy="525" r="1.804" fill="#fff" opacity=".319"/><circle cx="552" cy="858" r="1.245" fill="#fff" opacity=".33"/><circle cx="355" cy="662" r="1.748" fill="#fff" opacity=".841"/><circle cx="175" cy="898" r="1.807" fill="#fff" opacity=".764"/><circle cx="229" cy="138" r="2.224" fill="#fff" opacity=".564"/><circle cx="494" cy="292" r="1.597" fill="#fff" opacity=".32"/><circle cx="323" cy="642" r=".822" fill="#fff" opacity=".459"/><circle cx="677" cy="481" r="1.995" fill="#fff" opacity=".541"/><circle cx="844" cy="808" r="1.975" fill="#fff" opacity=".873"/><circle cx="775" cy="312" r=".871" fill="#fff" opacity=".399"/><circle cx="840" cy="405" r=".822" fill="#fff" opacity=".326"/><circle cx="495" cy="922" r=".956" fill="#fff" opacity=".464"/><circle cx="787" cy="582" r="1.69" fill="#fff" opacity=".368"/><circle cx="582" cy="132" r="1.506" fill="#fff" opacity=".303"/><circle cx="544" cy="684" r="1.15" fill="#fff" opacity=".206"/><circle cx="83" cy="26" r="1.602" fill="#fff" opacity=".599"/><circle cx="728" cy="537" r=".848" fill="#fff" opacity=".485"/><circle cx="514" cy="954" r=".518" fill="#fff" opacity=".756"/><circle cx="235" cy="792" r="1.983" fill="#fff" opacity=".455"/><circle cx="270" cy="18" r="2.403" fill="#fff" opacity=".904"/><circle cx="985" cy="833" r="1.966" fill="#fff" opacity=".809"/><circle cx="562" cy="347" r="2.035" fill="#fff" opacity=".45"/><circle cx="506" cy="809" r=".572" fill="#fff" opacity=".393"/><circle cx="725" cy="429" r=".601" fill="#fff" opacity=".815"/><circle cx="339" cy="849" r="1.294" fill="#fff" opacity=".231"/><circle cx="439" cy="466" r="1.228" fill="#fff" opacity=".496"/><circle cx="779" cy="777" r="2.381" fill="#fff" opacity=".424"/><circle cx="42" cy="775" r="1.199" fill="#fff" opacity=".239"/><circle cx="661" cy="181" r="1.688" fill="#fff" opacity=".864"/><circle cx="517" cy="260" r="1.065" fill="#fff" opacity=".803"/><circle cx="956" cy="530" r="1.384" fill="#fff" opacity=".471"/><circle cx="797" cy="140" r=".765" fill="#fff" opacity=".208"/><circle cx="29" cy="134" r="2.13" fill="#fff" opacity="1"/><circle cx="641" cy="994" r="1.715" fill="#fff" opacity=".906"/><circle cx="232" cy="973" r="1.383" fill="#fff" opacity=".818"/><circle cx="328" cy="12" r="1.96" fill="#fff" opacity=".668"/><circle cx="928" cy="631" r=".742" fill="#fff" opacity=".89"/><circle cx="884" cy="329" r="1.066" fill="#fff" opacity=".776"/><circle cx="558" cy="229" r="1.617" fill="#fff" opacity=".901"/><circle cx="326" cy="414" r="1.343" fill="#fff" opacity=".847"/><circle cx="589" cy="296" r=".744" fill="#fff" opacity=".541"/><circle cx="703" cy="77" r="1.013" fill="#fff" opacity=".288"/><circle cx="260" cy="411" r=".999" fill="#fff" opacity=".369"/><circle cx="559" cy="947" r="1.219" fill="#fff" opacity=".203"/><circle cx="343" cy="250" r="2.363" fill="#fff" opacity=".753"/><circle cx="26" cy="661" r=".658" fill="#fff" opacity=".772"/><circle cx="980" cy="286" r=".822" fill="#fff" opacity=".935"/><circle cx="921" cy="377" r="1.337" fill="#fff" opacity=".42"/><circle cx="747" cy="463" r="1.081" fill="#fff" opacity=".505"/><circle cx="81" cy="617" r="2.293" fill="#fff" opacity=".325"/><circle cx="631" cy="107" r="1.195" fill="#fff" opacity=".558"/><circle cx="482" cy="943" r="1.885" fill="#fff" opacity=".9"/><circle cx="100" cy="781" r=".526" fill="#fff" opacity=".392"/><circle cx="712" cy="72" r=".525" fill="#fff" opacity=".202"/><circle cx="751" cy="798" r="1.723" fill="#fff" opacity=".301"/><circle cx="213" cy="418" r="1.048" fill="#fff" opacity=".902"/><circle cx="857" cy="555" r="1.099" fill="#fff" opacity=".931"/><circle cx="49" cy="401" r=".502" fill="#fff" opacity=".565"/><circle cx="815" cy="728" r="1.282" fill="#fff" opacity=".484"/><circle cx="626" cy="173" r="1.974" fill="#fff" opacity=".339"/><circle cx="143" cy="681" r="2.017" fill="#fff" opacity=".604"/><circle cx="496" cy="643" r="2.277" fill="#fff" opacity=".766"/><circle cx="730" cy="922" r="2.188" fill="#fff" opacity=".644"/><circle cx="676" cy="396" r="1.132" fill="#fff" opacity=".599"/><circle cx="882" cy="785" r=".902" fill="#fff" opacity=".812"/><circle cx="398" cy="924" r="2.129" fill="#fff" opacity=".391"/><circle cx="219" cy="649" r="1.64" fill="#fff" opacity=".876"/><circle cx="674" cy="577" r="1.031" fill="#fff" opacity=".354"/><circle cx="124" cy="100" r="1.25" fill="#fff" opacity=".435"/><circle cx="793" cy="38" r="1.367" fill="#fff" opacity=".451"/><circle cx="640" cy="257" r="1.588" fill="#fff" opacity=".636"/><circle cx="660" cy="466" r=".85" fill="#fff" opacity=".725"/><circle cx="746" cy="937" r=".776" fill="#fff" opacity=".3"/><circle cx="861" cy="451" r="2.213" fill="#fff" opacity=".778"/><circle cx="438" cy="443" r="1.29" fill="#fff" opacity=".681"/><circle cx="85" cy="954" r="2.035" fill="#fff" opacity=".833"/><circle cx="725" cy="273" r="1.184" fill="#fff" opacity=".413"/><circle cx="353" cy="575" r="1.301" fill="#fff" opacity=".872"/><circle cx="239" cy="842" r=".875" fill="#fff" opacity=".437"/><circle cx="429" cy="120" r=".74" fill="#fff" opacity=".477"/><circle cx="462" cy="410" r="2.164" fill="#fff" opacity=".629"/><circle cx="968" cy="764" r="1.977" fill="#fff" opacity=".387"/><circle cx="17" cy="652" r="1.877" fill="#fff" opacity=".971"/><circle cx="268" cy="714" r=".703" fill="#fff" opacity=".775"/><circle cx="689" cy="108" r=".77" fill="#fff" opacity=".307"/><circle cx="26" cy="214" r="1.073" fill="#fff" opacity=".715"/><circle cx="501" cy="229" r="1.009" fill="#fff" opacity=".965"/><circle cx="315" cy="123" r="1.99" fill="#fff" opacity=".612"/><circle cx="563" cy="595" r="1.275" fill="#fff" opacity=".676"/><circle cx="315" cy="220" r="1.005" fill="#fff" opacity=".324"/><circle cx="386" cy="307" r="1.655" fill="#fff" opacity=".851"/><circle cx="737" cy="854" r="2.259" fill="#fff" opacity=".374"/><circle cx="705" cy="895" r="1.65" fill="#fff" opacity=".878"/><circle cx="963" cy="658" r="1.639" fill="#fff" opacity=".417"/><circle cx="658" cy="8" r="1.932" fill="#fff" opacity=".932"/><circle cx="454" cy="288" r="1.137" fill="#fff" opacity=".745"/><circle cx="859" cy="757" r="2.398" fill="#fff" opacity=".598"/><circle cx="496" cy="550" r="1.383" fill="#fff" opacity=".704"/><circle cx="189" cy="942" r=".572" fill="#fff" opacity=".204"/><circle cx="469" cy="944" r="1.586" fill="#fff" opacity=".452"/><circle cx="3" cy="100" r="1.766" fill="#fff" opacity=".433"/><circle cx="885" cy="390" r="1.856" fill="#fff" opacity=".409"/><circle cx="365" cy="134" r="2.278" fill="#fff" opacity=".561"/><circle cx="46" cy="61" r="1.74" fill="#fff" opacity=".663"/><circle cx="115" cy="24" r="1.471" fill="#fff" opacity=".961"/><circle cx="27" cy="65" r="2.021" fill="#fff" opacity=".366"/><circle cx="360" cy="74" r="1.389" fill="#fff" opacity=".376"/><circle cx="56" cy="405" r="1.444" fill="#fff" opacity=".657"/><circle cx="702" cy="771" r="1.454" fill="#fff" opacity=".733"/><circle cx="838" cy="93" r=".678" fill="#fff" opacity=".897"/><circle cx="393" cy="704" r="1.391" fill="#fff" opacity=".952"/><circle cx="785" cy="898" r="1.727" fill="#fff" opacity=".533"/><circle cx="395" cy="660" r="1.685" fill="#fff" opacity=".284"/><circle cx="848" cy="873" r="1.106" fill="#fff" opacity=".381"/><circle cx="876" cy="641" r="1.732" fill="#fff" opacity=".551"/><circle cx="952" cy="636" r="2.014" fill="#fff" opacity=".937"/><circle cx="663" cy="989" r="1.975" fill="#fff" opacity=".496"/><circle cx="254" cy="749" r=".674" fill="#fff" opacity=".258"/><circle cx="368" cy="109" r="2.144" fill="#fff" opacity=".618"/><circle cx="31" cy="229" r="2.298" fill="#fff" opacity=".742"/><circle cx="430" cy="732" r="1.529" fill="#fff" opacity=".414"/><circle cx="887" cy="303" r="1.748" fill="#fff" opacity=".495"/><circle cx="419" cy="349" r="1.938" fill="#fff" opacity=".821"/><circle cx="658" cy="750" r=".613" fill="#fff" opacity=".762"/><circle cx="451" cy="612" r="1.38" fill="#fff" opacity=".948"/><circle cx="338" cy="777" r="1.176" fill="#fff" opacity=".562"/><circle cx="109" cy="178" r="1.709" fill="#fff" opacity=".507"/><circle cx="888" cy="429" r="1.26" fill="#fff" opacity=".448"/><circle cx="827" cy="360" r="1.991" fill="#fff" opacity=".893"/><circle cx="940" cy="491" r=".728" fill="#fff" opacity=".374"/><circle cx="496" cy="221" r=".957" fill="#fff" opacity=".495"/><circle cx="147" cy="63" r=".608" fill="#fff" opacity=".333"/><circle cx="118" cy="546" r="1.025" fill="#fff" opacity=".917"/><circle cx="453" cy="519" r="1.215" fill="#fff" opacity=".738"/><circle cx="453" cy="80" r="2.381" fill="#fff" opacity=".292"/><circle cx="40" cy="866" r="1.641" fill="#fff" opacity=".386"/><circle cx="448" cy="218" r="1.152" fill="#fff" opacity=".276"/><circle cx="327" cy="129" r=".642" fill="#fff" opacity=".945"/><circle cx="901" cy="128" r="1" fill="#fff" opacity=".618"/><circle cx="807" cy="662" r="1.993" fill="#fff" opacity=".697"/><circle cx="464" cy="267" r=".867" fill="#fff" opacity=".72"/><circle cx="823" cy="219" r=".59" fill="#fff" opacity=".699"/><circle cx="431" cy="744" r="2.043" fill="#fff" opacity=".486"/><circle cx="747" cy="945" r="2.261" fill="#fff" opacity=".652"/><circle cx="202" cy="890" r="1.455" fill="#fff" opacity=".667"/><circle cx="37" cy="949" r="1.856" fill="#fff" opacity=".588"/><circle cx="845" cy="641" r=".666" fill="#fff" opacity=".743"/><circle cx="866" cy="755" r="1.104" fill="#fff" opacity=".92"/><circle cx="985" cy="851" r=".517" fill="#fff" opacity=".439"/><circle cx="906" cy="416" r=".506" fill="#fff" opacity=".581"/><circle cx="285" cy="482" r="2.181" fill="#fff" opacity=".245"/><circle cx="964" cy="835" r="1.496" fill="#fff" opacity=".478"/><circle cx="1" cy="978" r="2.03" fill="#fff" opacity=".551"/><circle cx="856" cy="218" r="2.028" fill="#fff" opacity=".468"/><circle cx="379" cy="214" r="2.249" fill="#fff" opacity=".454"/><circle cx="447" cy="155" r="2.118" fill="#fff" opacity=".752"/><circle cx="318" cy="816" r="1.3" fill="#fff" opacity=".212"/><circle cx="458" cy="48" r="2.375" fill="#fff" opacity=".996"/><circle cx="778" cy="97" r="2.357" fill="#fff" opacity=".923"/><circle cx="560" cy="518" r="1.343" fill="#fff" opacity=".214"/><circle cx="497" cy="984" r="2.331" fill="#fff" opacity=".555"/><circle cx="541" cy="999" r="1.704" fill="#fff" opacity=".827"/><circle cx="510" cy="373" r="2.13" fill="#fff" opacity=".439"/><circle cx="769" cy="117" r=".926" fill="#fff" opacity=".403"/><circle cx="606" cy="474" r="1.828" fill="#fff" opacity=".318"/><circle cx="166" cy="686" r=".512" fill="#fff" opacity=".367"/><circle cx="523" cy="964" r="1.84" fill="#fff" opacity=".442"/><circle cx="451" cy="749" r=".947" fill="#fff" opacity=".22"/><circle cx="428" cy="517" r="1.765" fill="#fff" opacity=".244"/><circle cx="499" cy="208" r="1.779" fill="#fff" opacity=".908"/><circle cx="192" cy="264" r="2.059" fill="#fff" opacity=".792"/><circle cx="613" cy="467" r="1.056" fill="#fff" opacity=".666"/><circle cx="119" cy="440" r=".771" fill="#fff" opacity=".207"/><circle cx="202" cy="544" r="1.56" fill="#fff" opacity=".756"/><circle cx="632" cy="499" r="1.054" fill="#fff" opacity=".553"/><circle cx="755" cy="549" r="2.298" fill="#fff" opacity=".933"/><circle cx="925" cy="392" r="1.787" fill="#fff" opacity=".51"/><circle cx="820" cy="193" r="1.799" fill="#fff" opacity=".818"/><circle cx="809" cy="211" r=".985" fill="#fff" opacity=".603"/><circle cx="335" cy="280" r="1.104" fill="#fff" opacity=".418"/><circle cx="289" cy="725" r="1.467" fill="#fff" opacity=".914"/><circle cx="346" cy="552" r="2.222" fill="#fff" opacity=".571"/><circle cx="870" cy="509" r="2.004" fill="#fff" opacity=".342"/><circle cx="627" cy="15" r="2.011" fill="#fff" opacity=".541"/><circle cx="405" cy="565" r="1.512" fill="#fff" opacity=".539"/><circle cx="914" cy="54" r=".516" fill="#fff" opacity=".534"/><circle cx="672" cy="238" r=".535" fill="#fff" opacity=".447"/><circle cx="773" cy="327" r="2.091" fill="#fff" opacity=".341"/><circle cx="312" cy="489" r="1.402" fill="#fff" opacity=".327"/><circle cx="184" cy="279" r="2.479" fill="#fff" opacity=".281"/><circle cx="973" cy="995" r=".708" fill="#fff" opacity=".458"/><circle cx="990" cy="366" r="2.005" fill="#fff" opacity=".682"/><circle cx="790" cy="777" r="2.092" fill="#fff" opacity=".333"/><circle cx="364" cy="669" r="1.942" fill="#fff" opacity=".284"/><circle cx="546" cy="671" r="2.407" fill="#fff" opacity=".323"/><circle cx="335" cy="381" r=".625" fill="#fff" opacity=".896"/><circle cx="310" cy="678" r="1.628" fill="#fff" opacity=".577"/><circle cx="539" cy="527" r="2.01" fill="#fff" opacity=".609"/><circle cx="946" cy="685" r="1.758" fill="#fff" opacity=".826"/><circle cx="680" cy="284" r="1.095" fill="#fff" opacity=".414"/><circle cx="463" cy="145" r="2.055" fill="#fff" opacity=".955"/><circle cx="787" cy="299" r="1.583" fill="#fff" opacity=".981"/><circle cx="121" cy="596" r="1.34" fill="#fff" opacity=".991"/><circle cx="30" cy="529" r="1.558" fill="#fff" opacity=".819"/><circle cx="307" cy="312" r="1.875" fill="#fff" opacity=".754"/><circle cx="798" cy="77" r="2.432" fill="#fff" opacity=".542"/><circle cx="445" cy="888" r="1.404" fill="#fff" opacity=".463"/><circle cx="662" cy="28" r="2.119" fill="#fff" opacity=".245"/><circle cx="328" cy="897" r="1.469" fill="#fff" opacity=".292"/><circle cx="36" cy="156" r="2.21" fill="#fff" opacity=".455"/><circle cx="200" cy="114" r="2.432" fill="#fff" opacity=".507"/><circle cx="648" cy="560" r="1.596" fill="#fff" opacity=".782"/><circle cx="864" cy="154" r="1.963" fill="#fff" opacity=".59"/><circle cx="298" cy="189" r="1.697" fill="#fff" opacity=".461"/><circle cx="904" cy="703" r=".571" fill="#fff" opacity=".688"/><circle cx="710" cy="53" r="2.066" fill="#fff" opacity=".546"/><circle cx="39" cy="853" r="1.39" fill="#fff" opacity=".271"/><circle cx="158" cy="650" r="1.986" fill="#fff" opacity=".39"/><circle cx="583" cy="922" r="2.01" fill="#fff" opacity=".727"/><circle cx="630" cy="722" r=".789" fill="#fff" opacity=".809"/><circle cx="462" cy="288" r="2.103" fill="#fff" opacity=".323"/><circle cx="920" cy="152" r="2.231" fill="#fff" opacity=".327"/><circle cx="744" cy="194" r="2.164" fill="#fff" opacity=".964"/><circle cx="995" cy="122" r="2.343" fill="#fff" opacity=".806"/><circle cx="617" cy="923" r=".843" fill="#fff" opacity=".335"/><circle cx="90" cy="868" r=".701" fill="#fff" opacity=".558"/><circle cx="531" cy="502" r="2.152" fill="#fff" opacity=".431"/><circle cx="615" cy="940" r="1.008" fill="#fff" opacity=".441"/><circle cx="580" cy="284" r="1.372" fill="#fff" opacity=".954"/><circle cx="129" cy="428" r="2.467" fill="#fff" opacity=".557"/><circle cx="452" cy="673" r="1.421" fill="#fff" opacity=".387"/><circle cx="116" cy="150" r=".967" fill="#fff" opacity=".327"/><circle cx="362" cy="951" r="1.872" fill="#fff" opacity=".768"/><circle cx="533" cy="167" r="2.309" fill="#fff" opacity=".746"/><circle cx="663" cy="118" r="1.225" fill="#fff" opacity=".42"/><circle cx="581" cy="731" r="1.956" fill="#fff" opacity=".292"/><circle cx="21" cy="820" r="1.797" fill="#fff" opacity=".413"/><circle cx="815" cy="101" r="1.407" fill="#fff" opacity=".37"/><circle cx="564" cy="434" r="1.524" fill="#fff" opacity=".314"/><circle cx="943" cy="314" r="2.18" fill="#fff" opacity=".699"/><circle cx="213" cy="864" r=".507" fill="#fff" opacity=".665"/><circle cx="591" cy="195" r="1.662" fill="#fff" opacity=".795"/><circle cx="898" cy="543" r=".725" fill="#fff" opacity=".736"/><circle cx="935" cy="547" r="2.008" fill="#fff" opacity=".374"/><circle cx="892" cy="876" r="1.468" fill="#fff" opacity=".239"/><circle cx="389" cy="987" r="1.401" fill="#fff" opacity=".24"/><circle cx="366" cy="968" r="1.686" fill="#fff" opacity=".205"/><circle cx="358" cy="276" r=".817" fill="#fff" opacity=".76"/><circle cx="268" cy="820" r="1.191" fill="#fff" opacity=".915"/><circle cx="951" cy="858" r=".724" fill="#fff" opacity=".629"/><circle cx="605" cy="845" r="2.472" fill="#fff" opacity=".428"/><circle cx="526" cy="202" r="1.748" fill="#fff" opacity=".582"/><circle cx="430" cy="572" r=".785" fill="#fff" opacity=".885"/><circle cx="648" cy="2" r=".702" fill="#fff" opacity=".63"/><circle cx="728" cy="695" r=".545" fill="#fff" opacity=".561"/><circle cx="527" cy="172" r=".698" fill="#fff" opacity=".406"/><circle cx="562" cy="355" r="1.58" fill="#fff" opacity=".825"/><circle cx="66" cy="277" r="2.021" fill="#fff" opacity=".619"/><circle cx="215" cy="466" r="1.431" fill="#fff" opacity=".677"/><circle cx="999" cy="186" r="1.229" fill="#fff" opacity=".642"/><circle cx="154" cy="723" r="2.397" fill="#fff" opacity=".223"/><circle cx="367" cy="285" r="1.525" fill="#fff" opacity=".902"/><circle cx="169" cy="292" r="2.115" fill="#fff" opacity=".429"/><circle cx="392" cy="313" r="1.524" fill="#fff" opacity=".323"/><circle cx="663" cy="465" r=".569" fill="#fff" opacity=".769"/><circle cx="330" cy="671" r="2.123" fill="#fff" opacity=".746"/><circle cx="535" cy="515" r="1.076" fill="#fff" opacity=".31"/><circle cx="640" cy="491" r="1.421" fill="#fff" opacity=".406"/><circle cx="861" cy="583" r="1.322" fill="#fff" opacity=".826"/><circle cx="715" cy="803" r="1.539" fill="#fff" opacity=".692"/><circle cx="263" cy="301" r="2.48" fill="#fff" opacity=".227"/><circle cx="556" cy="271" r="2.177" fill="#fff" opacity=".374"/><circle cx="762" cy="221" r=".706" fill="#fff" opacity=".838"/><circle cx="469" cy="227" r=".83" fill="#fff" opacity=".516"/><circle cx="701" cy="638" r="1.939" fill="#fff" opacity=".481"/><circle cx="235" cy="497" r=".971" fill="#fff" opacity=".956"/><circle cx="112" cy="946" r=".739" fill="#fff" opacity=".203"/><circle cx="516" cy="605" r="2.497" fill="#fff" opacity=".523"/><circle cx="270" cy="65" r="2.196" fill="#fff" opacity=".814"/><circle cx="805" cy="971" r="1.59" fill="#fff" opacity=".305"/><circle cx="742" cy="287" r=".597" fill="#fff" opacity=".265"/><circle cx="375" cy="815" r="2.287" fill="#fff" opacity=".262"/><circle cx="507" cy="466" r="1.239" fill="#fff" opacity=".684"/><circle cx="155" cy="338" r="1.302" fill="#fff" opacity=".582"/><circle cx="940" cy="452" r=".529" fill="#fff" opacity=".803"/><circle cx="424" cy="325" r="1.841" fill="#fff" opacity=".577"/><circle cx="53" cy="976" r="1.605" fill="#fff" opacity=".375"/><circle cx="694" cy="411" r=".58" fill="#fff" opacity=".252"/><circle cx="859" cy="396" r=".643" fill="#fff" opacity=".532"/><circle cx="441" cy="291" r="1.777" fill="#fff" opacity=".595"/><circle cx="966" cy="57" r="1.239" fill="#fff" opacity=".56"/><circle cx="244" cy="702" r="1.068" fill="#fff" opacity=".921"/><circle cx="462" cy="366" r="1.116" fill="#fff" opacity=".365"/></svg>