<svg xmlns="http://www.w3.org/2000/svg" width="1000" height="1000" viewBox="0 0 1000 1000"><defs><radialGradient id="nebulaGradient" cx="50%" cy="50%" r="70%" fx="50%" fy="50%"><stop offset="0%" stop-color="#4a4aff" stop-opacity=".1"/><stop offset="50%" stop-color="#4a4aff" stop-opacity=".05"/><stop offset="100%" stop-color="#4a4aff" stop-opacity="0"/></radialGradient><radialGradient id="nebulaGradient2" cx="30%" cy="30%" r="50%" fx="30%" fy="30%"><stop offset="0%" stop-color="#4affff" stop-opacity=".1"/><stop offset="50%" stop-color="#4affff" stop-opacity=".05"/><stop offset="100%" stop-color="#4affff" stop-opacity="0"/></radialGradient></defs><rect width="1000" height="1000" fill="#0a0a2a"/><circle cx="500" cy="500" r="400" fill="url(#nebulaGradient)"/><circle cx="300" cy="300" r="300" fill="url(#nebulaGradient2)"/><circle cx="118" cy="758" r="1.361" fill="#fff" opacity=".44"/><circle cx="203" cy="635" r=".909" fill="#fff" opacity=".837"/><circle cx="490" cy="45" r="1.946" fill="#fff" opacity=".348"/><circle cx="320" cy="13" r=".775" fill="#fff" opacity=".8"/><circle cx="945" cy="286" r="1.127" fill="#fff" opacity=".367"/><circle cx="404" cy="887" r="1.446" fill="#fff" opacity=".672"/><circle cx="153" cy="604" r="1.331" fill="#fff" opacity=".932"/><circle cx="958" cy="469" r="2.122" fill="#fff" opacity=".218"/><circle cx="841" cy="990" r="1.078" fill="#fff" opacity=".516"/><circle cx="765" cy="657" r=".588" fill="#fff" opacity=".717"/><circle cx="880" cy="865" r="1.996" fill="#fff" opacity=".315"/><circle cx="34" cy="842" r="1.169" fill="#fff" opacity=".351"/><circle cx="549" cy="751" r="2.078" fill="#fff" opacity=".371"/><circle cx="651" cy="65" r=".548" fill="#fff" opacity=".333"/><circle cx="196" cy="776" r=".699" fill="#fff" opacity=".285"/><circle cx="329" cy="539" r="2.168" fill="#fff" opacity=".217"/><circle cx="828" cy="28" r=".945" fill="#fff" opacity=".78"/><circle cx="465" cy="522" r="1.678" fill="#fff" opacity=".261"/><circle cx="955" cy="792" r="1.323" fill="#fff" opacity=".611"/><circle cx="219" cy="575" r="1.249" fill="#fff" opacity=".875"/><circle cx="302" cy="383" r=".97" fill="#fff" opacity=".664"/><circle cx="426" cy="191" r=".982" fill="#fff" opacity=".535"/><circle cx="965" cy="586" r=".662" fill="#fff" opacity=".868"/><circle cx="136" cy="997" r="1.582" fill="#fff" opacity=".343"/><circle cx="954" cy="132" r="2.402" fill="#fff" opacity=".986"/><circle cx="310" cy="473" r="1.879" fill="#fff" opacity=".653"/><circle cx="784" cy="695" r="1.354" fill="#fff" opacity=".564"/><circle cx="381" cy="423" r=".805" fill="#fff" opacity=".247"/><circle cx="72" cy="973" r="2.124" fill="#fff" opacity=".343"/><circle cx="880" cy="552" r="2.211" fill="#fff" opacity=".621"/><circle cx="944" cy="239" r="2.412" fill="#fff" opacity=".94"/><circle cx="121" cy="163" r=".978" fill="#fff" opacity=".832"/><circle cx="239" cy="252" r="2.369" fill="#fff" opacity=".786"/><circle cx="258" cy="355" r="1.875" fill="#fff" opacity=".339"/><circle cx="937" cy="666" r="1.038" fill="#fff" opacity=".498"/><circle cx="318" cy="322" r="2.189" fill="#fff" opacity=".347"/><circle cx="719" cy="671" r=".632" fill="#fff" opacity=".858"/><circle cx="776" cy="2" r="2.117" fill="#fff" opacity=".478"/><circle cx="996" cy="1" r="1.772" fill="#fff" opacity=".489"/><circle cx="769" cy="87" r=".886" fill="#fff" opacity=".688"/><circle cx="588" cy="613" r="1.148" fill="#fff" opacity=".481"/><circle cx="729" cy="372" r="1.96" fill="#fff" opacity=".468"/><circle cx="48" cy="294" r="1.2" fill="#fff" opacity=".56"/><circle cx="291" cy="230" r="2.136" fill="#fff" opacity=".713"/><circle cx="725" cy="38" r=".609" fill="#fff" opacity=".501"/><circle cx="674" cy="650" r="1.882" fill="#fff" opacity=".602"/><circle cx="619" cy="354" r="2.274" fill="#fff" opacity=".989"/><circle cx="96" cy="303" r=".802" fill="#fff" opacity=".654"/><circle cx="740" cy="494" r="2.063" fill="#fff" opacity=".842"/><circle cx="350" cy="341" r="1.775" fill="#fff" opacity=".361"/><circle cx="880" cy="677" r="2.292" fill="#fff" opacity=".645"/><circle cx="143" cy="804" r=".933" fill="#fff" opacity=".48"/><circle cx="867" cy="15" r="1.919" fill="#fff" opacity=".656"/><circle cx="281" cy="573" r="2.237" fill="#fff" opacity=".693"/><circle cx="88" cy="158" r="1.631" fill="#fff" opacity=".835"/><circle cx="695" cy="683" r="1.144" fill="#fff" opacity=".987"/><circle cx="611" cy="568" r=".724" fill="#fff" opacity=".362"/><circle cx="812" cy="939" r="1.512" fill="#fff" opacity=".389"/><circle cx="575" cy="574" r=".717" fill="#fff" opacity=".356"/><circle cx="280" cy="614" r="1.112" fill="#fff" opacity=".439"/><circle cx="487" cy="351" r="2.288" fill="#fff" opacity=".36"/><circle cx="200" cy="841" r="1.371" fill="#fff" opacity=".788"/><circle cx="871" cy="522" r="1.536" fill="#fff" opacity=".399"/><circle cx="184" cy="482" r="1.482" fill="#fff" opacity=".69"/><circle cx="936" cy="907" r="2.18" fill="#fff" opacity=".793"/><circle cx="74" cy="627" r="2.46" fill="#fff" opacity=".938"/><circle cx="940" cy="101" r="2.394" fill="#fff" opacity=".364"/><circle cx="503" cy="218" r="1.368" fill="#fff" opacity=".305"/><circle cx="328" cy="332" r="2.21" fill="#fff" opacity=".365"/><circle cx="153" cy="770" r="2.486" fill="#fff" opacity=".662"/><circle cx="233" cy="855" r="1.855" fill="#fff" opacity=".292"/><circle cx="856" cy="418" r="2.071" fill="#fff" opacity=".484"/><circle cx="738" cy="907" r="1.567" fill="#fff" opacity=".407"/><circle cx="624" cy="408" r=".504" fill="#fff" opacity=".618"/><circle cx="454" cy="470" r="2.187" fill="#fff" opacity=".73"/><circle cx="784" cy="57" r="2.155" fill="#fff" opacity=".437"/><circle cx="55" cy="987" r=".949" fill="#fff" opacity=".824"/><circle cx="119" cy="382" r="1.813" fill="#fff" opacity=".866"/><circle cx="346" cy="190" r="1.831" fill="#fff" opacity=".251"/><circle cx="696" cy="799" r="1.876" fill="#fff" opacity=".521"/><circle cx="824" cy="993" r=".766" fill="#fff" opacity=".712"/><circle cx="231" cy="489" r="1.638" fill="#fff" opacity=".688"/><circle cx="105" cy="239" r="1.762" fill="#fff" opacity=".892"/><circle cx="798" cy="916" r="1.985" fill="#fff" opacity=".501"/><circle cx="699" cy="269" r="2.1" fill="#fff" opacity=".439"/><circle cx="134" cy="464" r="2.047" fill="#fff" opacity=".856"/><circle cx="787" cy="976" r="1.383" fill="#fff" opacity=".278"/><circle cx="903" cy="162" r="1.27" fill="#fff" opacity=".664"/><circle cx="472" cy="668" r="2.419" fill="#fff" opacity=".266"/><circle cx="131" cy="677" r="1.942" fill="#fff" opacity=".597"/><circle cx="185" cy="803" r="1.293" fill="#fff" opacity=".755"/><circle cx="48" cy="284" r="1.648" fill="#fff" opacity=".941"/><circle cx="614" cy="519" r="1.462" fill="#fff" opacity=".407"/><circle cx="708" cy="399" r="1.77" fill="#fff" opacity=".604"/><circle cx="329" cy="822" r="2.345" fill="#fff" opacity=".634"/><circle cx="705" cy="779" r=".965" fill="#fff" opacity=".405"/><circle cx="681" cy="651" r="2.229" fill="#fff" opacity=".254"/><circle cx="214" cy="770" r="1.337" fill="#fff" opacity=".765"/><circle cx="842" cy="45" r=".706" fill="#fff" opacity=".896"/><circle cx="623" cy="457" r="1.308" fill="#fff" opacity=".959"/><circle cx="513" cy="467" r="1.718" fill="#fff" opacity=".984"/><circle cx="452" cy="442" r=".887" fill="#fff" opacity=".742"/><circle cx="122" cy="845" r="1.64" fill="#fff" opacity=".612"/><circle cx="404" cy="589" r="2.425" fill="#fff" opacity=".811"/><circle cx="744" cy="322" r=".523" fill="#fff" opacity=".5"/><circle cx="740" cy="621" r="1.327" fill="#fff" opacity=".219"/><circle cx="984" cy="323" r="1.186" fill="#fff" opacity=".945"/><circle cx="280" cy="857" r="1.131" fill="#fff" opacity=".696"/><circle cx="284" cy="506" r="1.405" fill="#fff" opacity=".412"/><circle cx="932" cy="482" r="1.462" fill="#fff" opacity=".712"/><circle cx="865" cy="459" r=".856" fill="#fff" opacity=".822"/><circle cx="58" cy="147" r="2.294" fill="#fff" opacity=".412"/><circle cx="730" cy="338" r=".73" fill="#fff" opacity=".71"/><circle cx="492" cy="779" r=".633" fill="#fff" opacity=".582"/><circle cx="900" cy="61" r="1.131" fill="#fff" opacity=".215"/><circle cx="733" cy="782" r="1.23" fill="#fff" opacity=".229"/><circle cx="652" cy="121" r="1.77" fill="#fff" opacity=".224"/><circle cx="14" cy="489" r="1.047" fill="#fff" opacity=".901"/><circle cx="590" cy="634" r="1.537" fill="#fff" opacity=".518"/><circle cx="410" cy="223" r=".825" fill="#fff" opacity=".59"/><circle cx="531" cy="631" r="1.712" fill="#fff" opacity=".67"/><circle cx="442" cy="3" r=".989" fill="#fff" opacity=".651"/><circle cx="544" cy="249" r="1.912" fill="#fff" opacity=".609"/><circle cx="950" cy="765" r="1.497" fill="#fff" opacity=".539"/><circle cx="357" cy="640" r="1.502" fill="#fff" opacity=".684"/><circle cx="878" cy="839" r="1.248" fill="#fff" opacity=".4"/><circle cx="248" cy="316" r=".734" fill="#fff" opacity=".625"/><circle cx="631" cy="933" r="1.257" fill="#fff" opacity=".751"/><circle cx="474" cy="124" r="1.888" fill="#fff" opacity=".598"/><circle cx="628" cy="218" r="1.525" fill="#fff" opacity=".951"/><circle cx="284" cy="964" r="1.529" fill="#fff" opacity=".484"/><circle cx="228" cy="204" r="2.043" fill="#fff" opacity=".99"/><circle cx="8" cy="709" r=".817" fill="#fff" opacity=".888"/><circle cx="667" cy="92" r="2.233" fill="#fff" opacity=".406"/><circle cx="638" cy="149" r=".733" fill="#fff" opacity=".684"/><circle cx="382" cy="305" r=".773" fill="#fff" opacity=".94"/><circle cx="844" cy="83" r="2.028" fill="#fff" opacity=".907"/><circle cx="999" cy="651" r="1.683" fill="#fff" opacity=".399"/><circle cx="656" cy="200" r="2.026" fill="#fff" opacity=".951"/><circle cx="422" cy="347" r="1.756" fill="#fff" opacity=".434"/><circle cx="709" cy="795" r="1.923" fill="#fff" opacity=".312"/><circle cx="802" cy="982" r="1.14" fill="#fff" opacity=".717"/><circle cx="433" cy="948" r="2.089" fill="#fff" opacity=".228"/><circle cx="410" cy="721" r="1.259" fill="#fff" opacity=".43"/><circle cx="411" cy="997" r="1.115" fill="#fff" opacity=".687"/><circle cx="162" cy="48" r="1.401" fill="#fff" opacity=".705"/><circle cx="443" cy="149" r=".552" fill="#fff" opacity=".728"/><circle cx="601" cy="437" r="1.253" fill="#fff" opacity=".835"/><circle cx="746" cy="608" r="2.495" fill="#fff" opacity=".981"/><circle cx="833" cy="605" r="2.375" fill="#fff" opacity=".255"/><circle cx="380" cy="567" r="1.356" fill="#fff" opacity=".932"/><circle cx="330" cy="67" r=".81" fill="#fff" opacity=".974"/><circle cx="421" cy="485" r="1.731" fill="#fff" opacity=".785"/><circle cx="291" cy="461" r=".525" fill="#fff" opacity=".434"/><circle cx="119" cy="889" r="1.402" fill="#fff" opacity=".781"/><circle cx="356" cy="43" r=".963" fill="#fff" opacity=".588"/><circle cx="994" cy="348" r="1.85" fill="#fff" opacity=".89"/><circle cx="699" cy="892" r="2.333" fill="#fff" opacity=".249"/><circle cx="560" cy="529" r="2.144" fill="#fff" opacity=".993"/><circle cx="269" cy="293" r="1.298" fill="#fff" opacity=".696"/><circle cx="891" cy="886" r="1.12" fill="#fff" opacity=".581"/><circle cx="328" cy="367" r="1.621" fill="#fff" opacity=".368"/><circle cx="479" cy="291" r="2.132" fill="#fff" opacity=".36"/><circle cx="986" cy="431" r="1.378" fill="#fff" opacity=".804"/><circle cx="464" cy="354" r=".931" fill="#fff" opacity=".95"/><circle cx="670" cy="316" r="2.463" fill="#fff" opacity=".893"/><circle cx="201" cy="118" r=".981" fill="#fff" opacity=".355"/><circle cx="616" cy="255" r="1.419" fill="#fff" opacity=".863"/><circle cx="731" cy="86" r="2.055" fill="#fff" opacity=".506"/><circle cx="466" cy="394" r="1.708" fill="#fff" opacity=".736"/><circle cx="59" cy="533" r="1.565" fill="#fff" opacity=".84"/><circle cx="649" cy="653" r="1.814" fill="#fff" opacity=".272"/><circle cx="920" cy="524" r=".743" fill="#fff" opacity=".504"/><circle cx="148" cy="490" r="1.698" fill="#fff" opacity=".427"/><circle cx="363" cy="649" r="2.426" fill="#fff" opacity=".292"/><circle cx="260" cy="734" r="2.322" fill="#fff" opacity=".514"/><circle cx="945" cy="45" r="1.561" fill="#fff" opacity=".489"/><circle cx="745" cy="592" r=".714" fill="#fff" opacity=".969"/><circle cx="100" cy="242" r="1.556" fill="#fff" opacity=".25"/><circle cx="278" cy="783" r="2.425" fill="#fff" opacity=".936"/><circle cx="80" cy="719" r="2.233" fill="#fff" opacity=".211"/><circle cx="782" cy="865" r="1.221" fill="#fff" opacity=".507"/><circle cx="989" cy="480" r=".623" fill="#fff" opacity=".754"/><circle cx="641" cy="918" r=".551" fill="#fff" opacity=".288"/><circle cx="361" cy="903" r="1.237" fill="#fff" opacity=".981"/><circle cx="683" cy="557" r="1.273" fill="#fff" opacity=".892"/><circle cx="110" cy="769" r="2.2" fill="#fff" opacity=".414"/><circle cx="253" cy="998" r="1.325" fill="#fff" opacity=".628"/><circle cx="50" cy="629" r="1.974" fill="#fff" opacity=".394"/><circle cx="957" cy="754" r="1.861" fill="#fff" opacity=".36"/><circle cx="935" cy="979" r=".943" fill="#fff" opacity=".302"/><circle cx="824" cy="862" r="1.73" fill="#fff" opacity=".228"/><circle cx="860" cy="601" r="2.135" fill="#fff" opacity=".286"/><circle cx="718" cy="684" r="2.254" fill="#fff" opacity=".504"/><circle cx="882" cy="371" r="1.062" fill="#fff" opacity=".425"/><circle cx="791" cy="364" r="1.347" fill="#fff" opacity=".99"/><circle cx="940" cy="198" r="1.392" fill="#fff" opacity=".695"/><circle cx="270" cy="112" r="1.074" fill="#fff" opacity=".228"/><circle cx="891" cy="523" r="2.255" fill="#fff" opacity=".238"/><circle cx="892" cy="131" r="1.958" fill="#fff" opacity=".725"/><circle cx="140" cy="568" r="1.993" fill="#fff" opacity=".641"/><circle cx="570" cy="621" r="1.575" fill="#fff" opacity=".845"/><circle cx="742" cy="872" r="1.075" fill="#fff" opacity=".792"/><circle cx="754" cy="901" r=".836" fill="#fff" opacity=".25"/><circle cx="403" cy="345" r="2.008" fill="#fff" opacity=".73"/><circle cx="209" cy="302" r="2.352" fill="#fff" opacity=".253"/><circle cx="237" cy="229" r="1.512" fill="#fff" opacity=".539"/><circle cx="51" cy="926" r="1.52" fill="#fff" opacity=".238"/><circle cx="29" cy="877" r="1.837" fill="#fff" opacity=".217"/><circle cx="10" cy="409" r="2.486" fill="#fff" opacity=".949"/><circle cx="133" cy="456" r=".531" fill="#fff" opacity=".935"/><circle cx="214" cy="122" r="2.155" fill="#fff" opacity=".818"/><circle cx="530" cy="102" r="1.09" fill="#fff" opacity=".224"/><circle cx="538" cy="31" r=".91" fill="#fff" opacity=".972"/><circle cx="55" cy="681" r=".686" fill="#fff" opacity=".642"/><circle cx="418" cy="193" r="1.962" fill="#fff" opacity=".738"/><circle cx="400" cy="783" r=".991" fill="#fff" opacity=".688"/><circle cx="933" cy="97" r="1.514" fill="#fff" opacity=".732"/><circle cx="339" cy="330" r="2.26" fill="#fff" opacity=".33"/><circle cx="581" cy="460" r="2.144" fill="#fff" opacity=".412"/><circle cx="767" cy="182" r=".686" fill="#fff" opacity=".86"/><circle cx="746" cy="255" r="1.439" fill="#fff" opacity=".259"/><circle cx="577" cy="788" r="1.387" fill="#fff" opacity=".366"/><circle cx="271" cy="310" r="1.301" fill="#fff" opacity=".346"/><circle cx="930" cy="983" r="2.18" fill="#fff" opacity=".223"/><circle cx="695" cy="93" r="1.988" fill="#fff" opacity=".76"/><circle cx="446" cy="254" r="2.249" fill="#fff" opacity=".42"/><circle cx="737" cy="543" r="1.489" fill="#fff" opacity=".599"/><circle cx="408" cy="342" r=".644" fill="#fff" opacity=".772"/><circle cx="320" cy="588" r="2.125" fill="#fff" opacity=".996"/><circle cx="802" cy="916" r="2.189" fill="#fff" opacity=".446"/><circle cx="668" cy="724" r=".841" fill="#fff" opacity=".776"/><circle cx="27" cy="790" r="1.159" fill="#fff" opacity=".558"/><circle cx="498" cy="481" r="1.817" fill="#fff" opacity=".628"/><circle cx="592" cy="919" r="2.344" fill="#fff" opacity=".253"/><circle cx="845" cy="877" r="1.843" fill="#fff" opacity=".709"/><circle cx="576" cy="589" r="2.176" fill="#fff" opacity=".822"/><circle cx="18" cy="977" r=".956" fill="#fff" opacity=".357"/><circle cx="156" cy="951" r=".503" fill="#fff" opacity=".517"/><circle cx="753" cy="146" r=".609" fill="#fff" opacity=".558"/><circle cx="440" cy="872" r="2.136" fill="#fff" opacity=".24"/><circle cx="288" cy="177" r="2.223" fill="#fff" opacity=".454"/><circle cx="330" cy="143" r="2.141" fill="#fff" opacity=".625"/><circle cx="366" cy="307" r="1.388" fill="#fff" opacity=".618"/><circle cx="475" cy="73" r="2.07" fill="#fff" opacity=".964"/><circle cx="799" cy="482" r="2.159" fill="#fff" opacity=".492"/><circle cx="289" cy="209" r="1.832" fill="#fff" opacity=".384"/><circle cx="12" cy="807" r="1.354" fill="#fff" opacity=".66"/><circle cx="917" cy="310" r="1.321" fill="#fff" opacity=".517"/><circle cx="429" cy="189" r="2.307" fill="#fff" opacity=".483"/><circle cx="811" cy="649" r="1.726" fill="#fff" opacity=".507"/><circle cx="797" cy="620" r="1.55" fill="#fff" opacity=".454"/><circle cx="738" cy="753" r="1.444" fill="#fff" opacity=".788"/><circle cx="714" cy="823" r=".519" fill="#fff" opacity=".985"/><circle cx="475" cy="63" r=".82" fill="#fff" opacity=".315"/><circle cx="456" cy="346" r="1.845" fill="#fff" opacity=".875"/><circle cx="717" cy="78" r="2.181" fill="#fff" opacity=".507"/><circle cx="113" cy="185" r="1.359" fill="#fff" opacity=".322"/><circle cx="749" cy="123" r="2.335" fill="#fff" opacity=".76"/><circle cx="422" cy="251" r=".67" fill="#fff" opacity=".635"/><circle cx="462" cy="684" r="1.109" fill="#fff" opacity=".636"/><circle cx="647" cy="35" r=".512" fill="#fff" opacity=".214"/><circle cx="420" cy="706" r=".981" fill="#fff" opacity=".61"/><circle cx="16" cy="473" r="2.345" fill="#fff" opacity=".778"/><circle cx="636" cy="797" r="1.399" fill="#fff" opacity=".618"/><circle cx="673" cy="894" r="2.05" fill="#fff" opacity=".765"/><circle cx="586" cy="707" r=".756" fill="#fff" opacity=".925"/><circle cx="445" cy="523" r="1.031" fill="#fff" opacity=".864"/><circle cx="313" cy="329" r="1.191" fill="#fff" opacity=".511"/><circle cx="465" cy="611" r="1.63" fill="#fff" opacity=".864"/><circle cx="683" cy="242" r="1.575" fill="#fff" opacity=".805"/><circle cx="371" cy="70" r=".5" fill="#fff" opacity=".214"/><circle cx="228" cy="898" r="1.838" fill="#fff" opacity=".61"/><circle cx="553" cy="940" r="2.467" fill="#fff" opacity=".204"/><circle cx="399" cy="807" r=".869" fill="#fff" opacity=".606"/><circle cx="25" cy="992" r="1.477" fill="#fff" opacity=".661"/><circle cx="12" cy="415" r="1.086" fill="#fff" opacity=".582"/><circle cx="5" cy="336" r="1.923" fill="#fff" opacity=".452"/><circle cx="450" cy="498" r="2.411" fill="#fff" opacity=".793"/><circle cx="17" cy="246" r="1.303" fill="#fff" opacity=".901"/><circle cx="555" cy="486" r="1.188" fill="#fff" opacity=".81"/><circle cx="952" cy="607" r=".751" fill="#fff" opacity=".709"/><circle cx="725" cy="625" r="1.94" fill="#fff" opacity=".756"/><circle cx="221" cy="628" r="2.473" fill="#fff" opacity=".957"/><circle cx="968" cy="971" r="1.188" fill="#fff" opacity=".236"/><circle cx="714" cy="358" r="1.951" fill="#fff" opacity=".969"/><circle cx="527" cy="143" r="2.386" fill="#fff" opacity=".246"/><circle cx="386" cy="569" r=".75" fill="#fff" opacity=".42"/><circle cx="720" cy="917" r="1.599" fill="#fff" opacity=".536"/><circle cx="903" cy="565" r="2.119" fill="#fff" opacity=".449"/><circle cx="557" cy="745" r="1.59" fill="#fff" opacity=".28"/><circle cx="719" cy="245" r="1.081" fill="#fff" opacity=".95"/><circle cx="613" cy="622" r="1.923" fill="#fff" opacity=".557"/><circle cx="170" cy="221" r=".681" fill="#fff" opacity=".39"/><circle cx="294" cy="436" r="2.289" fill="#fff" opacity=".317"/><circle cx="251" cy="460" r=".612" fill="#fff" opacity=".761"/><circle cx="749" cy="487" r="2.316" fill="#fff" opacity=".418"/><circle cx="914" cy="617" r="1.654" fill="#fff" opacity=".441"/><circle cx="921" cy="203" r="1.333" fill="#fff" opacity=".668"/><circle cx="46" cy="149" r="2.145" fill="#fff" opacity=".371"/></svg>