<svg width="1000" height="1000" viewBox="0 0 1000 1000" xmlns="http://www.w3.org/2000/svg">
      <rect width="1000" height="1000" fill="#1a0a2a"/>
      <circle cx="414" cy="953" r="2.086987813078721" fill="#ffffff" opacity="0.7297293270301943"/><circle cx="369" cy="414" r="1.379100147865835" fill="#ffffff" opacity="0.9423422780137403"/><circle cx="886" cy="807" r="1.9238170631977929" fill="#ffffff" opacity="0.7183837761263558"/><circle cx="860" cy="364" r="1.3799440729160124" fill="#ffffff" opacity="0.2993987270548198"/><circle cx="530" cy="307" r="1.4067928171458224" fill="#ffffff" opacity="0.7181151028930604"/><circle cx="812" cy="680" r="2.450091265280242" fill="#ffffff" opacity="0.34842629159088345"/><circle cx="334" cy="65" r="1.3595581459137973" fill="#ffffff" opacity="0.40809471474923137"/><circle cx="377" cy="572" r="1.8073993525275736" fill="#ffffff" opacity="0.3910261187574355"/><circle cx="116" cy="321" r="2.102817657151155" fill="#ffffff" opacity="0.2616754102588969"/><circle cx="873" cy="205" r="0.5734395704426678" fill="#ffffff" opacity="0.883003797923692"/><circle cx="873" cy="72" r="2.272865816188308" fill="#ffffff" opacity="0.5984180986603127"/><circle cx="949" cy="451" r="1.713673617595437" fill="#ffffff" opacity="0.6060904894589119"/><circle cx="206" cy="234" r="1.9940408989372185" fill="#ffffff" opacity="0.5171949292379281"/><circle cx="46" cy="379" r="2.440998452480782" fill="#ffffff" opacity="0.4717877207855292"/><circle cx="470" cy="119" r="0.5115057000804488" fill="#ffffff" opacity="0.6726025135144609"/><circle cx="200" cy="77" r="1.324787208010021" fill="#ffffff" opacity="0.7896455552030561"/><circle cx="174" cy="187" r="0.6126973802929139" fill="#ffffff" opacity="0.7333163815773645"/><circle cx="150" cy="978" r="1.9445506082682167" fill="#ffffff" opacity="0.26779416473376544"/><circle cx="657" cy="671" r="2.095994897205226" fill="#ffffff" opacity="0.5818858245299996"/><circle cx="89" cy="742" r="2.408311691636613" fill="#ffffff" opacity="0.8691666231771542"/><circle cx="455" cy="419" r="2.361470924053226" fill="#ffffff" opacity="0.5487669864119054"/><circle cx="483" cy="911" r="1.2436444293685263" fill="#ffffff" opacity="0.31179042665517315"/><circle cx="64" cy="773" r="0.8651316093027464" fill="#ffffff" opacity="0.28352021650577885"/><circle cx="631" cy="231" r="1.0990864842198813" fill="#ffffff" opacity="0.9871771380541665"/><circle cx="295" cy="251" r="2.282057508493841" fill="#ffffff" opacity="0.367825467072773"/><circle cx="228" cy="39" r="2.0671493940627674" fill="#ffffff" opacity="0.5257606188096007"/><circle cx="461" cy="317" r="2.3134643578928404" fill="#ffffff" opacity="0.2993792200535541"/><circle cx="485" cy="91" r="2.3663362314537886" fill="#ffffff" opacity="0.8292722881751788"/><circle cx="236" cy="970" r="1.374353091311423" fill="#ffffff" opacity="0.975180286052741"/><circle cx="889" cy="88" r="1.3019718114319585" fill="#ffffff" opacity="0.6660121817703779"/><circle cx="313" cy="143" r="1.5201742560573033" fill="#ffffff" opacity="0.36316819865984495"/><circle cx="741" cy="913" r="1.8121049291552396" fill="#ffffff" opacity="0.40589714642153507"/><circle cx="593" cy="162" r="1.9553740062369545" fill="#ffffff" opacity="0.9775019091006747"/><circle cx="903" cy="720" r="1.5641183480044614" fill="#ffffff" opacity="0.7814807454889405"/><circle cx="558" cy="441" r="1.467472199571561" fill="#ffffff" opacity="0.22907247635979502"/><circle cx="349" cy="357" r="0.9452128958661654" fill="#ffffff" opacity="0.8748298364133615"/><circle cx="301" cy="70" r="1.7760980095713732" fill="#ffffff" opacity="0.7376527895499654"/><circle cx="795" cy="961" r="1.334449134078667" fill="#ffffff" opacity="0.5880698088193196"/><circle cx="741" cy="586" r="0.7668244931305441" fill="#ffffff" opacity="0.7106995669565805"/><circle cx="625" cy="177" r="0.5884877499329617" fill="#ffffff" opacity="0.5850902904195605"/><circle cx="233" cy="337" r="1.1764789180313913" fill="#ffffff" opacity="0.7321419397926474"/><circle cx="137" cy="572" r="2.3090222690882976" fill="#ffffff" opacity="0.47524501602756575"/><circle cx="447" cy="61" r="0.679607729659379" fill="#ffffff" opacity="0.5963713078195323"/><circle cx="276" cy="972" r="0.6913198590824217" fill="#ffffff" opacity="0.2473679481930125"/><circle cx="698" cy="13" r="1.7423284483795238" fill="#ffffff" opacity="0.6368631449967858"/><circle cx="458" cy="436" r="2.039963453598475" fill="#ffffff" opacity="0.7999709208061399"/><circle cx="849" cy="163" r="0.6233317846184203" fill="#ffffff" opacity="0.4246114141314518"/><circle cx="118" cy="557" r="1.79286842596089" fill="#ffffff" opacity="0.8806374499532683"/><circle cx="768" cy="972" r="2.456888861639383" fill="#ffffff" opacity="0.5319641505430757"/><circle cx="654" cy="830" r="1.1876414223056275" fill="#ffffff" opacity="0.42523400952108936"/><circle cx="579" cy="208" r="2.0188723535687036" fill="#ffffff" opacity="0.6269049165771907"/><circle cx="300" cy="815" r="0.7839407264603087" fill="#ffffff" opacity="0.7368224498860154"/><circle cx="557" cy="506" r="1.1138032094979802" fill="#ffffff" opacity="0.8994443956551572"/><circle cx="865" cy="620" r="1.7726881221490753" fill="#ffffff" opacity="0.232499715075668"/><circle cx="259" cy="591" r="1.8956068524358964" fill="#ffffff" opacity="0.6972623567298499"/><circle cx="191" cy="901" r="1.4597114745987514" fill="#ffffff" opacity="0.49129045053100723"/><circle cx="360" cy="445" r="2.249860511845124" fill="#ffffff" opacity="0.8900188867500474"/><circle cx="657" cy="605" r="2.1935133746722344" fill="#ffffff" opacity="0.5141860154805136"/><circle cx="798" cy="435" r="1.2431371176092094" fill="#ffffff" opacity="0.22660200334677347"/><circle cx="621" cy="885" r="2.1245218985693963" fill="#ffffff" opacity="0.247699750270961"/><circle cx="976" cy="214" r="1.7152727465090885" fill="#ffffff" opacity="0.20445191116839895"/><circle cx="950" cy="897" r="1.17254716210671" fill="#ffffff" opacity="0.4102897586582156"/><circle cx="31" cy="363" r="0.797304022170982" fill="#ffffff" opacity="0.5732827232932285"/><circle cx="452" cy="879" r="2.2254341375461912" fill="#ffffff" opacity="0.6137901997497062"/><circle cx="245" cy="616" r="1.7307901965871975" fill="#ffffff" opacity="0.5669535119154534"/><circle cx="225" cy="831" r="2.1424148670985277" fill="#ffffff" opacity="0.2322168397458203"/><circle cx="484" cy="209" r="2.4008852812365773" fill="#ffffff" opacity="0.5010528231817712"/><circle cx="43" cy="812" r="1.7633217324091244" fill="#ffffff" opacity="0.6425672426235751"/><circle cx="645" cy="429" r="2.1395817053478674" fill="#ffffff" opacity="0.5646616740139221"/><circle cx="103" cy="609" r="0.9522947598776601" fill="#ffffff" opacity="0.9156852986977757"/><circle cx="964" cy="453" r="1.5550448950336024" fill="#ffffff" opacity="0.8287815310786815"/><circle cx="304" cy="652" r="2.2581038584786355" fill="#ffffff" opacity="0.673319322369007"/><circle cx="426" cy="884" r="1.5253958818117264" fill="#ffffff" opacity="0.7599138088925961"/><circle cx="499" cy="307" r="2.4681305387074794" fill="#ffffff" opacity="0.29227472873077043"/><circle cx="4" cy="31" r="0.8015289749699437" fill="#ffffff" opacity="0.33028936648292506"/><circle cx="964" cy="752" r="1.0416108250487373" fill="#ffffff" opacity="0.9087870028022784"/><circle cx="732" cy="65" r="1.9120605284377272" fill="#ffffff" opacity="0.4307070664419788"/><circle cx="162" cy="329" r="2.314453741236321" fill="#ffffff" opacity="0.8856213001269777"/><circle cx="285" cy="648" r="1.1455902442152088" fill="#ffffff" opacity="0.34797924460386354"/><circle cx="50" cy="268" r="1.1386881112690923" fill="#ffffff" opacity="0.5637120609146706"/><circle cx="449" cy="360" r="1.1170283273897241" fill="#ffffff" opacity="0.24838572660048064"/><circle cx="249" cy="817" r="0.9125325330065532" fill="#ffffff" opacity="0.9269935656952193"/><circle cx="825" cy="637" r="2.16696468474965" fill="#ffffff" opacity="0.4360716096865135"/><circle cx="945" cy="593" r="2.4694951979529733" fill="#ffffff" opacity="0.494842932489548"/><circle cx="193" cy="305" r="1.991747321229203" fill="#ffffff" opacity="0.7947466189180039"/><circle cx="889" cy="475" r="1.5557766232546815" fill="#ffffff" opacity="0.6282444447214162"/><circle cx="624" cy="618" r="1.46548187209777" fill="#ffffff" opacity="0.9555450515548558"/><circle cx="754" cy="406" r="2.0124307640718584" fill="#ffffff" opacity="0.9571328476739711"/><circle cx="240" cy="314" r="2.299556623780735" fill="#ffffff" opacity="0.4084836917227639"/><circle cx="608" cy="21" r="1.090209206395901" fill="#ffffff" opacity="0.25682519530764536"/><circle cx="556" cy="77" r="1.0528762001804877" fill="#ffffff" opacity="0.9641072875411136"/><circle cx="811" cy="816" r="1.6655784942453753" fill="#ffffff" opacity="0.8707357002329625"/><circle cx="575" cy="894" r="1.4131283784388113" fill="#ffffff" opacity="0.5475550646967482"/><circle cx="616" cy="793" r="1.7029704593362807" fill="#ffffff" opacity="0.7573180081904494"/><circle cx="907" cy="776" r="1.2642398618189272" fill="#ffffff" opacity="0.8888344269504669"/><circle cx="168" cy="397" r="1.1327524465254064" fill="#ffffff" opacity="0.44792952332520264"/><circle cx="296" cy="240" r="1.4218385253428205" fill="#ffffff" opacity="0.6162478258121711"/><circle cx="84" cy="234" r="1.9560772368801134" fill="#ffffff" opacity="0.7551089466416157"/><circle cx="704" cy="496" r="1.369321977590226" fill="#ffffff" opacity="0.6372684100056192"/><circle cx="288" cy="241" r="1.3405597504277376" fill="#ffffff" opacity="0.9205918971107026"/><circle cx="212" cy="213" r="1.2094694022862655" fill="#ffffff" opacity="0.22608102709457134"/><circle cx="395" cy="706" r="2.293901253875239" fill="#ffffff" opacity="0.734374426176309"/><circle cx="183" cy="149" r="1.0141399591147326" fill="#ffffff" opacity="0.2135900869442182"/><circle cx="922" cy="46" r="2.4331543601197625" fill="#ffffff" opacity="0.7059501042284246"/><circle cx="407" cy="74" r="1.5063736398338468" fill="#ffffff" opacity="0.9477762686954825"/><circle cx="600" cy="996" r="0.8903539993814773" fill="#ffffff" opacity="0.2111409952483161"/><circle cx="333" cy="740" r="1.16037004842295" fill="#ffffff" opacity="0.2710480689007213"/><circle cx="604" cy="393" r="0.7353305519329854" fill="#ffffff" opacity="0.8158421276752745"/><circle cx="647" cy="475" r="1.0336503016592342" fill="#ffffff" opacity="0.9096008177640917"/><circle cx="443" cy="539" r="1.1137201088888133" fill="#ffffff" opacity="0.4365350302587103"/><circle cx="946" cy="887" r="1.6293412464871837" fill="#ffffff" opacity="0.2316039538920375"/><circle cx="452" cy="82" r="0.9744568713381461" fill="#ffffff" opacity="0.839043226045382"/><circle cx="817" cy="920" r="0.9137017858177638" fill="#ffffff" opacity="0.6660265244791557"/><circle cx="181" cy="549" r="1.74430805194041" fill="#ffffff" opacity="0.834276566348924"/><circle cx="482" cy="374" r="0.9654443560887609" fill="#ffffff" opacity="0.9105290916374249"/><circle cx="529" cy="579" r="1.8815626240505257" fill="#ffffff" opacity="0.3386929545379349"/><circle cx="796" cy="278" r="0.7111338529791369" fill="#ffffff" opacity="0.7529151843998734"/><circle cx="511" cy="134" r="0.8868504920097267" fill="#ffffff" opacity="0.66958518239428"/><circle cx="44" cy="116" r="0.9208414884822571" fill="#ffffff" opacity="0.2894490437645411"/><circle cx="983" cy="865" r="0.5445607039646734" fill="#ffffff" opacity="0.3452813112557907"/><circle cx="657" cy="253" r="2.2679162127716506" fill="#ffffff" opacity="0.4048452270019839"/><circle cx="862" cy="72" r="2.162502074647345" fill="#ffffff" opacity="0.2027291083262286"/><circle cx="522" cy="283" r="1.0435615860299747" fill="#ffffff" opacity="0.9312739279149571"/><circle cx="290" cy="570" r="1.15759266580785" fill="#ffffff" opacity="0.34027699637892805"/><circle cx="240" cy="276" r="0.859648784085453" fill="#ffffff" opacity="0.8679713953507704"/><circle cx="683" cy="231" r="1.2232293572669644" fill="#ffffff" opacity="0.886242555205033"/><circle cx="626" cy="308" r="1.7059944766741562" fill="#ffffff" opacity="0.8346214407217427"/><circle cx="977" cy="575" r="1.1807218176484868" fill="#ffffff" opacity="0.7805790415186944"/><circle cx="734" cy="856" r="1.0571689905779755" fill="#ffffff" opacity="0.2546623756363198"/><circle cx="405" cy="794" r="1.2675456543463048" fill="#ffffff" opacity="0.44370278294443094"/><circle cx="573" cy="870" r="2.4016918533129132" fill="#ffffff" opacity="0.5353843952809202"/><circle cx="269" cy="149" r="1.8484799413600626" fill="#ffffff" opacity="0.683445745864122"/><circle cx="379" cy="540" r="1.045271320818395" fill="#ffffff" opacity="0.3329897780526817"/><circle cx="869" cy="747" r="1.4770021708026073" fill="#ffffff" opacity="0.3850919699198947"/><circle cx="866" cy="694" r="0.8584621565917865" fill="#ffffff" opacity="0.7656631623331374"/><circle cx="989" cy="830" r="1.3810099000238205" fill="#ffffff" opacity="0.7905696960978248"/><circle cx="855" cy="348" r="0.7345158124922389" fill="#ffffff" opacity="0.8140572083130528"/><circle cx="95" cy="331" r="1.9920761457721485" fill="#ffffff" opacity="0.4654274698172154"/><circle cx="260" cy="113" r="1.60190911888543" fill="#ffffff" opacity="0.22312551386547883"/><circle cx="110" cy="206" r="0.5630960767510009" fill="#ffffff" opacity="0.42549881524180705"/><circle cx="751" cy="849" r="2.2046143441919894" fill="#ffffff" opacity="0.5622093619028427"/><circle cx="998" cy="699" r="2.4256395651274145" fill="#ffffff" opacity="0.8544976793185717"/><circle cx="821" cy="90" r="1.0034707832767307" fill="#ffffff" opacity="0.7619852917643206"/><circle cx="109" cy="276" r="1.791013240653606" fill="#ffffff" opacity="0.49823357932731654"/><circle cx="737" cy="345" r="2.065540355378429" fill="#ffffff" opacity="0.91083292493729"/><circle cx="965" cy="916" r="1.5890161010094017" fill="#ffffff" opacity="0.7590458702373759"/><circle cx="480" cy="436" r="0.8104269979583294" fill="#ffffff" opacity="0.9893951134857859"/><circle cx="853" cy="286" r="0.7000244955099539" fill="#ffffff" opacity="0.5311406348423123"/><circle cx="755" cy="644" r="1.541424722289411" fill="#ffffff" opacity="0.5569354368765604"/><circle cx="18" cy="354" r="1.0879490573458455" fill="#ffffff" opacity="0.24000559943495203"/><circle cx="186" cy="129" r="2.2351364647209406" fill="#ffffff" opacity="0.6227357359340712"/><circle cx="117" cy="672" r="0.7314709868414941" fill="#ffffff" opacity="0.27186361829721317"/><circle cx="81" cy="596" r="2.1744926815827808" fill="#ffffff" opacity="0.6052677926729662"/><circle cx="802" cy="799" r="2.4900519839124957" fill="#ffffff" opacity="0.4504192718709716"/><circle cx="291" cy="21" r="0.5681796738987908" fill="#ffffff" opacity="0.8384478336640078"/><circle cx="220" cy="432" r="2.2984751914763835" fill="#ffffff" opacity="0.9172993114091854"/><circle cx="217" cy="160" r="1.51847615579952" fill="#ffffff" opacity="0.8234212330951856"/><circle cx="287" cy="262" r="0.9383225911925974" fill="#ffffff" opacity="0.26389650682485044"/><circle cx="349" cy="984" r="0.5779148753559884" fill="#ffffff" opacity="0.7229295084811178"/><circle cx="621" cy="824" r="1.849770278666346" fill="#ffffff" opacity="0.6217427227926591"/><circle cx="294" cy="409" r="0.8291480629757801" fill="#ffffff" opacity="0.5067076805537252"/><circle cx="609" cy="656" r="0.8326485442452598" fill="#ffffff" opacity="0.22474856576167657"/><circle cx="297" cy="83" r="1.6304192038381777" fill="#ffffff" opacity="0.3021394391819895"/><circle cx="833" cy="661" r="0.5046502320757145" fill="#ffffff" opacity="0.35357204412976895"/><circle cx="559" cy="484" r="1.1622037067472801" fill="#ffffff" opacity="0.8676388731035405"/><circle cx="811" cy="286" r="0.9771229583778918" fill="#ffffff" opacity="0.9667741302842783"/><circle cx="461" cy="446" r="1.6981562646891404" fill="#ffffff" opacity="0.7874306026074223"/><circle cx="659" cy="890" r="2.3529743310745075" fill="#ffffff" opacity="0.9927848768439391"/><circle cx="211" cy="21" r="0.6703446270947633" fill="#ffffff" opacity="0.7397505507223128"/><circle cx="773" cy="71" r="2.3302245718354064" fill="#ffffff" opacity="0.7314661331503436"/><circle cx="266" cy="963" r="2.3016293831187493" fill="#ffffff" opacity="0.40982144590856306"/><circle cx="235" cy="317" r="1.9899310652375886" fill="#ffffff" opacity="0.6872811750506731"/><circle cx="65" cy="618" r="1.4962370256429942" fill="#ffffff" opacity="0.49261338564240553"/><circle cx="312" cy="530" r="2.160913017407833" fill="#ffffff" opacity="0.5200677116815587"/><circle cx="901" cy="556" r="2.050995750353757" fill="#ffffff" opacity="0.7047857200034218"/><circle cx="760" cy="854" r="1.7553183367132217" fill="#ffffff" opacity="0.8234764805204595"/><circle cx="571" cy="280" r="0.7436279754859743" fill="#ffffff" opacity="0.37127785023563525"/><circle cx="886" cy="755" r="1.4380927927866196" fill="#ffffff" opacity="0.9249014253111598"/><circle cx="735" cy="911" r="0.6211472405023111" fill="#ffffff" opacity="0.8103045603369479"/><circle cx="92" cy="248" r="1.8558417610391214" fill="#ffffff" opacity="0.5323635072543313"/><circle cx="863" cy="703" r="0.7357932247505015" fill="#ffffff" opacity="0.9237814238998077"/><circle cx="290" cy="950" r="1.570484444802235" fill="#ffffff" opacity="0.864955013484374"/><circle cx="442" cy="540" r="2.165324015744118" fill="#ffffff" opacity="0.6197722290332207"/><circle cx="60" cy="511" r="1.356011599344491" fill="#ffffff" opacity="0.6586387148935644"/><circle cx="291" cy="254" r="0.9188368897907528" fill="#ffffff" opacity="0.9714799413033055"/><circle cx="511" cy="104" r="1.7177398239381945" fill="#ffffff" opacity="0.2472164684764568"/><circle cx="482" cy="672" r="2.36010389880749" fill="#ffffff" opacity="0.5701377109195318"/><circle cx="489" cy="267" r="1.8172475264196488" fill="#ffffff" opacity="0.853461383975318"/><circle cx="405" cy="969" r="2.0384913338934867" fill="#ffffff" opacity="0.2598676860214605"/><circle cx="610" cy="292" r="1.4960943846270305" fill="#ffffff" opacity="0.6489946108128555"/><circle cx="570" cy="290" r="1.3866142418174126" fill="#ffffff" opacity="0.3058972459153344"/><circle cx="807" cy="689" r="1.4228780345051835" fill="#ffffff" opacity="0.3514009441437111"/><circle cx="312" cy="685" r="0.9370712716021465" fill="#ffffff" opacity="0.20528236397556726"/><circle cx="315" cy="199" r="1.8022128989096937" fill="#ffffff" opacity="0.6866387420297526"/><circle cx="106" cy="703" r="0.6787962258581621" fill="#ffffff" opacity="0.6267466703188587"/><circle cx="987" cy="365" r="2.090595344872624" fill="#ffffff" opacity="0.5891416469780119"/><circle cx="75" cy="708" r="1.842888368291252" fill="#ffffff" opacity="0.6208514779912996"/><circle cx="182" cy="727" r="0.5034290746729853" fill="#ffffff" opacity="0.9954525249714183"/><circle cx="658" cy="567" r="0.8987283803276074" fill="#ffffff" opacity="0.3114164834938009"/><circle cx="478" cy="57" r="1.5821599948559935" fill="#ffffff" opacity="0.2913292501558449"/>
      <circle cx="438" cy="263" r="3.6576463533354944" fill="#aa4aff" opacity="0.5663605528165446"/><circle cx="225" cy="474" r="3.391280012640395" fill="#aa4aff" opacity="0.3295038807891768"/><circle cx="125" cy="176" r="3.798631151980897" fill="#aa4aff" opacity="0.3823819137087508"/><circle cx="490" cy="578" r="1.7773426789537434" fill="#aa4aff" opacity="0.4510111354396642"/><circle cx="669" cy="892" r="2.5402302022069003" fill="#aa4aff" opacity="0.24724887910708057"/><circle cx="509" cy="796" r="1.4803615980661415" fill="#aa4aff" opacity="0.4115963580340267"/><circle cx="124" cy="424" r="1.9028466618989892" fill="#aa4aff" opacity="0.2450807749475331"/><circle cx="279" cy="391" r="3.9370281165163514" fill="#aa4aff" opacity="0.35096241785689575"/><circle cx="109" cy="990" r="1.891467451535951" fill="#aa4aff" opacity="0.3145936567646862"/><circle cx="545" cy="792" r="2.4495613206150866" fill="#aa4aff" opacity="0.7849748650177621"/><circle cx="714" cy="817" r="1.6903292054108916" fill="#aa4aff" opacity="0.7181662851898196"/><circle cx="980" cy="195" r="3.6782833974595546" fill="#aa4aff" opacity="0.7414280398866768"/><circle cx="294" cy="725" r="2.878354307514189" fill="#aa4aff" opacity="0.5714386401215061"/><circle cx="402" cy="669" r="2.5378682515084865" fill="#aa4aff" opacity="0.7802193228392906"/><circle cx="10" cy="976" r="3.028927088604121" fill="#aa4aff" opacity="0.7530088334658123"/><circle cx="101" cy="726" r="2.2604278784882204" fill="#aa4aff" opacity="0.9601596002217823"/><circle cx="317" cy="114" r="2.593298600956873" fill="#aa4aff" opacity="0.35839954929550405"/><circle cx="615" cy="266" r="1.9344939897005355" fill="#aa4aff" opacity="0.6297753818696613"/><circle cx="517" cy="622" r="3.3562830057385855" fill="#aa4aff" opacity="0.903544017399923"/><circle cx="662" cy="321" r="2.712894945308564" fill="#aa4aff" opacity="0.5417108227090446"/><circle cx="472" cy="653" r="3.6579444062765076" fill="#aa4aff" opacity="0.8796843159608603"/><circle cx="540" cy="901" r="1.128389978545415" fill="#aa4aff" opacity="0.7531903614281135"/><circle cx="373" cy="430" r="3.955701281030763" fill="#aa4aff" opacity="0.7674760013354776"/><circle cx="64" cy="807" r="1.8818118270766975" fill="#aa4aff" opacity="0.6202989592791774"/><circle cx="426" cy="689" r="3.048220795660482" fill="#aa4aff" opacity="0.42115272004700677"/><circle cx="524" cy="524" r="3.9925484648341056" fill="#aa4aff" opacity="0.5053571793703429"/><circle cx="470" cy="960" r="2.1701265327740025" fill="#aa4aff" opacity="0.3163661670713081"/><circle cx="322" cy="325" r="2.4197245129861376" fill="#aa4aff" opacity="0.3264583595456859"/><circle cx="932" cy="589" r="1.353440546454844" fill="#aa4aff" opacity="0.9849615529106979"/><circle cx="697" cy="730" r="3.727862672805281" fill="#aa4aff" opacity="0.6256826266269983"/><circle cx="231" cy="143" r="3.069089180493158" fill="#aa4aff" opacity="0.33631112563"/><circle cx="505" cy="440" r="1.1815698131138672" fill="#aa4aff" opacity="0.9844666975261849"/><circle cx="406" cy="958" r="2.8931761636912023" fill="#aa4aff" opacity="0.6877128395708498"/><circle cx="735" cy="951" r="3.5078001992868093" fill="#aa4aff" opacity="0.24603797503612945"/><circle cx="117" cy="853" r="2.6237529426721373" fill="#aa4aff" opacity="0.6058584038714852"/><circle cx="149" cy="884" r="1.9175173780323826" fill="#aa4aff" opacity="0.25035426472409716"/><circle cx="362" cy="285" r="1.105170171300504" fill="#aa4aff" opacity="0.5957958457082709"/><circle cx="942" cy="748" r="1.1760349002392165" fill="#aa4aff" opacity="0.41046313791802796"/><circle cx="471" cy="720" r="2.757093786828369" fill="#aa4aff" opacity="0.4162627610192976"/><circle cx="222" cy="441" r="2.5136552281592297" fill="#aa4aff" opacity="0.9472559090995423"/><circle cx="136" cy="335" r="2.1238771057104566" fill="#aa4aff" opacity="0.8401344086103675"/><circle cx="493" cy="83" r="3.8925716698504442" fill="#aa4aff" opacity="0.7088805442414985"/><circle cx="954" cy="724" r="3.5145457770471205" fill="#aa4aff" opacity="0.25206933011333865"/><circle cx="591" cy="755" r="3.62325854506007" fill="#aa4aff" opacity="0.590555036981983"/><circle cx="884" cy="251" r="3.8110188141354944" fill="#aa4aff" opacity="0.8750016657860908"/><circle cx="135" cy="758" r="2.4381570586604884" fill="#aa4aff" opacity="0.5076941351963719"/><circle cx="689" cy="459" r="1.383401714259333" fill="#aa4aff" opacity="0.24549325542316558"/><circle cx="385" cy="843" r="2.2832291771691207" fill="#aa4aff" opacity="0.4404140437387016"/><circle cx="864" cy="85" r="1.4345310673586558" fill="#aa4aff" opacity="0.9471098779916303"/><circle cx="595" cy="298" r="2.181421765528207" fill="#aa4aff" opacity="0.4102840825171574"/>
    </svg>