<svg xmlns="http://www.w3.org/2000/svg" width="1000" height="1000" viewBox="0 0 1000 1000"><rect width="1000" height="1000" fill="#0a0a2a"/><circle cx="877" cy="944" r="1.618" fill="#fff" opacity=".336"/><circle cx="668" cy="695" r=".804" fill="#fff" opacity=".617"/><circle cx="13" cy="888" r="2.391" fill="#fff" opacity=".969"/><circle cx="917" cy="204" r="2.288" fill="#fff" opacity=".267"/><circle cx="674" cy="691" r="1.153" fill="#fff" opacity=".772"/><circle cx="360" cy="962" r="1.55" fill="#fff" opacity=".803"/><circle cx="516" cy="401" r="1.343" fill="#fff" opacity=".25"/><circle cx="503" cy="455" r=".581" fill="#fff" opacity=".425"/><circle cx="633" cy="354" r="1.853" fill="#fff" opacity=".77"/><circle cx="486" cy="582" r="1.861" fill="#fff" opacity=".331"/><circle cx="312" cy="650" r="1.236" fill="#fff" opacity=".435"/><circle cx="923" cy="523" r="1.992" fill="#fff" opacity=".387"/><circle cx="176" cy="158" r=".835" fill="#fff" opacity=".596"/><circle cx="89" cy="104" r="2.175" fill="#fff" opacity=".466"/><circle cx="578" cy="565" r="1.159" fill="#fff" opacity=".836"/><circle cx="406" cy="866" r="1.37" fill="#fff" opacity=".241"/><circle cx="770" cy="9" r="1.404" fill="#fff" opacity=".77"/><circle cx="11" cy="128" r="1.748" fill="#fff" opacity=".202"/><circle cx="43" cy="970" r="2.442" fill="#fff" opacity=".841"/><circle cx="880" cy="172" r="1.214" fill="#fff" opacity=".262"/><circle cx="639" cy="446" r="1.803" fill="#fff" opacity=".976"/><circle cx="47" cy="645" r="1.617" fill="#fff" opacity=".706"/><circle cx="688" cy="859" r="1.121" fill="#fff" opacity=".618"/><circle cx="305" cy="110" r="2.358" fill="#fff" opacity=".925"/><circle cx="46" cy="670" r="1.545" fill="#fff" opacity=".725"/><circle cx="629" cy="184" r="1.87" fill="#fff" opacity=".717"/><circle cx="236" cy="641" r="2.481" fill="#fff" opacity=".368"/><circle cx="247" cy="451" r=".671" fill="#fff" opacity=".373"/><circle cx="799" cy="434" r=".567" fill="#fff" opacity=".294"/><circle cx="426" cy="584" r="1.476" fill="#fff" opacity=".346"/><circle cx="352" cy="866" r="1.318" fill="#fff" opacity=".84"/><circle cx="633" cy="36" r="1.121" fill="#fff" opacity=".795"/><circle cx="412" cy="430" r="1.713" fill="#fff" opacity=".593"/><circle cx="295" cy="384" r="2.077" fill="#fff" opacity=".375"/><circle cx="589" cy="770" r="2.03" fill="#fff" opacity=".786"/><circle cx="769" cy="646" r=".748" fill="#fff" opacity=".713"/><circle cx="654" cy="595" r="1.873" fill="#fff" opacity=".396"/><circle cx="251" cy="504" r="1.887" fill="#fff" opacity=".472"/><circle cx="649" cy="2" r="1.051" fill="#fff" opacity=".314"/><circle cx="510" cy="799" r="2.247" fill="#fff" opacity=".423"/><circle cx="600" cy="179" r="2.028" fill="#fff" opacity=".891"/><circle cx="994" cy="439" r="2.08" fill="#fff" opacity=".892"/><circle cx="565" cy="646" r="1.768" fill="#fff" opacity=".516"/><circle cx="502" cy="846" r="1.81" fill="#fff" opacity=".537"/><circle cx="595" cy="231" r="1.693" fill="#fff" opacity=".412"/><circle cx="596" cy="210" r=".626" fill="#fff" opacity=".504"/><circle cx="425" cy="863" r=".957" fill="#fff" opacity=".468"/><circle cx="948" cy="130" r="1.679" fill="#fff" opacity=".399"/><circle cx="244" cy="612" r=".83" fill="#fff" opacity=".457"/><circle cx="417" cy="859" r="1.412" fill="#fff" opacity=".426"/><circle cx="658" cy="243" r="1.409" fill="#fff" opacity=".209"/><circle cx="315" cy="636" r=".62" fill="#fff" opacity=".546"/><circle cx="202" cy="756" r="1.643" fill="#fff" opacity=".752"/><circle cx="371" cy="481" r="1.03" fill="#fff" opacity=".786"/><circle cx="956" cy="186" r="1.497" fill="#fff" opacity=".824"/><circle cx="233" cy="384" r="1.496" fill="#fff" opacity=".251"/><circle cx="629" cy="459" r="1.609" fill="#fff" opacity=".536"/><circle cx="252" cy="925" r="2.306" fill="#fff" opacity=".315"/><circle cx="511" cy="119" r="2.368" fill="#fff" opacity=".338"/><circle cx="118" cy="56" r="2.028" fill="#fff" opacity=".917"/><circle cx="674" cy="341" r="2.257" fill="#fff" opacity=".614"/><circle cx="923" cy="455" r="1.842" fill="#fff" opacity=".621"/><circle cx="163" cy="326" r="1.153" fill="#fff" opacity=".236"/><circle cx="858" cy="273" r="1.571" fill="#fff" opacity=".645"/><circle cx="979" cy="467" r="2.237" fill="#fff" opacity=".44"/><circle cx="336" cy="457" r="1.469" fill="#fff" opacity=".944"/><circle cx="788" cy="961" r="1.586" fill="#fff" opacity=".215"/><circle cx="358" cy="520" r=".979" fill="#fff" opacity=".294"/><circle cx="667" cy="267" r=".826" fill="#fff" opacity=".225"/><circle cx="703" cy="380" r="1.123" fill="#fff" opacity=".448"/><circle cx="983" cy="278" r="1.594" fill="#fff" opacity=".32"/><circle cx="561" cy="288" r=".635" fill="#fff" opacity=".417"/><circle cx="479" cy="214" r="1.458" fill="#fff" opacity=".299"/><circle cx="98" cy="349" r=".604" fill="#fff" opacity=".504"/><circle cx="414" cy="371" r="1.597" fill="#fff" opacity=".603"/><circle cx="992" cy="196" r="2.22" fill="#fff" opacity=".591"/><circle cx="285" cy="353" r=".506" fill="#fff" opacity=".206"/><circle cx="953" cy="848" r="1.091" fill="#fff" opacity=".87"/><circle cx="701" cy="462" r="1.24" fill="#fff" opacity=".361"/><circle cx="536" cy="281" r="2.252" fill="#fff" opacity=".641"/><circle cx="843" cy="431" r=".661" fill="#fff" opacity=".483"/><circle cx="80" cy="561" r="1.225" fill="#fff" opacity=".654"/><circle cx="750" cy="895" r="2.323" fill="#fff" opacity=".632"/><circle cx="891" cy="827" r=".7" fill="#fff" opacity=".772"/><circle cx="100" cy="625" r="1.981" fill="#fff" opacity=".265"/><circle cx="897" cy="163" r="1.686" fill="#fff" opacity=".488"/><circle cx="831" cy="738" r="1.208" fill="#fff" opacity=".429"/><circle cx="572" cy="324" r=".747" fill="#fff" opacity=".563"/><circle cx="872" cy="55" r="1.061" fill="#fff" opacity=".608"/><circle cx="634" cy="355" r=".954" fill="#fff" opacity=".499"/><circle cx="799" cy="18" r="2.312" fill="#fff" opacity=".473"/><circle cx="231" cy="775" r="2.006" fill="#fff" opacity=".425"/><circle cx="889" cy="532" r="1.059" fill="#fff" opacity=".207"/><circle cx="877" cy="398" r=".677" fill="#fff" opacity=".715"/><circle cx="131" cy="40" r="1.621" fill="#fff" opacity=".478"/><circle cx="872" cy="502" r="1.558" fill="#fff" opacity=".94"/><circle cx="243" cy="173" r="2.391" fill="#fff" opacity=".354"/><circle cx="137" cy="552" r="1.042" fill="#fff" opacity=".437"/><circle cx="24" cy="93" r="1.079" fill="#fff" opacity=".58"/><circle cx="706" cy="761" r="2.387" fill="#fff" opacity=".962"/><circle cx="904" cy="437" r="2.14" fill="#fff" opacity=".218"/><circle cx="88" cy="473" r=".838" fill="#fff" opacity=".517"/><circle cx="245" cy="742" r="2.366" fill="#fff" opacity=".459"/><circle cx="769" cy="414" r="2.278" fill="#fff" opacity=".354"/><circle cx="11" cy="542" r="1.549" fill="#fff" opacity=".819"/><circle cx="121" cy="437" r="1.541" fill="#fff" opacity=".958"/><circle cx="78" cy="44" r="1.799" fill="#fff" opacity=".483"/><circle cx="820" cy="898" r=".851" fill="#fff" opacity=".716"/><circle cx="908" cy="586" r="1.63" fill="#fff" opacity=".927"/><circle cx="855" cy="14" r=".772" fill="#fff" opacity=".224"/><circle cx="885" cy="937" r="2.118" fill="#fff" opacity=".741"/><circle cx="734" cy="112" r="1.158" fill="#fff" opacity=".861"/><circle cx="145" cy="102" r="1.273" fill="#fff" opacity=".543"/><circle cx="255" cy="430" r=".962" fill="#fff" opacity=".733"/><circle cx="383" cy="993" r="1.388" fill="#fff" opacity=".212"/><circle cx="372" cy="565" r=".789" fill="#fff" opacity=".549"/><circle cx="945" cy="808" r="1.984" fill="#fff" opacity=".394"/><circle cx="350" cy="481" r=".96" fill="#fff" opacity=".839"/><circle cx="239" cy="517" r="2.471" fill="#fff" opacity=".205"/><circle cx="738" cy="264" r="2.274" fill="#fff" opacity=".3"/><circle cx="509" cy="490" r=".948" fill="#fff" opacity=".353"/><circle cx="856" cy="760" r="1.864" fill="#fff" opacity=".628"/><circle cx="51" cy="932" r="1.915" fill="#fff" opacity=".532"/><circle cx="165" cy="465" r=".821" fill="#fff" opacity=".292"/><circle cx="29" cy="686" r=".941" fill="#fff" opacity=".929"/><circle cx="829" cy="997" r="1.948" fill="#fff" opacity=".791"/><circle cx="334" cy="656" r="2.072" fill="#fff" opacity=".982"/><circle cx="621" cy="386" r="2.103" fill="#fff" opacity=".622"/><circle cx="56" cy="256" r="2.123" fill="#fff" opacity=".841"/><circle cx="41" cy="475" r="1.572" fill="#fff" opacity=".304"/><circle cx="583" cy="722" r="2.348" fill="#fff" opacity=".408"/><circle cx="661" cy="602" r="2.418" fill="#fff" opacity=".321"/><circle cx="982" cy="765" r="1.763" fill="#fff" opacity=".65"/><circle cx="870" cy="193" r="2.023" fill="#fff" opacity=".383"/><circle cx="545" cy="219" r="1.159" fill="#fff" opacity=".949"/><circle cx="724" cy="969" r="1.353" fill="#fff" opacity=".518"/><circle cx="158" cy="541" r="1.427" fill="#fff" opacity=".717"/><circle cx="670" cy="300" r="1.059" fill="#fff" opacity=".983"/><circle cx="64" cy="853" r="1.581" fill="#fff" opacity=".359"/><circle cx="138" cy="255" r="1.746" fill="#fff" opacity=".715"/><circle cx="697" cy="521" r="1.57" fill="#fff" opacity=".393"/><circle cx="423" cy="677" r="2.204" fill="#fff" opacity=".366"/><circle cx="992" cy="935" r="2.082" fill="#fff" opacity=".585"/><circle cx="665" cy="288" r="1.547" fill="#fff" opacity=".295"/><circle cx="121" cy="626" r="1.501" fill="#fff" opacity=".558"/><circle cx="396" cy="377" r="1.396" fill="#fff" opacity=".919"/><circle cx="428" cy="962" r="1.293" fill="#fff" opacity=".453"/><circle cx="108" cy="99" r="1.891" fill="#fff" opacity=".237"/><circle cx="311" cy="287" r=".623" fill="#fff" opacity=".474"/><circle cx="84" cy="677" r="1.569" fill="#fff" opacity=".739"/><circle cx="417" cy="880" r="1.746" fill="#fff" opacity=".764"/><circle cx="674" cy="535" r=".591" fill="#fff" opacity=".43"/><circle cx="409" cy="11" r="1.433" fill="#fff" opacity=".225"/><circle cx="769" cy="91" r="1.83" fill="#fff" opacity=".301"/><circle cx="855" cy="314" r="1.368" fill="#fff" opacity=".994"/><circle cx="593" cy="515" r="1.567" fill="#fff" opacity=".28"/><circle cx="600" cy="31" r="2.372" fill="#fff" opacity=".411"/><circle cx="624" cy="88" r="1.069" fill="#fff" opacity=".749"/><circle cx="122" cy="707" r="1.849" fill="#fff" opacity=".375"/><circle cx="398" cy="264" r="1.782" fill="#fff" opacity=".782"/><circle cx="354" cy="808" r="2.492" fill="#fff" opacity=".911"/><circle cx="571" cy="866" r=".848" fill="#fff" opacity=".38"/><circle cx="532" cy="889" r="2.279" fill="#fff" opacity=".444"/><circle cx="139" cy="88" r="1.583" fill="#fff" opacity=".645"/><circle cx="422" cy="499" r="2.15" fill="#fff" opacity=".627"/><circle cx="557" cy="910" r="1.283" fill="#fff" opacity=".812"/><circle cx="219" cy="539" r=".862" fill="#fff" opacity=".447"/><circle cx="927" cy="601" r="1.755" fill="#fff" opacity=".232"/><circle cx="373" cy="733" r="2.382" fill="#fff" opacity=".682"/><circle cx="104" cy="582" r="1.893" fill="#fff" opacity=".633"/><circle cx="788" cy="565" r="1.659" fill="#fff" opacity=".227"/><circle cx="806" cy="971" r="1.436" fill="#fff" opacity=".247"/><circle cx="657" cy="920" r="1.816" fill="#fff" opacity=".792"/><circle cx="423" cy="609" r="1.054" fill="#fff" opacity=".296"/><circle cx="531" cy="561" r="1.707" fill="#fff" opacity=".852"/><circle cx="524" cy="63" r="1.531" fill="#fff" opacity=".493"/><circle cx="560" cy="827" r=".983" fill="#fff" opacity=".878"/><circle cx="281" cy="722" r="1.831" fill="#fff" opacity=".325"/><circle cx="899" cy="371" r="1.718" fill="#fff" opacity=".674"/><circle cx="446" cy="138" r="1.025" fill="#fff" opacity=".668"/><circle cx="267" cy="543" r="1.973" fill="#fff" opacity=".772"/><circle cx="856" cy="414" r="1.805" fill="#fff" opacity=".995"/><circle cx="43" cy="58" r="1.836" fill="#fff" opacity=".791"/><circle cx="129" cy="972" r="2.229" fill="#fff" opacity=".676"/><circle cx="977" cy="276" r="1.949" fill="#fff" opacity=".937"/><circle cx="402" cy="446" r="1.786" fill="#fff" opacity=".964"/><circle cx="698" cy="856" r="1.232" fill="#fff" opacity=".946"/><circle cx="384" cy="303" r="2.058" fill="#fff" opacity=".758"/><circle cx="663" cy="346" r="2.38" fill="#fff" opacity=".92"/><circle cx="658" cy="282" r="1.542" fill="#fff" opacity=".479"/><circle cx="734" cy="296" r="2.432" fill="#fff" opacity=".331"/><circle cx="468" cy="91" r="1.09" fill="#fff" opacity=".889"/><circle cx="828" cy="533" r="2.209" fill="#fff" opacity=".911"/><circle cx="531" cy="59" r="2.207" fill="#fff" opacity=".54"/><circle cx="264" cy="87" r="2.159" fill="#fff" opacity=".466"/><circle cx="467" cy="280" r="1.89" fill="#fff" opacity=".352"/><circle cx="426" cy="48" r="1.799" fill="#fff" opacity=".476"/><circle cx="83" cy="593" r="2.28" fill="#fff" opacity=".681"/><circle cx="93" cy="832" r="1.623" fill="#fff" opacity=".45"/><circle cx="358" cy="448" r="1.755" fill="#fff" opacity=".874"/><circle cx="121" cy="580" r="1.874" fill="#4a4aff" opacity=".741"/><circle cx="205" cy="382" r="2.367" fill="#4a4aff" opacity=".587"/><circle cx="550" cy="154" r="1.518" fill="#4a4aff" opacity=".217"/><circle cx="549" cy="938" r="2.438" fill="#4a4aff" opacity=".201"/><circle cx="956" cy="251" r="3.181" fill="#4a4aff" opacity=".818"/><circle cx="439" cy="48" r="2.895" fill="#4a4aff" opacity=".712"/><circle cx="622" cy="450" r="3.255" fill="#4a4aff" opacity=".381"/><circle cx="684" cy="339" r="2.049" fill="#4a4aff" opacity=".315"/><circle cx="512" cy="900" r="3.525" fill="#4a4aff" opacity=".759"/><circle cx="72" cy="859" r="3.423" fill="#4a4aff" opacity=".275"/><circle cx="242" cy="85" r="2.762" fill="#4a4aff" opacity=".862"/><circle cx="145" cy="745" r="2.287" fill="#4a4aff" opacity=".656"/><circle cx="698" cy="99" r="3.521" fill="#4a4aff" opacity=".714"/><circle cx="702" cy="594" r="1.748" fill="#4a4aff" opacity=".609"/><circle cx="311" cy="769" r="3.212" fill="#4a4aff" opacity=".864"/><circle cx="961" cy="2" r="3.12" fill="#4a4aff" opacity=".97"/><circle cx="860" cy="743" r="2.687" fill="#4a4aff" opacity=".864"/><circle cx="206" cy="882" r="1.783" fill="#4a4aff" opacity=".679"/><circle cx="813" cy="273" r="1.105" fill="#4a4aff" opacity=".203"/><circle cx="730" cy="113" r="1.323" fill="#4a4aff" opacity=".205"/><circle cx="396" cy="642" r="1.221" fill="#4a4aff" opacity=".905"/><circle cx="60" cy="542" r="2.332" fill="#4a4aff" opacity=".379"/><circle cx="934" cy="718" r="1.533" fill="#4a4aff" opacity=".378"/><circle cx="780" cy="858" r="1.314" fill="#4a4aff" opacity=".986"/><circle cx="987" cy="616" r="2.676" fill="#4a4aff" opacity=".597"/><circle cx="750" cy="55" r="2.889" fill="#4a4aff" opacity=".407"/><circle cx="132" cy="616" r="3.235" fill="#4a4aff" opacity=".244"/><circle cx="789" cy="462" r="2.549" fill="#4a4aff" opacity=".303"/><circle cx="947" cy="955" r="1.944" fill="#4a4aff" opacity=".217"/><circle cx="377" cy="991" r="1.122" fill="#4a4aff" opacity=".602"/><circle cx="283" cy="459" r="1.815" fill="#4a4aff" opacity=".748"/><circle cx="53" cy="690" r="2.393" fill="#4a4aff" opacity=".887"/><circle cx="135" cy="738" r="2.264" fill="#4a4aff" opacity=".442"/><circle cx="25" cy="82" r="3.467" fill="#4a4aff" opacity=".729"/><circle cx="78" cy="849" r="1.72" fill="#4a4aff" opacity=".792"/><circle cx="304" cy="723" r="1.606" fill="#4a4aff" opacity=".794"/><circle cx="288" cy="499" r="2.853" fill="#4a4aff" opacity=".564"/><circle cx="695" cy="328" r="3.677" fill="#4a4aff" opacity=".97"/><circle cx="489" cy="550" r="1.279" fill="#4a4aff" opacity=".232"/><circle cx="101" cy="762" r="2.322" fill="#4a4aff" opacity=".93"/><circle cx="514" cy="840" r="1.723" fill="#4a4aff" opacity=".479"/><circle cx="988" cy="647" r="3.294" fill="#4a4aff" opacity=".993"/><circle cx="31" cy="815" r="3.4" fill="#4a4aff" opacity=".754"/><circle cx="628" cy="111" r="3.662" fill="#4a4aff" opacity=".279"/><circle cx="309" cy="874" r="1.098" fill="#4a4aff" opacity=".225"/><circle cx="305" cy="271" r="2.241" fill="#4a4aff" opacity=".888"/><circle cx="279" cy="593" r="3.818" fill="#4a4aff" opacity=".562"/><circle cx="973" cy="459" r="3.034" fill="#4a4aff" opacity=".301"/><circle cx="22" cy="485" r="3.272" fill="#4a4aff" opacity=".992"/><circle cx="77" cy="200" r="1.261" fill="#4a4aff" opacity=".683"/></svg>