<svg width="1000" height="1000" viewBox="0 0 1000 1000" xmlns="http://www.w3.org/2000/svg">
      <rect width="1000" height="1000" fill="#0a0a2a"/>
      <circle cx="877" cy="944" r="1.6181320231502374" fill="#ffffff" opacity="0.335682328718711"/><circle cx="668" cy="695" r="0.8037090895598826" fill="#ffffff" opacity="0.6167729443317871"/><circle cx="13" cy="888" r="2.3908300568285425" fill="#ffffff" opacity="0.9690974143862015"/><circle cx="917" cy="204" r="2.287817532471063" fill="#ffffff" opacity="0.2674446840360803"/><circle cx="674" cy="691" r="1.1526933443724774" fill="#ffffff" opacity="0.7723892531334824"/><circle cx="360" cy="962" r="1.5502403198793253" fill="#ffffff" opacity="0.8030693710108796"/><circle cx="516" cy="401" r="1.3427673663569477" fill="#ffffff" opacity="0.25035325195336644"/><circle cx="503" cy="455" r="0.5812551958737222" fill="#ffffff" opacity="0.424949667257631"/><circle cx="633" cy="354" r="1.8533709846536834" fill="#ffffff" opacity="0.7699423081842425"/><circle cx="486" cy="582" r="1.8607025810499693" fill="#ffffff" opacity="0.33119784101789734"/><circle cx="312" cy="650" r="1.235689811152548" fill="#ffffff" opacity="0.43460642818827006"/><circle cx="923" cy="523" r="1.9920403551205288" fill="#ffffff" opacity="0.38685093042545127"/><circle cx="176" cy="158" r="0.8345215761107694" fill="#ffffff" opacity="0.5962953077803261"/><circle cx="89" cy="104" r="2.17483111663381" fill="#ffffff" opacity="0.4663448907037731"/><circle cx="578" cy="565" r="1.159382418449587" fill="#ffffff" opacity="0.8363308008796273"/><circle cx="406" cy="866" r="1.3697545180226944" fill="#ffffff" opacity="0.24096286282425244"/><circle cx="770" cy="9" r="1.4037253149211262" fill="#ffffff" opacity="0.7696038988932947"/><circle cx="11" cy="128" r="1.7479163981742083" fill="#ffffff" opacity="0.2017740964777131"/><circle cx="43" cy="970" r="2.4421212784418076" fill="#ffffff" opacity="0.8412758640232265"/><circle cx="880" cy="172" r="1.2142845603051513" fill="#ffffff" opacity="0.26199916787128574"/><circle cx="639" cy="446" r="1.8034444964459944" fill="#ffffff" opacity="0.9761190581432251"/><circle cx="47" cy="645" r="1.6170297039730452" fill="#ffffff" opacity="0.7055482425181492"/><circle cx="688" cy="859" r="1.1213021611526264" fill="#ffffff" opacity="0.6177479826775321"/><circle cx="305" cy="110" r="2.358056246889914" fill="#ffffff" opacity="0.9253125287518751"/><circle cx="46" cy="670" r="1.5448601598817895" fill="#ffffff" opacity="0.7249343431784323"/><circle cx="629" cy="184" r="1.8696461033739817" fill="#ffffff" opacity="0.7171310562940236"/><circle cx="236" cy="641" r="2.4806700696192445" fill="#ffffff" opacity="0.3675108359601875"/><circle cx="247" cy="451" r="0.6707960007764755" fill="#ffffff" opacity="0.3730360332959537"/><circle cx="799" cy="434" r="0.5665122674948901" fill="#ffffff" opacity="0.2944765545369672"/><circle cx="426" cy="584" r="1.4755176343761667" fill="#ffffff" opacity="0.34574926196678446"/><circle cx="352" cy="866" r="1.3183502994048606" fill="#ffffff" opacity="0.8402294612150447"/><circle cx="633" cy="36" r="1.1214737638656609" fill="#ffffff" opacity="0.7953671426975777"/><circle cx="412" cy="430" r="1.7129684953753936" fill="#ffffff" opacity="0.593480733380884"/><circle cx="295" cy="384" r="2.0774509609538088" fill="#ffffff" opacity="0.37483154401825036"/><circle cx="589" cy="770" r="2.029948607168207" fill="#ffffff" opacity="0.7861927738345107"/><circle cx="769" cy="646" r="0.7482024415241546" fill="#ffffff" opacity="0.7126544113225017"/><circle cx="654" cy="595" r="1.8730141080230784" fill="#ffffff" opacity="0.3959981953656085"/><circle cx="251" cy="504" r="1.8870471575329213" fill="#ffffff" opacity="0.47201103257385546"/><circle cx="649" cy="2" r="1.0510849655571222" fill="#ffffff" opacity="0.31417878965082696"/><circle cx="510" cy="799" r="2.247205154734289" fill="#ffffff" opacity="0.4230537729112648"/><circle cx="600" cy="179" r="2.027735821714815" fill="#ffffff" opacity="0.891346759831722"/><circle cx="994" cy="439" r="2.0802953881652195" fill="#ffffff" opacity="0.8919870761292814"/><circle cx="565" cy="646" r="1.7683717235775451" fill="#ffffff" opacity="0.5160345442803731"/><circle cx="502" cy="846" r="1.8103337284763823" fill="#ffffff" opacity="0.5374799806089758"/><circle cx="595" cy="231" r="1.6926031667810668" fill="#ffffff" opacity="0.41172436483888064"/><circle cx="596" cy="210" r="0.6258658740441758" fill="#ffffff" opacity="0.5043810145992145"/><circle cx="425" cy="863" r="0.9565564502128763" fill="#ffffff" opacity="0.4681406686566698"/><circle cx="948" cy="130" r="1.679027860343913" fill="#ffffff" opacity="0.3989580661176511"/><circle cx="244" cy="612" r="0.8303695991790634" fill="#ffffff" opacity="0.4565206425524695"/><circle cx="417" cy="859" r="1.411974137385625" fill="#ffffff" opacity="0.4257036117806832"/><circle cx="658" cy="243" r="1.4087972366592139" fill="#ffffff" opacity="0.20860779615193206"/><circle cx="315" cy="636" r="0.6204819653034881" fill="#ffffff" opacity="0.5460212481092489"/><circle cx="202" cy="756" r="1.6429329814546394" fill="#ffffff" opacity="0.752455891359977"/><circle cx="371" cy="481" r="1.0298083793270383" fill="#ffffff" opacity="0.7861587059200059"/><circle cx="956" cy="186" r="1.4970325575193062" fill="#ffffff" opacity="0.823558387048869"/><circle cx="233" cy="384" r="1.496103799295959" fill="#ffffff" opacity="0.2505957655074639"/><circle cx="629" cy="459" r="1.6092513441040945" fill="#ffffff" opacity="0.5359024595883627"/><circle cx="252" cy="925" r="2.3055797324269385" fill="#ffffff" opacity="0.31513606877968264"/><circle cx="511" cy="119" r="2.3682263971162048" fill="#ffffff" opacity="0.3379216066033722"/><circle cx="118" cy="56" r="2.027953821886036" fill="#ffffff" opacity="0.9165896567259397"/><circle cx="674" cy="341" r="2.256665970627876" fill="#ffffff" opacity="0.6138177111130491"/><circle cx="923" cy="455" r="1.8419807434194007" fill="#ffffff" opacity="0.6208581305927249"/><circle cx="163" cy="326" r="1.1527901085520766" fill="#ffffff" opacity="0.23632421923758573"/><circle cx="858" cy="273" r="1.5706644251308828" fill="#ffffff" opacity="0.645475698093788"/><circle cx="979" cy="467" r="2.2365225137042706" fill="#ffffff" opacity="0.44045428224761385"/><circle cx="336" cy="457" r="1.4691582612845822" fill="#ffffff" opacity="0.9443385985344277"/><circle cx="788" cy="961" r="1.5857233304885714" fill="#ffffff" opacity="0.2149344891731655"/><circle cx="358" cy="520" r="0.9793657993988729" fill="#ffffff" opacity="0.2940091751542424"/><circle cx="667" cy="267" r="0.8259739346082173" fill="#ffffff" opacity="0.22536844233366243"/><circle cx="703" cy="380" r="1.1234988222893634" fill="#ffffff" opacity="0.448489511455756"/><circle cx="983" cy="278" r="1.5940037227955486" fill="#ffffff" opacity="0.32033261577649785"/><circle cx="561" cy="288" r="0.635284385709995" fill="#ffffff" opacity="0.4173318971595791"/><circle cx="479" cy="214" r="1.4578071151441923" fill="#ffffff" opacity="0.29891083976831934"/><circle cx="98" cy="349" r="0.6040030242993013" fill="#ffffff" opacity="0.5039321145030744"/><circle cx="414" cy="371" r="1.5974480448840502" fill="#ffffff" opacity="0.6033120462297741"/><circle cx="992" cy="196" r="2.2203207198905743" fill="#ffffff" opacity="0.5909556937490634"/><circle cx="285" cy="353" r="0.5055928408201411" fill="#ffffff" opacity="0.2064768166231451"/><circle cx="953" cy="848" r="1.091474867134277" fill="#ffffff" opacity="0.869799067384277"/><circle cx="701" cy="462" r="1.2395147339138592" fill="#ffffff" opacity="0.3610418422047206"/><circle cx="536" cy="281" r="2.2518551659564245" fill="#ffffff" opacity="0.6407114167257633"/><circle cx="843" cy="431" r="0.6613227447156249" fill="#ffffff" opacity="0.48334018011304836"/><circle cx="80" cy="561" r="1.225068039665008" fill="#ffffff" opacity="0.6539890536406521"/><circle cx="750" cy="895" r="2.323143910915779" fill="#ffffff" opacity="0.6320524715644864"/><circle cx="891" cy="827" r="0.699592394832675" fill="#ffffff" opacity="0.7720949639866885"/><circle cx="100" cy="625" r="1.981033567540372" fill="#ffffff" opacity="0.2650546109218736"/><circle cx="897" cy="163" r="1.6860669514893165" fill="#ffffff" opacity="0.4875722773478394"/><circle cx="831" cy="738" r="1.2076631062870442" fill="#ffffff" opacity="0.4287954983653574"/><circle cx="572" cy="324" r="0.7471871059917334" fill="#ffffff" opacity="0.562784597550436"/><circle cx="872" cy="55" r="1.0609117956451777" fill="#ffffff" opacity="0.608063296772929"/><circle cx="634" cy="355" r="0.9544405366517861" fill="#ffffff" opacity="0.4987570998576836"/><circle cx="799" cy="18" r="2.312293812469423" fill="#ffffff" opacity="0.4726814941010362"/><circle cx="231" cy="775" r="2.0057015987333218" fill="#ffffff" opacity="0.42528403334738735"/><circle cx="889" cy="532" r="1.058853190563656" fill="#ffffff" opacity="0.2066106609596796"/><circle cx="877" cy="398" r="0.6774720103203173" fill="#ffffff" opacity="0.7153461293516432"/><circle cx="131" cy="40" r="1.6213666538523137" fill="#ffffff" opacity="0.4780653823468994"/><circle cx="872" cy="502" r="1.5576829544269568" fill="#ffffff" opacity="0.9400199812033729"/><circle cx="243" cy="173" r="2.3905455796825588" fill="#ffffff" opacity="0.35443085881865777"/><circle cx="137" cy="552" r="1.041892747659091" fill="#ffffff" opacity="0.4371013178940528"/><circle cx="24" cy="93" r="1.0788408109512635" fill="#ffffff" opacity="0.580471341263747"/><circle cx="706" cy="761" r="2.387441284516443" fill="#ffffff" opacity="0.9617931130292565"/><circle cx="904" cy="437" r="2.1397016705157927" fill="#ffffff" opacity="0.21756645605490663"/><circle cx="88" cy="473" r="0.8377764866340582" fill="#ffffff" opacity="0.5166459289549106"/><circle cx="245" cy="742" r="2.3660834861566062" fill="#ffffff" opacity="0.4586253173808773"/><circle cx="769" cy="414" r="2.278408121798749" fill="#ffffff" opacity="0.3539604875518471"/><circle cx="11" cy="542" r="1.5488724843059591" fill="#ffffff" opacity="0.8186233316987486"/><circle cx="121" cy="437" r="1.541259985182696" fill="#ffffff" opacity="0.9582791357807083"/><circle cx="78" cy="44" r="1.7987820445518676" fill="#ffffff" opacity="0.48279361394343"/><circle cx="820" cy="898" r="0.8513477081178356" fill="#ffffff" opacity="0.7155231885970426"/><circle cx="908" cy="586" r="1.6295115780437435" fill="#ffffff" opacity="0.9271907739728291"/><circle cx="855" cy="14" r="0.7716791589000489" fill="#ffffff" opacity="0.22375899812417047"/><circle cx="885" cy="937" r="2.117885080700253" fill="#ffffff" opacity="0.7413842745964132"/><circle cx="734" cy="112" r="1.1578874484719979" fill="#ffffff" opacity="0.8608765227827386"/><circle cx="145" cy="102" r="1.2734545134656234" fill="#ffffff" opacity="0.5427088814022701"/><circle cx="255" cy="430" r="0.9621296117195133" fill="#ffffff" opacity="0.7332587241246182"/><circle cx="383" cy="993" r="1.3880090544181813" fill="#ffffff" opacity="0.21211820099595846"/><circle cx="372" cy="565" r="0.7889859484917556" fill="#ffffff" opacity="0.5491389138838139"/><circle cx="945" cy="808" r="1.983536840521404" fill="#ffffff" opacity="0.39372761799709527"/><circle cx="350" cy="481" r="0.9598338829616866" fill="#ffffff" opacity="0.8387601427291307"/><circle cx="239" cy="517" r="2.4713433437857923" fill="#ffffff" opacity="0.20462355379561803"/><circle cx="738" cy="264" r="2.273610856754699" fill="#ffffff" opacity="0.2998304126523452"/><circle cx="509" cy="490" r="0.9480523525897575" fill="#ffffff" opacity="0.35311398090416746"/><circle cx="856" cy="760" r="1.8642761030924122" fill="#ffffff" opacity="0.6282345672780304"/><circle cx="51" cy="932" r="1.914566359247825" fill="#ffffff" opacity="0.532413596654407"/><circle cx="165" cy="465" r="0.8205789218493154" fill="#ffffff" opacity="0.2923737777710869"/><circle cx="29" cy="686" r="0.9411827476149335" fill="#ffffff" opacity="0.9285182470579878"/><circle cx="829" cy="997" r="1.9484778814673844" fill="#ffffff" opacity="0.7909591657045236"/><circle cx="334" cy="656" r="2.072026546456489" fill="#ffffff" opacity="0.9819979268851202"/><circle cx="621" cy="386" r="2.103124664027374" fill="#ffffff" opacity="0.6222419891320327"/><circle cx="56" cy="256" r="2.122648597313049" fill="#ffffff" opacity="0.8408196699173647"/><circle cx="41" cy="475" r="1.5721342508196172" fill="#ffffff" opacity="0.30360725582844045"/><circle cx="583" cy="722" r="2.3475062253051235" fill="#ffffff" opacity="0.4084678738541538"/><circle cx="661" cy="602" r="2.418358511254936" fill="#ffffff" opacity="0.32123234608359397"/><circle cx="982" cy="765" r="1.7634045120565127" fill="#ffffff" opacity="0.6496188095649917"/><circle cx="870" cy="193" r="2.022561353768574" fill="#ffffff" opacity="0.3831616196834201"/><circle cx="545" cy="219" r="1.1587219014596126" fill="#ffffff" opacity="0.9491221919423192"/><circle cx="724" cy="969" r="1.3533111030119143" fill="#ffffff" opacity="0.5184975566750851"/><circle cx="158" cy="541" r="1.4270605636892717" fill="#ffffff" opacity="0.7172792768342136"/><circle cx="670" cy="300" r="1.059454590891768" fill="#ffffff" opacity="0.9829405732265146"/><circle cx="64" cy="853" r="1.5810802584648078" fill="#ffffff" opacity="0.35891746362257476"/><circle cx="138" cy="255" r="1.7459936117320383" fill="#ffffff" opacity="0.7149686317527459"/><circle cx="697" cy="521" r="1.5703620297118288" fill="#ffffff" opacity="0.3933332628495245"/><circle cx="423" cy="677" r="2.2038259759412537" fill="#ffffff" opacity="0.36580956066448406"/><circle cx="992" cy="935" r="2.081547700794724" fill="#ffffff" opacity="0.5853852623408098"/><circle cx="665" cy="288" r="1.5474077217145932" fill="#ffffff" opacity="0.2949486559552128"/><circle cx="121" cy="626" r="1.5008102045977885" fill="#ffffff" opacity="0.558097202698781"/><circle cx="396" cy="377" r="1.396365992483875" fill="#ffffff" opacity="0.9187842325198683"/><circle cx="428" cy="962" r="1.2931506619562638" fill="#ffffff" opacity="0.4526257288488831"/><circle cx="108" cy="99" r="1.8913859582111847" fill="#ffffff" opacity="0.2373265864412762"/><circle cx="311" cy="287" r="0.6228005977818718" fill="#ffffff" opacity="0.4738178318791777"/><circle cx="84" cy="677" r="1.5694039324142608" fill="#ffffff" opacity="0.7389298949800049"/><circle cx="417" cy="880" r="1.7463875010281438" fill="#ffffff" opacity="0.7636262693758955"/><circle cx="674" cy="535" r="0.5910077525892721" fill="#ffffff" opacity="0.4301626962350591"/><circle cx="409" cy="11" r="1.4327700411666795" fill="#ffffff" opacity="0.22519411956748314"/><circle cx="769" cy="91" r="1.8304344341448635" fill="#ffffff" opacity="0.30061956538161694"/><circle cx="855" cy="314" r="1.3681580765017984" fill="#ffffff" opacity="0.9942582852168858"/><circle cx="593" cy="515" r="1.5669454602455168" fill="#ffffff" opacity="0.27993164767085155"/><circle cx="600" cy="31" r="2.371980784758152" fill="#ffffff" opacity="0.4111431732846388"/><circle cx="624" cy="88" r="1.0685810461104213" fill="#ffffff" opacity="0.7488802857170802"/><circle cx="122" cy="707" r="1.8493769232048702" fill="#ffffff" opacity="0.3753034716964674"/><circle cx="398" cy="264" r="1.7815989277074196" fill="#ffffff" opacity="0.7823054663783438"/><circle cx="354" cy="808" r="2.492342571780141" fill="#ffffff" opacity="0.9110397168703865"/><circle cx="571" cy="866" r="0.8481398551569082" fill="#ffffff" opacity="0.3803468499146142"/><circle cx="532" cy="889" r="2.278595574519262" fill="#ffffff" opacity="0.44418891004084493"/><circle cx="139" cy="88" r="1.5827614663257665" fill="#ffffff" opacity="0.644694144381194"/><circle cx="422" cy="499" r="2.1504976162214526" fill="#ffffff" opacity="0.6267118589008793"/><circle cx="557" cy="910" r="1.282531503384401" fill="#ffffff" opacity="0.8120704944603736"/><circle cx="219" cy="539" r="0.8619624640991765" fill="#ffffff" opacity="0.44655074275668893"/><circle cx="927" cy="601" r="1.7548031398027977" fill="#ffffff" opacity="0.2317984771923598"/><circle cx="373" cy="733" r="2.381993789821025" fill="#ffffff" opacity="0.6819715325017338"/><circle cx="104" cy="582" r="1.8933199027789458" fill="#ffffff" opacity="0.6330667189866892"/><circle cx="788" cy="565" r="1.6593575003629901" fill="#ffffff" opacity="0.22667532424407213"/><circle cx="806" cy="971" r="1.4359477179551647" fill="#ffffff" opacity="0.24653639857216536"/><circle cx="657" cy="920" r="1.8156885911815155" fill="#ffffff" opacity="0.7920281405326446"/><circle cx="423" cy="609" r="1.054294040940833" fill="#ffffff" opacity="0.2955991523012873"/><circle cx="531" cy="561" r="1.706696407954846" fill="#ffffff" opacity="0.8519701739003853"/><circle cx="524" cy="63" r="1.531295077975901" fill="#ffffff" opacity="0.49292390700568944"/><circle cx="560" cy="827" r="0.9829638912745478" fill="#ffffff" opacity="0.8779319014088933"/><circle cx="281" cy="722" r="1.8310218700570426" fill="#ffffff" opacity="0.32473899917828214"/><circle cx="899" cy="371" r="1.718359741380755" fill="#ffffff" opacity="0.6736516309290754"/><circle cx="446" cy="138" r="1.0245037252018605" fill="#ffffff" opacity="0.6682078322221288"/><circle cx="267" cy="543" r="1.9729975348222544" fill="#ffffff" opacity="0.7717201714898505"/><circle cx="856" cy="414" r="1.8047604764139882" fill="#ffffff" opacity="0.9949473562167162"/><circle cx="43" cy="58" r="1.8362712106532229" fill="#ffffff" opacity="0.7908053491388085"/><circle cx="129" cy="972" r="2.228698020315854" fill="#ffffff" opacity="0.6764552817673897"/><circle cx="977" cy="276" r="1.9485786013014676" fill="#ffffff" opacity="0.9372578696556138"/><circle cx="402" cy="446" r="1.7859110101626126" fill="#ffffff" opacity="0.964290917744004"/><circle cx="698" cy="856" r="1.2319326885487447" fill="#ffffff" opacity="0.9457096488377539"/><circle cx="384" cy="303" r="2.057568528574254" fill="#ffffff" opacity="0.7579254359093928"/><circle cx="663" cy="346" r="2.3801307694998797" fill="#ffffff" opacity="0.9198875719073734"/><circle cx="658" cy="282" r="1.541549538549356" fill="#ffffff" opacity="0.47910190387834356"/><circle cx="734" cy="296" r="2.4316830641649068" fill="#ffffff" opacity="0.3312450011883584"/><circle cx="468" cy="91" r="1.09048822983647" fill="#ffffff" opacity="0.8891104223164783"/><circle cx="828" cy="533" r="2.2092818080588508" fill="#ffffff" opacity="0.9111853308130562"/><circle cx="531" cy="59" r="2.2073903956368857" fill="#ffffff" opacity="0.5401415561906214"/><circle cx="264" cy="87" r="2.158672930631841" fill="#ffffff" opacity="0.4663765516172557"/><circle cx="467" cy="280" r="1.8900617379521267" fill="#ffffff" opacity="0.35202844402457034"/><circle cx="426" cy="48" r="1.7990130850832937" fill="#ffffff" opacity="0.4764686533530036"/><circle cx="83" cy="593" r="2.280077309677832" fill="#ffffff" opacity="0.6814466410310984"/><circle cx="93" cy="832" r="1.62303334710737" fill="#ffffff" opacity="0.44953051408893646"/><circle cx="358" cy="448" r="1.7546762319298117" fill="#ffffff" opacity="0.8744789144613307"/>
      <circle cx="121" cy="580" r="1.8737874339591984" fill="#4a4aff" opacity="0.7412040185482784"/><circle cx="205" cy="382" r="2.367059754976424" fill="#4a4aff" opacity="0.5870007926876031"/><circle cx="550" cy="154" r="1.5178077919237458" fill="#4a4aff" opacity="0.21720457605907414"/><circle cx="549" cy="938" r="2.4380910485305796" fill="#4a4aff" opacity="0.20096869865937209"/><circle cx="956" cy="251" r="3.1814384663777595" fill="#4a4aff" opacity="0.8180711983316091"/><circle cx="439" cy="48" r="2.895351122988643" fill="#4a4aff" opacity="0.7122751288694422"/><circle cx="622" cy="450" r="3.255148472652407" fill="#4a4aff" opacity="0.3805981200160231"/><circle cx="684" cy="339" r="2.049073323943232" fill="#4a4aff" opacity="0.31525069906131886"/><circle cx="512" cy="900" r="3.525187026743166" fill="#4a4aff" opacity="0.7587541115467484"/><circle cx="72" cy="859" r="3.423491001651046" fill="#4a4aff" opacity="0.27450523566181817"/><circle cx="242" cy="85" r="2.762324955611544" fill="#4a4aff" opacity="0.8622667612089587"/><circle cx="145" cy="745" r="2.2873608927570594" fill="#4a4aff" opacity="0.6564467672744541"/><circle cx="698" cy="99" r="3.520733410890892" fill="#4a4aff" opacity="0.7136631409985918"/><circle cx="702" cy="594" r="1.7478202865647883" fill="#4a4aff" opacity="0.6090962549566298"/><circle cx="311" cy="769" r="3.2122385065810892" fill="#4a4aff" opacity="0.8639250448742242"/><circle cx="961" cy="2" r="3.119708392521702" fill="#4a4aff" opacity="0.9699286706893551"/><circle cx="860" cy="743" r="2.686729286792035" fill="#4a4aff" opacity="0.8635855577014913"/><circle cx="206" cy="882" r="1.783275339737884" fill="#4a4aff" opacity="0.6788474299940207"/><circle cx="813" cy="273" r="1.105416042933688" fill="#4a4aff" opacity="0.20298884438682735"/><circle cx="730" cy="113" r="1.323432470258425" fill="#4a4aff" opacity="0.20545273088154872"/><circle cx="396" cy="642" r="1.2210668901337642" fill="#4a4aff" opacity="0.9048211422000678"/><circle cx="60" cy="542" r="2.331688506605051" fill="#4a4aff" opacity="0.3788746603861853"/><circle cx="934" cy="718" r="1.532541320474133" fill="#4a4aff" opacity="0.377562583373652"/><circle cx="780" cy="858" r="1.3143534756754132" fill="#4a4aff" opacity="0.9862614849875211"/><circle cx="987" cy="616" r="2.6760451545133623" fill="#4a4aff" opacity="0.5968580648887687"/><circle cx="750" cy="55" r="2.8887377146463424" fill="#4a4aff" opacity="0.40711306836346817"/><circle cx="132" cy="616" r="3.2345883865670055" fill="#4a4aff" opacity="0.24421035546871633"/><circle cx="789" cy="462" r="2.549031932311432" fill="#4a4aff" opacity="0.30296009282275077"/><circle cx="947" cy="955" r="1.9436198490938665" fill="#4a4aff" opacity="0.21709581667881644"/><circle cx="377" cy="991" r="1.1224827492119318" fill="#4a4aff" opacity="0.6022179093800175"/><circle cx="283" cy="459" r="1.8150562541477022" fill="#4a4aff" opacity="0.7483060476583132"/><circle cx="53" cy="690" r="2.3926024896879796" fill="#4a4aff" opacity="0.8868450275683732"/><circle cx="135" cy="738" r="2.26359759129763" fill="#4a4aff" opacity="0.4418535812429534"/><circle cx="25" cy="82" r="3.4668861950717407" fill="#4a4aff" opacity="0.729046958304298"/><circle cx="78" cy="849" r="1.7196112661242402" fill="#4a4aff" opacity="0.7918917035804718"/><circle cx="304" cy="723" r="1.6061416033431297" fill="#4a4aff" opacity="0.7936912743093114"/><circle cx="288" cy="499" r="2.85313522501601" fill="#4a4aff" opacity="0.5638598046162067"/><circle cx="695" cy="328" r="3.677363875959326" fill="#4a4aff" opacity="0.9701361917187208"/><circle cx="489" cy="550" r="1.2792529700556643" fill="#4a4aff" opacity="0.23241687467011263"/><circle cx="101" cy="762" r="2.3218407621449084" fill="#4a4aff" opacity="0.9304180481910957"/><circle cx="514" cy="840" r="1.7228794374577867" fill="#4a4aff" opacity="0.4786111547834317"/><circle cx="988" cy="647" r="3.294145085503308" fill="#4a4aff" opacity="0.9925263984430512"/><circle cx="31" cy="815" r="3.399722723953226" fill="#4a4aff" opacity="0.7536373783843671"/><circle cx="628" cy="111" r="3.662062538309107" fill="#4a4aff" opacity="0.27932232849408917"/><circle cx="309" cy="874" r="1.0982502447653621" fill="#4a4aff" opacity="0.22532328350249778"/><circle cx="305" cy="271" r="2.2409881539072654" fill="#4a4aff" opacity="0.8876523914140162"/><circle cx="279" cy="593" r="3.8179013205374224" fill="#4a4aff" opacity="0.5622099979090218"/><circle cx="973" cy="459" r="3.0336688026594003" fill="#4a4aff" opacity="0.3008478135081092"/><circle cx="22" cy="485" r="3.271603126104938" fill="#4a4aff" opacity="0.9920009854282834"/><circle cx="77" cy="200" r="1.2608255913355553" fill="#4a4aff" opacity="0.682964300980383"/>
    </svg>