<svg xmlns="http://www.w3.org/2000/svg" width="1000" height="1000" viewBox="0 0 1000 1000"><rect width="1000" height="1000" fill="#1a0a2a"/><circle cx="414" cy="953" r="2.087" fill="#fff" opacity=".73"/><circle cx="369" cy="414" r="1.379" fill="#fff" opacity=".942"/><circle cx="886" cy="807" r="1.924" fill="#fff" opacity=".718"/><circle cx="860" cy="364" r="1.38" fill="#fff" opacity=".299"/><circle cx="530" cy="307" r="1.407" fill="#fff" opacity=".718"/><circle cx="812" cy="680" r="2.45" fill="#fff" opacity=".348"/><circle cx="334" cy="65" r="1.36" fill="#fff" opacity=".408"/><circle cx="377" cy="572" r="1.807" fill="#fff" opacity=".391"/><circle cx="116" cy="321" r="2.103" fill="#fff" opacity=".262"/><circle cx="873" cy="205" r=".573" fill="#fff" opacity=".883"/><circle cx="873" cy="72" r="2.273" fill="#fff" opacity=".598"/><circle cx="949" cy="451" r="1.714" fill="#fff" opacity=".606"/><circle cx="206" cy="234" r="1.994" fill="#fff" opacity=".517"/><circle cx="46" cy="379" r="2.441" fill="#fff" opacity=".472"/><circle cx="470" cy="119" r=".512" fill="#fff" opacity=".673"/><circle cx="200" cy="77" r="1.325" fill="#fff" opacity=".79"/><circle cx="174" cy="187" r=".613" fill="#fff" opacity=".733"/><circle cx="150" cy="978" r="1.945" fill="#fff" opacity=".268"/><circle cx="657" cy="671" r="2.096" fill="#fff" opacity=".582"/><circle cx="89" cy="742" r="2.408" fill="#fff" opacity=".869"/><circle cx="455" cy="419" r="2.361" fill="#fff" opacity=".549"/><circle cx="483" cy="911" r="1.244" fill="#fff" opacity=".312"/><circle cx="64" cy="773" r=".865" fill="#fff" opacity=".284"/><circle cx="631" cy="231" r="1.099" fill="#fff" opacity=".987"/><circle cx="295" cy="251" r="2.282" fill="#fff" opacity=".368"/><circle cx="228" cy="39" r="2.067" fill="#fff" opacity=".526"/><circle cx="461" cy="317" r="2.313" fill="#fff" opacity=".299"/><circle cx="485" cy="91" r="2.366" fill="#fff" opacity=".829"/><circle cx="236" cy="970" r="1.374" fill="#fff" opacity=".975"/><circle cx="889" cy="88" r="1.302" fill="#fff" opacity=".666"/><circle cx="313" cy="143" r="1.52" fill="#fff" opacity=".363"/><circle cx="741" cy="913" r="1.812" fill="#fff" opacity=".406"/><circle cx="593" cy="162" r="1.955" fill="#fff" opacity=".978"/><circle cx="903" cy="720" r="1.564" fill="#fff" opacity=".781"/><circle cx="558" cy="441" r="1.467" fill="#fff" opacity=".229"/><circle cx="349" cy="357" r=".945" fill="#fff" opacity=".875"/><circle cx="301" cy="70" r="1.776" fill="#fff" opacity=".738"/><circle cx="795" cy="961" r="1.334" fill="#fff" opacity=".588"/><circle cx="741" cy="586" r=".767" fill="#fff" opacity=".711"/><circle cx="625" cy="177" r=".588" fill="#fff" opacity=".585"/><circle cx="233" cy="337" r="1.176" fill="#fff" opacity=".732"/><circle cx="137" cy="572" r="2.309" fill="#fff" opacity=".475"/><circle cx="447" cy="61" r=".68" fill="#fff" opacity=".596"/><circle cx="276" cy="972" r=".691" fill="#fff" opacity=".247"/><circle cx="698" cy="13" r="1.742" fill="#fff" opacity=".637"/><circle cx="458" cy="436" r="2.04" fill="#fff" opacity=".8"/><circle cx="849" cy="163" r=".623" fill="#fff" opacity=".425"/><circle cx="118" cy="557" r="1.793" fill="#fff" opacity=".881"/><circle cx="768" cy="972" r="2.457" fill="#fff" opacity=".532"/><circle cx="654" cy="830" r="1.188" fill="#fff" opacity=".425"/><circle cx="579" cy="208" r="2.019" fill="#fff" opacity=".627"/><circle cx="300" cy="815" r=".784" fill="#fff" opacity=".737"/><circle cx="557" cy="506" r="1.114" fill="#fff" opacity=".899"/><circle cx="865" cy="620" r="1.773" fill="#fff" opacity=".232"/><circle cx="259" cy="591" r="1.896" fill="#fff" opacity=".697"/><circle cx="191" cy="901" r="1.46" fill="#fff" opacity=".491"/><circle cx="360" cy="445" r="2.25" fill="#fff" opacity=".89"/><circle cx="657" cy="605" r="2.194" fill="#fff" opacity=".514"/><circle cx="798" cy="435" r="1.243" fill="#fff" opacity=".227"/><circle cx="621" cy="885" r="2.125" fill="#fff" opacity=".248"/><circle cx="976" cy="214" r="1.715" fill="#fff" opacity=".204"/><circle cx="950" cy="897" r="1.173" fill="#fff" opacity=".41"/><circle cx="31" cy="363" r=".797" fill="#fff" opacity=".573"/><circle cx="452" cy="879" r="2.225" fill="#fff" opacity=".614"/><circle cx="245" cy="616" r="1.731" fill="#fff" opacity=".567"/><circle cx="225" cy="831" r="2.142" fill="#fff" opacity=".232"/><circle cx="484" cy="209" r="2.401" fill="#fff" opacity=".501"/><circle cx="43" cy="812" r="1.763" fill="#fff" opacity=".643"/><circle cx="645" cy="429" r="2.14" fill="#fff" opacity=".565"/><circle cx="103" cy="609" r=".952" fill="#fff" opacity=".916"/><circle cx="964" cy="453" r="1.555" fill="#fff" opacity=".829"/><circle cx="304" cy="652" r="2.258" fill="#fff" opacity=".673"/><circle cx="426" cy="884" r="1.525" fill="#fff" opacity=".76"/><circle cx="499" cy="307" r="2.468" fill="#fff" opacity=".292"/><circle cx="4" cy="31" r=".802" fill="#fff" opacity=".33"/><circle cx="964" cy="752" r="1.042" fill="#fff" opacity=".909"/><circle cx="732" cy="65" r="1.912" fill="#fff" opacity=".431"/><circle cx="162" cy="329" r="2.314" fill="#fff" opacity=".886"/><circle cx="285" cy="648" r="1.146" fill="#fff" opacity=".348"/><circle cx="50" cy="268" r="1.139" fill="#fff" opacity=".564"/><circle cx="449" cy="360" r="1.117" fill="#fff" opacity=".248"/><circle cx="249" cy="817" r=".913" fill="#fff" opacity=".927"/><circle cx="825" cy="637" r="2.167" fill="#fff" opacity=".436"/><circle cx="945" cy="593" r="2.469" fill="#fff" opacity=".495"/><circle cx="193" cy="305" r="1.992" fill="#fff" opacity=".795"/><circle cx="889" cy="475" r="1.556" fill="#fff" opacity=".628"/><circle cx="624" cy="618" r="1.465" fill="#fff" opacity=".956"/><circle cx="754" cy="406" r="2.012" fill="#fff" opacity=".957"/><circle cx="240" cy="314" r="2.3" fill="#fff" opacity=".408"/><circle cx="608" cy="21" r="1.09" fill="#fff" opacity=".257"/><circle cx="556" cy="77" r="1.053" fill="#fff" opacity=".964"/><circle cx="811" cy="816" r="1.666" fill="#fff" opacity=".871"/><circle cx="575" cy="894" r="1.413" fill="#fff" opacity=".548"/><circle cx="616" cy="793" r="1.703" fill="#fff" opacity=".757"/><circle cx="907" cy="776" r="1.264" fill="#fff" opacity=".889"/><circle cx="168" cy="397" r="1.133" fill="#fff" opacity=".448"/><circle cx="296" cy="240" r="1.422" fill="#fff" opacity=".616"/><circle cx="84" cy="234" r="1.956" fill="#fff" opacity=".755"/><circle cx="704" cy="496" r="1.369" fill="#fff" opacity=".637"/><circle cx="288" cy="241" r="1.341" fill="#fff" opacity=".921"/><circle cx="212" cy="213" r="1.209" fill="#fff" opacity=".226"/><circle cx="395" cy="706" r="2.294" fill="#fff" opacity=".734"/><circle cx="183" cy="149" r="1.014" fill="#fff" opacity=".214"/><circle cx="922" cy="46" r="2.433" fill="#fff" opacity=".706"/><circle cx="407" cy="74" r="1.506" fill="#fff" opacity=".948"/><circle cx="600" cy="996" r=".89" fill="#fff" opacity=".211"/><circle cx="333" cy="740" r="1.16" fill="#fff" opacity=".271"/><circle cx="604" cy="393" r=".735" fill="#fff" opacity=".816"/><circle cx="647" cy="475" r="1.034" fill="#fff" opacity=".91"/><circle cx="443" cy="539" r="1.114" fill="#fff" opacity=".437"/><circle cx="946" cy="887" r="1.629" fill="#fff" opacity=".232"/><circle cx="452" cy="82" r=".974" fill="#fff" opacity=".839"/><circle cx="817" cy="920" r=".914" fill="#fff" opacity=".666"/><circle cx="181" cy="549" r="1.744" fill="#fff" opacity=".834"/><circle cx="482" cy="374" r=".965" fill="#fff" opacity=".911"/><circle cx="529" cy="579" r="1.882" fill="#fff" opacity=".339"/><circle cx="796" cy="278" r=".711" fill="#fff" opacity=".753"/><circle cx="511" cy="134" r=".887" fill="#fff" opacity=".67"/><circle cx="44" cy="116" r=".921" fill="#fff" opacity=".289"/><circle cx="983" cy="865" r=".545" fill="#fff" opacity=".345"/><circle cx="657" cy="253" r="2.268" fill="#fff" opacity=".405"/><circle cx="862" cy="72" r="2.163" fill="#fff" opacity=".203"/><circle cx="522" cy="283" r="1.044" fill="#fff" opacity=".931"/><circle cx="290" cy="570" r="1.158" fill="#fff" opacity=".34"/><circle cx="240" cy="276" r=".86" fill="#fff" opacity=".868"/><circle cx="683" cy="231" r="1.223" fill="#fff" opacity=".886"/><circle cx="626" cy="308" r="1.706" fill="#fff" opacity=".835"/><circle cx="977" cy="575" r="1.181" fill="#fff" opacity=".781"/><circle cx="734" cy="856" r="1.057" fill="#fff" opacity=".255"/><circle cx="405" cy="794" r="1.268" fill="#fff" opacity=".444"/><circle cx="573" cy="870" r="2.402" fill="#fff" opacity=".535"/><circle cx="269" cy="149" r="1.848" fill="#fff" opacity=".683"/><circle cx="379" cy="540" r="1.045" fill="#fff" opacity=".333"/><circle cx="869" cy="747" r="1.477" fill="#fff" opacity=".385"/><circle cx="866" cy="694" r=".858" fill="#fff" opacity=".766"/><circle cx="989" cy="830" r="1.381" fill="#fff" opacity=".791"/><circle cx="855" cy="348" r=".735" fill="#fff" opacity=".814"/><circle cx="95" cy="331" r="1.992" fill="#fff" opacity=".465"/><circle cx="260" cy="113" r="1.602" fill="#fff" opacity=".223"/><circle cx="110" cy="206" r=".563" fill="#fff" opacity=".425"/><circle cx="751" cy="849" r="2.205" fill="#fff" opacity=".562"/><circle cx="998" cy="699" r="2.426" fill="#fff" opacity=".854"/><circle cx="821" cy="90" r="1.003" fill="#fff" opacity=".762"/><circle cx="109" cy="276" r="1.791" fill="#fff" opacity=".498"/><circle cx="737" cy="345" r="2.066" fill="#fff" opacity=".911"/><circle cx="965" cy="916" r="1.589" fill="#fff" opacity=".759"/><circle cx="480" cy="436" r=".81" fill="#fff" opacity=".989"/><circle cx="853" cy="286" r=".7" fill="#fff" opacity=".531"/><circle cx="755" cy="644" r="1.541" fill="#fff" opacity=".557"/><circle cx="18" cy="354" r="1.088" fill="#fff" opacity=".24"/><circle cx="186" cy="129" r="2.235" fill="#fff" opacity=".623"/><circle cx="117" cy="672" r=".731" fill="#fff" opacity=".272"/><circle cx="81" cy="596" r="2.174" fill="#fff" opacity=".605"/><circle cx="802" cy="799" r="2.49" fill="#fff" opacity=".45"/><circle cx="291" cy="21" r=".568" fill="#fff" opacity=".838"/><circle cx="220" cy="432" r="2.298" fill="#fff" opacity=".917"/><circle cx="217" cy="160" r="1.518" fill="#fff" opacity=".823"/><circle cx="287" cy="262" r=".938" fill="#fff" opacity=".264"/><circle cx="349" cy="984" r=".578" fill="#fff" opacity=".723"/><circle cx="621" cy="824" r="1.85" fill="#fff" opacity=".622"/><circle cx="294" cy="409" r=".829" fill="#fff" opacity=".507"/><circle cx="609" cy="656" r=".833" fill="#fff" opacity=".225"/><circle cx="297" cy="83" r="1.63" fill="#fff" opacity=".302"/><circle cx="833" cy="661" r=".505" fill="#fff" opacity=".354"/><circle cx="559" cy="484" r="1.162" fill="#fff" opacity=".868"/><circle cx="811" cy="286" r=".977" fill="#fff" opacity=".967"/><circle cx="461" cy="446" r="1.698" fill="#fff" opacity=".787"/><circle cx="659" cy="890" r="2.353" fill="#fff" opacity=".993"/><circle cx="211" cy="21" r=".67" fill="#fff" opacity=".74"/><circle cx="773" cy="71" r="2.33" fill="#fff" opacity=".731"/><circle cx="266" cy="963" r="2.302" fill="#fff" opacity=".41"/><circle cx="235" cy="317" r="1.99" fill="#fff" opacity=".687"/><circle cx="65" cy="618" r="1.496" fill="#fff" opacity=".493"/><circle cx="312" cy="530" r="2.161" fill="#fff" opacity=".52"/><circle cx="901" cy="556" r="2.051" fill="#fff" opacity=".705"/><circle cx="760" cy="854" r="1.755" fill="#fff" opacity=".823"/><circle cx="571" cy="280" r=".744" fill="#fff" opacity=".371"/><circle cx="886" cy="755" r="1.438" fill="#fff" opacity=".925"/><circle cx="735" cy="911" r=".621" fill="#fff" opacity=".81"/><circle cx="92" cy="248" r="1.856" fill="#fff" opacity=".532"/><circle cx="863" cy="703" r=".736" fill="#fff" opacity=".924"/><circle cx="290" cy="950" r="1.57" fill="#fff" opacity=".865"/><circle cx="442" cy="540" r="2.165" fill="#fff" opacity=".62"/><circle cx="60" cy="511" r="1.356" fill="#fff" opacity=".659"/><circle cx="291" cy="254" r=".919" fill="#fff" opacity=".971"/><circle cx="511" cy="104" r="1.718" fill="#fff" opacity=".247"/><circle cx="482" cy="672" r="2.36" fill="#fff" opacity=".57"/><circle cx="489" cy="267" r="1.817" fill="#fff" opacity=".853"/><circle cx="405" cy="969" r="2.038" fill="#fff" opacity=".26"/><circle cx="610" cy="292" r="1.496" fill="#fff" opacity=".649"/><circle cx="570" cy="290" r="1.387" fill="#fff" opacity=".306"/><circle cx="807" cy="689" r="1.423" fill="#fff" opacity=".351"/><circle cx="312" cy="685" r=".937" fill="#fff" opacity=".205"/><circle cx="315" cy="199" r="1.802" fill="#fff" opacity=".687"/><circle cx="106" cy="703" r=".679" fill="#fff" opacity=".627"/><circle cx="987" cy="365" r="2.091" fill="#fff" opacity=".589"/><circle cx="75" cy="708" r="1.843" fill="#fff" opacity=".621"/><circle cx="182" cy="727" r=".503" fill="#fff" opacity=".995"/><circle cx="658" cy="567" r=".899" fill="#fff" opacity=".311"/><circle cx="478" cy="57" r="1.582" fill="#fff" opacity=".291"/><circle cx="438" cy="263" r="3.658" fill="#aa4aff" opacity=".566"/><circle cx="225" cy="474" r="3.391" fill="#aa4aff" opacity=".33"/><circle cx="125" cy="176" r="3.799" fill="#aa4aff" opacity=".382"/><circle cx="490" cy="578" r="1.777" fill="#aa4aff" opacity=".451"/><circle cx="669" cy="892" r="2.54" fill="#aa4aff" opacity=".247"/><circle cx="509" cy="796" r="1.48" fill="#aa4aff" opacity=".412"/><circle cx="124" cy="424" r="1.903" fill="#aa4aff" opacity=".245"/><circle cx="279" cy="391" r="3.937" fill="#aa4aff" opacity=".351"/><circle cx="109" cy="990" r="1.891" fill="#aa4aff" opacity=".315"/><circle cx="545" cy="792" r="2.45" fill="#aa4aff" opacity=".785"/><circle cx="714" cy="817" r="1.69" fill="#aa4aff" opacity=".718"/><circle cx="980" cy="195" r="3.678" fill="#aa4aff" opacity=".741"/><circle cx="294" cy="725" r="2.878" fill="#aa4aff" opacity=".571"/><circle cx="402" cy="669" r="2.538" fill="#aa4aff" opacity=".78"/><circle cx="10" cy="976" r="3.029" fill="#aa4aff" opacity=".753"/><circle cx="101" cy="726" r="2.26" fill="#aa4aff" opacity=".96"/><circle cx="317" cy="114" r="2.593" fill="#aa4aff" opacity=".358"/><circle cx="615" cy="266" r="1.934" fill="#aa4aff" opacity=".63"/><circle cx="517" cy="622" r="3.356" fill="#aa4aff" opacity=".904"/><circle cx="662" cy="321" r="2.713" fill="#aa4aff" opacity=".542"/><circle cx="472" cy="653" r="3.658" fill="#aa4aff" opacity=".88"/><circle cx="540" cy="901" r="1.128" fill="#aa4aff" opacity=".753"/><circle cx="373" cy="430" r="3.956" fill="#aa4aff" opacity=".767"/><circle cx="64" cy="807" r="1.882" fill="#aa4aff" opacity=".62"/><circle cx="426" cy="689" r="3.048" fill="#aa4aff" opacity=".421"/><circle cx="524" cy="524" r="3.993" fill="#aa4aff" opacity=".505"/><circle cx="470" cy="960" r="2.17" fill="#aa4aff" opacity=".316"/><circle cx="322" cy="325" r="2.42" fill="#aa4aff" opacity=".326"/><circle cx="932" cy="589" r="1.353" fill="#aa4aff" opacity=".985"/><circle cx="697" cy="730" r="3.728" fill="#aa4aff" opacity=".626"/><circle cx="231" cy="143" r="3.069" fill="#aa4aff" opacity=".336"/><circle cx="505" cy="440" r="1.182" fill="#aa4aff" opacity=".984"/><circle cx="406" cy="958" r="2.893" fill="#aa4aff" opacity=".688"/><circle cx="735" cy="951" r="3.508" fill="#aa4aff" opacity=".246"/><circle cx="117" cy="853" r="2.624" fill="#aa4aff" opacity=".606"/><circle cx="149" cy="884" r="1.918" fill="#aa4aff" opacity=".25"/><circle cx="362" cy="285" r="1.105" fill="#aa4aff" opacity=".596"/><circle cx="942" cy="748" r="1.176" fill="#aa4aff" opacity=".41"/><circle cx="471" cy="720" r="2.757" fill="#aa4aff" opacity=".416"/><circle cx="222" cy="441" r="2.514" fill="#aa4aff" opacity=".947"/><circle cx="136" cy="335" r="2.124" fill="#aa4aff" opacity=".84"/><circle cx="493" cy="83" r="3.893" fill="#aa4aff" opacity=".709"/><circle cx="954" cy="724" r="3.515" fill="#aa4aff" opacity=".252"/><circle cx="591" cy="755" r="3.623" fill="#aa4aff" opacity=".591"/><circle cx="884" cy="251" r="3.811" fill="#aa4aff" opacity=".875"/><circle cx="135" cy="758" r="2.438" fill="#aa4aff" opacity=".508"/><circle cx="689" cy="459" r="1.383" fill="#aa4aff" opacity=".245"/><circle cx="385" cy="843" r="2.283" fill="#aa4aff" opacity=".44"/><circle cx="864" cy="85" r="1.435" fill="#aa4aff" opacity=".947"/><circle cx="595" cy="298" r="2.181" fill="#aa4aff" opacity=".41"/></svg>